<?xml version="1.0" encoding="utf-8" standalone="no"?>
<!DOCTYPE svg PUBLIC "-//W3C//DTD SVG 1.1//EN"
  "http://www.w3.org/Graphics/SVG/1.1/DTD/svg11.dtd">
<svg xmlns:xlink="http://www.w3.org/1999/xlink" width="720pt" height="432pt" viewBox="0 0 720 432" xmlns="http://www.w3.org/2000/svg" version="1.1">
 <metadata>
  <rdf:RDF xmlns:dc="http://purl.org/dc/elements/1.1/" xmlns:cc="http://creativecommons.org/ns#" xmlns:rdf="http://www.w3.org/1999/02/22-rdf-syntax-ns#">
   <cc:Work>
    <dc:type rdf:resource="http://purl.org/dc/dcmitype/StillImage"/>
    <dc:date>2024-06-02T10:42:16.836311</dc:date>
    <dc:format>image/svg+xml</dc:format>
    <dc:creator>
     <cc:Agent>
      <dc:title>Matplotlib v3.8.4, https://matplotlib.org/</dc:title>
     </cc:Agent>
    </dc:creator>
   </cc:Work>
  </rdf:RDF>
 </metadata>
 <defs>
  <style type="text/css">*{stroke-linejoin: round; stroke-linecap: butt}</style>
 </defs>
 <g id="figure_1">
  <g id="patch_1">
   <path d="M 0 432 
L 720 432 
L 720 0 
L 0 0 
z
" style="fill: #ffffff"/>
  </g>
  <g id="axes_1">
   <g id="patch_2">
    <path d="M 50.137685 390.04 
L 709.2 390.04 
L 709.2 26.88 
L 50.137685 26.88 
z
" style="fill: #ffffff"/>
   </g>
   <g id="PolyCollection_1"/>
   <g id="PolyCollection_2"/>
   <g id="PolyCollection_3"/>
   <g id="PolyCollection_4"/>
   <g id="PolyCollection_5"/>
   <g id="matplotlib.axis_1">
    <g id="xtick_1">
     <g id="line2d_1">
      <path d="M 79.495315 390.04 
L 79.495315 26.88 
" clip-path="url(#p6b2df8fca3)" style="fill: none; stroke: #b0b0b0; stroke-width: 0.8; stroke-linecap: square"/>
     </g>
     <g id="line2d_2">
      <defs>
       <path id="m8998ea54ac" d="M 0 0 
L 0 3.5 
" style="stroke: #000000; stroke-width: 0.8"/>
      </defs>
      <g>
       <use xlink:href="#m8998ea54ac" x="79.495315" y="390.04" style="stroke: #000000; stroke-width: 0.8"/>
      </g>
     </g>
     <g id="text_1">
      <!-- 0 -->
      <g transform="translate(76.314065 404.638438) scale(0.1 -0.1)">
       <defs>
        <path id="DejaVuSans-30" d="M 2034 4250 
Q 1547 4250 1301 3770 
Q 1056 3291 1056 2328 
Q 1056 1369 1301 889 
Q 1547 409 2034 409 
Q 2525 409 2770 889 
Q 3016 1369 3016 2328 
Q 3016 3291 2770 3770 
Q 2525 4250 2034 4250 
z
M 2034 4750 
Q 2819 4750 3233 4129 
Q 3647 3509 3647 2328 
Q 3647 1150 3233 529 
Q 2819 -91 2034 -91 
Q 1250 -91 836 529 
Q 422 1150 422 2328 
Q 422 3509 836 4129 
Q 1250 4750 2034 4750 
z
" transform="scale(0.015625)"/>
       </defs>
       <use xlink:href="#DejaVuSans-30"/>
      </g>
     </g>
    </g>
    <g id="xtick_2">
     <g id="line2d_3">
      <path d="M 199.444777 390.04 
L 199.444777 26.88 
" clip-path="url(#p6b2df8fca3)" style="fill: none; stroke: #b0b0b0; stroke-width: 0.8; stroke-linecap: square"/>
     </g>
     <g id="line2d_4">
      <g>
       <use xlink:href="#m8998ea54ac" x="199.444777" y="390.04" style="stroke: #000000; stroke-width: 0.8"/>
      </g>
     </g>
     <g id="text_2">
      <!-- 200 -->
      <g transform="translate(189.901027 404.638438) scale(0.1 -0.1)">
       <defs>
        <path id="DejaVuSans-32" d="M 1228 531 
L 3431 531 
L 3431 0 
L 469 0 
L 469 531 
Q 828 903 1448 1529 
Q 2069 2156 2228 2338 
Q 2531 2678 2651 2914 
Q 2772 3150 2772 3378 
Q 2772 3750 2511 3984 
Q 2250 4219 1831 4219 
Q 1534 4219 1204 4116 
Q 875 4013 500 3803 
L 500 4441 
Q 881 4594 1212 4672 
Q 1544 4750 1819 4750 
Q 2544 4750 2975 4387 
Q 3406 4025 3406 3419 
Q 3406 3131 3298 2873 
Q 3191 2616 2906 2266 
Q 2828 2175 2409 1742 
Q 1991 1309 1228 531 
z
" transform="scale(0.015625)"/>
       </defs>
       <use xlink:href="#DejaVuSans-32"/>
       <use xlink:href="#DejaVuSans-30" x="63.623047"/>
       <use xlink:href="#DejaVuSans-30" x="127.246094"/>
      </g>
     </g>
    </g>
    <g id="xtick_3">
     <g id="line2d_5">
      <path d="M 319.394238 390.04 
L 319.394238 26.88 
" clip-path="url(#p6b2df8fca3)" style="fill: none; stroke: #b0b0b0; stroke-width: 0.8; stroke-linecap: square"/>
     </g>
     <g id="line2d_6">
      <g>
       <use xlink:href="#m8998ea54ac" x="319.394238" y="390.04" style="stroke: #000000; stroke-width: 0.8"/>
      </g>
     </g>
     <g id="text_3">
      <!-- 400 -->
      <g transform="translate(309.850488 404.638438) scale(0.1 -0.1)">
       <defs>
        <path id="DejaVuSans-34" d="M 2419 4116 
L 825 1625 
L 2419 1625 
L 2419 4116 
z
M 2253 4666 
L 3047 4666 
L 3047 1625 
L 3713 1625 
L 3713 1100 
L 3047 1100 
L 3047 0 
L 2419 0 
L 2419 1100 
L 313 1100 
L 313 1709 
L 2253 4666 
z
" transform="scale(0.015625)"/>
       </defs>
       <use xlink:href="#DejaVuSans-34"/>
       <use xlink:href="#DejaVuSans-30" x="63.623047"/>
       <use xlink:href="#DejaVuSans-30" x="127.246094"/>
      </g>
     </g>
    </g>
    <g id="xtick_4">
     <g id="line2d_7">
      <path d="M 439.343699 390.04 
L 439.343699 26.88 
" clip-path="url(#p6b2df8fca3)" style="fill: none; stroke: #b0b0b0; stroke-width: 0.8; stroke-linecap: square"/>
     </g>
     <g id="line2d_8">
      <g>
       <use xlink:href="#m8998ea54ac" x="439.343699" y="390.04" style="stroke: #000000; stroke-width: 0.8"/>
      </g>
     </g>
     <g id="text_4">
      <!-- 600 -->
      <g transform="translate(429.799949 404.638438) scale(0.1 -0.1)">
       <defs>
        <path id="DejaVuSans-36" d="M 2113 2584 
Q 1688 2584 1439 2293 
Q 1191 2003 1191 1497 
Q 1191 994 1439 701 
Q 1688 409 2113 409 
Q 2538 409 2786 701 
Q 3034 994 3034 1497 
Q 3034 2003 2786 2293 
Q 2538 2584 2113 2584 
z
M 3366 4563 
L 3366 3988 
Q 3128 4100 2886 4159 
Q 2644 4219 2406 4219 
Q 1781 4219 1451 3797 
Q 1122 3375 1075 2522 
Q 1259 2794 1537 2939 
Q 1816 3084 2150 3084 
Q 2853 3084 3261 2657 
Q 3669 2231 3669 1497 
Q 3669 778 3244 343 
Q 2819 -91 2113 -91 
Q 1303 -91 875 529 
Q 447 1150 447 2328 
Q 447 3434 972 4092 
Q 1497 4750 2381 4750 
Q 2619 4750 2861 4703 
Q 3103 4656 3366 4563 
z
" transform="scale(0.015625)"/>
       </defs>
       <use xlink:href="#DejaVuSans-36"/>
       <use xlink:href="#DejaVuSans-30" x="63.623047"/>
       <use xlink:href="#DejaVuSans-30" x="127.246094"/>
      </g>
     </g>
    </g>
    <g id="xtick_5">
     <g id="line2d_9">
      <path d="M 559.293161 390.04 
L 559.293161 26.88 
" clip-path="url(#p6b2df8fca3)" style="fill: none; stroke: #b0b0b0; stroke-width: 0.8; stroke-linecap: square"/>
     </g>
     <g id="line2d_10">
      <g>
       <use xlink:href="#m8998ea54ac" x="559.293161" y="390.04" style="stroke: #000000; stroke-width: 0.8"/>
      </g>
     </g>
     <g id="text_5">
      <!-- 800 -->
      <g transform="translate(549.749411 404.638438) scale(0.1 -0.1)">
       <defs>
        <path id="DejaVuSans-38" d="M 2034 2216 
Q 1584 2216 1326 1975 
Q 1069 1734 1069 1313 
Q 1069 891 1326 650 
Q 1584 409 2034 409 
Q 2484 409 2743 651 
Q 3003 894 3003 1313 
Q 3003 1734 2745 1975 
Q 2488 2216 2034 2216 
z
M 1403 2484 
Q 997 2584 770 2862 
Q 544 3141 544 3541 
Q 544 4100 942 4425 
Q 1341 4750 2034 4750 
Q 2731 4750 3128 4425 
Q 3525 4100 3525 3541 
Q 3525 3141 3298 2862 
Q 3072 2584 2669 2484 
Q 3125 2378 3379 2068 
Q 3634 1759 3634 1313 
Q 3634 634 3220 271 
Q 2806 -91 2034 -91 
Q 1263 -91 848 271 
Q 434 634 434 1313 
Q 434 1759 690 2068 
Q 947 2378 1403 2484 
z
M 1172 3481 
Q 1172 3119 1398 2916 
Q 1625 2713 2034 2713 
Q 2441 2713 2670 2916 
Q 2900 3119 2900 3481 
Q 2900 3844 2670 4047 
Q 2441 4250 2034 4250 
Q 1625 4250 1398 4047 
Q 1172 3844 1172 3481 
z
" transform="scale(0.015625)"/>
       </defs>
       <use xlink:href="#DejaVuSans-38"/>
       <use xlink:href="#DejaVuSans-30" x="63.623047"/>
       <use xlink:href="#DejaVuSans-30" x="127.246094"/>
      </g>
     </g>
    </g>
    <g id="xtick_6">
     <g id="line2d_11">
      <path d="M 679.242622 390.04 
L 679.242622 26.88 
" clip-path="url(#p6b2df8fca3)" style="fill: none; stroke: #b0b0b0; stroke-width: 0.8; stroke-linecap: square"/>
     </g>
     <g id="line2d_12">
      <g>
       <use xlink:href="#m8998ea54ac" x="679.242622" y="390.04" style="stroke: #000000; stroke-width: 0.8"/>
      </g>
     </g>
     <g id="text_6">
      <!-- 1000 -->
      <g transform="translate(666.517622 404.638438) scale(0.1 -0.1)">
       <defs>
        <path id="DejaVuSans-31" d="M 794 531 
L 1825 531 
L 1825 4091 
L 703 3866 
L 703 4441 
L 1819 4666 
L 2450 4666 
L 2450 531 
L 3481 531 
L 3481 0 
L 794 0 
L 794 531 
z
" transform="scale(0.015625)"/>
       </defs>
       <use xlink:href="#DejaVuSans-31"/>
       <use xlink:href="#DejaVuSans-30" x="63.623047"/>
       <use xlink:href="#DejaVuSans-30" x="127.246094"/>
       <use xlink:href="#DejaVuSans-30" x="190.869141"/>
      </g>
     </g>
    </g>
    <g id="text_7">
     <!-- Generations -->
     <g transform="translate(349.171186 418.316562) scale(0.1 -0.1)">
      <defs>
       <path id="DejaVuSans-47" d="M 3809 666 
L 3809 1919 
L 2778 1919 
L 2778 2438 
L 4434 2438 
L 4434 434 
Q 4069 175 3628 42 
Q 3188 -91 2688 -91 
Q 1594 -91 976 548 
Q 359 1188 359 2328 
Q 359 3472 976 4111 
Q 1594 4750 2688 4750 
Q 3144 4750 3555 4637 
Q 3966 4525 4313 4306 
L 4313 3634 
Q 3963 3931 3569 4081 
Q 3175 4231 2741 4231 
Q 1884 4231 1454 3753 
Q 1025 3275 1025 2328 
Q 1025 1384 1454 906 
Q 1884 428 2741 428 
Q 3075 428 3337 486 
Q 3600 544 3809 666 
z
" transform="scale(0.015625)"/>
       <path id="DejaVuSans-65" d="M 3597 1894 
L 3597 1613 
L 953 1613 
Q 991 1019 1311 708 
Q 1631 397 2203 397 
Q 2534 397 2845 478 
Q 3156 559 3463 722 
L 3463 178 
Q 3153 47 2828 -22 
Q 2503 -91 2169 -91 
Q 1331 -91 842 396 
Q 353 884 353 1716 
Q 353 2575 817 3079 
Q 1281 3584 2069 3584 
Q 2775 3584 3186 3129 
Q 3597 2675 3597 1894 
z
M 3022 2063 
Q 3016 2534 2758 2815 
Q 2500 3097 2075 3097 
Q 1594 3097 1305 2825 
Q 1016 2553 972 2059 
L 3022 2063 
z
" transform="scale(0.015625)"/>
       <path id="DejaVuSans-6e" d="M 3513 2113 
L 3513 0 
L 2938 0 
L 2938 2094 
Q 2938 2591 2744 2837 
Q 2550 3084 2163 3084 
Q 1697 3084 1428 2787 
Q 1159 2491 1159 1978 
L 1159 0 
L 581 0 
L 581 3500 
L 1159 3500 
L 1159 2956 
Q 1366 3272 1645 3428 
Q 1925 3584 2291 3584 
Q 2894 3584 3203 3211 
Q 3513 2838 3513 2113 
z
" transform="scale(0.015625)"/>
       <path id="DejaVuSans-72" d="M 2631 2963 
Q 2534 3019 2420 3045 
Q 2306 3072 2169 3072 
Q 1681 3072 1420 2755 
Q 1159 2438 1159 1844 
L 1159 0 
L 581 0 
L 581 3500 
L 1159 3500 
L 1159 2956 
Q 1341 3275 1631 3429 
Q 1922 3584 2338 3584 
Q 2397 3584 2469 3576 
Q 2541 3569 2628 3553 
L 2631 2963 
z
" transform="scale(0.015625)"/>
       <path id="DejaVuSans-61" d="M 2194 1759 
Q 1497 1759 1228 1600 
Q 959 1441 959 1056 
Q 959 750 1161 570 
Q 1363 391 1709 391 
Q 2188 391 2477 730 
Q 2766 1069 2766 1631 
L 2766 1759 
L 2194 1759 
z
M 3341 1997 
L 3341 0 
L 2766 0 
L 2766 531 
Q 2569 213 2275 61 
Q 1981 -91 1556 -91 
Q 1019 -91 701 211 
Q 384 513 384 1019 
Q 384 1609 779 1909 
Q 1175 2209 1959 2209 
L 2766 2209 
L 2766 2266 
Q 2766 2663 2505 2880 
Q 2244 3097 1772 3097 
Q 1472 3097 1187 3025 
Q 903 2953 641 2809 
L 641 3341 
Q 956 3463 1253 3523 
Q 1550 3584 1831 3584 
Q 2591 3584 2966 3190 
Q 3341 2797 3341 1997 
z
" transform="scale(0.015625)"/>
       <path id="DejaVuSans-74" d="M 1172 4494 
L 1172 3500 
L 2356 3500 
L 2356 3053 
L 1172 3053 
L 1172 1153 
Q 1172 725 1289 603 
Q 1406 481 1766 481 
L 2356 481 
L 2356 0 
L 1766 0 
Q 1100 0 847 248 
Q 594 497 594 1153 
L 594 3053 
L 172 3053 
L 172 3500 
L 594 3500 
L 594 4494 
L 1172 4494 
z
" transform="scale(0.015625)"/>
       <path id="DejaVuSans-69" d="M 603 3500 
L 1178 3500 
L 1178 0 
L 603 0 
L 603 3500 
z
M 603 4863 
L 1178 4863 
L 1178 4134 
L 603 4134 
L 603 4863 
z
" transform="scale(0.015625)"/>
       <path id="DejaVuSans-6f" d="M 1959 3097 
Q 1497 3097 1228 2736 
Q 959 2375 959 1747 
Q 959 1119 1226 758 
Q 1494 397 1959 397 
Q 2419 397 2687 759 
Q 2956 1122 2956 1747 
Q 2956 2369 2687 2733 
Q 2419 3097 1959 3097 
z
M 1959 3584 
Q 2709 3584 3137 3096 
Q 3566 2609 3566 1747 
Q 3566 888 3137 398 
Q 2709 -91 1959 -91 
Q 1206 -91 779 398 
Q 353 888 353 1747 
Q 353 2609 779 3096 
Q 1206 3584 1959 3584 
z
" transform="scale(0.015625)"/>
       <path id="DejaVuSans-73" d="M 2834 3397 
L 2834 2853 
Q 2591 2978 2328 3040 
Q 2066 3103 1784 3103 
Q 1356 3103 1142 2972 
Q 928 2841 928 2578 
Q 928 2378 1081 2264 
Q 1234 2150 1697 2047 
L 1894 2003 
Q 2506 1872 2764 1633 
Q 3022 1394 3022 966 
Q 3022 478 2636 193 
Q 2250 -91 1575 -91 
Q 1294 -91 989 -36 
Q 684 19 347 128 
L 347 722 
Q 666 556 975 473 
Q 1284 391 1588 391 
Q 1994 391 2212 530 
Q 2431 669 2431 922 
Q 2431 1156 2273 1281 
Q 2116 1406 1581 1522 
L 1381 1569 
Q 847 1681 609 1914 
Q 372 2147 372 2553 
Q 372 3047 722 3315 
Q 1072 3584 1716 3584 
Q 2034 3584 2315 3537 
Q 2597 3491 2834 3397 
z
" transform="scale(0.015625)"/>
      </defs>
      <use xlink:href="#DejaVuSans-47"/>
      <use xlink:href="#DejaVuSans-65" x="77.490234"/>
      <use xlink:href="#DejaVuSans-6e" x="139.013672"/>
      <use xlink:href="#DejaVuSans-65" x="202.392578"/>
      <use xlink:href="#DejaVuSans-72" x="263.916016"/>
      <use xlink:href="#DejaVuSans-61" x="305.029297"/>
      <use xlink:href="#DejaVuSans-74" x="366.308594"/>
      <use xlink:href="#DejaVuSans-69" x="405.517578"/>
      <use xlink:href="#DejaVuSans-6f" x="433.300781"/>
      <use xlink:href="#DejaVuSans-6e" x="494.482422"/>
      <use xlink:href="#DejaVuSans-73" x="557.861328"/>
     </g>
    </g>
   </g>
   <g id="matplotlib.axis_2">
    <g id="ytick_1">
     <g id="line2d_13">
      <path d="M 50.137685 354.297619 
L 709.2 354.297619 
" clip-path="url(#p6b2df8fca3)" style="fill: none; stroke: #b0b0b0; stroke-width: 0.8; stroke-linecap: square"/>
     </g>
     <g id="line2d_14">
      <defs>
       <path id="m51df6ffd62" d="M 0 0 
L -3.5 0 
" style="stroke: #000000; stroke-width: 0.8"/>
      </defs>
      <g>
       <use xlink:href="#m51df6ffd62" x="50.137685" y="354.297619" style="stroke: #000000; stroke-width: 0.8"/>
      </g>
     </g>
     <g id="text_8">
      <!-- $\mathdefault{10^{3}}$ -->
      <g transform="translate(25.537685 358.096838) scale(0.1 -0.1)">
       <defs>
        <path id="DejaVuSans-33" d="M 2597 2516 
Q 3050 2419 3304 2112 
Q 3559 1806 3559 1356 
Q 3559 666 3084 287 
Q 2609 -91 1734 -91 
Q 1441 -91 1130 -33 
Q 819 25 488 141 
L 488 750 
Q 750 597 1062 519 
Q 1375 441 1716 441 
Q 2309 441 2620 675 
Q 2931 909 2931 1356 
Q 2931 1769 2642 2001 
Q 2353 2234 1838 2234 
L 1294 2234 
L 1294 2753 
L 1863 2753 
Q 2328 2753 2575 2939 
Q 2822 3125 2822 3475 
Q 2822 3834 2567 4026 
Q 2313 4219 1838 4219 
Q 1578 4219 1281 4162 
Q 984 4106 628 3988 
L 628 4550 
Q 988 4650 1302 4700 
Q 1616 4750 1894 4750 
Q 2613 4750 3031 4423 
Q 3450 4097 3450 3541 
Q 3450 3153 3228 2886 
Q 3006 2619 2597 2516 
z
" transform="scale(0.015625)"/>
       </defs>
       <use xlink:href="#DejaVuSans-31" transform="translate(0 0.765625)"/>
       <use xlink:href="#DejaVuSans-30" transform="translate(63.623047 0.765625)"/>
       <use xlink:href="#DejaVuSans-33" transform="translate(128.203125 39.046875) scale(0.7)"/>
      </g>
     </g>
    </g>
    <g id="ytick_2">
     <g id="line2d_15">
      <path d="M 50.137685 305.260879 
L 709.2 305.260879 
" clip-path="url(#p6b2df8fca3)" style="fill: none; stroke: #b0b0b0; stroke-width: 0.8; stroke-linecap: square"/>
     </g>
     <g id="line2d_16">
      <g>
       <use xlink:href="#m51df6ffd62" x="50.137685" y="305.260879" style="stroke: #000000; stroke-width: 0.8"/>
      </g>
     </g>
     <g id="text_9">
      <!-- $\mathdefault{10^{4}}$ -->
      <g transform="translate(25.537685 309.060098) scale(0.1 -0.1)">
       <use xlink:href="#DejaVuSans-31" transform="translate(0 0.684375)"/>
       <use xlink:href="#DejaVuSans-30" transform="translate(63.623047 0.684375)"/>
       <use xlink:href="#DejaVuSans-34" transform="translate(128.203125 38.965625) scale(0.7)"/>
      </g>
     </g>
    </g>
    <g id="ytick_3">
     <g id="line2d_17">
      <path d="M 50.137685 256.224139 
L 709.2 256.224139 
" clip-path="url(#p6b2df8fca3)" style="fill: none; stroke: #b0b0b0; stroke-width: 0.8; stroke-linecap: square"/>
     </g>
     <g id="line2d_18">
      <g>
       <use xlink:href="#m51df6ffd62" x="50.137685" y="256.224139" style="stroke: #000000; stroke-width: 0.8"/>
      </g>
     </g>
     <g id="text_10">
      <!-- $\mathdefault{10^{5}}$ -->
      <g transform="translate(25.537685 260.023358) scale(0.1 -0.1)">
       <defs>
        <path id="DejaVuSans-35" d="M 691 4666 
L 3169 4666 
L 3169 4134 
L 1269 4134 
L 1269 2991 
Q 1406 3038 1543 3061 
Q 1681 3084 1819 3084 
Q 2600 3084 3056 2656 
Q 3513 2228 3513 1497 
Q 3513 744 3044 326 
Q 2575 -91 1722 -91 
Q 1428 -91 1123 -41 
Q 819 9 494 109 
L 494 744 
Q 775 591 1075 516 
Q 1375 441 1709 441 
Q 2250 441 2565 725 
Q 2881 1009 2881 1497 
Q 2881 1984 2565 2268 
Q 2250 2553 1709 2553 
Q 1456 2553 1204 2497 
Q 953 2441 691 2322 
L 691 4666 
z
" transform="scale(0.015625)"/>
       </defs>
       <use xlink:href="#DejaVuSans-31" transform="translate(0 0.684375)"/>
       <use xlink:href="#DejaVuSans-30" transform="translate(63.623047 0.684375)"/>
       <use xlink:href="#DejaVuSans-35" transform="translate(128.203125 38.965625) scale(0.7)"/>
      </g>
     </g>
    </g>
    <g id="ytick_4">
     <g id="line2d_19">
      <path d="M 50.137685 207.187399 
L 709.2 207.187399 
" clip-path="url(#p6b2df8fca3)" style="fill: none; stroke: #b0b0b0; stroke-width: 0.8; stroke-linecap: square"/>
     </g>
     <g id="line2d_20">
      <g>
       <use xlink:href="#m51df6ffd62" x="50.137685" y="207.187399" style="stroke: #000000; stroke-width: 0.8"/>
      </g>
     </g>
     <g id="text_11">
      <!-- $\mathdefault{10^{6}}$ -->
      <g transform="translate(25.537685 210.986618) scale(0.1 -0.1)">
       <use xlink:href="#DejaVuSans-31" transform="translate(0 0.765625)"/>
       <use xlink:href="#DejaVuSans-30" transform="translate(63.623047 0.765625)"/>
       <use xlink:href="#DejaVuSans-36" transform="translate(128.203125 39.046875) scale(0.7)"/>
      </g>
     </g>
    </g>
    <g id="ytick_5">
     <g id="line2d_21">
      <path d="M 50.137685 158.150659 
L 709.2 158.150659 
" clip-path="url(#p6b2df8fca3)" style="fill: none; stroke: #b0b0b0; stroke-width: 0.8; stroke-linecap: square"/>
     </g>
     <g id="line2d_22">
      <g>
       <use xlink:href="#m51df6ffd62" x="50.137685" y="158.150659" style="stroke: #000000; stroke-width: 0.8"/>
      </g>
     </g>
     <g id="text_12">
      <!-- $\mathdefault{10^{7}}$ -->
      <g transform="translate(25.537685 161.949878) scale(0.1 -0.1)">
       <defs>
        <path id="DejaVuSans-37" d="M 525 4666 
L 3525 4666 
L 3525 4397 
L 1831 0 
L 1172 0 
L 2766 4134 
L 525 4134 
L 525 4666 
z
" transform="scale(0.015625)"/>
       </defs>
       <use xlink:href="#DejaVuSans-31" transform="translate(0 0.684375)"/>
       <use xlink:href="#DejaVuSans-30" transform="translate(63.623047 0.684375)"/>
       <use xlink:href="#DejaVuSans-37" transform="translate(128.203125 38.965625) scale(0.7)"/>
      </g>
     </g>
    </g>
    <g id="ytick_6">
     <g id="line2d_23">
      <path d="M 50.137685 109.113919 
L 709.2 109.113919 
" clip-path="url(#p6b2df8fca3)" style="fill: none; stroke: #b0b0b0; stroke-width: 0.8; stroke-linecap: square"/>
     </g>
     <g id="line2d_24">
      <g>
       <use xlink:href="#m51df6ffd62" x="50.137685" y="109.113919" style="stroke: #000000; stroke-width: 0.8"/>
      </g>
     </g>
     <g id="text_13">
      <!-- $\mathdefault{10^{8}}$ -->
      <g transform="translate(25.537685 112.913137) scale(0.1 -0.1)">
       <use xlink:href="#DejaVuSans-31" transform="translate(0 0.765625)"/>
       <use xlink:href="#DejaVuSans-30" transform="translate(63.623047 0.765625)"/>
       <use xlink:href="#DejaVuSans-38" transform="translate(128.203125 39.046875) scale(0.7)"/>
      </g>
     </g>
    </g>
    <g id="ytick_7">
     <g id="line2d_25">
      <path d="M 50.137685 60.077179 
L 709.2 60.077179 
" clip-path="url(#p6b2df8fca3)" style="fill: none; stroke: #b0b0b0; stroke-width: 0.8; stroke-linecap: square"/>
     </g>
     <g id="line2d_26">
      <g>
       <use xlink:href="#m51df6ffd62" x="50.137685" y="60.077179" style="stroke: #000000; stroke-width: 0.8"/>
      </g>
     </g>
     <g id="text_14">
      <!-- $\mathdefault{10^{9}}$ -->
      <g transform="translate(25.537685 63.876397) scale(0.1 -0.1)">
       <defs>
        <path id="DejaVuSans-39" d="M 703 97 
L 703 672 
Q 941 559 1184 500 
Q 1428 441 1663 441 
Q 2288 441 2617 861 
Q 2947 1281 2994 2138 
Q 2813 1869 2534 1725 
Q 2256 1581 1919 1581 
Q 1219 1581 811 2004 
Q 403 2428 403 3163 
Q 403 3881 828 4315 
Q 1253 4750 1959 4750 
Q 2769 4750 3195 4129 
Q 3622 3509 3622 2328 
Q 3622 1225 3098 567 
Q 2575 -91 1691 -91 
Q 1453 -91 1209 -44 
Q 966 3 703 97 
z
M 1959 2075 
Q 2384 2075 2632 2365 
Q 2881 2656 2881 3163 
Q 2881 3666 2632 3958 
Q 2384 4250 1959 4250 
Q 1534 4250 1286 3958 
Q 1038 3666 1038 3163 
Q 1038 2656 1286 2365 
Q 1534 2075 1959 2075 
z
" transform="scale(0.015625)"/>
       </defs>
       <use xlink:href="#DejaVuSans-31" transform="translate(0 0.765625)"/>
       <use xlink:href="#DejaVuSans-30" transform="translate(63.623047 0.765625)"/>
       <use xlink:href="#DejaVuSans-39" transform="translate(128.203125 39.046875) scale(0.7)"/>
      </g>
     </g>
    </g>
    <g id="ytick_8">
     <g id="line2d_27">
      <defs>
       <path id="m92b3cbd70c" d="M 0 0 
L -2 0 
" style="stroke: #000000; stroke-width: 0.6"/>
      </defs>
      <g>
       <use xlink:href="#m92b3cbd70c" x="50.137685" y="388.572829" style="stroke: #000000; stroke-width: 0.6"/>
      </g>
     </g>
    </g>
    <g id="ytick_9">
     <g id="line2d_28">
      <g>
       <use xlink:href="#m92b3cbd70c" x="50.137685" y="379.937888" style="stroke: #000000; stroke-width: 0.6"/>
      </g>
     </g>
    </g>
    <g id="ytick_10">
     <g id="line2d_29">
      <g>
       <use xlink:href="#m92b3cbd70c" x="50.137685" y="373.8113" style="stroke: #000000; stroke-width: 0.6"/>
      </g>
     </g>
    </g>
    <g id="ytick_11">
     <g id="line2d_30">
      <g>
       <use xlink:href="#m92b3cbd70c" x="50.137685" y="369.059149" style="stroke: #000000; stroke-width: 0.6"/>
      </g>
     </g>
    </g>
    <g id="ytick_12">
     <g id="line2d_31">
      <g>
       <use xlink:href="#m92b3cbd70c" x="50.137685" y="365.176358" style="stroke: #000000; stroke-width: 0.6"/>
      </g>
     </g>
    </g>
    <g id="ytick_13">
     <g id="line2d_32">
      <g>
       <use xlink:href="#m92b3cbd70c" x="50.137685" y="361.893506" style="stroke: #000000; stroke-width: 0.6"/>
      </g>
     </g>
    </g>
    <g id="ytick_14">
     <g id="line2d_33">
      <g>
       <use xlink:href="#m92b3cbd70c" x="50.137685" y="359.04977" style="stroke: #000000; stroke-width: 0.6"/>
      </g>
     </g>
    </g>
    <g id="ytick_15">
     <g id="line2d_34">
      <g>
       <use xlink:href="#m92b3cbd70c" x="50.137685" y="356.541417" style="stroke: #000000; stroke-width: 0.6"/>
      </g>
     </g>
    </g>
    <g id="ytick_16">
     <g id="line2d_35">
      <g>
       <use xlink:href="#m92b3cbd70c" x="50.137685" y="339.536089" style="stroke: #000000; stroke-width: 0.6"/>
      </g>
     </g>
    </g>
    <g id="ytick_17">
     <g id="line2d_36">
      <g>
       <use xlink:href="#m92b3cbd70c" x="50.137685" y="330.901148" style="stroke: #000000; stroke-width: 0.6"/>
      </g>
     </g>
    </g>
    <g id="ytick_18">
     <g id="line2d_37">
      <g>
       <use xlink:href="#m92b3cbd70c" x="50.137685" y="324.77456" style="stroke: #000000; stroke-width: 0.6"/>
      </g>
     </g>
    </g>
    <g id="ytick_19">
     <g id="line2d_38">
      <g>
       <use xlink:href="#m92b3cbd70c" x="50.137685" y="320.022409" style="stroke: #000000; stroke-width: 0.6"/>
      </g>
     </g>
    </g>
    <g id="ytick_20">
     <g id="line2d_39">
      <g>
       <use xlink:href="#m92b3cbd70c" x="50.137685" y="316.139618" style="stroke: #000000; stroke-width: 0.6"/>
      </g>
     </g>
    </g>
    <g id="ytick_21">
     <g id="line2d_40">
      <g>
       <use xlink:href="#m92b3cbd70c" x="50.137685" y="312.856766" style="stroke: #000000; stroke-width: 0.6"/>
      </g>
     </g>
    </g>
    <g id="ytick_22">
     <g id="line2d_41">
      <g>
       <use xlink:href="#m92b3cbd70c" x="50.137685" y="310.01303" style="stroke: #000000; stroke-width: 0.6"/>
      </g>
     </g>
    </g>
    <g id="ytick_23">
     <g id="line2d_42">
      <g>
       <use xlink:href="#m92b3cbd70c" x="50.137685" y="307.504677" style="stroke: #000000; stroke-width: 0.6"/>
      </g>
     </g>
    </g>
    <g id="ytick_24">
     <g id="line2d_43">
      <g>
       <use xlink:href="#m92b3cbd70c" x="50.137685" y="290.499349" style="stroke: #000000; stroke-width: 0.6"/>
      </g>
     </g>
    </g>
    <g id="ytick_25">
     <g id="line2d_44">
      <g>
       <use xlink:href="#m92b3cbd70c" x="50.137685" y="281.864408" style="stroke: #000000; stroke-width: 0.6"/>
      </g>
     </g>
    </g>
    <g id="ytick_26">
     <g id="line2d_45">
      <g>
       <use xlink:href="#m92b3cbd70c" x="50.137685" y="275.73782" style="stroke: #000000; stroke-width: 0.6"/>
      </g>
     </g>
    </g>
    <g id="ytick_27">
     <g id="line2d_46">
      <g>
       <use xlink:href="#m92b3cbd70c" x="50.137685" y="270.985669" style="stroke: #000000; stroke-width: 0.6"/>
      </g>
     </g>
    </g>
    <g id="ytick_28">
     <g id="line2d_47">
      <g>
       <use xlink:href="#m92b3cbd70c" x="50.137685" y="267.102878" style="stroke: #000000; stroke-width: 0.6"/>
      </g>
     </g>
    </g>
    <g id="ytick_29">
     <g id="line2d_48">
      <g>
       <use xlink:href="#m92b3cbd70c" x="50.137685" y="263.820026" style="stroke: #000000; stroke-width: 0.6"/>
      </g>
     </g>
    </g>
    <g id="ytick_30">
     <g id="line2d_49">
      <g>
       <use xlink:href="#m92b3cbd70c" x="50.137685" y="260.97629" style="stroke: #000000; stroke-width: 0.6"/>
      </g>
     </g>
    </g>
    <g id="ytick_31">
     <g id="line2d_50">
      <g>
       <use xlink:href="#m92b3cbd70c" x="50.137685" y="258.467937" style="stroke: #000000; stroke-width: 0.6"/>
      </g>
     </g>
    </g>
    <g id="ytick_32">
     <g id="line2d_51">
      <g>
       <use xlink:href="#m92b3cbd70c" x="50.137685" y="241.462609" style="stroke: #000000; stroke-width: 0.6"/>
      </g>
     </g>
    </g>
    <g id="ytick_33">
     <g id="line2d_52">
      <g>
       <use xlink:href="#m92b3cbd70c" x="50.137685" y="232.827668" style="stroke: #000000; stroke-width: 0.6"/>
      </g>
     </g>
    </g>
    <g id="ytick_34">
     <g id="line2d_53">
      <g>
       <use xlink:href="#m92b3cbd70c" x="50.137685" y="226.70108" style="stroke: #000000; stroke-width: 0.6"/>
      </g>
     </g>
    </g>
    <g id="ytick_35">
     <g id="line2d_54">
      <g>
       <use xlink:href="#m92b3cbd70c" x="50.137685" y="221.948928" style="stroke: #000000; stroke-width: 0.6"/>
      </g>
     </g>
    </g>
    <g id="ytick_36">
     <g id="line2d_55">
      <g>
       <use xlink:href="#m92b3cbd70c" x="50.137685" y="218.066138" style="stroke: #000000; stroke-width: 0.6"/>
      </g>
     </g>
    </g>
    <g id="ytick_37">
     <g id="line2d_56">
      <g>
       <use xlink:href="#m92b3cbd70c" x="50.137685" y="214.783286" style="stroke: #000000; stroke-width: 0.6"/>
      </g>
     </g>
    </g>
    <g id="ytick_38">
     <g id="line2d_57">
      <g>
       <use xlink:href="#m92b3cbd70c" x="50.137685" y="211.93955" style="stroke: #000000; stroke-width: 0.6"/>
      </g>
     </g>
    </g>
    <g id="ytick_39">
     <g id="line2d_58">
      <g>
       <use xlink:href="#m92b3cbd70c" x="50.137685" y="209.431197" style="stroke: #000000; stroke-width: 0.6"/>
      </g>
     </g>
    </g>
    <g id="ytick_40">
     <g id="line2d_59">
      <g>
       <use xlink:href="#m92b3cbd70c" x="50.137685" y="192.425869" style="stroke: #000000; stroke-width: 0.6"/>
      </g>
     </g>
    </g>
    <g id="ytick_41">
     <g id="line2d_60">
      <g>
       <use xlink:href="#m92b3cbd70c" x="50.137685" y="183.790928" style="stroke: #000000; stroke-width: 0.6"/>
      </g>
     </g>
    </g>
    <g id="ytick_42">
     <g id="line2d_61">
      <g>
       <use xlink:href="#m92b3cbd70c" x="50.137685" y="177.66434" style="stroke: #000000; stroke-width: 0.6"/>
      </g>
     </g>
    </g>
    <g id="ytick_43">
     <g id="line2d_62">
      <g>
       <use xlink:href="#m92b3cbd70c" x="50.137685" y="172.912188" style="stroke: #000000; stroke-width: 0.6"/>
      </g>
     </g>
    </g>
    <g id="ytick_44">
     <g id="line2d_63">
      <g>
       <use xlink:href="#m92b3cbd70c" x="50.137685" y="169.029398" style="stroke: #000000; stroke-width: 0.6"/>
      </g>
     </g>
    </g>
    <g id="ytick_45">
     <g id="line2d_64">
      <g>
       <use xlink:href="#m92b3cbd70c" x="50.137685" y="165.746546" style="stroke: #000000; stroke-width: 0.6"/>
      </g>
     </g>
    </g>
    <g id="ytick_46">
     <g id="line2d_65">
      <g>
       <use xlink:href="#m92b3cbd70c" x="50.137685" y="162.90281" style="stroke: #000000; stroke-width: 0.6"/>
      </g>
     </g>
    </g>
    <g id="ytick_47">
     <g id="line2d_66">
      <g>
       <use xlink:href="#m92b3cbd70c" x="50.137685" y="160.394457" style="stroke: #000000; stroke-width: 0.6"/>
      </g>
     </g>
    </g>
    <g id="ytick_48">
     <g id="line2d_67">
      <g>
       <use xlink:href="#m92b3cbd70c" x="50.137685" y="143.389129" style="stroke: #000000; stroke-width: 0.6"/>
      </g>
     </g>
    </g>
    <g id="ytick_49">
     <g id="line2d_68">
      <g>
       <use xlink:href="#m92b3cbd70c" x="50.137685" y="134.754188" style="stroke: #000000; stroke-width: 0.6"/>
      </g>
     </g>
    </g>
    <g id="ytick_50">
     <g id="line2d_69">
      <g>
       <use xlink:href="#m92b3cbd70c" x="50.137685" y="128.627599" style="stroke: #000000; stroke-width: 0.6"/>
      </g>
     </g>
    </g>
    <g id="ytick_51">
     <g id="line2d_70">
      <g>
       <use xlink:href="#m92b3cbd70c" x="50.137685" y="123.875448" style="stroke: #000000; stroke-width: 0.6"/>
      </g>
     </g>
    </g>
    <g id="ytick_52">
     <g id="line2d_71">
      <g>
       <use xlink:href="#m92b3cbd70c" x="50.137685" y="119.992658" style="stroke: #000000; stroke-width: 0.6"/>
      </g>
     </g>
    </g>
    <g id="ytick_53">
     <g id="line2d_72">
      <g>
       <use xlink:href="#m92b3cbd70c" x="50.137685" y="116.709806" style="stroke: #000000; stroke-width: 0.6"/>
      </g>
     </g>
    </g>
    <g id="ytick_54">
     <g id="line2d_73">
      <g>
       <use xlink:href="#m92b3cbd70c" x="50.137685" y="113.86607" style="stroke: #000000; stroke-width: 0.6"/>
      </g>
     </g>
    </g>
    <g id="ytick_55">
     <g id="line2d_74">
      <g>
       <use xlink:href="#m92b3cbd70c" x="50.137685" y="111.357717" style="stroke: #000000; stroke-width: 0.6"/>
      </g>
     </g>
    </g>
    <g id="ytick_56">
     <g id="line2d_75">
      <g>
       <use xlink:href="#m92b3cbd70c" x="50.137685" y="94.352389" style="stroke: #000000; stroke-width: 0.6"/>
      </g>
     </g>
    </g>
    <g id="ytick_57">
     <g id="line2d_76">
      <g>
       <use xlink:href="#m92b3cbd70c" x="50.137685" y="85.717448" style="stroke: #000000; stroke-width: 0.6"/>
      </g>
     </g>
    </g>
    <g id="ytick_58">
     <g id="line2d_77">
      <g>
       <use xlink:href="#m92b3cbd70c" x="50.137685" y="79.590859" style="stroke: #000000; stroke-width: 0.6"/>
      </g>
     </g>
    </g>
    <g id="ytick_59">
     <g id="line2d_78">
      <g>
       <use xlink:href="#m92b3cbd70c" x="50.137685" y="74.838708" style="stroke: #000000; stroke-width: 0.6"/>
      </g>
     </g>
    </g>
    <g id="ytick_60">
     <g id="line2d_79">
      <g>
       <use xlink:href="#m92b3cbd70c" x="50.137685" y="70.955918" style="stroke: #000000; stroke-width: 0.6"/>
      </g>
     </g>
    </g>
    <g id="ytick_61">
     <g id="line2d_80">
      <g>
       <use xlink:href="#m92b3cbd70c" x="50.137685" y="67.673066" style="stroke: #000000; stroke-width: 0.6"/>
      </g>
     </g>
    </g>
    <g id="ytick_62">
     <g id="line2d_81">
      <g>
       <use xlink:href="#m92b3cbd70c" x="50.137685" y="64.82933" style="stroke: #000000; stroke-width: 0.6"/>
      </g>
     </g>
    </g>
    <g id="ytick_63">
     <g id="line2d_82">
      <g>
       <use xlink:href="#m92b3cbd70c" x="50.137685" y="62.320977" style="stroke: #000000; stroke-width: 0.6"/>
      </g>
     </g>
    </g>
    <g id="ytick_64">
     <g id="line2d_83">
      <g>
       <use xlink:href="#m92b3cbd70c" x="50.137685" y="45.315649" style="stroke: #000000; stroke-width: 0.6"/>
      </g>
     </g>
    </g>
    <g id="ytick_65">
     <g id="line2d_84">
      <g>
       <use xlink:href="#m92b3cbd70c" x="50.137685" y="36.680708" style="stroke: #000000; stroke-width: 0.6"/>
      </g>
     </g>
    </g>
    <g id="ytick_66">
     <g id="line2d_85">
      <g>
       <use xlink:href="#m92b3cbd70c" x="50.137685" y="30.554119" style="stroke: #000000; stroke-width: 0.6"/>
      </g>
     </g>
    </g>
    <g id="text_15">
     <!-- Fitness (log scale) -->
     <g transform="translate(19.457997 253.363125) rotate(-90) scale(0.1 -0.1)">
      <defs>
       <path id="DejaVuSans-46" d="M 628 4666 
L 3309 4666 
L 3309 4134 
L 1259 4134 
L 1259 2759 
L 3109 2759 
L 3109 2228 
L 1259 2228 
L 1259 0 
L 628 0 
L 628 4666 
z
" transform="scale(0.015625)"/>
       <path id="DejaVuSans-20" transform="scale(0.015625)"/>
       <path id="DejaVuSans-28" d="M 1984 4856 
Q 1566 4138 1362 3434 
Q 1159 2731 1159 2009 
Q 1159 1288 1364 580 
Q 1569 -128 1984 -844 
L 1484 -844 
Q 1016 -109 783 600 
Q 550 1309 550 2009 
Q 550 2706 781 3412 
Q 1013 4119 1484 4856 
L 1984 4856 
z
" transform="scale(0.015625)"/>
       <path id="DejaVuSans-6c" d="M 603 4863 
L 1178 4863 
L 1178 0 
L 603 0 
L 603 4863 
z
" transform="scale(0.015625)"/>
       <path id="DejaVuSans-67" d="M 2906 1791 
Q 2906 2416 2648 2759 
Q 2391 3103 1925 3103 
Q 1463 3103 1205 2759 
Q 947 2416 947 1791 
Q 947 1169 1205 825 
Q 1463 481 1925 481 
Q 2391 481 2648 825 
Q 2906 1169 2906 1791 
z
M 3481 434 
Q 3481 -459 3084 -895 
Q 2688 -1331 1869 -1331 
Q 1566 -1331 1297 -1286 
Q 1028 -1241 775 -1147 
L 775 -588 
Q 1028 -725 1275 -790 
Q 1522 -856 1778 -856 
Q 2344 -856 2625 -561 
Q 2906 -266 2906 331 
L 2906 616 
Q 2728 306 2450 153 
Q 2172 0 1784 0 
Q 1141 0 747 490 
Q 353 981 353 1791 
Q 353 2603 747 3093 
Q 1141 3584 1784 3584 
Q 2172 3584 2450 3431 
Q 2728 3278 2906 2969 
L 2906 3500 
L 3481 3500 
L 3481 434 
z
" transform="scale(0.015625)"/>
       <path id="DejaVuSans-63" d="M 3122 3366 
L 3122 2828 
Q 2878 2963 2633 3030 
Q 2388 3097 2138 3097 
Q 1578 3097 1268 2742 
Q 959 2388 959 1747 
Q 959 1106 1268 751 
Q 1578 397 2138 397 
Q 2388 397 2633 464 
Q 2878 531 3122 666 
L 3122 134 
Q 2881 22 2623 -34 
Q 2366 -91 2075 -91 
Q 1284 -91 818 406 
Q 353 903 353 1747 
Q 353 2603 823 3093 
Q 1294 3584 2113 3584 
Q 2378 3584 2631 3529 
Q 2884 3475 3122 3366 
z
" transform="scale(0.015625)"/>
       <path id="DejaVuSans-29" d="M 513 4856 
L 1013 4856 
Q 1481 4119 1714 3412 
Q 1947 2706 1947 2009 
Q 1947 1309 1714 600 
Q 1481 -109 1013 -844 
L 513 -844 
Q 928 -128 1133 580 
Q 1338 1288 1338 2009 
Q 1338 2731 1133 3434 
Q 928 4138 513 4856 
z
" transform="scale(0.015625)"/>
      </defs>
      <use xlink:href="#DejaVuSans-46"/>
      <use xlink:href="#DejaVuSans-69" x="50.269531"/>
      <use xlink:href="#DejaVuSans-74" x="78.052734"/>
      <use xlink:href="#DejaVuSans-6e" x="117.261719"/>
      <use xlink:href="#DejaVuSans-65" x="180.640625"/>
      <use xlink:href="#DejaVuSans-73" x="242.164062"/>
      <use xlink:href="#DejaVuSans-73" x="294.263672"/>
      <use xlink:href="#DejaVuSans-20" x="346.363281"/>
      <use xlink:href="#DejaVuSans-28" x="378.150391"/>
      <use xlink:href="#DejaVuSans-6c" x="417.164062"/>
      <use xlink:href="#DejaVuSans-6f" x="444.947266"/>
      <use xlink:href="#DejaVuSans-67" x="506.128906"/>
      <use xlink:href="#DejaVuSans-20" x="569.605469"/>
      <use xlink:href="#DejaVuSans-73" x="601.392578"/>
      <use xlink:href="#DejaVuSans-63" x="653.492188"/>
      <use xlink:href="#DejaVuSans-61" x="708.472656"/>
      <use xlink:href="#DejaVuSans-6c" x="769.751953"/>
      <use xlink:href="#DejaVuSans-65" x="797.535156"/>
      <use xlink:href="#DejaVuSans-29" x="859.058594"/>
     </g>
    </g>
   </g>
   <g id="line2d_86">
    <path d="M 80.095063 43.515964 
L 80.69481 43.818472 
L 81.294557 44.451408 
L 83.093799 45.562133 
L 84.293294 46.378166 
L 86.092536 47.066209 
L 87.29203 47.459729 
L 87.891778 47.906785 
L 89.091272 48.463356 
L 89.69102 48.878698 
L 91.490262 49.463462 
L 93.289503 50.328766 
L 93.889251 50.506994 
L 94.488998 50.554265 
L 97.487735 51.552263 
L 98.687229 51.84534 
L 99.286977 52.150122 
L 101.086218 52.571177 
L 104.084955 53.474024 
L 106.483944 54.196594 
L 120.87788 58.531625 
L 121.477627 58.627748 
L 122.077374 58.924366 
L 123.276869 59.125945 
L 124.476363 59.621903 
L 126.875353 60.11964 
L 131.073584 61.094653 
L 133.472573 61.617906 
L 136.47131 62.41928 
L 137.670804 62.678043 
L 139.470046 63.253313 
L 140.669541 63.561477 
L 144.268025 64.241088 
L 145.467519 64.581046 
L 146.067266 64.662853 
L 147.866508 65.294984 
L 148.466256 65.354215 
L 152.06474 66.350908 
L 152.664487 66.395691 
L 153.264234 66.582662 
L 153.863981 66.923473 
L 155.063476 67.284776 
L 162.260444 69.527009 
L 163.459938 69.754751 
L 164.659433 70.127603 
L 165.858928 70.417161 
L 167.058422 70.911 
L 171.256653 72.051151 
L 173.655643 72.524845 
L 176.054632 73.189912 
L 176.654379 73.294398 
L 177.853874 73.768727 
L 185.050841 75.711251 
L 185.650589 75.995909 
L 188.049578 76.523967 
L 189.84882 76.937414 
L 194.047051 77.900081 
L 195.846293 78.509152 
L 199.444777 79.326745 
L 203.043261 80.379422 
L 204.242755 80.686618 
L 206.641744 81.499866 
L 207.841239 81.812405 
L 209.640481 82.498283 
L 212.639217 83.50002 
L 213.238965 83.786872 
L 214.438459 84.135433 
L 216.237701 84.806384 
L 217.437196 85.049735 
L 219.236438 85.490818 
L 219.836185 85.922549 
L 221.03568 86.273597 
L 222.834922 86.991303 
L 223.434669 87.061376 
L 224.034416 87.377466 
L 225.233911 87.73877 
L 226.433406 88.165143 
L 228.232647 88.560879 
L 229.432142 89.004539 
L 233.030626 90.167646 
L 234.230121 90.429258 
L 236.029362 91.278598 
L 236.62911 91.473415 
L 237.828604 92.090551 
L 240.227594 92.873664 
L 241.427088 93.442111 
L 242.026836 93.525084 
L 242.626583 93.830726 
L 243.22633 93.969081 
L 246.225067 95.399518 
L 247.424561 95.936654 
L 248.024309 96.287508 
L 251.622792 97.45383 
L 253.422034 98.15363 
L 254.021782 98.54069 
L 255.221276 98.967542 
L 256.420771 99.543359 
L 257.020518 99.739024 
L 257.620265 100.182947 
L 258.220013 100.354313 
L 258.81976 100.760516 
L 261.818497 101.859969 
L 263.017991 102.665712 
L 264.817233 103.314767 
L 267.216222 104.387571 
L 267.81597 104.531308 
L 268.415717 104.852779 
L 269.015464 105.038497 
L 270.814706 106.027116 
L 271.414454 106.235956 
L 275.012937 108.189019 
L 275.612685 108.707801 
L 276.812179 109.023445 
L 277.411927 109.413775 
L 278.611421 109.988944 
L 280.410663 110.78529 
L 281.01041 111.04561 
L 281.610158 111.545605 
L 282.209905 111.803056 
L 282.809652 111.886162 
L 284.009147 112.778547 
L 286.408136 113.857557 
L 287.007884 114.306891 
L 287.607631 114.588569 
L 288.207378 115.024429 
L 290.00662 115.872421 
L 291.206115 116.676869 
L 292.405609 117.066348 
L 293.605104 117.772623 
L 294.204851 118.4041 
L 296.004093 119.545091 
L 296.60384 120.175446 
L 297.203588 120.467019 
L 297.803335 121.05146 
L 299.00283 121.706065 
L 301.401819 122.988234 
L 302.001566 123.651212 
L 303.201061 124.497275 
L 304.400555 125.55654 
L 305.000303 126.029581 
L 305.60005 126.192583 
L 306.199797 126.764463 
L 307.999039 127.865438 
L 308.598787 128.46008 
L 309.198534 129.254001 
L 309.798281 129.855611 
L 310.398028 130.126109 
L 311.597523 131.176626 
L 312.797018 131.795829 
L 313.996512 132.664887 
L 314.59626 133.13612 
L 315.196007 133.96115 
L 315.795754 134.255984 
L 316.395502 134.957337 
L 316.995249 135.320189 
L 317.594996 135.434446 
L 319.394238 136.820263 
L 319.993985 137.1239 
L 320.593733 137.766008 
L 322.392975 138.696675 
L 322.992722 139.188163 
L 323.592469 139.518189 
L 325.391711 141.012212 
L 327.190953 142.106267 
L 327.7907 142.727631 
L 329.589942 143.801696 
L 330.789437 144.183418 
L 331.389184 144.768993 
L 331.988932 145.176651 
L 332.588679 145.327353 
L 333.188426 145.724514 
L 333.788173 145.880584 
L 334.387921 146.56621 
L 334.987668 146.898837 
L 336.187163 147.963451 
L 336.78691 148.256124 
L 337.986405 149.305501 
L 338.586152 150.07242 
L 339.185899 150.461568 
L 340.385394 151.713621 
L 341.584888 152.039396 
L 344.583625 154.162348 
L 345.183372 154.324463 
L 345.78312 154.809908 
L 346.382867 154.97016 
L 346.982614 155.909102 
L 347.582361 156.330954 
L 348.182109 156.493928 
L 349.981351 157.438151 
L 350.581098 158.025697 
L 351.780593 158.408802 
L 352.38034 158.918114 
L 352.980087 159.131318 
L 353.579835 159.176785 
L 354.179582 159.908306 
L 354.779329 160.02074 
L 355.379076 160.267898 
L 355.978824 161.220185 
L 357.178318 161.47361 
L 357.778066 161.995088 
L 360.177055 163.380209 
L 360.776802 163.439276 
L 361.37655 163.915253 
L 361.976297 164.241226 
L 362.576044 165.102821 
L 363.175791 165.502661 
L 364.375286 165.734688 
L 364.975033 166.448479 
L 367.374023 168.083843 
L 367.97377 168.331912 
L 369.173265 168.472432 
L 369.773012 169.308085 
L 370.972506 169.43296 
L 372.172001 170.029652 
L 373.371496 170.375402 
L 373.971243 170.413113 
L 374.57099 170.830559 
L 376.96998 171.750162 
L 377.569727 172.190402 
L 378.769221 172.327363 
L 379.368969 172.759025 
L 379.968716 172.784623 
L 381.767958 173.301207 
L 383.5672 174.110127 
L 385.966189 174.664756 
L 387.765431 175.298619 
L 388.365178 175.406203 
L 389.564673 176.179849 
L 390.16442 176.323395 
L 391.363915 177.01276 
L 391.963662 177.118434 
L 392.563409 177.401645 
L 393.163157 177.491372 
L 393.762904 177.710745 
L 394.362651 177.739159 
L 394.962399 178.138632 
L 395.562146 178.313638 
L 396.161893 178.829088 
L 396.761641 179.098608 
L 397.361388 179.22938 
L 397.961135 180.153081 
L 399.16063 180.539812 
L 399.760377 180.963185 
L 400.959872 181.282024 
L 401.559619 181.620046 
L 403.358861 181.935064 
L 403.958608 182.723843 
L 404.558356 182.881445 
L 405.158103 182.912282 
L 407.557092 183.442672 
L 408.156839 184.226956 
L 408.756587 184.386904 
L 409.356334 184.41516 
L 410.555829 184.824765 
L 411.155576 185.216413 
L 411.755323 185.308578 
L 412.355071 185.660675 
L 413.554565 186.035111 
L 414.154313 186.499282 
L 416.553302 186.577043 
L 417.752796 186.907809 
L 418.352544 187.097408 
L 421.35128 187.40198 
L 421.951027 187.763016 
L 422.550775 187.872444 
L 423.150522 188.240401 
L 423.750269 188.242695 
L 424.350017 188.465929 
L 426.749006 188.903781 
L 429.147995 189.5224 
L 430.947237 190.122461 
L 432.146732 190.195888 
L 433.346226 190.650041 
L 437.544457 190.929086 
L 439.943447 191.167662 
L 440.543194 191.413388 
L 442.342436 191.544278 
L 444.741425 191.633375 
L 456.736371 192.722622 
L 457.935866 192.873744 
L 460.334855 193.093058 
L 461.53435 193.192983 
L 464.533086 193.402399 
L 465.732581 193.576379 
L 467.531823 193.657136 
L 468.731317 193.844804 
L 470.530559 193.898239 
L 471.130307 194.021797 
L 472.329801 194.500312 
L 488.522979 195.71547 
L 491.521715 195.797077 
L 492.72121 195.905322 
L 495.120199 195.910672 
L 495.719946 196.105689 
L 499.31843 196.265843 
L 501.717419 196.378397 
L 508.31464 196.599972 
L 511.313376 196.822602 
L 515.511607 196.963514 
L 517.910597 197.111956 
L 522.708575 197.261298 
L 523.308322 197.435932 
L 528.706048 197.591719 
L 531.105037 197.813859 
L 534.703521 197.854529 
L 536.502763 197.964177 
L 539.5015 198.072884 
L 547.298215 198.375786 
L 550.296951 198.630418 
L 555.09493 198.726261 
L 570.088612 199.153861 
L 575.486338 199.265133 
L 576.685833 199.352577 
L 588.680779 199.618125 
L 593.478757 199.807515 
L 594.678252 199.917577 
L 599.47623 200.004438 
L 601.875219 200.0811 
L 604.873956 200.125374 
L 606.073451 200.214753 
L 615.669408 200.572708 
L 679.242622 201.168934 
L 679.242622 201.168934 
" clip-path="url(#p6b2df8fca3)" style="fill: none; stroke-dasharray: 5.55,2.4; stroke-dashoffset: 0; stroke: #ff7f0e; stroke-width: 1.5"/>
   </g>
   <g id="line2d_87">
    <path d="M 80.095063 43.608144 
L 80.69481 43.891068 
L 81.294557 44.543081 
L 81.894305 45.012162 
L 84.293294 46.236656 
L 88.491525 48.605139 
L 89.69102 49.015637 
L 91.490262 49.858452 
L 93.889251 50.583298 
L 95.688493 51.524543 
L 98.087482 52.27492 
L 98.687229 52.54504 
L 99.286977 52.6096 
L 102.285713 53.493099 
L 104.684702 54.109275 
L 106.483944 54.736899 
L 108.283186 55.127053 
L 109.482681 55.459137 
L 110.082428 55.730694 
L 110.682175 55.832142 
L 111.88167 56.165687 
L 112.481417 56.185839 
L 115.480154 57.018227 
L 116.079901 57.416934 
L 117.279396 57.698797 
L 118.47889 58.04257 
L 120.87788 58.70973 
L 122.077374 59.085674 
L 123.276869 59.37196 
L 123.876616 59.605933 
L 124.476363 59.708698 
L 125.675858 60.087947 
L 133.472573 61.959257 
L 134.07232 62.15485 
L 135.271815 62.331157 
L 136.47131 62.72502 
L 138.270551 63.296757 
L 140.669541 64.162403 
L 141.269288 64.290219 
L 141.869035 64.579324 
L 143.668277 64.916632 
L 146.067266 65.445683 
L 146.667014 65.499307 
L 152.06474 66.90036 
L 154.463729 67.481899 
L 155.663223 67.861853 
L 161.660696 69.330718 
L 162.860191 69.688031 
L 164.659433 70.230559 
L 165.25918 70.555456 
L 167.658169 71.046844 
L 169.457411 71.40628 
L 171.256653 72.092382 
L 176.054632 73.294206 
L 176.654379 73.559494 
L 177.853874 73.817573 
L 180.252863 74.61643 
L 182.052105 75.169939 
L 183.251599 75.468868 
L 184.451094 75.866742 
L 187.449831 76.735714 
L 188.649325 77.164293 
L 189.249073 77.289386 
L 190.448567 77.730679 
L 192.247809 78.220174 
L 194.646798 79.133341 
L 210.839976 84.160546 
L 219.836185 87.342719 
L 220.435932 87.668104 
L 224.034416 88.806912 
L 224.634164 89.007422 
L 225.233911 89.434381 
L 226.433406 89.723652 
L 228.832395 90.533205 
L 230.031889 91.078816 
L 231.231384 91.521383 
L 232.430879 92.071254 
L 234.829868 92.849649 
L 235.429615 93.090207 
L 236.029362 93.19814 
L 239.028099 94.474649 
L 240.827341 94.895231 
L 241.427088 95.247412 
L 247.424561 97.374252 
L 248.624056 97.899283 
L 249.823551 98.276772 
L 251.622792 99.254397 
L 253.422034 100.033483 
L 255.221276 100.973602 
L 256.420771 101.355681 
L 257.620265 101.955359 
L 258.81976 102.368558 
L 260.019255 103.01414 
L 261.218749 103.5288 
L 262.418244 103.958944 
L 263.017991 104.312856 
L 267.216222 105.922672 
L 270.814706 107.902678 
L 274.41319 109.474614 
L 275.012937 109.937926 
L 278.011674 111.1662 
L 278.611421 111.735193 
L 281.610158 113.652655 
L 282.809652 114.089853 
L 284.009147 114.848465 
L 285.208642 115.312565 
L 285.808389 115.558023 
L 286.408136 115.929649 
L 287.007884 116.465404 
L 287.607631 116.844747 
L 288.207378 117.418255 
L 289.406873 117.811033 
L 290.00662 118.091923 
L 290.606367 118.245429 
L 292.405609 119.191122 
L 293.605104 120.152531 
L 295.404346 121.073474 
L 296.004093 121.710626 
L 297.203588 122.378113 
L 297.803335 122.589086 
L 299.00283 123.529626 
L 300.202324 124.324055 
L 300.802072 124.96196 
L 301.401819 125.250609 
L 302.001566 125.694508 
L 303.201061 126.095449 
L 304.400555 126.836785 
L 305.000303 127.533825 
L 305.60005 127.692193 
L 308.598787 129.401154 
L 310.997776 131.097275 
L 311.597523 131.437503 
L 312.19727 132.093302 
L 312.797018 132.568989 
L 315.196007 133.935726 
L 315.795754 134.34539 
L 316.395502 134.518313 
L 316.995249 134.987219 
L 318.194743 135.411666 
L 321.19348 137.3223 
L 321.793227 137.577571 
L 322.392975 138.005471 
L 322.992722 138.607548 
L 323.592469 138.779481 
L 324.791964 139.474713 
L 325.391711 139.742343 
L 326.591206 140.77344 
L 327.190953 140.979988 
L 327.7907 141.558555 
L 328.390448 141.70104 
L 329.589942 142.619501 
L 330.18969 142.96418 
L 331.988932 143.570752 
L 332.588679 143.677464 
L 333.788173 144.429188 
L 334.387921 144.516748 
L 334.987668 144.833571 
L 335.587415 144.948928 
L 337.386657 145.73814 
L 337.986405 145.773057 
L 341.584888 147.468669 
L 342.184636 147.985295 
L 343.38413 148.617672 
L 344.583625 148.923318 
L 345.183372 149.091972 
L 345.78312 149.509974 
L 346.382867 149.675113 
L 346.982614 149.966047 
L 347.582361 150.004929 
L 348.182109 150.240754 
L 348.781856 150.686273 
L 349.381603 150.903519 
L 349.981351 150.964528 
L 351.180845 151.729632 
L 351.780593 152.580413 
L 352.980087 152.959483 
L 353.579835 153.160934 
L 354.779329 153.410384 
L 355.978824 153.85274 
L 356.578571 154.383821 
L 358.97756 154.637222 
L 361.976297 155.169212 
L 363.175791 155.549759 
L 363.775539 156.084051 
L 365.574781 156.262689 
L 366.174528 156.853332 
L 368.573517 157.49523 
L 369.173265 157.995142 
L 369.773012 158.020049 
L 370.972506 158.37337 
L 371.572254 158.429032 
L 372.172001 158.820558 
L 373.371496 159.224056 
L 373.971243 159.547845 
L 375.170738 159.637714 
L 379.968716 160.749695 
L 381.168211 161.034277 
L 382.367705 161.190315 
L 382.967453 161.541631 
L 384.766694 161.773228 
L 385.366442 161.980624 
L 385.966189 162.021769 
L 386.565936 162.986191 
L 387.165684 163.265586 
L 388.365178 163.27697 
L 389.564673 163.570866 
L 390.16442 164.097642 
L 390.764168 164.252722 
L 392.563409 164.381506 
L 393.163157 164.465086 
L 393.762904 164.726577 
L 394.962399 164.773456 
L 396.761641 165.788673 
L 397.361388 165.851687 
L 397.961135 166.132373 
L 400.360124 166.254422 
L 401.559619 166.313314 
L 402.159366 166.571839 
L 402.759114 166.592914 
L 403.958608 166.875127 
L 404.558356 166.892221 
L 405.158103 167.020594 
L 406.957345 167.769819 
L 408.156839 168.012182 
L 408.756587 168.289791 
L 409.356334 168.298176 
L 410.555829 168.628244 
L 412.355071 168.695012 
L 412.954818 168.907322 
L 413.554565 169.297086 
L 414.154313 169.499474 
L 414.75406 169.572038 
L 415.353807 170.009784 
L 417.153049 170.05059 
L 417.752796 170.244064 
L 418.352544 170.284654 
L 418.952291 170.560952 
L 420.151786 170.637776 
L 420.751533 170.904146 
L 421.35128 170.94178 
L 421.951027 171.221657 
L 423.150522 171.38186 
L 423.750269 171.524501 
L 424.350017 171.546853 
L 424.949764 171.820718 
L 425.549511 171.864767 
L 426.149259 172.053197 
L 428.548248 172.158518 
L 431.546984 172.383185 
L 432.146732 172.878701 
L 436.344963 173.090581 
L 436.94471 173.55397 
L 438.743952 173.586168 
L 439.343699 173.786205 
L 439.943447 174.408327 
L 440.543194 174.622967 
L 443.541931 174.792741 
L 444.741425 174.868368 
L 445.94092 174.976602 
L 447.140414 175.120064 
L 447.740162 175.120064 
L 448.339909 175.422071 
L 450.139151 175.572217 
L 450.738898 176.051655 
L 451.338646 176.061188 
L 451.938393 176.358742 
L 453.137887 176.360091 
L 454.337382 176.489968 
L 454.937129 177.089751 
L 456.736371 177.212475 
L 457.336119 177.409767 
L 457.935866 177.452162 
L 458.535613 178.037201 
L 459.735108 178.09327 
L 460.934602 178.272782 
L 463.933339 178.373337 
L 464.533086 178.432377 
L 465.132834 178.634814 
L 465.732581 178.641338 
L 466.332328 179.024554 
L 469.930812 179.169001 
L 472.329801 179.350008 
L 472.929549 180.031143 
L 474.129043 180.076766 
L 474.72879 180.28679 
L 477.727527 180.348756 
L 478.327274 180.572395 
L 478.927022 180.572395 
L 479.526769 180.848773 
L 480.726264 180.882637 
L 481.925758 181.521435 
L 484.324747 181.571161 
L 484.924495 181.977269 
L 490.921968 182.260912 
L 491.521715 182.839266 
L 492.121462 182.839266 
L 493.320957 183.229307 
L 493.920704 183.962342 
L 494.520452 184.250888 
L 495.719946 184.286868 
L 496.919441 185.289644 
L 499.918177 185.48939 
L 500.517925 185.616835 
L 501.717419 185.644566 
L 502.317167 185.783683 
L 502.916914 187.172075 
L 508.31464 187.307063 
L 508.914387 187.892589 
L 510.113882 187.966608 
L 510.713629 188.309107 
L 511.313376 188.309107 
L 511.913123 188.634655 
L 514.312113 188.825866 
L 516.111355 189.117005 
L 517.910597 189.220203 
L 518.510344 189.265292 
L 519.709838 189.492906 
L 522.108828 189.911338 
L 528.706048 190.076511 
L 529.905543 190.097118 
L 530.50529 190.210922 
L 532.904279 190.268388 
L 534.103774 190.372843 
L 541.900489 190.452658 
L 547.298215 190.785808 
L 548.497709 190.918244 
L 551.496446 190.984466 
L 553.295688 191.073751 
L 560.492655 191.372717 
L 570.68836 191.477645 
L 571.887854 191.51121 
L 572.487601 191.700321 
L 579.684569 191.859454 
L 580.884064 191.921815 
L 586.28179 192.032764 
L 599.47623 192.433111 
L 612.070924 192.718143 
L 618.068397 192.805222 
L 619.267891 192.877609 
L 622.866375 192.960785 
L 679.242622 193.722147 
L 679.242622 193.722147 
" clip-path="url(#p6b2df8fca3)" style="fill: none; stroke-dasharray: 1.5,2.475; stroke-dashoffset: 0; stroke: #ff7f0e; stroke-width: 1.5"/>
   </g>
   <g id="line2d_88">
    <path d="M 80.095063 269.671404 
L 81.294557 270.561016 
L 82.494052 271.036399 
L 83.093799 271.445264 
L 84.893041 272.094697 
L 86.692283 272.926012 
L 89.69102 273.830711 
L 96.887987 276.126448 
L 97.487735 276.232694 
L 98.087482 276.455035 
L 99.286977 276.72933 
L 101.086218 277.208117 
L 108.283186 278.909089 
L 109.482681 279.17819 
L 120.278132 281.784529 
L 121.477627 282.007919 
L 123.876616 282.667548 
L 125.076111 282.874786 
L 125.675858 283.190595 
L 127.4751 283.562955 
L 128.674595 283.806208 
L 130.473836 284.285545 
L 131.673331 284.606155 
L 135.271815 285.468898 
L 137.670804 285.867378 
L 139.470046 286.294902 
L 145.467519 287.742049 
L 149.66575 288.591509 
L 150.865245 288.78352 
L 152.664487 289.214178 
L 153.863981 289.465806 
L 155.663223 289.923496 
L 158.062213 290.525251 
L 160.461202 291.231139 
L 165.25918 292.339924 
L 165.858928 292.406694 
L 167.058422 292.88789 
L 171.856401 293.817761 
L 174.25539 294.34606 
L 174.855137 294.422295 
L 175.454884 294.655764 
L 177.254126 295.01063 
L 178.453621 295.308558 
L 180.85261 295.89863 
L 183.851347 296.479065 
L 184.451094 296.756067 
L 185.650589 297.034723 
L 190.448567 298.471589 
L 192.847556 299.108506 
L 195.246546 299.527424 
L 197.045788 300.091831 
L 200.044524 300.644617 
L 207.841239 302.833277 
L 209.040734 303.098056 
L 209.640481 303.409668 
L 210.839976 303.601278 
L 212.03947 303.868288 
L 213.238965 304.158928 
L 215.038207 304.773647 
L 216.237701 304.982356 
L 221.635427 306.463069 
L 222.834922 306.692653 
L 224.034416 307.057272 
L 224.634164 307.117771 
L 226.433406 307.743609 
L 232.430879 309.199428 
L 235.429615 310.142961 
L 236.62911 310.453572 
L 237.828604 310.889232 
L 239.627846 311.199153 
L 240.227594 311.558829 
L 241.427088 311.827546 
L 242.626583 312.134352 
L 243.826077 312.445265 
L 245.025572 312.893163 
L 245.625319 312.928554 
L 249.223803 313.864229 
L 249.823551 313.951306 
L 251.023045 314.353812 
L 253.422034 314.90243 
L 254.021782 315.188285 
L 255.821024 315.568049 
L 257.620265 316.110143 
L 260.019255 316.651838 
L 261.818497 317.209649 
L 263.617739 317.908363 
L 264.217486 318.008825 
L 266.616475 319.019339 
L 267.81597 319.327621 
L 270.214959 319.803616 
L 274.41319 321.027165 
L 276.212432 321.665938 
L 276.812179 321.744376 
L 278.011674 322.101522 
L 278.611421 322.326189 
L 279.810916 322.568159 
L 280.410663 322.791879 
L 281.610158 323.057902 
L 282.809652 323.483408 
L 284.608894 323.881615 
L 287.607631 324.806031 
L 290.00662 325.600097 
L 291.805862 325.961001 
L 293.005357 326.332632 
L 294.804598 326.639517 
L 295.404346 326.891765 
L 296.004093 326.960876 
L 296.60384 327.243212 
L 297.803335 327.566376 
L 299.00283 328.039167 
L 309.798281 330.881092 
L 310.997776 331.386903 
L 312.19727 331.642598 
L 313.996512 332.202087 
L 315.196007 332.416207 
L 316.395502 332.843083 
L 317.594996 333.079265 
L 318.794491 333.479842 
L 321.19348 334.013842 
L 322.392975 334.310525 
L 322.992722 334.357871 
L 324.192217 334.686426 
L 325.991458 335.081516 
L 327.7907 335.577094 
L 329.589942 335.758413 
L 330.18969 336.051063 
L 331.389184 336.297671 
L 334.987668 337.020481 
L 336.187163 337.279794 
L 337.986405 337.64225 
L 338.586152 337.718766 
L 340.985141 338.380663 
L 345.183372 339.428389 
L 350.581098 340.315427 
L 351.180845 340.568457 
L 355.379076 341.366129 
L 356.578571 341.507739 
L 357.778066 341.803326 
L 358.97756 341.998346 
L 360.177055 342.328532 
L 361.37655 342.566426 
L 366.174528 343.334712 
L 366.774275 343.542287 
L 367.97377 343.734347 
L 369.773012 344.171917 
L 371.572254 344.414663 
L 380.568463 345.949211 
L 382.967453 346.263297 
L 383.5672 346.425037 
L 385.966189 346.650483 
L 388.365178 347.211225 
L 389.564673 347.397035 
L 390.764168 347.599092 
L 393.762904 348.15267 
L 396.161893 348.433037 
L 396.761641 348.471071 
L 397.361388 348.663953 
L 397.961135 348.732609 
L 399.16063 349.052208 
L 402.159366 349.548194 
L 403.958608 349.750843 
L 405.158103 350.038157 
L 411.155576 350.679537 
L 412.355071 350.836504 
L 424.949764 351.966175 
L 431.546984 352.837304 
L 433.346226 352.951951 
L 435.745216 353.150196 
L 439.343699 353.515051 
L 442.942183 353.662473 
L 446.540667 353.993768 
L 448.939656 354.120744 
L 451.938393 354.295206 
L 466.932075 355.421014 
L 477.12778 356.153435 
L 478.327274 356.285745 
L 482.525505 356.625982 
L 484.924495 356.81641 
L 490.32222 357.147684 
L 490.921968 357.283725 
L 491.521715 357.297777 
L 492.121462 357.439801 
L 502.317167 357.994159 
L 504.116409 358.130549 
L 511.913123 358.461839 
L 513.712365 358.628046 
L 516.711102 358.798628 
L 525.707312 359.531961 
L 528.706048 359.63514 
L 537.702258 360.032756 
L 541.900489 360.129246 
L 543.699731 360.219143 
L 550.296951 360.412663 
L 555.09493 360.505383 
L 592.279263 361.598825 
L 597.676988 361.724014 
L 599.47623 361.783455 
L 610.871429 361.916742 
L 614.469913 362.089623 
L 621.666881 362.196334 
L 626.464859 362.310613 
L 634.261574 362.412723 
L 651.054499 362.738795 
L 658.251466 362.856774 
L 663.649192 362.983306 
L 673.844896 363.078299 
L 678.043127 363.131973 
L 679.242622 363.150469 
L 679.242622 363.150469 
" clip-path="url(#p6b2df8fca3)" style="fill: none; stroke: #ff7f0e; stroke-width: 1.5; stroke-linecap: square"/>
   </g>
   <g id="line2d_89">
    <path d="M 80.095063 43.387273 
L 84.893041 46.297874 
L 86.092536 46.909695 
L 87.29203 47.545432 
L 87.891778 47.729934 
L 89.69102 48.800095 
L 93.889251 50.085122 
L 98.087482 51.60398 
L 99.286977 52.03324 
L 99.886724 52.173481 
L 101.086218 52.765757 
L 103.485208 53.566099 
L 105.28445 54.028457 
L 107.083692 54.593237 
L 109.482681 55.185221 
L 110.682175 55.540185 
L 111.281923 55.857225 
L 117.279396 57.470723 
L 119.078638 57.875979 
L 120.278132 58.196033 
L 123.276869 58.961506 
L 126.875353 59.757427 
L 128.674595 60.232923 
L 129.274342 60.30786 
L 129.874089 60.528936 
L 131.673331 60.840755 
L 138.870299 62.253524 
L 139.470046 62.603644 
L 143.06853 63.41836 
L 144.867772 64.044814 
L 145.467519 64.088858 
L 150.865245 65.664987 
L 152.664487 66.090951 
L 155.063476 67.006747 
L 156.262971 67.184567 
L 159.861455 68.275697 
L 160.461202 68.449041 
L 161.060949 68.787621 
L 164.659433 69.644757 
L 165.25918 69.743582 
L 165.858928 70.088557 
L 169.457411 71.206082 
L 170.656906 71.486489 
L 173.055895 72.30002 
L 178.453621 73.825409 
L 179.653116 74.364158 
L 180.252863 74.575478 
L 181.452358 74.739215 
L 183.851347 75.41028 
L 184.451094 75.701064 
L 185.650589 76.017783 
L 186.850083 76.505117 
L 190.448567 77.81513 
L 191.048314 77.867384 
L 191.648062 78.16033 
L 192.847556 78.429081 
L 194.047051 78.938439 
L 194.646798 79.120034 
L 195.246546 79.427249 
L 197.045788 79.913296 
L 199.444777 80.817058 
L 200.044524 80.986048 
L 200.644271 81.036729 
L 201.843766 81.515242 
L 203.643008 82.159765 
L 204.842503 82.513846 
L 207.241492 83.352617 
L 207.841239 83.454916 
L 209.640481 84.110583 
L 210.839976 84.42594 
L 213.238965 85.262111 
L 214.438459 85.590619 
L 215.038207 85.756347 
L 215.637954 86.117421 
L 218.036943 86.769048 
L 221.03568 87.688128 
L 221.635427 88.09038 
L 222.235174 88.169909 
L 223.434669 88.632105 
L 224.634164 88.946277 
L 225.233911 89.102969 
L 226.433406 89.64287 
L 230.031889 90.989244 
L 230.631637 91.333917 
L 232.430879 91.941667 
L 233.630373 92.499927 
L 234.829868 92.99574 
L 235.429615 93.143268 
L 236.62911 93.758357 
L 238.428352 94.418869 
L 239.028099 94.493964 
L 242.026836 95.634857 
L 243.826077 96.446228 
L 244.425825 96.707212 
L 245.625319 97.05093 
L 246.225067 97.16987 
L 246.824814 97.527601 
L 247.424561 98.045485 
L 249.223803 98.595968 
L 250.423298 99.316624 
L 253.422034 100.56868 
L 254.021782 100.680665 
L 255.821024 101.496265 
L 257.620265 102.30619 
L 260.619002 103.584063 
L 261.818497 104.222436 
L 262.418244 104.556571 
L 264.217486 105.252875 
L 266.616475 106.619786 
L 267.216222 107.017083 
L 269.015464 107.716081 
L 272.014201 109.511561 
L 273.213695 110.069187 
L 277.411927 112.884878 
L 278.011674 113.507556 
L 280.410663 114.843373 
L 281.610158 115.490103 
L 282.209905 116.053554 
L 286.408136 118.842391 
L 287.607631 119.838622 
L 288.207378 120.094679 
L 288.807125 120.597876 
L 289.406873 121.275402 
L 291.206115 122.387357 
L 291.805862 123.05261 
L 292.405609 123.375294 
L 293.605104 124.328041 
L 294.204851 125.009213 
L 294.804598 125.38845 
L 295.404346 126.252633 
L 296.60384 126.95582 
L 300.802072 130.793669 
L 301.401819 131.475977 
L 302.001566 131.750103 
L 302.601313 132.367838 
L 303.800808 133.250497 
L 304.400555 133.449903 
L 305.000303 133.918141 
L 305.60005 134.111514 
L 306.199797 134.564361 
L 308.598787 137.415213 
L 310.398028 138.567073 
L 311.597523 139.004718 
L 312.19727 139.635072 
L 313.396765 140.052244 
L 313.996512 141.170156 
L 315.196007 141.72163 
L 315.795754 142.425887 
L 316.395502 142.873253 
L 316.995249 142.955754 
L 317.594996 143.658213 
L 318.194743 143.935918 
L 318.794491 144.652191 
L 319.993985 145.575418 
L 322.392975 146.933329 
L 322.992722 147.693493 
L 323.592469 147.853764 
L 324.192217 148.72318 
L 324.791964 149.380027 
L 325.391711 149.671565 
L 325.991458 150.260154 
L 326.591206 150.505439 
L 327.190953 151.326355 
L 327.7907 151.750592 
L 329.589942 153.944723 
L 330.18969 154.1868 
L 330.789437 154.907963 
L 331.389184 155.206335 
L 331.988932 155.810548 
L 332.588679 156.125895 
L 333.188426 156.771061 
L 333.788173 157.053795 
L 334.387921 157.70553 
L 336.78691 161.573355 
L 337.386657 161.982076 
L 338.586152 163.642237 
L 340.385394 164.909538 
L 341.584888 166.183774 
L 342.184636 166.399714 
L 342.784383 168.251618 
L 343.38413 168.859818 
L 343.983878 171.34596 
L 344.583625 172.304707 
L 345.183372 172.581066 
L 345.78312 174.37503 
L 346.382867 174.831987 
L 347.582361 177.161612 
L 348.182109 179.102707 
L 348.781856 179.45542 
L 349.381603 181.235583 
L 349.981351 182.021673 
L 350.581098 184.534983 
L 351.780593 186.830831 
L 352.38034 187.33899 
L 352.980087 190.684288 
L 353.579835 193.198667 
L 354.179582 193.340431 
L 354.779329 197.788619 
L 355.379076 198.624242 
L 355.978824 204.017084 
L 356.578571 206.159365 
L 357.178318 207.638264 
L 357.778066 208.01105 
L 358.377813 210.280446 
L 359.577308 210.389923 
L 360.177055 215.487106 
L 360.776802 215.493448 
L 361.37655 216.587264 
L 361.976297 222.512223 
L 362.576044 224.388894 
L 363.775539 224.486008 
L 364.375286 225.552397 
L 364.975033 228.745567 
L 365.574781 231.03887 
L 366.174528 242.138768 
L 367.374023 242.138768 
L 367.97377 258.690329 
L 368.573517 258.690329 
L 369.173265 264.382686 
L 369.773012 297.849796 
L 370.372759 297.875866 
L 370.972506 299.179129 
L 374.57099 299.179129 
L 375.170738 300.106678 
L 375.770485 305.652347 
L 376.370232 305.652347 
L 376.96998 308.945777 
L 382.967453 308.945777 
L 383.5672 309.225049 
L 388.964926 309.295704 
L 390.764168 309.345232 
L 394.362651 309.34537 
L 394.962399 309.466339 
L 411.155576 309.491556 
L 411.755323 310.571538 
L 418.952291 310.66257 
L 420.151786 310.727907 
L 424.949764 310.727907 
L 425.549511 311.313475 
L 433.945974 311.407836 
L 436.344963 311.436221 
L 439.343699 311.531967 
L 439.943447 311.868749 
L 440.543194 312.877799 
L 443.541931 312.988878 
L 454.337382 312.98998 
L 454.937129 313.204799 
L 471.730054 313.204922 
L 472.329801 313.39403 
L 474.129043 313.39403 
L 474.72879 314.049623 
L 481.326011 314.049623 
L 481.925758 314.196552 
L 525.707312 314.276879 
L 527.506553 314.32198 
L 534.103774 314.37849 
L 534.703521 314.519532 
L 547.298215 314.57237 
L 548.497709 314.653491 
L 565.290634 314.653844 
L 565.890381 314.774523 
L 609.072187 314.866535 
L 611.471176 314.900119 
L 624.06587 314.900119 
L 624.665617 315.241915 
L 679.242622 315.278414 
L 679.242622 315.278414 
" clip-path="url(#p6b2df8fca3)" style="fill: none; stroke-dasharray: 5.55,2.4; stroke-dashoffset: 0; stroke: #1f77b4; stroke-width: 1.5"/>
   </g>
   <g id="line2d_90">
    <path d="M 80.095063 269.875231 
L 88.491525 273.193574 
L 92.090009 274.388995 
L 93.889251 274.880622 
L 94.488998 275.073549 
L 95.088745 275.137012 
L 96.28824 275.619752 
L 98.687229 276.295703 
L 99.886724 276.738251 
L 102.88546 277.573662 
L 104.084955 278.005673 
L 108.283186 279.248014 
L 108.882933 279.305137 
L 110.082428 279.651533 
L 113.081165 280.369685 
L 117.879143 281.465883 
L 119.078638 281.717462 
L 120.278132 282.027942 
L 122.077374 282.606162 
L 124.476363 283.129559 
L 129.874089 284.335644 
L 131.073584 284.66944 
L 132.872826 285.067139 
L 135.871562 285.80919 
L 137.071057 285.992658 
L 141.269288 287.047344 
L 142.468783 287.348606 
L 146.667014 288.416944 
L 147.866508 288.532812 
L 149.066003 288.880513 
L 150.265498 289.200435 
L 150.865245 289.543686 
L 167.058422 293.50377 
L 168.257917 293.802254 
L 170.656906 294.25805 
L 171.856401 294.582799 
L 172.456148 294.664334 
L 176.054632 295.749254 
L 182.651852 297.396201 
L 183.851347 297.743661 
L 188.649325 298.864804 
L 189.84882 299.255963 
L 191.048314 299.50124 
L 191.648062 299.764154 
L 201.843766 302.043995 
L 203.643008 302.627883 
L 207.241492 303.668665 
L 208.440986 303.951862 
L 214.438459 305.702064 
L 215.038207 305.766097 
L 216.837449 306.265375 
L 218.036943 306.450785 
L 219.236438 306.877058 
L 220.435932 307.221037 
L 222.235174 307.747717 
L 224.034416 308.375344 
L 225.233911 308.782069 
L 227.033153 309.342282 
L 228.232647 309.71491 
L 229.432142 309.830673 
L 230.031889 310.040103 
L 230.631637 310.080949 
L 234.230121 311.026052 
L 236.029362 311.713225 
L 238.428352 312.273625 
L 240.227594 312.882571 
L 243.22633 313.674228 
L 243.826077 313.73422 
L 248.624056 315.327625 
L 249.223803 315.548903 
L 250.423298 315.806826 
L 251.622792 316.083199 
L 252.822287 316.408495 
L 254.021782 316.71105 
L 255.821024 317.238544 
L 257.020518 317.357525 
L 257.620265 317.653458 
L 259.419507 318.022262 
L 260.619002 318.513775 
L 262.418244 319.055709 
L 264.817233 319.633308 
L 265.41698 319.706482 
L 267.216222 320.270144 
L 267.81597 320.313912 
L 270.214959 321.102758 
L 272.014201 321.477596 
L 273.213695 321.957605 
L 274.41319 322.268289 
L 281.01041 324.101396 
L 282.209905 324.348695 
L 282.809652 324.608987 
L 285.208642 325.091255 
L 285.808389 325.222686 
L 287.007884 325.751004 
L 288.807125 326.297967 
L 290.606367 326.714577 
L 291.206115 327.046476 
L 291.805862 327.241 
L 292.405609 327.313035 
L 295.404346 328.328886 
L 296.60384 328.610464 
L 297.803335 328.99388 
L 298.403082 329.053656 
L 301.401819 329.957318 
L 302.601313 330.172935 
L 304.400555 330.699647 
L 306.799545 331.33999 
L 308.598787 332.033824 
L 309.798281 332.415826 
L 310.398028 332.660395 
L 311.597523 332.894262 
L 313.996512 333.641722 
L 315.795754 334.096161 
L 316.995249 334.485644 
L 318.194743 334.758143 
L 319.394238 335.340393 
L 320.593733 335.615325 
L 321.793227 335.840701 
L 327.190953 337.506553 
L 331.389184 338.851769 
L 336.78691 340.191421 
L 337.386657 340.457053 
L 339.185899 340.847054 
L 339.785646 341.121962 
L 340.985141 341.294809 
L 344.583625 342.573056 
L 345.183372 342.647729 
L 346.382867 343.137042 
L 347.582361 343.580835 
L 348.781856 343.786544 
L 349.381603 344.14039 
L 349.981351 344.254858 
L 351.180845 344.630521 
L 358.377813 346.389897 
L 358.97756 346.441426 
L 359.577308 346.686553 
L 360.177055 346.76984 
L 360.776802 346.979091 
L 361.37655 347.067374 
L 362.576044 347.527428 
L 363.775539 347.681922 
L 366.774275 348.510795 
L 367.97377 348.767075 
L 368.573517 348.854254 
L 375.170738 351.187111 
L 378.169474 351.761709 
L 379.968716 352.122954 
L 380.568463 352.201618 
L 382.367705 352.699418 
L 383.5672 352.941092 
L 384.166947 353.142327 
L 384.766694 353.221008 
L 388.365178 354.298258 
L 391.363915 354.900818 
L 392.563409 355.31509 
L 397.961135 356.234215 
L 400.360124 356.552699 
L 400.959872 356.71796 
L 401.559619 356.764777 
L 402.159366 357.075418 
L 404.558356 357.51439 
L 405.75785 357.922754 
L 406.957345 358.188674 
L 417.153049 359.964564 
L 421.951027 361.109013 
L 422.550775 361.143642 
L 423.150522 361.317145 
L 424.350017 361.458165 
L 436.344963 363.22677 
L 437.544457 363.500808 
L 438.743952 363.563894 
L 439.943447 363.946606 
L 442.342436 364.193041 
L 443.541931 364.314382 
L 445.341172 364.462259 
L 445.94092 364.680181 
L 447.140414 364.869778 
L 448.339909 365.046963 
L 450.738898 365.221721 
L 454.337382 365.567764 
L 454.937129 365.577286 
L 456.136624 365.798943 
L 457.336119 365.933372 
L 459.735108 366.285664 
L 462.134097 366.673818 
L 467.531823 367.063488 
L 468.731317 367.234168 
L 472.929549 367.576508 
L 484.924495 368.241644 
L 487.923231 368.42414 
L 490.921968 368.673784 
L 493.920704 368.881288 
L 498.718683 369.136381 
L 501.117672 369.248819 
L 504.716156 369.349759 
L 505.91565 369.506205 
L 507.714892 369.629657 
L 508.914387 369.751482 
L 518.510344 370.259536 
L 523.308322 370.357849 
L 531.105037 370.64223 
L 532.304532 370.763083 
L 544.299478 371.127307 
L 553.895435 371.445875 
L 564.091139 371.714366 
L 565.290634 371.786378 
L 572.487601 371.964632 
L 576.685833 372.051381 
L 577.885327 372.140617 
L 584.482548 372.248361 
L 588.081031 372.331474 
L 631.262838 372.942961 
L 641.458542 373.04903 
L 668.447171 373.389053 
L 671.445907 373.447593 
L 679.242622 373.532727 
L 679.242622 373.532727 
" clip-path="url(#p6b2df8fca3)" style="fill: none; stroke: #1f77b4; stroke-width: 1.5; stroke-linecap: square"/>
   </g>
   <g id="patch_3">
    <path d="M 50.137685 390.04 
L 50.137685 26.88 
" style="fill: none; stroke: #000000; stroke-width: 0.8; stroke-linejoin: miter; stroke-linecap: square"/>
   </g>
   <g id="patch_4">
    <path d="M 709.2 390.04 
L 709.2 26.88 
" style="fill: none; stroke: #000000; stroke-width: 0.8; stroke-linejoin: miter; stroke-linecap: square"/>
   </g>
   <g id="patch_5">
    <path d="M 50.137685 390.04 
L 709.2 390.04 
" style="fill: none; stroke: #000000; stroke-width: 0.8; stroke-linejoin: miter; stroke-linecap: square"/>
   </g>
   <g id="patch_6">
    <path d="M 50.137685 26.88 
L 709.2 26.88 
" style="fill: none; stroke: #000000; stroke-width: 0.8; stroke-linejoin: miter; stroke-linecap: square"/>
   </g>
   <g id="text_16">
    <!-- Fitness Function Comparison: Fitness over Generations -->
    <g transform="translate(215.131967 20.88) scale(0.12 -0.12)">
     <defs>
      <path id="DejaVuSans-75" d="M 544 1381 
L 544 3500 
L 1119 3500 
L 1119 1403 
Q 1119 906 1312 657 
Q 1506 409 1894 409 
Q 2359 409 2629 706 
Q 2900 1003 2900 1516 
L 2900 3500 
L 3475 3500 
L 3475 0 
L 2900 0 
L 2900 538 
Q 2691 219 2414 64 
Q 2138 -91 1772 -91 
Q 1169 -91 856 284 
Q 544 659 544 1381 
z
M 1991 3584 
L 1991 3584 
z
" transform="scale(0.015625)"/>
      <path id="DejaVuSans-43" d="M 4122 4306 
L 4122 3641 
Q 3803 3938 3442 4084 
Q 3081 4231 2675 4231 
Q 1875 4231 1450 3742 
Q 1025 3253 1025 2328 
Q 1025 1406 1450 917 
Q 1875 428 2675 428 
Q 3081 428 3442 575 
Q 3803 722 4122 1019 
L 4122 359 
Q 3791 134 3420 21 
Q 3050 -91 2638 -91 
Q 1578 -91 968 557 
Q 359 1206 359 2328 
Q 359 3453 968 4101 
Q 1578 4750 2638 4750 
Q 3056 4750 3426 4639 
Q 3797 4528 4122 4306 
z
" transform="scale(0.015625)"/>
      <path id="DejaVuSans-6d" d="M 3328 2828 
Q 3544 3216 3844 3400 
Q 4144 3584 4550 3584 
Q 5097 3584 5394 3201 
Q 5691 2819 5691 2113 
L 5691 0 
L 5113 0 
L 5113 2094 
Q 5113 2597 4934 2840 
Q 4756 3084 4391 3084 
Q 3944 3084 3684 2787 
Q 3425 2491 3425 1978 
L 3425 0 
L 2847 0 
L 2847 2094 
Q 2847 2600 2669 2842 
Q 2491 3084 2119 3084 
Q 1678 3084 1418 2786 
Q 1159 2488 1159 1978 
L 1159 0 
L 581 0 
L 581 3500 
L 1159 3500 
L 1159 2956 
Q 1356 3278 1631 3431 
Q 1906 3584 2284 3584 
Q 2666 3584 2933 3390 
Q 3200 3197 3328 2828 
z
" transform="scale(0.015625)"/>
      <path id="DejaVuSans-70" d="M 1159 525 
L 1159 -1331 
L 581 -1331 
L 581 3500 
L 1159 3500 
L 1159 2969 
Q 1341 3281 1617 3432 
Q 1894 3584 2278 3584 
Q 2916 3584 3314 3078 
Q 3713 2572 3713 1747 
Q 3713 922 3314 415 
Q 2916 -91 2278 -91 
Q 1894 -91 1617 61 
Q 1341 213 1159 525 
z
M 3116 1747 
Q 3116 2381 2855 2742 
Q 2594 3103 2138 3103 
Q 1681 3103 1420 2742 
Q 1159 2381 1159 1747 
Q 1159 1113 1420 752 
Q 1681 391 2138 391 
Q 2594 391 2855 752 
Q 3116 1113 3116 1747 
z
" transform="scale(0.015625)"/>
      <path id="DejaVuSans-3a" d="M 750 794 
L 1409 794 
L 1409 0 
L 750 0 
L 750 794 
z
M 750 3309 
L 1409 3309 
L 1409 2516 
L 750 2516 
L 750 3309 
z
" transform="scale(0.015625)"/>
      <path id="DejaVuSans-76" d="M 191 3500 
L 800 3500 
L 1894 563 
L 2988 3500 
L 3597 3500 
L 2284 0 
L 1503 0 
L 191 3500 
z
" transform="scale(0.015625)"/>
     </defs>
     <use xlink:href="#DejaVuSans-46"/>
     <use xlink:href="#DejaVuSans-69" x="50.269531"/>
     <use xlink:href="#DejaVuSans-74" x="78.052734"/>
     <use xlink:href="#DejaVuSans-6e" x="117.261719"/>
     <use xlink:href="#DejaVuSans-65" x="180.640625"/>
     <use xlink:href="#DejaVuSans-73" x="242.164062"/>
     <use xlink:href="#DejaVuSans-73" x="294.263672"/>
     <use xlink:href="#DejaVuSans-20" x="346.363281"/>
     <use xlink:href="#DejaVuSans-46" x="378.150391"/>
     <use xlink:href="#DejaVuSans-75" x="430.169922"/>
     <use xlink:href="#DejaVuSans-6e" x="493.548828"/>
     <use xlink:href="#DejaVuSans-63" x="556.927734"/>
     <use xlink:href="#DejaVuSans-74" x="611.908203"/>
     <use xlink:href="#DejaVuSans-69" x="651.117188"/>
     <use xlink:href="#DejaVuSans-6f" x="678.900391"/>
     <use xlink:href="#DejaVuSans-6e" x="740.082031"/>
     <use xlink:href="#DejaVuSans-20" x="803.460938"/>
     <use xlink:href="#DejaVuSans-43" x="835.248047"/>
     <use xlink:href="#DejaVuSans-6f" x="905.072266"/>
     <use xlink:href="#DejaVuSans-6d" x="966.253906"/>
     <use xlink:href="#DejaVuSans-70" x="1063.666016"/>
     <use xlink:href="#DejaVuSans-61" x="1127.142578"/>
     <use xlink:href="#DejaVuSans-72" x="1188.421875"/>
     <use xlink:href="#DejaVuSans-69" x="1229.535156"/>
     <use xlink:href="#DejaVuSans-73" x="1257.318359"/>
     <use xlink:href="#DejaVuSans-6f" x="1309.417969"/>
     <use xlink:href="#DejaVuSans-6e" x="1370.599609"/>
     <use xlink:href="#DejaVuSans-3a" x="1433.978516"/>
     <use xlink:href="#DejaVuSans-20" x="1467.669922"/>
     <use xlink:href="#DejaVuSans-46" x="1499.457031"/>
     <use xlink:href="#DejaVuSans-69" x="1549.726562"/>
     <use xlink:href="#DejaVuSans-74" x="1577.509766"/>
     <use xlink:href="#DejaVuSans-6e" x="1616.71875"/>
     <use xlink:href="#DejaVuSans-65" x="1680.097656"/>
     <use xlink:href="#DejaVuSans-73" x="1741.621094"/>
     <use xlink:href="#DejaVuSans-73" x="1793.720703"/>
     <use xlink:href="#DejaVuSans-20" x="1845.820312"/>
     <use xlink:href="#DejaVuSans-6f" x="1877.607422"/>
     <use xlink:href="#DejaVuSans-76" x="1938.789062"/>
     <use xlink:href="#DejaVuSans-65" x="1997.96875"/>
     <use xlink:href="#DejaVuSans-72" x="2059.492188"/>
     <use xlink:href="#DejaVuSans-20" x="2100.605469"/>
     <use xlink:href="#DejaVuSans-47" x="2132.392578"/>
     <use xlink:href="#DejaVuSans-65" x="2209.882812"/>
     <use xlink:href="#DejaVuSans-6e" x="2271.40625"/>
     <use xlink:href="#DejaVuSans-65" x="2334.785156"/>
     <use xlink:href="#DejaVuSans-72" x="2396.308594"/>
     <use xlink:href="#DejaVuSans-61" x="2437.421875"/>
     <use xlink:href="#DejaVuSans-74" x="2498.701172"/>
     <use xlink:href="#DejaVuSans-69" x="2537.910156"/>
     <use xlink:href="#DejaVuSans-6f" x="2565.693359"/>
     <use xlink:href="#DejaVuSans-6e" x="2626.875"/>
     <use xlink:href="#DejaVuSans-73" x="2690.253906"/>
    </g>
   </g>
   <g id="legend_1">
    <g id="patch_7">
     <path d="M 472.04375 124.339375 
L 702.2 124.339375 
Q 704.2 124.339375 704.2 122.339375 
L 704.2 33.88 
Q 704.2 31.88 702.2 31.88 
L 472.04375 31.88 
Q 470.04375 31.88 470.04375 33.88 
L 470.04375 122.339375 
Q 470.04375 124.339375 472.04375 124.339375 
z
" style="fill: #ffffff; opacity: 0.8; stroke: #cccccc; stroke-linejoin: miter"/>
    </g>
    <g id="text_17">
     <!-- Fitness Function -->
     <g transform="translate(546.950781 43.478438) scale(0.1 -0.1)">
      <use xlink:href="#DejaVuSans-46"/>
      <use xlink:href="#DejaVuSans-69" x="50.269531"/>
      <use xlink:href="#DejaVuSans-74" x="78.052734"/>
      <use xlink:href="#DejaVuSans-6e" x="117.261719"/>
      <use xlink:href="#DejaVuSans-65" x="180.640625"/>
      <use xlink:href="#DejaVuSans-73" x="242.164062"/>
      <use xlink:href="#DejaVuSans-73" x="294.263672"/>
      <use xlink:href="#DejaVuSans-20" x="346.363281"/>
      <use xlink:href="#DejaVuSans-46" x="378.150391"/>
      <use xlink:href="#DejaVuSans-75" x="430.169922"/>
      <use xlink:href="#DejaVuSans-6e" x="493.548828"/>
      <use xlink:href="#DejaVuSans-63" x="556.927734"/>
      <use xlink:href="#DejaVuSans-74" x="611.908203"/>
      <use xlink:href="#DejaVuSans-69" x="651.117188"/>
      <use xlink:href="#DejaVuSans-6f" x="678.900391"/>
      <use xlink:href="#DejaVuSans-6e" x="740.082031"/>
     </g>
    </g>
    <g id="line2d_91">
     <path d="M 474.04375 54.656563 
L 484.04375 54.656563 
L 494.04375 54.656563 
" style="fill: none; stroke-dasharray: 5.55,2.4; stroke-dashoffset: 0; stroke: #ff7f0e; stroke-width: 1.5"/>
    </g>
    <g id="text_18">
     <!-- fitness_each_excess_shortfall -->
     <g transform="translate(502.04375 58.156563) scale(0.1 -0.1)">
      <defs>
       <path id="DejaVuSans-66" d="M 2375 4863 
L 2375 4384 
L 1825 4384 
Q 1516 4384 1395 4259 
Q 1275 4134 1275 3809 
L 1275 3500 
L 2222 3500 
L 2222 3053 
L 1275 3053 
L 1275 0 
L 697 0 
L 697 3053 
L 147 3053 
L 147 3500 
L 697 3500 
L 697 3744 
Q 697 4328 969 4595 
Q 1241 4863 1831 4863 
L 2375 4863 
z
" transform="scale(0.015625)"/>
       <path id="DejaVuSans-5f" d="M 3263 -1063 
L 3263 -1509 
L -63 -1509 
L -63 -1063 
L 3263 -1063 
z
" transform="scale(0.015625)"/>
       <path id="DejaVuSans-68" d="M 3513 2113 
L 3513 0 
L 2938 0 
L 2938 2094 
Q 2938 2591 2744 2837 
Q 2550 3084 2163 3084 
Q 1697 3084 1428 2787 
Q 1159 2491 1159 1978 
L 1159 0 
L 581 0 
L 581 4863 
L 1159 4863 
L 1159 2956 
Q 1366 3272 1645 3428 
Q 1925 3584 2291 3584 
Q 2894 3584 3203 3211 
Q 3513 2838 3513 2113 
z
" transform="scale(0.015625)"/>
       <path id="DejaVuSans-78" d="M 3513 3500 
L 2247 1797 
L 3578 0 
L 2900 0 
L 1881 1375 
L 863 0 
L 184 0 
L 1544 1831 
L 300 3500 
L 978 3500 
L 1906 2253 
L 2834 3500 
L 3513 3500 
z
" transform="scale(0.015625)"/>
      </defs>
      <use xlink:href="#DejaVuSans-66"/>
      <use xlink:href="#DejaVuSans-69" x="35.205078"/>
      <use xlink:href="#DejaVuSans-74" x="62.988281"/>
      <use xlink:href="#DejaVuSans-6e" x="102.197266"/>
      <use xlink:href="#DejaVuSans-65" x="165.576172"/>
      <use xlink:href="#DejaVuSans-73" x="227.099609"/>
      <use xlink:href="#DejaVuSans-73" x="279.199219"/>
      <use xlink:href="#DejaVuSans-5f" x="331.298828"/>
      <use xlink:href="#DejaVuSans-65" x="381.298828"/>
      <use xlink:href="#DejaVuSans-61" x="442.822266"/>
      <use xlink:href="#DejaVuSans-63" x="504.101562"/>
      <use xlink:href="#DejaVuSans-68" x="559.082031"/>
      <use xlink:href="#DejaVuSans-5f" x="622.460938"/>
      <use xlink:href="#DejaVuSans-65" x="672.460938"/>
      <use xlink:href="#DejaVuSans-78" x="732.234375"/>
      <use xlink:href="#DejaVuSans-63" x="789.664062"/>
      <use xlink:href="#DejaVuSans-65" x="844.644531"/>
      <use xlink:href="#DejaVuSans-73" x="906.167969"/>
      <use xlink:href="#DejaVuSans-73" x="958.267578"/>
      <use xlink:href="#DejaVuSans-5f" x="1010.367188"/>
      <use xlink:href="#DejaVuSans-73" x="1060.367188"/>
      <use xlink:href="#DejaVuSans-68" x="1112.466797"/>
      <use xlink:href="#DejaVuSans-6f" x="1175.845703"/>
      <use xlink:href="#DejaVuSans-72" x="1237.027344"/>
      <use xlink:href="#DejaVuSans-74" x="1278.140625"/>
      <use xlink:href="#DejaVuSans-66" x="1317.349609"/>
      <use xlink:href="#DejaVuSans-61" x="1352.554688"/>
      <use xlink:href="#DejaVuSans-6c" x="1413.833984"/>
      <use xlink:href="#DejaVuSans-6c" x="1441.617188"/>
     </g>
    </g>
    <g id="line2d_92">
     <path d="M 474.04375 69.612813 
L 484.04375 69.612813 
L 494.04375 69.612813 
" style="fill: none; stroke-dasharray: 1.5,2.475; stroke-dashoffset: 0; stroke: #ff7f0e; stroke-width: 1.5"/>
    </g>
    <g id="text_19">
     <!-- fitness_each_excess_shortfall_weighted -->
     <g transform="translate(502.04375 73.112813) scale(0.1 -0.1)">
      <defs>
       <path id="DejaVuSans-77" d="M 269 3500 
L 844 3500 
L 1563 769 
L 2278 3500 
L 2956 3500 
L 3675 769 
L 4391 3500 
L 4966 3500 
L 4050 0 
L 3372 0 
L 2619 2869 
L 1863 0 
L 1184 0 
L 269 3500 
z
" transform="scale(0.015625)"/>
       <path id="DejaVuSans-64" d="M 2906 2969 
L 2906 4863 
L 3481 4863 
L 3481 0 
L 2906 0 
L 2906 525 
Q 2725 213 2448 61 
Q 2172 -91 1784 -91 
Q 1150 -91 751 415 
Q 353 922 353 1747 
Q 353 2572 751 3078 
Q 1150 3584 1784 3584 
Q 2172 3584 2448 3432 
Q 2725 3281 2906 2969 
z
M 947 1747 
Q 947 1113 1208 752 
Q 1469 391 1925 391 
Q 2381 391 2643 752 
Q 2906 1113 2906 1747 
Q 2906 2381 2643 2742 
Q 2381 3103 1925 3103 
Q 1469 3103 1208 2742 
Q 947 2381 947 1747 
z
" transform="scale(0.015625)"/>
      </defs>
      <use xlink:href="#DejaVuSans-66"/>
      <use xlink:href="#DejaVuSans-69" x="35.205078"/>
      <use xlink:href="#DejaVuSans-74" x="62.988281"/>
      <use xlink:href="#DejaVuSans-6e" x="102.197266"/>
      <use xlink:href="#DejaVuSans-65" x="165.576172"/>
      <use xlink:href="#DejaVuSans-73" x="227.099609"/>
      <use xlink:href="#DejaVuSans-73" x="279.199219"/>
      <use xlink:href="#DejaVuSans-5f" x="331.298828"/>
      <use xlink:href="#DejaVuSans-65" x="381.298828"/>
      <use xlink:href="#DejaVuSans-61" x="442.822266"/>
      <use xlink:href="#DejaVuSans-63" x="504.101562"/>
      <use xlink:href="#DejaVuSans-68" x="559.082031"/>
      <use xlink:href="#DejaVuSans-5f" x="622.460938"/>
      <use xlink:href="#DejaVuSans-65" x="672.460938"/>
      <use xlink:href="#DejaVuSans-78" x="732.234375"/>
      <use xlink:href="#DejaVuSans-63" x="789.664062"/>
      <use xlink:href="#DejaVuSans-65" x="844.644531"/>
      <use xlink:href="#DejaVuSans-73" x="906.167969"/>
      <use xlink:href="#DejaVuSans-73" x="958.267578"/>
      <use xlink:href="#DejaVuSans-5f" x="1010.367188"/>
      <use xlink:href="#DejaVuSans-73" x="1060.367188"/>
      <use xlink:href="#DejaVuSans-68" x="1112.466797"/>
      <use xlink:href="#DejaVuSans-6f" x="1175.845703"/>
      <use xlink:href="#DejaVuSans-72" x="1237.027344"/>
      <use xlink:href="#DejaVuSans-74" x="1278.140625"/>
      <use xlink:href="#DejaVuSans-66" x="1317.349609"/>
      <use xlink:href="#DejaVuSans-61" x="1352.554688"/>
      <use xlink:href="#DejaVuSans-6c" x="1413.833984"/>
      <use xlink:href="#DejaVuSans-6c" x="1441.617188"/>
      <use xlink:href="#DejaVuSans-5f" x="1469.400391"/>
      <use xlink:href="#DejaVuSans-77" x="1519.400391"/>
      <use xlink:href="#DejaVuSans-65" x="1601.1875"/>
      <use xlink:href="#DejaVuSans-69" x="1662.710938"/>
      <use xlink:href="#DejaVuSans-67" x="1690.494141"/>
      <use xlink:href="#DejaVuSans-68" x="1753.970703"/>
      <use xlink:href="#DejaVuSans-74" x="1817.349609"/>
      <use xlink:href="#DejaVuSans-65" x="1856.558594"/>
      <use xlink:href="#DejaVuSans-64" x="1918.082031"/>
     </g>
    </g>
    <g id="line2d_93">
     <path d="M 474.04375 84.569063 
L 484.04375 84.569063 
L 494.04375 84.569063 
" style="fill: none; stroke: #ff7f0e; stroke-width: 1.5; stroke-linecap: square"/>
    </g>
    <g id="text_20">
     <!-- fitness_each_shortfall -->
     <g transform="translate(502.04375 88.069063) scale(0.1 -0.1)">
      <use xlink:href="#DejaVuSans-66"/>
      <use xlink:href="#DejaVuSans-69" x="35.205078"/>
      <use xlink:href="#DejaVuSans-74" x="62.988281"/>
      <use xlink:href="#DejaVuSans-6e" x="102.197266"/>
      <use xlink:href="#DejaVuSans-65" x="165.576172"/>
      <use xlink:href="#DejaVuSans-73" x="227.099609"/>
      <use xlink:href="#DejaVuSans-73" x="279.199219"/>
      <use xlink:href="#DejaVuSans-5f" x="331.298828"/>
      <use xlink:href="#DejaVuSans-65" x="381.298828"/>
      <use xlink:href="#DejaVuSans-61" x="442.822266"/>
      <use xlink:href="#DejaVuSans-63" x="504.101562"/>
      <use xlink:href="#DejaVuSans-68" x="559.082031"/>
      <use xlink:href="#DejaVuSans-5f" x="622.460938"/>
      <use xlink:href="#DejaVuSans-73" x="672.460938"/>
      <use xlink:href="#DejaVuSans-68" x="724.560547"/>
      <use xlink:href="#DejaVuSans-6f" x="787.939453"/>
      <use xlink:href="#DejaVuSans-72" x="849.121094"/>
      <use xlink:href="#DejaVuSans-74" x="890.234375"/>
      <use xlink:href="#DejaVuSans-66" x="929.443359"/>
      <use xlink:href="#DejaVuSans-61" x="964.648438"/>
      <use xlink:href="#DejaVuSans-6c" x="1025.927734"/>
      <use xlink:href="#DejaVuSans-6c" x="1053.710938"/>
     </g>
    </g>
    <g id="line2d_94">
     <path d="M 474.04375 99.525313 
L 484.04375 99.525313 
L 494.04375 99.525313 
" style="fill: none; stroke-dasharray: 5.55,2.4; stroke-dashoffset: 0; stroke: #1f77b4; stroke-width: 1.5"/>
    </g>
    <g id="text_21">
     <!-- fitness_sum_excess_shortfall -->
     <g transform="translate(502.04375 103.025313) scale(0.1 -0.1)">
      <use xlink:href="#DejaVuSans-66"/>
      <use xlink:href="#DejaVuSans-69" x="35.205078"/>
      <use xlink:href="#DejaVuSans-74" x="62.988281"/>
      <use xlink:href="#DejaVuSans-6e" x="102.197266"/>
      <use xlink:href="#DejaVuSans-65" x="165.576172"/>
      <use xlink:href="#DejaVuSans-73" x="227.099609"/>
      <use xlink:href="#DejaVuSans-73" x="279.199219"/>
      <use xlink:href="#DejaVuSans-5f" x="331.298828"/>
      <use xlink:href="#DejaVuSans-73" x="381.298828"/>
      <use xlink:href="#DejaVuSans-75" x="433.398438"/>
      <use xlink:href="#DejaVuSans-6d" x="496.777344"/>
      <use xlink:href="#DejaVuSans-5f" x="594.189453"/>
      <use xlink:href="#DejaVuSans-65" x="644.189453"/>
      <use xlink:href="#DejaVuSans-78" x="703.962891"/>
      <use xlink:href="#DejaVuSans-63" x="761.392578"/>
      <use xlink:href="#DejaVuSans-65" x="816.373047"/>
      <use xlink:href="#DejaVuSans-73" x="877.896484"/>
      <use xlink:href="#DejaVuSans-73" x="929.996094"/>
      <use xlink:href="#DejaVuSans-5f" x="982.095703"/>
      <use xlink:href="#DejaVuSans-73" x="1032.095703"/>
      <use xlink:href="#DejaVuSans-68" x="1084.195312"/>
      <use xlink:href="#DejaVuSans-6f" x="1147.574219"/>
      <use xlink:href="#DejaVuSans-72" x="1208.755859"/>
      <use xlink:href="#DejaVuSans-74" x="1249.869141"/>
      <use xlink:href="#DejaVuSans-66" x="1289.078125"/>
      <use xlink:href="#DejaVuSans-61" x="1324.283203"/>
      <use xlink:href="#DejaVuSans-6c" x="1385.5625"/>
      <use xlink:href="#DejaVuSans-6c" x="1413.345703"/>
     </g>
    </g>
    <g id="line2d_95">
     <path d="M 474.04375 114.481563 
L 484.04375 114.481563 
L 494.04375 114.481563 
" style="fill: none; stroke: #1f77b4; stroke-width: 1.5; stroke-linecap: square"/>
    </g>
    <g id="text_22">
     <!-- fitness_sum_shortfall -->
     <g transform="translate(502.04375 117.981563) scale(0.1 -0.1)">
      <use xlink:href="#DejaVuSans-66"/>
      <use xlink:href="#DejaVuSans-69" x="35.205078"/>
      <use xlink:href="#DejaVuSans-74" x="62.988281"/>
      <use xlink:href="#DejaVuSans-6e" x="102.197266"/>
      <use xlink:href="#DejaVuSans-65" x="165.576172"/>
      <use xlink:href="#DejaVuSans-73" x="227.099609"/>
      <use xlink:href="#DejaVuSans-73" x="279.199219"/>
      <use xlink:href="#DejaVuSans-5f" x="331.298828"/>
      <use xlink:href="#DejaVuSans-73" x="381.298828"/>
      <use xlink:href="#DejaVuSans-75" x="433.398438"/>
      <use xlink:href="#DejaVuSans-6d" x="496.777344"/>
      <use xlink:href="#DejaVuSans-5f" x="594.189453"/>
      <use xlink:href="#DejaVuSans-73" x="644.189453"/>
      <use xlink:href="#DejaVuSans-68" x="696.289062"/>
      <use xlink:href="#DejaVuSans-6f" x="759.667969"/>
      <use xlink:href="#DejaVuSans-72" x="820.849609"/>
      <use xlink:href="#DejaVuSans-74" x="861.962891"/>
      <use xlink:href="#DejaVuSans-66" x="901.171875"/>
      <use xlink:href="#DejaVuSans-61" x="936.376953"/>
      <use xlink:href="#DejaVuSans-6c" x="997.65625"/>
      <use xlink:href="#DejaVuSans-6c" x="1025.439453"/>
     </g>
    </g>
   </g>
  </g>
 </g>
 <defs>
  <clipPath id="p6b2df8fca3">
   <rect x="50.137685" y="26.88" width="659.062315" height="363.16"/>
  </clipPath>
 </defs>
</svg>
