<?xml version="1.0" encoding="utf-8" standalone="no"?>
<!DOCTYPE svg PUBLIC "-//W3C//DTD SVG 1.1//EN"
  "http://www.w3.org/Graphics/SVG/1.1/DTD/svg11.dtd">
<svg xmlns:xlink="http://www.w3.org/1999/xlink" width="720pt" height="432pt" viewBox="0 0 720 432" xmlns="http://www.w3.org/2000/svg" version="1.1">
 <metadata>
  <rdf:RDF xmlns:dc="http://purl.org/dc/elements/1.1/" xmlns:cc="http://creativecommons.org/ns#" xmlns:rdf="http://www.w3.org/1999/02/22-rdf-syntax-ns#">
   <cc:Work>
    <dc:type rdf:resource="http://purl.org/dc/dcmitype/StillImage"/>
    <dc:date>2024-06-02T19:51:56.756488</dc:date>
    <dc:format>image/svg+xml</dc:format>
    <dc:creator>
     <cc:Agent>
      <dc:title>Matplotlib v3.8.4, https://matplotlib.org/</dc:title>
     </cc:Agent>
    </dc:creator>
   </cc:Work>
  </rdf:RDF>
 </metadata>
 <defs>
  <style type="text/css">*{stroke-linejoin: round; stroke-linecap: butt}</style>
 </defs>
 <g id="figure_1">
  <g id="patch_1">
   <path d="M 0 432 
L 720 432 
L 720 0 
L 0 0 
z
" style="fill: #ffffff"/>
  </g>
  <g id="axes_1">
   <g id="patch_2">
    <path d="M 50.137685 390.04 
L 709.2 390.04 
L 709.2 26.88 
L 50.137685 26.88 
z
" style="fill: #ffffff"/>
   </g>
   <g id="PolyCollection_1"/>
   <g id="PolyCollection_2"/>
   <g id="PolyCollection_3"/>
   <g id="PolyCollection_4"/>
   <g id="PolyCollection_5"/>
   <g id="PolyCollection_6"/>
   <g id="PolyCollection_7"/>
   <g id="PolyCollection_8"/>
   <g id="PolyCollection_9"/>
   <g id="PolyCollection_10"/>
   <g id="PolyCollection_11"/>
   <g id="matplotlib.axis_1">
    <g id="xtick_1">
     <g id="line2d_1">
      <path d="M 74.043067 390.04 
L 74.043067 26.88 
" clip-path="url(#pff8a4d1e9c)" style="fill: none; stroke: #b0b0b0; stroke-width: 0.8; stroke-linecap: square"/>
     </g>
     <g id="line2d_2">
      <defs>
       <path id="m3f2025a999" d="M 0 0 
L 0 3.5 
" style="stroke: #000000; stroke-width: 0.8"/>
      </defs>
      <g>
       <use xlink:href="#m3f2025a999" x="74.043067" y="390.04" style="stroke: #000000; stroke-width: 0.8"/>
      </g>
     </g>
     <g id="text_1">
      <!-- 0 -->
      <g transform="translate(70.861817 404.638438) scale(0.1 -0.1)">
       <defs>
        <path id="DejaVuSans-30" d="M 2034 4250 
Q 1547 4250 1301 3770 
Q 1056 3291 1056 2328 
Q 1056 1369 1301 889 
Q 1547 409 2034 409 
Q 2525 409 2770 889 
Q 3016 1369 3016 2328 
Q 3016 3291 2770 3770 
Q 2525 4250 2034 4250 
z
M 2034 4750 
Q 2819 4750 3233 4129 
Q 3647 3509 3647 2328 
Q 3647 1150 3233 529 
Q 2819 -91 2034 -91 
Q 1250 -91 836 529 
Q 422 1150 422 2328 
Q 422 3509 836 4129 
Q 1250 4750 2034 4750 
z
" transform="scale(0.015625)"/>
       </defs>
       <use xlink:href="#DejaVuSans-30"/>
      </g>
     </g>
    </g>
    <g id="xtick_2">
     <g id="line2d_3">
      <path d="M 195.082978 390.04 
L 195.082978 26.88 
" clip-path="url(#pff8a4d1e9c)" style="fill: none; stroke: #b0b0b0; stroke-width: 0.8; stroke-linecap: square"/>
     </g>
     <g id="line2d_4">
      <g>
       <use xlink:href="#m3f2025a999" x="195.082978" y="390.04" style="stroke: #000000; stroke-width: 0.8"/>
      </g>
     </g>
     <g id="text_2">
      <!-- 20 -->
      <g transform="translate(188.720478 404.638438) scale(0.1 -0.1)">
       <defs>
        <path id="DejaVuSans-32" d="M 1228 531 
L 3431 531 
L 3431 0 
L 469 0 
L 469 531 
Q 828 903 1448 1529 
Q 2069 2156 2228 2338 
Q 2531 2678 2651 2914 
Q 2772 3150 2772 3378 
Q 2772 3750 2511 3984 
Q 2250 4219 1831 4219 
Q 1534 4219 1204 4116 
Q 875 4013 500 3803 
L 500 4441 
Q 881 4594 1212 4672 
Q 1544 4750 1819 4750 
Q 2544 4750 2975 4387 
Q 3406 4025 3406 3419 
Q 3406 3131 3298 2873 
Q 3191 2616 2906 2266 
Q 2828 2175 2409 1742 
Q 1991 1309 1228 531 
z
" transform="scale(0.015625)"/>
       </defs>
       <use xlink:href="#DejaVuSans-32"/>
       <use xlink:href="#DejaVuSans-30" x="63.623047"/>
      </g>
     </g>
    </g>
    <g id="xtick_3">
     <g id="line2d_5">
      <path d="M 316.122889 390.04 
L 316.122889 26.88 
" clip-path="url(#pff8a4d1e9c)" style="fill: none; stroke: #b0b0b0; stroke-width: 0.8; stroke-linecap: square"/>
     </g>
     <g id="line2d_6">
      <g>
       <use xlink:href="#m3f2025a999" x="316.122889" y="390.04" style="stroke: #000000; stroke-width: 0.8"/>
      </g>
     </g>
     <g id="text_3">
      <!-- 40 -->
      <g transform="translate(309.760389 404.638438) scale(0.1 -0.1)">
       <defs>
        <path id="DejaVuSans-34" d="M 2419 4116 
L 825 1625 
L 2419 1625 
L 2419 4116 
z
M 2253 4666 
L 3047 4666 
L 3047 1625 
L 3713 1625 
L 3713 1100 
L 3047 1100 
L 3047 0 
L 2419 0 
L 2419 1100 
L 313 1100 
L 313 1709 
L 2253 4666 
z
" transform="scale(0.015625)"/>
       </defs>
       <use xlink:href="#DejaVuSans-34"/>
       <use xlink:href="#DejaVuSans-30" x="63.623047"/>
      </g>
     </g>
    </g>
    <g id="xtick_4">
     <g id="line2d_7">
      <path d="M 437.1628 390.04 
L 437.1628 26.88 
" clip-path="url(#pff8a4d1e9c)" style="fill: none; stroke: #b0b0b0; stroke-width: 0.8; stroke-linecap: square"/>
     </g>
     <g id="line2d_8">
      <g>
       <use xlink:href="#m3f2025a999" x="437.1628" y="390.04" style="stroke: #000000; stroke-width: 0.8"/>
      </g>
     </g>
     <g id="text_4">
      <!-- 60 -->
      <g transform="translate(430.8003 404.638438) scale(0.1 -0.1)">
       <defs>
        <path id="DejaVuSans-36" d="M 2113 2584 
Q 1688 2584 1439 2293 
Q 1191 2003 1191 1497 
Q 1191 994 1439 701 
Q 1688 409 2113 409 
Q 2538 409 2786 701 
Q 3034 994 3034 1497 
Q 3034 2003 2786 2293 
Q 2538 2584 2113 2584 
z
M 3366 4563 
L 3366 3988 
Q 3128 4100 2886 4159 
Q 2644 4219 2406 4219 
Q 1781 4219 1451 3797 
Q 1122 3375 1075 2522 
Q 1259 2794 1537 2939 
Q 1816 3084 2150 3084 
Q 2853 3084 3261 2657 
Q 3669 2231 3669 1497 
Q 3669 778 3244 343 
Q 2819 -91 2113 -91 
Q 1303 -91 875 529 
Q 447 1150 447 2328 
Q 447 3434 972 4092 
Q 1497 4750 2381 4750 
Q 2619 4750 2861 4703 
Q 3103 4656 3366 4563 
z
" transform="scale(0.015625)"/>
       </defs>
       <use xlink:href="#DejaVuSans-36"/>
       <use xlink:href="#DejaVuSans-30" x="63.623047"/>
      </g>
     </g>
    </g>
    <g id="xtick_5">
     <g id="line2d_9">
      <path d="M 558.202711 390.04 
L 558.202711 26.88 
" clip-path="url(#pff8a4d1e9c)" style="fill: none; stroke: #b0b0b0; stroke-width: 0.8; stroke-linecap: square"/>
     </g>
     <g id="line2d_10">
      <g>
       <use xlink:href="#m3f2025a999" x="558.202711" y="390.04" style="stroke: #000000; stroke-width: 0.8"/>
      </g>
     </g>
     <g id="text_5">
      <!-- 80 -->
      <g transform="translate(551.840211 404.638438) scale(0.1 -0.1)">
       <defs>
        <path id="DejaVuSans-38" d="M 2034 2216 
Q 1584 2216 1326 1975 
Q 1069 1734 1069 1313 
Q 1069 891 1326 650 
Q 1584 409 2034 409 
Q 2484 409 2743 651 
Q 3003 894 3003 1313 
Q 3003 1734 2745 1975 
Q 2488 2216 2034 2216 
z
M 1403 2484 
Q 997 2584 770 2862 
Q 544 3141 544 3541 
Q 544 4100 942 4425 
Q 1341 4750 2034 4750 
Q 2731 4750 3128 4425 
Q 3525 4100 3525 3541 
Q 3525 3141 3298 2862 
Q 3072 2584 2669 2484 
Q 3125 2378 3379 2068 
Q 3634 1759 3634 1313 
Q 3634 634 3220 271 
Q 2806 -91 2034 -91 
Q 1263 -91 848 271 
Q 434 634 434 1313 
Q 434 1759 690 2068 
Q 947 2378 1403 2484 
z
M 1172 3481 
Q 1172 3119 1398 2916 
Q 1625 2713 2034 2713 
Q 2441 2713 2670 2916 
Q 2900 3119 2900 3481 
Q 2900 3844 2670 4047 
Q 2441 4250 2034 4250 
Q 1625 4250 1398 4047 
Q 1172 3844 1172 3481 
z
" transform="scale(0.015625)"/>
       </defs>
       <use xlink:href="#DejaVuSans-38"/>
       <use xlink:href="#DejaVuSans-30" x="63.623047"/>
      </g>
     </g>
    </g>
    <g id="xtick_6">
     <g id="line2d_11">
      <path d="M 679.242622 390.04 
L 679.242622 26.88 
" clip-path="url(#pff8a4d1e9c)" style="fill: none; stroke: #b0b0b0; stroke-width: 0.8; stroke-linecap: square"/>
     </g>
     <g id="line2d_12">
      <g>
       <use xlink:href="#m3f2025a999" x="679.242622" y="390.04" style="stroke: #000000; stroke-width: 0.8"/>
      </g>
     </g>
     <g id="text_6">
      <!-- 100 -->
      <g transform="translate(669.698872 404.638438) scale(0.1 -0.1)">
       <defs>
        <path id="DejaVuSans-31" d="M 794 531 
L 1825 531 
L 1825 4091 
L 703 3866 
L 703 4441 
L 1819 4666 
L 2450 4666 
L 2450 531 
L 3481 531 
L 3481 0 
L 794 0 
L 794 531 
z
" transform="scale(0.015625)"/>
       </defs>
       <use xlink:href="#DejaVuSans-31"/>
       <use xlink:href="#DejaVuSans-30" x="63.623047"/>
       <use xlink:href="#DejaVuSans-30" x="127.246094"/>
      </g>
     </g>
    </g>
    <g id="text_7">
     <!-- Generations -->
     <g transform="translate(349.171186 418.316562) scale(0.1 -0.1)">
      <defs>
       <path id="DejaVuSans-47" d="M 3809 666 
L 3809 1919 
L 2778 1919 
L 2778 2438 
L 4434 2438 
L 4434 434 
Q 4069 175 3628 42 
Q 3188 -91 2688 -91 
Q 1594 -91 976 548 
Q 359 1188 359 2328 
Q 359 3472 976 4111 
Q 1594 4750 2688 4750 
Q 3144 4750 3555 4637 
Q 3966 4525 4313 4306 
L 4313 3634 
Q 3963 3931 3569 4081 
Q 3175 4231 2741 4231 
Q 1884 4231 1454 3753 
Q 1025 3275 1025 2328 
Q 1025 1384 1454 906 
Q 1884 428 2741 428 
Q 3075 428 3337 486 
Q 3600 544 3809 666 
z
" transform="scale(0.015625)"/>
       <path id="DejaVuSans-65" d="M 3597 1894 
L 3597 1613 
L 953 1613 
Q 991 1019 1311 708 
Q 1631 397 2203 397 
Q 2534 397 2845 478 
Q 3156 559 3463 722 
L 3463 178 
Q 3153 47 2828 -22 
Q 2503 -91 2169 -91 
Q 1331 -91 842 396 
Q 353 884 353 1716 
Q 353 2575 817 3079 
Q 1281 3584 2069 3584 
Q 2775 3584 3186 3129 
Q 3597 2675 3597 1894 
z
M 3022 2063 
Q 3016 2534 2758 2815 
Q 2500 3097 2075 3097 
Q 1594 3097 1305 2825 
Q 1016 2553 972 2059 
L 3022 2063 
z
" transform="scale(0.015625)"/>
       <path id="DejaVuSans-6e" d="M 3513 2113 
L 3513 0 
L 2938 0 
L 2938 2094 
Q 2938 2591 2744 2837 
Q 2550 3084 2163 3084 
Q 1697 3084 1428 2787 
Q 1159 2491 1159 1978 
L 1159 0 
L 581 0 
L 581 3500 
L 1159 3500 
L 1159 2956 
Q 1366 3272 1645 3428 
Q 1925 3584 2291 3584 
Q 2894 3584 3203 3211 
Q 3513 2838 3513 2113 
z
" transform="scale(0.015625)"/>
       <path id="DejaVuSans-72" d="M 2631 2963 
Q 2534 3019 2420 3045 
Q 2306 3072 2169 3072 
Q 1681 3072 1420 2755 
Q 1159 2438 1159 1844 
L 1159 0 
L 581 0 
L 581 3500 
L 1159 3500 
L 1159 2956 
Q 1341 3275 1631 3429 
Q 1922 3584 2338 3584 
Q 2397 3584 2469 3576 
Q 2541 3569 2628 3553 
L 2631 2963 
z
" transform="scale(0.015625)"/>
       <path id="DejaVuSans-61" d="M 2194 1759 
Q 1497 1759 1228 1600 
Q 959 1441 959 1056 
Q 959 750 1161 570 
Q 1363 391 1709 391 
Q 2188 391 2477 730 
Q 2766 1069 2766 1631 
L 2766 1759 
L 2194 1759 
z
M 3341 1997 
L 3341 0 
L 2766 0 
L 2766 531 
Q 2569 213 2275 61 
Q 1981 -91 1556 -91 
Q 1019 -91 701 211 
Q 384 513 384 1019 
Q 384 1609 779 1909 
Q 1175 2209 1959 2209 
L 2766 2209 
L 2766 2266 
Q 2766 2663 2505 2880 
Q 2244 3097 1772 3097 
Q 1472 3097 1187 3025 
Q 903 2953 641 2809 
L 641 3341 
Q 956 3463 1253 3523 
Q 1550 3584 1831 3584 
Q 2591 3584 2966 3190 
Q 3341 2797 3341 1997 
z
" transform="scale(0.015625)"/>
       <path id="DejaVuSans-74" d="M 1172 4494 
L 1172 3500 
L 2356 3500 
L 2356 3053 
L 1172 3053 
L 1172 1153 
Q 1172 725 1289 603 
Q 1406 481 1766 481 
L 2356 481 
L 2356 0 
L 1766 0 
Q 1100 0 847 248 
Q 594 497 594 1153 
L 594 3053 
L 172 3053 
L 172 3500 
L 594 3500 
L 594 4494 
L 1172 4494 
z
" transform="scale(0.015625)"/>
       <path id="DejaVuSans-69" d="M 603 3500 
L 1178 3500 
L 1178 0 
L 603 0 
L 603 3500 
z
M 603 4863 
L 1178 4863 
L 1178 4134 
L 603 4134 
L 603 4863 
z
" transform="scale(0.015625)"/>
       <path id="DejaVuSans-6f" d="M 1959 3097 
Q 1497 3097 1228 2736 
Q 959 2375 959 1747 
Q 959 1119 1226 758 
Q 1494 397 1959 397 
Q 2419 397 2687 759 
Q 2956 1122 2956 1747 
Q 2956 2369 2687 2733 
Q 2419 3097 1959 3097 
z
M 1959 3584 
Q 2709 3584 3137 3096 
Q 3566 2609 3566 1747 
Q 3566 888 3137 398 
Q 2709 -91 1959 -91 
Q 1206 -91 779 398 
Q 353 888 353 1747 
Q 353 2609 779 3096 
Q 1206 3584 1959 3584 
z
" transform="scale(0.015625)"/>
       <path id="DejaVuSans-73" d="M 2834 3397 
L 2834 2853 
Q 2591 2978 2328 3040 
Q 2066 3103 1784 3103 
Q 1356 3103 1142 2972 
Q 928 2841 928 2578 
Q 928 2378 1081 2264 
Q 1234 2150 1697 2047 
L 1894 2003 
Q 2506 1872 2764 1633 
Q 3022 1394 3022 966 
Q 3022 478 2636 193 
Q 2250 -91 1575 -91 
Q 1294 -91 989 -36 
Q 684 19 347 128 
L 347 722 
Q 666 556 975 473 
Q 1284 391 1588 391 
Q 1994 391 2212 530 
Q 2431 669 2431 922 
Q 2431 1156 2273 1281 
Q 2116 1406 1581 1522 
L 1381 1569 
Q 847 1681 609 1914 
Q 372 2147 372 2553 
Q 372 3047 722 3315 
Q 1072 3584 1716 3584 
Q 2034 3584 2315 3537 
Q 2597 3491 2834 3397 
z
" transform="scale(0.015625)"/>
      </defs>
      <use xlink:href="#DejaVuSans-47"/>
      <use xlink:href="#DejaVuSans-65" x="77.490234"/>
      <use xlink:href="#DejaVuSans-6e" x="139.013672"/>
      <use xlink:href="#DejaVuSans-65" x="202.392578"/>
      <use xlink:href="#DejaVuSans-72" x="263.916016"/>
      <use xlink:href="#DejaVuSans-61" x="305.029297"/>
      <use xlink:href="#DejaVuSans-74" x="366.308594"/>
      <use xlink:href="#DejaVuSans-69" x="405.517578"/>
      <use xlink:href="#DejaVuSans-6f" x="433.300781"/>
      <use xlink:href="#DejaVuSans-6e" x="494.482422"/>
      <use xlink:href="#DejaVuSans-73" x="557.861328"/>
     </g>
    </g>
   </g>
   <g id="matplotlib.axis_2">
    <g id="ytick_1">
     <g id="line2d_13">
      <path d="M 50.137685 326.440947 
L 709.2 326.440947 
" clip-path="url(#pff8a4d1e9c)" style="fill: none; stroke: #b0b0b0; stroke-width: 0.8; stroke-linecap: square"/>
     </g>
     <g id="line2d_14">
      <defs>
       <path id="m7005d13b63" d="M 0 0 
L -3.5 0 
" style="stroke: #000000; stroke-width: 0.8"/>
      </defs>
      <g>
       <use xlink:href="#m7005d13b63" x="50.137685" y="326.440947" style="stroke: #000000; stroke-width: 0.8"/>
      </g>
     </g>
     <g id="text_8">
      <!-- $\mathdefault{10^{3}}$ -->
      <g transform="translate(25.537685 330.240165) scale(0.1 -0.1)">
       <defs>
        <path id="DejaVuSans-33" d="M 2597 2516 
Q 3050 2419 3304 2112 
Q 3559 1806 3559 1356 
Q 3559 666 3084 287 
Q 2609 -91 1734 -91 
Q 1441 -91 1130 -33 
Q 819 25 488 141 
L 488 750 
Q 750 597 1062 519 
Q 1375 441 1716 441 
Q 2309 441 2620 675 
Q 2931 909 2931 1356 
Q 2931 1769 2642 2001 
Q 2353 2234 1838 2234 
L 1294 2234 
L 1294 2753 
L 1863 2753 
Q 2328 2753 2575 2939 
Q 2822 3125 2822 3475 
Q 2822 3834 2567 4026 
Q 2313 4219 1838 4219 
Q 1578 4219 1281 4162 
Q 984 4106 628 3988 
L 628 4550 
Q 988 4650 1302 4700 
Q 1616 4750 1894 4750 
Q 2613 4750 3031 4423 
Q 3450 4097 3450 3541 
Q 3450 3153 3228 2886 
Q 3006 2619 2597 2516 
z
" transform="scale(0.015625)"/>
       </defs>
       <use xlink:href="#DejaVuSans-31" transform="translate(0 0.765625)"/>
       <use xlink:href="#DejaVuSans-30" transform="translate(63.623047 0.765625)"/>
       <use xlink:href="#DejaVuSans-33" transform="translate(128.203125 39.046875) scale(0.7)"/>
      </g>
     </g>
    </g>
    <g id="ytick_2">
     <g id="line2d_15">
      <path d="M 50.137685 147.637971 
L 709.2 147.637971 
" clip-path="url(#pff8a4d1e9c)" style="fill: none; stroke: #b0b0b0; stroke-width: 0.8; stroke-linecap: square"/>
     </g>
     <g id="line2d_16">
      <g>
       <use xlink:href="#m7005d13b63" x="50.137685" y="147.637971" style="stroke: #000000; stroke-width: 0.8"/>
      </g>
     </g>
     <g id="text_9">
      <!-- $\mathdefault{10^{4}}$ -->
      <g transform="translate(25.537685 151.43719) scale(0.1 -0.1)">
       <use xlink:href="#DejaVuSans-31" transform="translate(0 0.684375)"/>
       <use xlink:href="#DejaVuSans-30" transform="translate(63.623047 0.684375)"/>
       <use xlink:href="#DejaVuSans-34" transform="translate(128.203125 38.965625) scale(0.7)"/>
      </g>
     </g>
    </g>
    <g id="ytick_3">
     <g id="line2d_17">
      <defs>
       <path id="mdde2637350" d="M 0 0 
L -2 0 
" style="stroke: #000000; stroke-width: 0.6"/>
      </defs>
      <g>
       <use xlink:href="#mdde2637350" x="50.137685" y="380.266005" style="stroke: #000000; stroke-width: 0.6"/>
      </g>
     </g>
    </g>
    <g id="ytick_4">
     <g id="line2d_18">
      <g>
       <use xlink:href="#mdde2637350" x="50.137685" y="366.108163" style="stroke: #000000; stroke-width: 0.6"/>
      </g>
     </g>
    </g>
    <g id="ytick_5">
     <g id="line2d_19">
      <g>
       <use xlink:href="#mdde2637350" x="50.137685" y="354.137878" style="stroke: #000000; stroke-width: 0.6"/>
      </g>
     </g>
    </g>
    <g id="ytick_6">
     <g id="line2d_20">
      <g>
       <use xlink:href="#mdde2637350" x="50.137685" y="343.768745" style="stroke: #000000; stroke-width: 0.6"/>
      </g>
     </g>
    </g>
    <g id="ytick_7">
     <g id="line2d_21">
      <g>
       <use xlink:href="#mdde2637350" x="50.137685" y="334.622522" style="stroke: #000000; stroke-width: 0.6"/>
      </g>
     </g>
    </g>
    <g id="ytick_8">
     <g id="line2d_22">
      <g>
       <use xlink:href="#mdde2637350" x="50.137685" y="272.615888" style="stroke: #000000; stroke-width: 0.6"/>
      </g>
     </g>
    </g>
    <g id="ytick_9">
     <g id="line2d_23">
      <g>
       <use xlink:href="#mdde2637350" x="50.137685" y="241.130247" style="stroke: #000000; stroke-width: 0.6"/>
      </g>
     </g>
    </g>
    <g id="ytick_10">
     <g id="line2d_24">
      <g>
       <use xlink:href="#mdde2637350" x="50.137685" y="218.790829" style="stroke: #000000; stroke-width: 0.6"/>
      </g>
     </g>
    </g>
    <g id="ytick_11">
     <g id="line2d_25">
      <g>
       <use xlink:href="#mdde2637350" x="50.137685" y="201.46303" style="stroke: #000000; stroke-width: 0.6"/>
      </g>
     </g>
    </g>
    <g id="ytick_12">
     <g id="line2d_26">
      <g>
       <use xlink:href="#mdde2637350" x="50.137685" y="187.305188" style="stroke: #000000; stroke-width: 0.6"/>
      </g>
     </g>
    </g>
    <g id="ytick_13">
     <g id="line2d_27">
      <g>
       <use xlink:href="#mdde2637350" x="50.137685" y="175.334903" style="stroke: #000000; stroke-width: 0.6"/>
      </g>
     </g>
    </g>
    <g id="ytick_14">
     <g id="line2d_28">
      <g>
       <use xlink:href="#mdde2637350" x="50.137685" y="164.96577" style="stroke: #000000; stroke-width: 0.6"/>
      </g>
     </g>
    </g>
    <g id="ytick_15">
     <g id="line2d_29">
      <g>
       <use xlink:href="#mdde2637350" x="50.137685" y="155.819547" style="stroke: #000000; stroke-width: 0.6"/>
      </g>
     </g>
    </g>
    <g id="ytick_16">
     <g id="line2d_30">
      <g>
       <use xlink:href="#mdde2637350" x="50.137685" y="93.812913" style="stroke: #000000; stroke-width: 0.6"/>
      </g>
     </g>
    </g>
    <g id="ytick_17">
     <g id="line2d_31">
      <g>
       <use xlink:href="#mdde2637350" x="50.137685" y="62.327272" style="stroke: #000000; stroke-width: 0.6"/>
      </g>
     </g>
    </g>
    <g id="ytick_18">
     <g id="line2d_32">
      <g>
       <use xlink:href="#mdde2637350" x="50.137685" y="39.987854" style="stroke: #000000; stroke-width: 0.6"/>
      </g>
     </g>
    </g>
    <g id="text_10">
     <!-- Fitness (log scale) -->
     <g transform="translate(19.457997 253.363125) rotate(-90) scale(0.1 -0.1)">
      <defs>
       <path id="DejaVuSans-46" d="M 628 4666 
L 3309 4666 
L 3309 4134 
L 1259 4134 
L 1259 2759 
L 3109 2759 
L 3109 2228 
L 1259 2228 
L 1259 0 
L 628 0 
L 628 4666 
z
" transform="scale(0.015625)"/>
       <path id="DejaVuSans-20" transform="scale(0.015625)"/>
       <path id="DejaVuSans-28" d="M 1984 4856 
Q 1566 4138 1362 3434 
Q 1159 2731 1159 2009 
Q 1159 1288 1364 580 
Q 1569 -128 1984 -844 
L 1484 -844 
Q 1016 -109 783 600 
Q 550 1309 550 2009 
Q 550 2706 781 3412 
Q 1013 4119 1484 4856 
L 1984 4856 
z
" transform="scale(0.015625)"/>
       <path id="DejaVuSans-6c" d="M 603 4863 
L 1178 4863 
L 1178 0 
L 603 0 
L 603 4863 
z
" transform="scale(0.015625)"/>
       <path id="DejaVuSans-67" d="M 2906 1791 
Q 2906 2416 2648 2759 
Q 2391 3103 1925 3103 
Q 1463 3103 1205 2759 
Q 947 2416 947 1791 
Q 947 1169 1205 825 
Q 1463 481 1925 481 
Q 2391 481 2648 825 
Q 2906 1169 2906 1791 
z
M 3481 434 
Q 3481 -459 3084 -895 
Q 2688 -1331 1869 -1331 
Q 1566 -1331 1297 -1286 
Q 1028 -1241 775 -1147 
L 775 -588 
Q 1028 -725 1275 -790 
Q 1522 -856 1778 -856 
Q 2344 -856 2625 -561 
Q 2906 -266 2906 331 
L 2906 616 
Q 2728 306 2450 153 
Q 2172 0 1784 0 
Q 1141 0 747 490 
Q 353 981 353 1791 
Q 353 2603 747 3093 
Q 1141 3584 1784 3584 
Q 2172 3584 2450 3431 
Q 2728 3278 2906 2969 
L 2906 3500 
L 3481 3500 
L 3481 434 
z
" transform="scale(0.015625)"/>
       <path id="DejaVuSans-63" d="M 3122 3366 
L 3122 2828 
Q 2878 2963 2633 3030 
Q 2388 3097 2138 3097 
Q 1578 3097 1268 2742 
Q 959 2388 959 1747 
Q 959 1106 1268 751 
Q 1578 397 2138 397 
Q 2388 397 2633 464 
Q 2878 531 3122 666 
L 3122 134 
Q 2881 22 2623 -34 
Q 2366 -91 2075 -91 
Q 1284 -91 818 406 
Q 353 903 353 1747 
Q 353 2603 823 3093 
Q 1294 3584 2113 3584 
Q 2378 3584 2631 3529 
Q 2884 3475 3122 3366 
z
" transform="scale(0.015625)"/>
       <path id="DejaVuSans-29" d="M 513 4856 
L 1013 4856 
Q 1481 4119 1714 3412 
Q 1947 2706 1947 2009 
Q 1947 1309 1714 600 
Q 1481 -109 1013 -844 
L 513 -844 
Q 928 -128 1133 580 
Q 1338 1288 1338 2009 
Q 1338 2731 1133 3434 
Q 928 4138 513 4856 
z
" transform="scale(0.015625)"/>
      </defs>
      <use xlink:href="#DejaVuSans-46"/>
      <use xlink:href="#DejaVuSans-69" x="50.269531"/>
      <use xlink:href="#DejaVuSans-74" x="78.052734"/>
      <use xlink:href="#DejaVuSans-6e" x="117.261719"/>
      <use xlink:href="#DejaVuSans-65" x="180.640625"/>
      <use xlink:href="#DejaVuSans-73" x="242.164062"/>
      <use xlink:href="#DejaVuSans-73" x="294.263672"/>
      <use xlink:href="#DejaVuSans-20" x="346.363281"/>
      <use xlink:href="#DejaVuSans-28" x="378.150391"/>
      <use xlink:href="#DejaVuSans-6c" x="417.164062"/>
      <use xlink:href="#DejaVuSans-6f" x="444.947266"/>
      <use xlink:href="#DejaVuSans-67" x="506.128906"/>
      <use xlink:href="#DejaVuSans-20" x="569.605469"/>
      <use xlink:href="#DejaVuSans-73" x="601.392578"/>
      <use xlink:href="#DejaVuSans-63" x="653.492188"/>
      <use xlink:href="#DejaVuSans-61" x="708.472656"/>
      <use xlink:href="#DejaVuSans-6c" x="769.751953"/>
      <use xlink:href="#DejaVuSans-65" x="797.535156"/>
      <use xlink:href="#DejaVuSans-29" x="859.058594"/>
     </g>
    </g>
   </g>
   <g id="line2d_33">
    <path d="M 80.095063 43.387273 
L 86.147058 64.671242 
L 92.199054 83.113514 
L 98.251049 96.237389 
L 104.303045 111.560459 
L 110.35504 127.922554 
L 116.407036 143.68646 
L 122.459032 157.809304 
L 128.511027 173.314768 
L 134.563023 189.211618 
L 140.615018 203.46053 
L 146.667014 214.591277 
L 152.719009 223.32077 
L 158.771005 231.498839 
L 164.823 236.8352 
L 170.874996 240.934979 
L 176.926992 243.781823 
L 182.978987 245.955722 
L 189.030983 248.243186 
L 195.082978 250.625138 
L 201.134974 250.881115 
L 207.186969 251.338127 
L 213.238965 251.420337 
L 219.29096 251.449894 
L 225.342956 251.771815 
L 231.394951 253.211497 
L 237.446947 253.621545 
L 243.498943 253.847251 
L 249.550938 253.847251 
L 255.602934 253.847251 
L 261.654929 253.847251 
L 267.706925 255.580615 
L 273.75892 255.85568 
L 279.810916 256.813166 
L 285.862911 256.953306 
L 291.914907 257.490948 
L 297.966902 258.484366 
L 304.018898 260.663354 
L 310.070894 261.071978 
L 316.122889 261.615532 
L 322.174885 261.76631 
L 328.22688 261.76631 
L 334.278876 261.76631 
L 340.330871 261.76631 
L 346.382867 261.76631 
L 352.434862 261.76631 
L 358.486858 263.111905 
L 364.538854 263.111905 
L 370.590849 263.111905 
L 376.642845 263.111905 
L 382.69484 263.182821 
L 388.746836 263.838673 
L 394.798831 264.594598 
L 400.850827 264.669219 
L 406.902822 264.775609 
L 412.954818 264.775609 
L 419.006813 266.212269 
L 425.058809 267.291375 
L 431.110805 267.703704 
L 437.1628 267.703704 
L 443.214796 267.837457 
L 449.266791 267.837457 
L 455.318787 268.162705 
L 461.370782 268.162705 
L 467.422778 268.162705 
L 473.474773 268.178349 
L 479.526769 268.982393 
L 485.578764 269.066669 
L 491.63076 269.999048 
L 497.682756 269.999048 
L 503.734751 269.999048 
L 509.786747 269.999048 
L 515.838742 269.999048 
L 521.890738 269.999048 
L 527.942733 269.999048 
L 533.994729 269.999048 
L 540.046724 269.999048 
L 546.09872 270.089196 
L 552.150716 270.163271 
L 558.202711 270.163271 
L 564.254707 270.163271 
L 570.306702 270.905654 
L 576.358698 270.905654 
L 582.410693 270.997749 
L 588.462689 271.81887 
L 594.514684 271.823226 
L 600.56668 272.537627 
L 606.618675 272.553531 
L 612.670671 273.548122 
L 618.722667 273.867464 
L 624.774662 274.566366 
L 630.826658 274.566366 
L 636.878653 274.566366 
L 642.930649 274.720467 
L 648.982644 274.720467 
L 655.03464 274.81374 
L 661.086635 274.876473 
L 667.138631 274.876473 
L 673.190626 274.876473 
L 679.242622 275.118289 
" clip-path="url(#pff8a4d1e9c)" style="fill: none; stroke: #1f77b4; stroke-width: 1.5; stroke-linecap: square"/>
   </g>
   <g id="line2d_34">
    <path d="M 80.095063 72.022732 
L 86.147058 97.418271 
L 92.199054 112.551744 
L 98.251049 128.759445 
L 104.303045 144.222671 
L 110.35504 171.45602 
L 116.407036 194.3394 
L 122.459032 217.530894 
L 128.511027 238.437696 
L 134.563023 259.020148 
L 140.615018 273.115377 
L 146.667014 282.620979 
L 152.719009 289.611299 
L 158.771005 293.562522 
L 164.823 298.641245 
L 170.874996 299.399135 
L 176.926992 299.759024 
L 182.978987 299.925889 
L 189.030983 299.925889 
L 195.082978 299.925889 
L 201.134974 299.925889 
L 207.186969 299.925889 
L 213.238965 299.925889 
L 219.29096 299.925889 
L 225.342956 300.14217 
L 231.394951 300.863144 
L 237.446947 301.574148 
L 243.498943 302.739663 
L 249.550938 303.205553 
L 255.602934 303.205553 
L 261.654929 303.533829 
L 267.706925 303.533829 
L 273.75892 304.194963 
L 279.810916 304.194963 
L 285.862911 304.194963 
L 291.914907 304.194963 
L 297.966902 304.194963 
L 304.018898 304.504232 
L 310.070894 304.504232 
L 316.122889 304.593463 
L 322.174885 304.929634 
L 328.22688 304.929634 
L 334.278876 305.39231 
L 340.330871 305.645179 
L 346.382867 306.300846 
L 352.434862 306.300846 
L 358.486858 306.300846 
L 364.538854 306.300846 
L 370.590849 306.300846 
L 376.642845 306.300846 
L 382.69484 306.300846 
L 388.746836 306.300846 
L 394.798831 306.300846 
L 400.850827 306.300846 
L 406.902822 306.300846 
L 412.954818 306.448372 
L 419.006813 307.014684 
L 425.058809 307.014684 
L 431.110805 307.315177 
L 437.1628 307.315177 
L 443.214796 307.315177 
L 449.266791 307.315177 
L 455.318787 308.188494 
L 461.370782 308.409598 
L 467.422778 308.419038 
L 473.474773 308.419038 
L 479.526769 309.323406 
L 485.578764 309.323406 
L 491.63076 309.323406 
L 497.682756 309.402141 
L 503.734751 309.402141 
L 509.786747 309.402141 
L 515.838742 309.402141 
L 521.890738 309.402141 
L 527.942733 309.402141 
L 533.994729 309.402141 
L 540.046724 309.402141 
L 546.09872 309.402141 
L 552.150716 309.584429 
L 558.202711 309.692004 
L 564.254707 309.692004 
L 570.306702 309.721635 
L 576.358698 309.721635 
L 582.410693 309.721635 
L 588.462689 309.721635 
L 594.514684 309.721635 
L 600.56668 310.099891 
L 606.618675 310.099891 
L 612.670671 310.099891 
L 618.722667 310.099891 
L 624.774662 310.099891 
L 630.826658 310.392376 
L 636.878653 310.460613 
L 642.930649 310.632523 
L 648.982644 310.632523 
L 655.03464 310.632523 
L 661.086635 310.632523 
L 667.138631 310.632523 
L 673.190626 310.632523 
L 679.242622 310.632523 
" clip-path="url(#pff8a4d1e9c)" style="fill: none; stroke: #aec7e8; stroke-width: 1.5; stroke-linecap: square"/>
   </g>
   <g id="line2d_35">
    <path d="M 80.095063 82.867707 
L 86.147058 103.680256 
L 92.199054 115.322612 
L 98.251049 136.328724 
L 104.303045 156.746775 
L 110.35504 182.369156 
L 116.407036 208.765733 
L 122.459032 234.687706 
L 128.511027 256.067902 
L 134.563023 278.504642 
L 140.615018 293.316635 
L 146.667014 306.280278 
L 152.719009 314.667484 
L 158.771005 318.137706 
L 164.823 320.736942 
L 170.874996 321.922776 
L 176.926992 322.535229 
L 182.978987 323.479754 
L 189.030983 324.456848 
L 195.082978 324.607626 
L 201.134974 324.607626 
L 207.186969 324.607626 
L 213.238965 325.307754 
L 219.29096 325.307754 
L 225.342956 325.307754 
L 231.394951 325.307754 
L 237.446947 325.57197 
L 243.498943 325.57197 
L 249.550938 325.57197 
L 255.602934 325.57197 
L 261.654929 325.57197 
L 267.706925 325.794978 
L 273.75892 325.794978 
L 279.810916 325.794978 
L 285.862911 325.794978 
L 291.914907 325.794978 
L 297.966902 325.794978 
L 304.018898 325.794978 
L 310.070894 325.816801 
L 316.122889 325.816801 
L 322.174885 325.816801 
L 328.22688 326.127602 
L 334.278876 326.370314 
L 340.330871 326.773495 
L 346.382867 326.805737 
L 352.434862 327.194461 
L 358.486858 327.477253 
L 364.538854 327.477253 
L 370.590849 327.477253 
L 376.642845 327.477253 
L 382.69484 327.477253 
L 388.746836 327.477253 
L 394.798831 327.477253 
L 400.850827 327.939525 
L 406.902822 328.057836 
L 412.954818 328.057836 
L 419.006813 328.487702 
L 425.058809 328.706462 
L 431.110805 328.706462 
L 437.1628 328.706462 
L 443.214796 328.706462 
L 449.266791 328.706462 
L 455.318787 328.706462 
L 461.370782 328.706462 
L 467.422778 328.706462 
L 473.474773 330.460824 
L 479.526769 330.460824 
L 485.578764 331.592675 
L 491.63076 331.592675 
L 497.682756 331.592675 
L 503.734751 331.592675 
L 509.786747 331.592675 
L 515.838742 331.592675 
L 521.890738 331.592675 
L 527.942733 331.592675 
L 533.994729 331.592675 
L 540.046724 331.592675 
L 546.09872 331.592675 
L 552.150716 332.834242 
L 558.202711 332.834242 
L 564.254707 332.834242 
L 570.306702 332.834242 
L 576.358698 332.875849 
L 582.410693 333.071816 
L 588.462689 333.071816 
L 594.514684 333.071816 
L 600.56668 333.135274 
L 606.618675 333.135274 
L 612.670671 333.195395 
L 618.722667 333.195395 
L 624.774662 333.195395 
L 630.826658 333.195395 
L 636.878653 333.195395 
L 642.930649 333.195395 
L 648.982644 333.195395 
L 655.03464 333.195395 
L 661.086635 333.195395 
L 667.138631 333.195395 
L 673.190626 333.195395 
L 679.242622 333.195395 
" clip-path="url(#pff8a4d1e9c)" style="fill: none; stroke: #ff7f0e; stroke-width: 1.5; stroke-linecap: square"/>
   </g>
   <g id="line2d_36">
    <path d="M 80.095063 104.541768 
L 86.147058 124.275678 
L 92.199054 137.700214 
L 98.251049 157.304463 
L 104.303045 180.490701 
L 110.35504 209.450256 
L 116.407036 234.534672 
L 122.459032 260.282261 
L 128.511027 280.45296 
L 134.563023 295.575202 
L 140.615018 309.360998 
L 146.667014 318.821982 
L 152.719009 323.177366 
L 158.771005 325.834263 
L 164.823 326.705937 
L 170.874996 327.189234 
L 176.926992 327.301696 
L 182.978987 327.301696 
L 189.030983 327.350917 
L 195.082978 327.350917 
L 201.134974 327.350917 
L 207.186969 327.350917 
L 213.238965 327.350917 
L 219.29096 327.350917 
L 225.342956 327.373181 
L 231.394951 327.373181 
L 237.446947 327.373181 
L 243.498943 327.373181 
L 249.550938 327.388901 
L 255.602934 327.656625 
L 261.654929 328.115473 
L 267.706925 328.115473 
L 273.75892 328.115473 
L 279.810916 328.115473 
L 285.862911 328.115473 
L 291.914907 328.115473 
L 297.966902 328.115473 
L 304.018898 328.115473 
L 310.070894 328.115473 
L 316.122889 328.187976 
L 322.174885 328.512687 
L 328.22688 328.522258 
L 334.278876 328.522258 
L 340.330871 330.335259 
L 346.382867 330.335259 
L 352.434862 332.241792 
L 358.486858 332.241792 
L 364.538854 332.241792 
L 370.590849 332.241792 
L 376.642845 332.241792 
L 382.69484 332.992638 
L 388.746836 332.992638 
L 394.798831 333.069843 
L 400.850827 333.069843 
L 406.902822 333.069843 
L 412.954818 333.069843 
L 419.006813 333.069843 
L 425.058809 333.069843 
L 431.110805 333.149947 
L 437.1628 333.149947 
L 443.214796 333.149947 
L 449.266791 333.381981 
L 455.318787 333.381981 
L 461.370782 333.381981 
L 467.422778 333.381981 
L 473.474773 333.466941 
L 479.526769 333.68458 
L 485.578764 333.68458 
L 491.63076 333.68458 
L 497.682756 333.68458 
L 503.734751 333.68458 
L 509.786747 333.68458 
L 515.838742 333.68458 
L 521.890738 333.68458 
L 527.942733 333.68458 
L 533.994729 333.68458 
L 540.046724 333.68458 
L 546.09872 333.68458 
L 552.150716 333.68458 
L 558.202711 333.68458 
L 564.254707 334.043153 
L 570.306702 334.588017 
L 576.358698 334.862178 
L 582.410693 334.862178 
L 588.462689 334.862178 
L 594.514684 334.862178 
L 600.56668 334.862178 
L 606.618675 335.056288 
L 612.670671 335.056288 
L 618.722667 335.056288 
L 624.774662 335.158738 
L 630.826658 335.363173 
L 636.878653 335.363173 
L 642.930649 335.363173 
L 648.982644 335.363173 
L 655.03464 336.042384 
L 661.086635 336.12239 
L 667.138631 336.12239 
L 673.190626 336.322032 
L 679.242622 336.322032 
" clip-path="url(#pff8a4d1e9c)" style="fill: none; stroke: #ffbb78; stroke-width: 1.5; stroke-linecap: square"/>
   </g>
   <g id="line2d_37">
    <path d="M 80.095063 114.378121 
L 86.147058 126.031299 
L 92.199054 136.905912 
L 98.251049 162.332258 
L 104.303045 185.426502 
L 110.35504 211.171102 
L 116.407036 237.451809 
L 122.459032 267.131782 
L 128.511027 288.278694 
L 134.563023 303.008333 
L 140.615018 315.097963 
L 146.667014 320.982412 
L 152.719009 324.893568 
L 158.771005 329.203486 
L 164.823 330.443925 
L 170.874996 331.403987 
L 176.926992 331.582165 
L 182.978987 332.620091 
L 189.030983 332.792937 
L 195.082978 332.962228 
L 201.134974 332.962228 
L 207.186969 332.962228 
L 213.238965 332.962228 
L 219.29096 333.538663 
L 225.342956 333.538663 
L 231.394951 333.538663 
L 237.446947 334.295916 
L 243.498943 334.295916 
L 249.550938 334.295916 
L 255.602934 334.295916 
L 261.654929 334.295916 
L 267.706925 334.295916 
L 273.75892 334.295916 
L 279.810916 334.334876 
L 285.862911 334.334876 
L 291.914907 334.334876 
L 297.966902 334.334876 
L 304.018898 334.334876 
L 310.070894 334.334876 
L 316.122889 334.782019 
L 322.174885 334.815456 
L 328.22688 336.133533 
L 334.278876 336.535746 
L 340.330871 336.590889 
L 346.382867 336.590889 
L 352.434862 336.752711 
L 358.486858 336.752711 
L 364.538854 336.752711 
L 370.590849 336.953982 
L 376.642845 337.323842 
L 382.69484 337.894705 
L 388.746836 338.040634 
L 394.798831 338.040634 
L 400.850827 338.040634 
L 406.902822 338.040634 
L 412.954818 338.297122 
L 419.006813 338.297122 
L 425.058809 338.5823 
L 431.110805 339.360365 
L 437.1628 339.608376 
L 443.214796 339.608376 
L 449.266791 339.608376 
L 455.318787 341.12707 
L 461.370782 341.12707 
L 467.422778 341.12707 
L 473.474773 341.12707 
L 479.526769 341.12707 
L 485.578764 341.12707 
L 491.63076 341.544752 
L 497.682756 341.544752 
L 503.734751 341.556072 
L 509.786747 341.768311 
L 515.838742 341.822566 
L 521.890738 341.822566 
L 527.942733 341.822566 
L 533.994729 341.822566 
L 540.046724 341.822566 
L 546.09872 341.822566 
L 552.150716 341.822566 
L 558.202711 341.822566 
L 564.254707 341.822566 
L 570.306702 341.822566 
L 576.358698 341.822566 
L 582.410693 341.822566 
L 588.462689 341.822566 
L 594.514684 341.822566 
L 600.56668 342.055156 
L 606.618675 342.055156 
L 612.670671 342.450511 
L 618.722667 342.450511 
L 624.774662 342.450511 
L 630.826658 342.450511 
L 636.878653 342.450511 
L 642.930649 342.450511 
L 648.982644 342.617698 
L 655.03464 342.617698 
L 661.086635 342.617698 
L 667.138631 342.617698 
L 673.190626 342.806974 
L 679.242622 342.806974 
" clip-path="url(#pff8a4d1e9c)" style="fill: none; stroke: #2ca02c; stroke-width: 1.5; stroke-linecap: square"/>
   </g>
   <g id="line2d_38">
    <path d="M 80.095063 106.523103 
L 86.147058 125.626807 
L 92.199054 140.566029 
L 98.251049 158.980965 
L 104.303045 181.760205 
L 110.35504 208.183489 
L 116.407036 232.180379 
L 122.459032 260.369759 
L 128.511027 282.416908 
L 134.563023 301.417584 
L 140.615018 313.765675 
L 146.667014 323.237203 
L 152.719009 328.73765 
L 158.771005 333.617265 
L 164.823 335.597265 
L 170.874996 337.896205 
L 176.926992 339.992979 
L 182.978987 340.110491 
L 189.030983 340.430309 
L 195.082978 340.589471 
L 201.134974 340.740558 
L 207.186969 340.872299 
L 213.238965 340.872299 
L 219.29096 340.905347 
L 225.342956 341.000204 
L 231.394951 341.407158 
L 237.446947 341.407158 
L 243.498943 341.407158 
L 249.550938 343.680142 
L 255.602934 343.680142 
L 261.654929 343.680142 
L 267.706925 343.680142 
L 273.75892 344.366706 
L 279.810916 344.366706 
L 285.862911 344.366706 
L 291.914907 344.366706 
L 297.966902 344.366706 
L 304.018898 344.366706 
L 310.070894 344.366706 
L 316.122889 344.366706 
L 322.174885 344.366706 
L 328.22688 344.366706 
L 334.278876 344.366706 
L 340.330871 344.366706 
L 346.382867 344.53546 
L 352.434862 344.53546 
L 358.486858 344.53546 
L 364.538854 344.571086 
L 370.590849 344.959121 
L 376.642845 344.959121 
L 382.69484 344.959121 
L 388.746836 344.959121 
L 394.798831 344.959121 
L 400.850827 344.959121 
L 406.902822 344.959121 
L 412.954818 345.158151 
L 419.006813 345.204609 
L 425.058809 345.204609 
L 431.110805 345.204609 
L 437.1628 345.387419 
L 443.214796 345.387419 
L 449.266791 345.387419 
L 455.318787 345.387419 
L 461.370782 345.387419 
L 467.422778 345.387419 
L 473.474773 345.65747 
L 479.526769 345.849326 
L 485.578764 345.849326 
L 491.63076 345.849326 
L 497.682756 346.120991 
L 503.734751 346.258183 
L 509.786747 346.495754 
L 515.838742 347.311345 
L 521.890738 347.579347 
L 527.942733 347.579347 
L 533.994729 347.579347 
L 540.046724 347.579347 
L 546.09872 347.579347 
L 552.150716 347.579347 
L 558.202711 347.579347 
L 564.254707 347.579347 
L 570.306702 347.579347 
L 576.358698 347.579347 
L 582.410693 347.579347 
L 588.462689 347.579347 
L 594.514684 347.579347 
L 600.56668 347.701781 
L 606.618675 347.701781 
L 612.670671 347.701781 
L 618.722667 347.701781 
L 624.774662 347.701781 
L 630.826658 347.701781 
L 636.878653 347.701781 
L 642.930649 347.701781 
L 648.982644 347.701781 
L 655.03464 347.701781 
L 661.086635 347.701781 
L 667.138631 347.701781 
L 673.190626 347.701781 
L 679.242622 347.794416 
" clip-path="url(#pff8a4d1e9c)" style="fill: none; stroke: #98df8a; stroke-width: 1.5; stroke-linecap: square"/>
   </g>
   <g id="line2d_39">
    <path d="M 80.095063 116.605957 
L 86.147058 130.113452 
L 92.199054 144.45184 
L 98.251049 161.857868 
L 104.303045 185.905328 
L 110.35504 214.302031 
L 116.407036 239.754245 
L 122.459032 265.774337 
L 128.511027 289.114811 
L 134.563023 307.589218 
L 140.615018 319.048518 
L 146.667014 329.773119 
L 152.719009 335.806948 
L 158.771005 340.659071 
L 164.823 342.370072 
L 170.874996 343.386598 
L 176.926992 344.307712 
L 182.978987 344.812069 
L 189.030983 344.915764 
L 195.082978 345.152551 
L 201.134974 345.152551 
L 207.186969 345.30223 
L 213.238965 345.809787 
L 219.29096 345.809787 
L 225.342956 345.809787 
L 231.394951 346.128995 
L 237.446947 346.128995 
L 243.498943 346.128995 
L 249.550938 346.186385 
L 255.602934 346.516534 
L 261.654929 346.69675 
L 267.706925 346.888163 
L 273.75892 346.888163 
L 279.810916 347.954743 
L 285.862911 348.328532 
L 291.914907 348.328532 
L 297.966902 348.328532 
L 304.018898 348.328532 
L 310.070894 348.328532 
L 316.122889 348.328532 
L 322.174885 348.328532 
L 328.22688 348.551195 
L 334.278876 348.61557 
L 340.330871 348.851147 
L 346.382867 349.575099 
L 352.434862 350.05005 
L 358.486858 350.05005 
L 364.538854 350.242534 
L 370.590849 350.242534 
L 376.642845 350.242534 
L 382.69484 350.242534 
L 388.746836 350.242534 
L 394.798831 350.248162 
L 400.850827 350.248162 
L 406.902822 350.248162 
L 412.954818 350.248162 
L 419.006813 350.248162 
L 425.058809 350.248162 
L 431.110805 350.248162 
L 437.1628 350.248162 
L 443.214796 350.296009 
L 449.266791 350.296009 
L 455.318787 350.296009 
L 461.370782 350.296009 
L 467.422778 350.296009 
L 473.474773 350.315367 
L 479.526769 350.315367 
L 485.578764 350.315367 
L 491.63076 350.315367 
L 497.682756 350.359382 
L 503.734751 350.359382 
L 509.786747 350.359382 
L 515.838742 350.359382 
L 521.890738 350.361847 
L 527.942733 350.361847 
L 533.994729 350.361847 
L 540.046724 350.361847 
L 546.09872 350.361847 
L 552.150716 350.361847 
L 558.202711 350.361847 
L 564.254707 350.454538 
L 570.306702 350.454538 
L 576.358698 350.454538 
L 582.410693 350.454538 
L 588.462689 350.486636 
L 594.514684 350.613391 
L 600.56668 350.613391 
L 606.618675 350.645555 
L 612.670671 350.645555 
L 618.722667 350.645555 
L 624.774662 350.645555 
L 630.826658 350.645555 
L 636.878653 350.645555 
L 642.930649 350.645555 
L 648.982644 350.645555 
L 655.03464 350.645555 
L 661.086635 350.645555 
L 667.138631 351.246018 
L 673.190626 351.246018 
L 679.242622 351.246018 
" clip-path="url(#pff8a4d1e9c)" style="fill: none; stroke: #d62728; stroke-width: 1.5; stroke-linecap: square"/>
   </g>
   <g id="line2d_40">
    <path d="M 80.095063 115.619426 
L 86.147058 129.095923 
L 92.199054 144.719422 
L 98.251049 163.749016 
L 104.303045 188.520867 
L 110.35504 213.684991 
L 116.407036 242.258332 
L 122.459032 265.996381 
L 128.511027 285.965851 
L 134.563023 303.787669 
L 140.615018 316.164309 
L 146.667014 326.255577 
L 152.719009 334.840544 
L 158.771005 338.386732 
L 164.823 341.404961 
L 170.874996 345.188131 
L 176.926992 346.477324 
L 182.978987 347.321506 
L 189.030983 347.752512 
L 195.082978 347.811797 
L 201.134974 347.811797 
L 207.186969 348.188322 
L 213.238965 348.882589 
L 219.29096 349.402696 
L 225.342956 349.402696 
L 231.394951 350.054961 
L 237.446947 350.054961 
L 243.498943 350.083384 
L 249.550938 350.854764 
L 255.602934 351.798399 
L 261.654929 351.798399 
L 267.706925 351.798399 
L 273.75892 351.852597 
L 279.810916 351.852597 
L 285.862911 351.901803 
L 291.914907 351.901803 
L 297.966902 351.901803 
L 304.018898 352.551216 
L 310.070894 352.551216 
L 316.122889 353.117373 
L 322.174885 353.117373 
L 328.22688 353.272997 
L 334.278876 353.272997 
L 340.330871 353.310306 
L 346.382867 353.310306 
L 352.434862 353.310306 
L 358.486858 353.310306 
L 364.538854 353.360078 
L 370.590849 353.756467 
L 376.642845 353.756467 
L 382.69484 354.056939 
L 388.746836 354.056939 
L 394.798831 354.056939 
L 400.850827 354.056939 
L 406.902822 354.056939 
L 412.954818 354.056939 
L 419.006813 354.056939 
L 425.058809 354.370075 
L 431.110805 354.40977 
L 437.1628 354.40977 
L 443.214796 354.40977 
L 449.266791 354.40977 
L 455.318787 354.40977 
L 461.370782 354.40977 
L 467.422778 354.40977 
L 473.474773 354.40977 
L 479.526769 354.40977 
L 485.578764 354.40977 
L 491.63076 354.500364 
L 497.682756 354.500364 
L 503.734751 354.500364 
L 509.786747 354.500364 
L 515.838742 354.500364 
L 521.890738 354.500364 
L 527.942733 354.500364 
L 533.994729 355.190337 
L 540.046724 355.475726 
L 546.09872 355.475726 
L 552.150716 355.475726 
L 558.202711 355.601857 
L 564.254707 355.992463 
L 570.306702 355.992463 
L 576.358698 355.992463 
L 582.410693 355.992463 
L 588.462689 356.071276 
L 594.514684 356.071276 
L 600.56668 356.071276 
L 606.618675 356.071276 
L 612.670671 356.071276 
L 618.722667 356.071276 
L 624.774662 356.071276 
L 630.826658 356.071276 
L 636.878653 356.071276 
L 642.930649 356.071276 
L 648.982644 356.071276 
L 655.03464 356.071276 
L 661.086635 356.071276 
L 667.138631 356.071276 
L 673.190626 356.071276 
L 679.242622 356.071276 
" clip-path="url(#pff8a4d1e9c)" style="fill: none; stroke: #ff9896; stroke-width: 1.5; stroke-linecap: square"/>
   </g>
   <g id="line2d_41">
    <path d="M 80.095063 122.886187 
L 86.147058 133.689038 
L 92.199054 149.193966 
L 98.251049 170.383384 
L 104.303045 194.098895 
L 110.35504 220.200725 
L 116.407036 242.302554 
L 122.459032 267.384119 
L 128.511027 287.326096 
L 134.563023 303.925069 
L 140.615018 316.483787 
L 146.667014 326.618198 
L 152.719009 334.670567 
L 158.771005 339.085114 
L 164.823 342.563204 
L 170.874996 345.068606 
L 176.926992 345.991032 
L 182.978987 347.045278 
L 189.030983 348.004615 
L 195.082978 348.642437 
L 201.134974 349.601952 
L 207.186969 349.762564 
L 213.238965 349.762564 
L 219.29096 349.762564 
L 225.342956 349.762564 
L 231.394951 349.949431 
L 237.446947 350.483108 
L 243.498943 350.732214 
L 249.550938 350.753806 
L 255.602934 350.809759 
L 261.654929 350.924625 
L 267.706925 351.477933 
L 273.75892 351.477933 
L 279.810916 351.509741 
L 285.862911 351.527974 
L 291.914907 351.527974 
L 297.966902 351.7342 
L 304.018898 351.7342 
L 310.070894 351.918691 
L 316.122889 352.011461 
L 322.174885 352.053927 
L 328.22688 352.053927 
L 334.278876 352.053927 
L 340.330871 352.053927 
L 346.382867 352.053927 
L 352.434862 352.053927 
L 358.486858 352.053927 
L 364.538854 352.053927 
L 370.590849 352.053927 
L 376.642845 352.053927 
L 382.69484 352.974444 
L 388.746836 352.974444 
L 394.798831 353.090007 
L 400.850827 353.144019 
L 406.902822 353.144019 
L 412.954818 353.152416 
L 419.006813 353.152416 
L 425.058809 353.152416 
L 431.110805 353.152416 
L 437.1628 353.170309 
L 443.214796 353.170309 
L 449.266791 353.189666 
L 455.318787 353.189666 
L 461.370782 353.189666 
L 467.422778 353.946569 
L 473.474773 353.946569 
L 479.526769 353.946569 
L 485.578764 353.946569 
L 491.63076 354.016686 
L 497.682756 354.016686 
L 503.734751 354.334107 
L 509.786747 354.334107 
L 515.838742 354.436492 
L 521.890738 354.436492 
L 527.942733 354.576189 
L 533.994729 354.576189 
L 540.046724 354.576189 
L 546.09872 354.611525 
L 552.150716 354.611525 
L 558.202711 354.611525 
L 564.254707 354.611525 
L 570.306702 354.915704 
L 576.358698 354.915704 
L 582.410693 354.915704 
L 588.462689 354.915704 
L 594.514684 354.915704 
L 600.56668 354.915704 
L 606.618675 354.915704 
L 612.670671 354.915704 
L 618.722667 354.932513 
L 624.774662 354.932513 
L 630.826658 354.932513 
L 636.878653 354.932513 
L 642.930649 354.932513 
L 648.982644 354.932513 
L 655.03464 354.932513 
L 661.086635 354.932513 
L 667.138631 354.932513 
L 673.190626 354.932513 
L 679.242622 354.932513 
" clip-path="url(#pff8a4d1e9c)" style="fill: none; stroke: #9467bd; stroke-width: 1.5; stroke-linecap: square"/>
   </g>
   <g id="line2d_42">
    <path d="M 80.095063 125.758006 
L 86.147058 135.67776 
L 92.199054 153.08059 
L 98.251049 171.851948 
L 104.303045 196.659558 
L 110.35504 223.223148 
L 116.407036 244.46341 
L 122.459032 269.074088 
L 128.511027 288.991343 
L 134.563023 304.657179 
L 140.615018 317.265278 
L 146.667014 330.167248 
L 152.719009 337.00883 
L 158.771005 341.773987 
L 164.823 345.527622 
L 170.874996 348.107533 
L 176.926992 349.771302 
L 182.978987 350.268915 
L 189.030983 350.976442 
L 195.082978 351.367241 
L 201.134974 351.690474 
L 207.186969 352.010022 
L 213.238965 352.211761 
L 219.29096 352.380038 
L 225.342956 352.660344 
L 231.394951 352.660344 
L 237.446947 352.983188 
L 243.498943 352.983188 
L 249.550938 352.983188 
L 255.602934 353.041501 
L 261.654929 353.240093 
L 267.706925 353.240093 
L 273.75892 353.240093 
L 279.810916 353.362641 
L 285.862911 353.710853 
L 291.914907 353.710853 
L 297.966902 353.710853 
L 304.018898 353.710853 
L 310.070894 353.710853 
L 316.122889 353.710853 
L 322.174885 354.162287 
L 328.22688 354.162287 
L 334.278876 354.162287 
L 340.330871 354.162287 
L 346.382867 354.162287 
L 352.434862 354.162287 
L 358.486858 354.162287 
L 364.538854 354.162287 
L 370.590849 354.219272 
L 376.642845 354.219272 
L 382.69484 354.219272 
L 388.746836 354.31891 
L 394.798831 354.31891 
L 400.850827 354.31891 
L 406.902822 354.367479 
L 412.954818 354.381944 
L 419.006813 354.381944 
L 425.058809 354.381944 
L 431.110805 354.524516 
L 437.1628 354.5431 
L 443.214796 354.5431 
L 449.266791 354.934007 
L 455.318787 355.090324 
L 461.370782 355.090324 
L 467.422778 355.12964 
L 473.474773 355.227829 
L 479.526769 355.585655 
L 485.578764 355.585655 
L 491.63076 355.585655 
L 497.682756 355.585655 
L 503.734751 355.585655 
L 509.786747 355.585655 
L 515.838742 355.594697 
L 521.890738 355.594697 
L 527.942733 355.745178 
L 533.994729 355.776518 
L 540.046724 355.846795 
L 546.09872 356.06142 
L 552.150716 356.434162 
L 558.202711 356.46883 
L 564.254707 356.485597 
L 570.306702 356.485597 
L 576.358698 356.485597 
L 582.410693 356.485597 
L 588.462689 356.799518 
L 594.514684 356.799518 
L 600.56668 356.799518 
L 606.618675 356.958489 
L 612.670671 356.958489 
L 618.722667 356.969993 
L 624.774662 356.969993 
L 630.826658 356.969993 
L 636.878653 356.969993 
L 642.930649 356.983417 
L 648.982644 357.066315 
L 655.03464 357.431191 
L 661.086635 357.431191 
L 667.138631 357.680042 
L 673.190626 357.680042 
L 679.242622 358.036933 
" clip-path="url(#pff8a4d1e9c)" style="fill: none; stroke: #c5b0d5; stroke-width: 1.5; stroke-linecap: square"/>
   </g>
   <g id="line2d_43">
    <path d="M 80.095063 124.578813 
L 86.147058 136.2462 
L 92.199054 149.646441 
L 98.251049 166.148228 
L 104.303045 190.364092 
L 110.35504 211.265078 
L 116.407036 233.866656 
L 122.459032 255.970283 
L 128.511027 276.084086 
L 134.563023 290.92653 
L 140.615018 306.135662 
L 146.667014 318.021496 
L 152.719009 328.769917 
L 158.771005 337.286926 
L 164.823 342.913144 
L 170.874996 348.527799 
L 176.926992 355.190337 
L 182.978987 358.238603 
L 189.030983 361.294569 
L 195.082978 363.023569 
L 201.134974 364.22733 
L 207.186969 365.099641 
L 213.238965 365.86394 
L 219.29096 366.050807 
L 225.342956 366.561164 
L 231.394951 366.561164 
L 237.446947 367.785334 
L 243.498943 368.602055 
L 249.550938 368.602055 
L 255.602934 368.602055 
L 261.654929 368.602055 
L 267.706925 368.602055 
L 273.75892 369.063163 
L 279.810916 369.153292 
L 285.862911 369.214333 
L 291.914907 369.214333 
L 297.966902 369.538297 
L 304.018898 369.848225 
L 310.070894 370.069 
L 316.122889 370.069 
L 322.174885 370.137128 
L 328.22688 370.137128 
L 334.278876 370.137128 
L 340.330871 370.304975 
L 346.382867 370.304975 
L 352.434862 370.509703 
L 358.486858 370.509703 
L 364.538854 370.509703 
L 370.590849 370.509703 
L 376.642845 370.643135 
L 382.69484 370.643135 
L 388.746836 370.643135 
L 394.798831 370.643135 
L 400.850827 370.72367 
L 406.902822 371.058144 
L 412.954818 371.313755 
L 419.006813 371.313755 
L 425.058809 371.313755 
L 431.110805 371.313755 
L 437.1628 371.313755 
L 443.214796 371.313755 
L 449.266791 371.313755 
L 455.318787 371.313755 
L 461.370782 371.313755 
L 467.422778 371.313755 
L 473.474773 371.313755 
L 479.526769 371.313755 
L 485.578764 371.313755 
L 491.63076 371.556325 
L 497.682756 371.556325 
L 503.734751 371.80569 
L 509.786747 371.961835 
L 515.838742 371.961835 
L 521.890738 372.185445 
L 527.942733 372.255922 
L 533.994729 372.390988 
L 540.046724 372.390988 
L 546.09872 372.526757 
L 552.150716 372.526757 
L 558.202711 372.526757 
L 564.254707 372.533786 
L 570.306702 372.550659 
L 576.358698 372.569879 
L 582.410693 372.737435 
L 588.462689 372.822055 
L 594.514684 372.822055 
L 600.56668 372.948216 
L 606.618675 372.948216 
L 612.670671 372.948216 
L 618.722667 372.948216 
L 624.774662 372.948216 
L 630.826658 372.948216 
L 636.878653 372.948216 
L 642.930649 372.948216 
L 648.982644 373.01373 
L 655.03464 373.113759 
L 661.086635 373.129341 
L 667.138631 373.133119 
L 673.190626 373.231883 
L 679.242622 373.532727 
" clip-path="url(#pff8a4d1e9c)" style="fill: none; stroke: #8c564b; stroke-width: 1.5; stroke-linecap: square"/>
   </g>
   <g id="line2d_44"/>
   <g id="line2d_45"/>
   <g id="line2d_46"/>
   <g id="line2d_47"/>
   <g id="line2d_48"/>
   <g id="line2d_49"/>
   <g id="line2d_50"/>
   <g id="line2d_51"/>
   <g id="line2d_52"/>
   <g id="line2d_53"/>
   <g id="line2d_54"/>
   <g id="patch_3">
    <path d="M 50.137685 390.04 
L 50.137685 26.88 
" style="fill: none; stroke: #000000; stroke-width: 0.8; stroke-linejoin: miter; stroke-linecap: square"/>
   </g>
   <g id="patch_4">
    <path d="M 709.2 390.04 
L 709.2 26.88 
" style="fill: none; stroke: #000000; stroke-width: 0.8; stroke-linejoin: miter; stroke-linecap: square"/>
   </g>
   <g id="patch_5">
    <path d="M 50.137685 390.04 
L 709.2 390.04 
" style="fill: none; stroke: #000000; stroke-width: 0.8; stroke-linejoin: miter; stroke-linecap: square"/>
   </g>
   <g id="patch_6">
    <path d="M 50.137685 26.88 
L 709.2 26.88 
" style="fill: none; stroke: #000000; stroke-width: 0.8; stroke-linejoin: miter; stroke-linecap: square"/>
   </g>
   <g id="text_11">
    <!-- Mutation Probability Comparison: Fitness over Generations -->
    <g transform="translate(203.214467 20.88) scale(0.12 -0.12)">
     <defs>
      <path id="DejaVuSans-4d" d="M 628 4666 
L 1569 4666 
L 2759 1491 
L 3956 4666 
L 4897 4666 
L 4897 0 
L 4281 0 
L 4281 4097 
L 3078 897 
L 2444 897 
L 1241 4097 
L 1241 0 
L 628 0 
L 628 4666 
z
" transform="scale(0.015625)"/>
      <path id="DejaVuSans-75" d="M 544 1381 
L 544 3500 
L 1119 3500 
L 1119 1403 
Q 1119 906 1312 657 
Q 1506 409 1894 409 
Q 2359 409 2629 706 
Q 2900 1003 2900 1516 
L 2900 3500 
L 3475 3500 
L 3475 0 
L 2900 0 
L 2900 538 
Q 2691 219 2414 64 
Q 2138 -91 1772 -91 
Q 1169 -91 856 284 
Q 544 659 544 1381 
z
M 1991 3584 
L 1991 3584 
z
" transform="scale(0.015625)"/>
      <path id="DejaVuSans-50" d="M 1259 4147 
L 1259 2394 
L 2053 2394 
Q 2494 2394 2734 2622 
Q 2975 2850 2975 3272 
Q 2975 3691 2734 3919 
Q 2494 4147 2053 4147 
L 1259 4147 
z
M 628 4666 
L 2053 4666 
Q 2838 4666 3239 4311 
Q 3641 3956 3641 3272 
Q 3641 2581 3239 2228 
Q 2838 1875 2053 1875 
L 1259 1875 
L 1259 0 
L 628 0 
L 628 4666 
z
" transform="scale(0.015625)"/>
      <path id="DejaVuSans-62" d="M 3116 1747 
Q 3116 2381 2855 2742 
Q 2594 3103 2138 3103 
Q 1681 3103 1420 2742 
Q 1159 2381 1159 1747 
Q 1159 1113 1420 752 
Q 1681 391 2138 391 
Q 2594 391 2855 752 
Q 3116 1113 3116 1747 
z
M 1159 2969 
Q 1341 3281 1617 3432 
Q 1894 3584 2278 3584 
Q 2916 3584 3314 3078 
Q 3713 2572 3713 1747 
Q 3713 922 3314 415 
Q 2916 -91 2278 -91 
Q 1894 -91 1617 61 
Q 1341 213 1159 525 
L 1159 0 
L 581 0 
L 581 4863 
L 1159 4863 
L 1159 2969 
z
" transform="scale(0.015625)"/>
      <path id="DejaVuSans-79" d="M 2059 -325 
Q 1816 -950 1584 -1140 
Q 1353 -1331 966 -1331 
L 506 -1331 
L 506 -850 
L 844 -850 
Q 1081 -850 1212 -737 
Q 1344 -625 1503 -206 
L 1606 56 
L 191 3500 
L 800 3500 
L 1894 763 
L 2988 3500 
L 3597 3500 
L 2059 -325 
z
" transform="scale(0.015625)"/>
      <path id="DejaVuSans-43" d="M 4122 4306 
L 4122 3641 
Q 3803 3938 3442 4084 
Q 3081 4231 2675 4231 
Q 1875 4231 1450 3742 
Q 1025 3253 1025 2328 
Q 1025 1406 1450 917 
Q 1875 428 2675 428 
Q 3081 428 3442 575 
Q 3803 722 4122 1019 
L 4122 359 
Q 3791 134 3420 21 
Q 3050 -91 2638 -91 
Q 1578 -91 968 557 
Q 359 1206 359 2328 
Q 359 3453 968 4101 
Q 1578 4750 2638 4750 
Q 3056 4750 3426 4639 
Q 3797 4528 4122 4306 
z
" transform="scale(0.015625)"/>
      <path id="DejaVuSans-6d" d="M 3328 2828 
Q 3544 3216 3844 3400 
Q 4144 3584 4550 3584 
Q 5097 3584 5394 3201 
Q 5691 2819 5691 2113 
L 5691 0 
L 5113 0 
L 5113 2094 
Q 5113 2597 4934 2840 
Q 4756 3084 4391 3084 
Q 3944 3084 3684 2787 
Q 3425 2491 3425 1978 
L 3425 0 
L 2847 0 
L 2847 2094 
Q 2847 2600 2669 2842 
Q 2491 3084 2119 3084 
Q 1678 3084 1418 2786 
Q 1159 2488 1159 1978 
L 1159 0 
L 581 0 
L 581 3500 
L 1159 3500 
L 1159 2956 
Q 1356 3278 1631 3431 
Q 1906 3584 2284 3584 
Q 2666 3584 2933 3390 
Q 3200 3197 3328 2828 
z
" transform="scale(0.015625)"/>
      <path id="DejaVuSans-70" d="M 1159 525 
L 1159 -1331 
L 581 -1331 
L 581 3500 
L 1159 3500 
L 1159 2969 
Q 1341 3281 1617 3432 
Q 1894 3584 2278 3584 
Q 2916 3584 3314 3078 
Q 3713 2572 3713 1747 
Q 3713 922 3314 415 
Q 2916 -91 2278 -91 
Q 1894 -91 1617 61 
Q 1341 213 1159 525 
z
M 3116 1747 
Q 3116 2381 2855 2742 
Q 2594 3103 2138 3103 
Q 1681 3103 1420 2742 
Q 1159 2381 1159 1747 
Q 1159 1113 1420 752 
Q 1681 391 2138 391 
Q 2594 391 2855 752 
Q 3116 1113 3116 1747 
z
" transform="scale(0.015625)"/>
      <path id="DejaVuSans-3a" d="M 750 794 
L 1409 794 
L 1409 0 
L 750 0 
L 750 794 
z
M 750 3309 
L 1409 3309 
L 1409 2516 
L 750 2516 
L 750 3309 
z
" transform="scale(0.015625)"/>
      <path id="DejaVuSans-76" d="M 191 3500 
L 800 3500 
L 1894 563 
L 2988 3500 
L 3597 3500 
L 2284 0 
L 1503 0 
L 191 3500 
z
" transform="scale(0.015625)"/>
     </defs>
     <use xlink:href="#DejaVuSans-4d"/>
     <use xlink:href="#DejaVuSans-75" x="86.279297"/>
     <use xlink:href="#DejaVuSans-74" x="149.658203"/>
     <use xlink:href="#DejaVuSans-61" x="188.867188"/>
     <use xlink:href="#DejaVuSans-74" x="250.146484"/>
     <use xlink:href="#DejaVuSans-69" x="289.355469"/>
     <use xlink:href="#DejaVuSans-6f" x="317.138672"/>
     <use xlink:href="#DejaVuSans-6e" x="378.320312"/>
     <use xlink:href="#DejaVuSans-20" x="441.699219"/>
     <use xlink:href="#DejaVuSans-50" x="473.486328"/>
     <use xlink:href="#DejaVuSans-72" x="532.039062"/>
     <use xlink:href="#DejaVuSans-6f" x="570.902344"/>
     <use xlink:href="#DejaVuSans-62" x="632.083984"/>
     <use xlink:href="#DejaVuSans-61" x="695.560547"/>
     <use xlink:href="#DejaVuSans-62" x="756.839844"/>
     <use xlink:href="#DejaVuSans-69" x="820.316406"/>
     <use xlink:href="#DejaVuSans-6c" x="848.099609"/>
     <use xlink:href="#DejaVuSans-69" x="875.882812"/>
     <use xlink:href="#DejaVuSans-74" x="903.666016"/>
     <use xlink:href="#DejaVuSans-79" x="942.875"/>
     <use xlink:href="#DejaVuSans-20" x="1002.054688"/>
     <use xlink:href="#DejaVuSans-43" x="1033.841797"/>
     <use xlink:href="#DejaVuSans-6f" x="1103.666016"/>
     <use xlink:href="#DejaVuSans-6d" x="1164.847656"/>
     <use xlink:href="#DejaVuSans-70" x="1262.259766"/>
     <use xlink:href="#DejaVuSans-61" x="1325.736328"/>
     <use xlink:href="#DejaVuSans-72" x="1387.015625"/>
     <use xlink:href="#DejaVuSans-69" x="1428.128906"/>
     <use xlink:href="#DejaVuSans-73" x="1455.912109"/>
     <use xlink:href="#DejaVuSans-6f" x="1508.011719"/>
     <use xlink:href="#DejaVuSans-6e" x="1569.193359"/>
     <use xlink:href="#DejaVuSans-3a" x="1632.572266"/>
     <use xlink:href="#DejaVuSans-20" x="1666.263672"/>
     <use xlink:href="#DejaVuSans-46" x="1698.050781"/>
     <use xlink:href="#DejaVuSans-69" x="1748.320312"/>
     <use xlink:href="#DejaVuSans-74" x="1776.103516"/>
     <use xlink:href="#DejaVuSans-6e" x="1815.3125"/>
     <use xlink:href="#DejaVuSans-65" x="1878.691406"/>
     <use xlink:href="#DejaVuSans-73" x="1940.214844"/>
     <use xlink:href="#DejaVuSans-73" x="1992.314453"/>
     <use xlink:href="#DejaVuSans-20" x="2044.414062"/>
     <use xlink:href="#DejaVuSans-6f" x="2076.201172"/>
     <use xlink:href="#DejaVuSans-76" x="2137.382812"/>
     <use xlink:href="#DejaVuSans-65" x="2196.5625"/>
     <use xlink:href="#DejaVuSans-72" x="2258.085938"/>
     <use xlink:href="#DejaVuSans-20" x="2299.199219"/>
     <use xlink:href="#DejaVuSans-47" x="2330.986328"/>
     <use xlink:href="#DejaVuSans-65" x="2408.476562"/>
     <use xlink:href="#DejaVuSans-6e" x="2470"/>
     <use xlink:href="#DejaVuSans-65" x="2533.378906"/>
     <use xlink:href="#DejaVuSans-72" x="2594.902344"/>
     <use xlink:href="#DejaVuSans-61" x="2636.015625"/>
     <use xlink:href="#DejaVuSans-74" x="2697.294922"/>
     <use xlink:href="#DejaVuSans-69" x="2736.503906"/>
     <use xlink:href="#DejaVuSans-6f" x="2764.287109"/>
     <use xlink:href="#DejaVuSans-6e" x="2825.46875"/>
     <use xlink:href="#DejaVuSans-73" x="2888.847656"/>
    </g>
   </g>
   <g id="legend_1">
    <g id="patch_7">
     <path d="M 597.995313 211.0175 
L 702.2 211.0175 
Q 704.2 211.0175 704.2 209.0175 
L 704.2 33.88 
Q 704.2 31.88 702.2 31.88 
L 597.995313 31.88 
Q 595.995313 31.88 595.995313 33.88 
L 595.995313 209.0175 
Q 595.995313 211.0175 597.995313 211.0175 
z
" style="fill: #ffffff; opacity: 0.8; stroke: #cccccc; stroke-linejoin: miter"/>
    </g>
    <g id="text_12">
     <!-- Mutation Probability -->
     <g transform="translate(599.995313 43.478438) scale(0.1 -0.1)">
      <use xlink:href="#DejaVuSans-4d"/>
      <use xlink:href="#DejaVuSans-75" x="86.279297"/>
      <use xlink:href="#DejaVuSans-74" x="149.658203"/>
      <use xlink:href="#DejaVuSans-61" x="188.867188"/>
      <use xlink:href="#DejaVuSans-74" x="250.146484"/>
      <use xlink:href="#DejaVuSans-69" x="289.355469"/>
      <use xlink:href="#DejaVuSans-6f" x="317.138672"/>
      <use xlink:href="#DejaVuSans-6e" x="378.320312"/>
      <use xlink:href="#DejaVuSans-20" x="441.699219"/>
      <use xlink:href="#DejaVuSans-50" x="473.486328"/>
      <use xlink:href="#DejaVuSans-72" x="532.039062"/>
      <use xlink:href="#DejaVuSans-6f" x="570.902344"/>
      <use xlink:href="#DejaVuSans-62" x="632.083984"/>
      <use xlink:href="#DejaVuSans-61" x="695.560547"/>
      <use xlink:href="#DejaVuSans-62" x="756.839844"/>
      <use xlink:href="#DejaVuSans-69" x="820.316406"/>
      <use xlink:href="#DejaVuSans-6c" x="848.099609"/>
      <use xlink:href="#DejaVuSans-69" x="875.882812"/>
      <use xlink:href="#DejaVuSans-74" x="903.666016"/>
      <use xlink:href="#DejaVuSans-79" x="942.875"/>
     </g>
    </g>
    <g id="line2d_55">
     <path d="M 624.964844 54.656563 
L 634.964844 54.656563 
L 644.964844 54.656563 
" style="fill: none; stroke: #1f77b4; stroke-width: 1.5; stroke-linecap: square"/>
    </g>
    <g id="text_13">
     <!-- 0.01 -->
     <g transform="translate(652.964844 58.156563) scale(0.1 -0.1)">
      <defs>
       <path id="DejaVuSans-2e" d="M 684 794 
L 1344 794 
L 1344 0 
L 684 0 
L 684 794 
z
" transform="scale(0.015625)"/>
      </defs>
      <use xlink:href="#DejaVuSans-30"/>
      <use xlink:href="#DejaVuSans-2e" x="63.623047"/>
      <use xlink:href="#DejaVuSans-30" x="95.410156"/>
      <use xlink:href="#DejaVuSans-31" x="159.033203"/>
     </g>
    </g>
    <g id="line2d_56">
     <path d="M 624.964844 69.334688 
L 634.964844 69.334688 
L 644.964844 69.334688 
" style="fill: none; stroke: #aec7e8; stroke-width: 1.5; stroke-linecap: square"/>
    </g>
    <g id="text_14">
     <!-- 0.05 -->
     <g transform="translate(652.964844 72.834688) scale(0.1 -0.1)">
      <defs>
       <path id="DejaVuSans-35" d="M 691 4666 
L 3169 4666 
L 3169 4134 
L 1269 4134 
L 1269 2991 
Q 1406 3038 1543 3061 
Q 1681 3084 1819 3084 
Q 2600 3084 3056 2656 
Q 3513 2228 3513 1497 
Q 3513 744 3044 326 
Q 2575 -91 1722 -91 
Q 1428 -91 1123 -41 
Q 819 9 494 109 
L 494 744 
Q 775 591 1075 516 
Q 1375 441 1709 441 
Q 2250 441 2565 725 
Q 2881 1009 2881 1497 
Q 2881 1984 2565 2268 
Q 2250 2553 1709 2553 
Q 1456 2553 1204 2497 
Q 953 2441 691 2322 
L 691 4666 
z
" transform="scale(0.015625)"/>
      </defs>
      <use xlink:href="#DejaVuSans-30"/>
      <use xlink:href="#DejaVuSans-2e" x="63.623047"/>
      <use xlink:href="#DejaVuSans-30" x="95.410156"/>
      <use xlink:href="#DejaVuSans-35" x="159.033203"/>
     </g>
    </g>
    <g id="line2d_57">
     <path d="M 624.964844 84.012813 
L 634.964844 84.012813 
L 644.964844 84.012813 
" style="fill: none; stroke: #ff7f0e; stroke-width: 1.5; stroke-linecap: square"/>
    </g>
    <g id="text_15">
     <!-- 0.1 -->
     <g transform="translate(652.964844 87.512813) scale(0.1 -0.1)">
      <use xlink:href="#DejaVuSans-30"/>
      <use xlink:href="#DejaVuSans-2e" x="63.623047"/>
      <use xlink:href="#DejaVuSans-31" x="95.410156"/>
     </g>
    </g>
    <g id="line2d_58">
     <path d="M 624.964844 98.690938 
L 634.964844 98.690938 
L 644.964844 98.690938 
" style="fill: none; stroke: #ffbb78; stroke-width: 1.5; stroke-linecap: square"/>
    </g>
    <g id="text_16">
     <!-- 0.15 -->
     <g transform="translate(652.964844 102.190938) scale(0.1 -0.1)">
      <use xlink:href="#DejaVuSans-30"/>
      <use xlink:href="#DejaVuSans-2e" x="63.623047"/>
      <use xlink:href="#DejaVuSans-31" x="95.410156"/>
      <use xlink:href="#DejaVuSans-35" x="159.033203"/>
     </g>
    </g>
    <g id="line2d_59">
     <path d="M 624.964844 113.369063 
L 634.964844 113.369063 
L 644.964844 113.369063 
" style="fill: none; stroke: #2ca02c; stroke-width: 1.5; stroke-linecap: square"/>
    </g>
    <g id="text_17">
     <!-- 0.2 -->
     <g transform="translate(652.964844 116.869063) scale(0.1 -0.1)">
      <use xlink:href="#DejaVuSans-30"/>
      <use xlink:href="#DejaVuSans-2e" x="63.623047"/>
      <use xlink:href="#DejaVuSans-32" x="95.410156"/>
     </g>
    </g>
    <g id="line2d_60">
     <path d="M 624.964844 128.047188 
L 634.964844 128.047188 
L 644.964844 128.047188 
" style="fill: none; stroke: #98df8a; stroke-width: 1.5; stroke-linecap: square"/>
    </g>
    <g id="text_18">
     <!-- 0.25 -->
     <g transform="translate(652.964844 131.547188) scale(0.1 -0.1)">
      <use xlink:href="#DejaVuSans-30"/>
      <use xlink:href="#DejaVuSans-2e" x="63.623047"/>
      <use xlink:href="#DejaVuSans-32" x="95.410156"/>
      <use xlink:href="#DejaVuSans-35" x="159.033203"/>
     </g>
    </g>
    <g id="line2d_61">
     <path d="M 624.964844 142.725313 
L 634.964844 142.725313 
L 644.964844 142.725313 
" style="fill: none; stroke: #d62728; stroke-width: 1.5; stroke-linecap: square"/>
    </g>
    <g id="text_19">
     <!-- 0.3 -->
     <g transform="translate(652.964844 146.225313) scale(0.1 -0.1)">
      <use xlink:href="#DejaVuSans-30"/>
      <use xlink:href="#DejaVuSans-2e" x="63.623047"/>
      <use xlink:href="#DejaVuSans-33" x="95.410156"/>
     </g>
    </g>
    <g id="line2d_62">
     <path d="M 624.964844 157.403438 
L 634.964844 157.403438 
L 644.964844 157.403438 
" style="fill: none; stroke: #ff9896; stroke-width: 1.5; stroke-linecap: square"/>
    </g>
    <g id="text_20">
     <!-- 0.35 -->
     <g transform="translate(652.964844 160.903438) scale(0.1 -0.1)">
      <use xlink:href="#DejaVuSans-30"/>
      <use xlink:href="#DejaVuSans-2e" x="63.623047"/>
      <use xlink:href="#DejaVuSans-33" x="95.410156"/>
      <use xlink:href="#DejaVuSans-35" x="159.033203"/>
     </g>
    </g>
    <g id="line2d_63">
     <path d="M 624.964844 172.081563 
L 634.964844 172.081563 
L 644.964844 172.081563 
" style="fill: none; stroke: #9467bd; stroke-width: 1.5; stroke-linecap: square"/>
    </g>
    <g id="text_21">
     <!-- 0.4 -->
     <g transform="translate(652.964844 175.581563) scale(0.1 -0.1)">
      <use xlink:href="#DejaVuSans-30"/>
      <use xlink:href="#DejaVuSans-2e" x="63.623047"/>
      <use xlink:href="#DejaVuSans-34" x="95.410156"/>
     </g>
    </g>
    <g id="line2d_64">
     <path d="M 624.964844 186.759688 
L 634.964844 186.759688 
L 644.964844 186.759688 
" style="fill: none; stroke: #c5b0d5; stroke-width: 1.5; stroke-linecap: square"/>
    </g>
    <g id="text_22">
     <!-- 0.45 -->
     <g transform="translate(652.964844 190.259688) scale(0.1 -0.1)">
      <use xlink:href="#DejaVuSans-30"/>
      <use xlink:href="#DejaVuSans-2e" x="63.623047"/>
      <use xlink:href="#DejaVuSans-34" x="95.410156"/>
      <use xlink:href="#DejaVuSans-35" x="159.033203"/>
     </g>
    </g>
    <g id="line2d_65">
     <path d="M 624.964844 201.437813 
L 634.964844 201.437813 
L 644.964844 201.437813 
" style="fill: none; stroke: #8c564b; stroke-width: 1.5; stroke-linecap: square"/>
    </g>
    <g id="text_23">
     <!-- 0.5 -->
     <g transform="translate(652.964844 204.937813) scale(0.1 -0.1)">
      <use xlink:href="#DejaVuSans-30"/>
      <use xlink:href="#DejaVuSans-2e" x="63.623047"/>
      <use xlink:href="#DejaVuSans-35" x="95.410156"/>
     </g>
    </g>
   </g>
  </g>
 </g>
 <defs>
  <clipPath id="pff8a4d1e9c">
   <rect x="50.137685" y="26.88" width="659.062315" height="363.16"/>
  </clipPath>
 </defs>
</svg>
