<?xml version="1.0" encoding="utf-8" standalone="no"?>
<!DOCTYPE svg PUBLIC "-//W3C//DTD SVG 1.1//EN"
  "http://www.w3.org/Graphics/SVG/1.1/DTD/svg11.dtd">
<svg xmlns:xlink="http://www.w3.org/1999/xlink" width="720pt" height="432pt" viewBox="0 0 720 432" xmlns="http://www.w3.org/2000/svg" version="1.1">
 <metadata>
  <rdf:RDF xmlns:dc="http://purl.org/dc/elements/1.1/" xmlns:cc="http://creativecommons.org/ns#" xmlns:rdf="http://www.w3.org/1999/02/22-rdf-syntax-ns#">
   <cc:Work>
    <dc:type rdf:resource="http://purl.org/dc/dcmitype/StillImage"/>
    <dc:date>2024-06-02T19:51:52.639704</dc:date>
    <dc:format>image/svg+xml</dc:format>
    <dc:creator>
     <cc:Agent>
      <dc:title>Matplotlib v3.8.4, https://matplotlib.org/</dc:title>
     </cc:Agent>
    </dc:creator>
   </cc:Work>
  </rdf:RDF>
 </metadata>
 <defs>
  <style type="text/css">*{stroke-linejoin: round; stroke-linecap: butt}</style>
 </defs>
 <g id="figure_1">
  <g id="patch_1">
   <path d="M 0 432 
L 720 432 
L 720 0 
L 0 0 
z
" style="fill: #ffffff"/>
  </g>
  <g id="axes_1">
   <g id="patch_2">
    <path d="M 50.137685 390.04 
L 709.2 390.04 
L 709.2 26.88 
L 50.137685 26.88 
z
" style="fill: #ffffff"/>
   </g>
   <g id="PolyCollection_1"/>
   <g id="PolyCollection_2"/>
   <g id="PolyCollection_3"/>
   <g id="PolyCollection_4"/>
   <g id="PolyCollection_5"/>
   <g id="PolyCollection_6"/>
   <g id="PolyCollection_7"/>
   <g id="PolyCollection_8"/>
   <g id="matplotlib.axis_1">
    <g id="xtick_1">
     <g id="line2d_1">
      <path d="M 74.043067 390.04 
L 74.043067 26.88 
" clip-path="url(#p4350376f6b)" style="fill: none; stroke: #b0b0b0; stroke-width: 0.8; stroke-linecap: square"/>
     </g>
     <g id="line2d_2">
      <defs>
       <path id="m1519030f15" d="M 0 0 
L 0 3.5 
" style="stroke: #000000; stroke-width: 0.8"/>
      </defs>
      <g>
       <use xlink:href="#m1519030f15" x="74.043067" y="390.04" style="stroke: #000000; stroke-width: 0.8"/>
      </g>
     </g>
     <g id="text_1">
      <!-- 0 -->
      <g transform="translate(70.861817 404.638438) scale(0.1 -0.1)">
       <defs>
        <path id="DejaVuSans-30" d="M 2034 4250 
Q 1547 4250 1301 3770 
Q 1056 3291 1056 2328 
Q 1056 1369 1301 889 
Q 1547 409 2034 409 
Q 2525 409 2770 889 
Q 3016 1369 3016 2328 
Q 3016 3291 2770 3770 
Q 2525 4250 2034 4250 
z
M 2034 4750 
Q 2819 4750 3233 4129 
Q 3647 3509 3647 2328 
Q 3647 1150 3233 529 
Q 2819 -91 2034 -91 
Q 1250 -91 836 529 
Q 422 1150 422 2328 
Q 422 3509 836 4129 
Q 1250 4750 2034 4750 
z
" transform="scale(0.015625)"/>
       </defs>
       <use xlink:href="#DejaVuSans-30"/>
      </g>
     </g>
    </g>
    <g id="xtick_2">
     <g id="line2d_3">
      <path d="M 195.082978 390.04 
L 195.082978 26.88 
" clip-path="url(#p4350376f6b)" style="fill: none; stroke: #b0b0b0; stroke-width: 0.8; stroke-linecap: square"/>
     </g>
     <g id="line2d_4">
      <g>
       <use xlink:href="#m1519030f15" x="195.082978" y="390.04" style="stroke: #000000; stroke-width: 0.8"/>
      </g>
     </g>
     <g id="text_2">
      <!-- 20 -->
      <g transform="translate(188.720478 404.638438) scale(0.1 -0.1)">
       <defs>
        <path id="DejaVuSans-32" d="M 1228 531 
L 3431 531 
L 3431 0 
L 469 0 
L 469 531 
Q 828 903 1448 1529 
Q 2069 2156 2228 2338 
Q 2531 2678 2651 2914 
Q 2772 3150 2772 3378 
Q 2772 3750 2511 3984 
Q 2250 4219 1831 4219 
Q 1534 4219 1204 4116 
Q 875 4013 500 3803 
L 500 4441 
Q 881 4594 1212 4672 
Q 1544 4750 1819 4750 
Q 2544 4750 2975 4387 
Q 3406 4025 3406 3419 
Q 3406 3131 3298 2873 
Q 3191 2616 2906 2266 
Q 2828 2175 2409 1742 
Q 1991 1309 1228 531 
z
" transform="scale(0.015625)"/>
       </defs>
       <use xlink:href="#DejaVuSans-32"/>
       <use xlink:href="#DejaVuSans-30" x="63.623047"/>
      </g>
     </g>
    </g>
    <g id="xtick_3">
     <g id="line2d_5">
      <path d="M 316.122889 390.04 
L 316.122889 26.88 
" clip-path="url(#p4350376f6b)" style="fill: none; stroke: #b0b0b0; stroke-width: 0.8; stroke-linecap: square"/>
     </g>
     <g id="line2d_6">
      <g>
       <use xlink:href="#m1519030f15" x="316.122889" y="390.04" style="stroke: #000000; stroke-width: 0.8"/>
      </g>
     </g>
     <g id="text_3">
      <!-- 40 -->
      <g transform="translate(309.760389 404.638438) scale(0.1 -0.1)">
       <defs>
        <path id="DejaVuSans-34" d="M 2419 4116 
L 825 1625 
L 2419 1625 
L 2419 4116 
z
M 2253 4666 
L 3047 4666 
L 3047 1625 
L 3713 1625 
L 3713 1100 
L 3047 1100 
L 3047 0 
L 2419 0 
L 2419 1100 
L 313 1100 
L 313 1709 
L 2253 4666 
z
" transform="scale(0.015625)"/>
       </defs>
       <use xlink:href="#DejaVuSans-34"/>
       <use xlink:href="#DejaVuSans-30" x="63.623047"/>
      </g>
     </g>
    </g>
    <g id="xtick_4">
     <g id="line2d_7">
      <path d="M 437.1628 390.04 
L 437.1628 26.88 
" clip-path="url(#p4350376f6b)" style="fill: none; stroke: #b0b0b0; stroke-width: 0.8; stroke-linecap: square"/>
     </g>
     <g id="line2d_8">
      <g>
       <use xlink:href="#m1519030f15" x="437.1628" y="390.04" style="stroke: #000000; stroke-width: 0.8"/>
      </g>
     </g>
     <g id="text_4">
      <!-- 60 -->
      <g transform="translate(430.8003 404.638438) scale(0.1 -0.1)">
       <defs>
        <path id="DejaVuSans-36" d="M 2113 2584 
Q 1688 2584 1439 2293 
Q 1191 2003 1191 1497 
Q 1191 994 1439 701 
Q 1688 409 2113 409 
Q 2538 409 2786 701 
Q 3034 994 3034 1497 
Q 3034 2003 2786 2293 
Q 2538 2584 2113 2584 
z
M 3366 4563 
L 3366 3988 
Q 3128 4100 2886 4159 
Q 2644 4219 2406 4219 
Q 1781 4219 1451 3797 
Q 1122 3375 1075 2522 
Q 1259 2794 1537 2939 
Q 1816 3084 2150 3084 
Q 2853 3084 3261 2657 
Q 3669 2231 3669 1497 
Q 3669 778 3244 343 
Q 2819 -91 2113 -91 
Q 1303 -91 875 529 
Q 447 1150 447 2328 
Q 447 3434 972 4092 
Q 1497 4750 2381 4750 
Q 2619 4750 2861 4703 
Q 3103 4656 3366 4563 
z
" transform="scale(0.015625)"/>
       </defs>
       <use xlink:href="#DejaVuSans-36"/>
       <use xlink:href="#DejaVuSans-30" x="63.623047"/>
      </g>
     </g>
    </g>
    <g id="xtick_5">
     <g id="line2d_9">
      <path d="M 558.202711 390.04 
L 558.202711 26.88 
" clip-path="url(#p4350376f6b)" style="fill: none; stroke: #b0b0b0; stroke-width: 0.8; stroke-linecap: square"/>
     </g>
     <g id="line2d_10">
      <g>
       <use xlink:href="#m1519030f15" x="558.202711" y="390.04" style="stroke: #000000; stroke-width: 0.8"/>
      </g>
     </g>
     <g id="text_5">
      <!-- 80 -->
      <g transform="translate(551.840211 404.638438) scale(0.1 -0.1)">
       <defs>
        <path id="DejaVuSans-38" d="M 2034 2216 
Q 1584 2216 1326 1975 
Q 1069 1734 1069 1313 
Q 1069 891 1326 650 
Q 1584 409 2034 409 
Q 2484 409 2743 651 
Q 3003 894 3003 1313 
Q 3003 1734 2745 1975 
Q 2488 2216 2034 2216 
z
M 1403 2484 
Q 997 2584 770 2862 
Q 544 3141 544 3541 
Q 544 4100 942 4425 
Q 1341 4750 2034 4750 
Q 2731 4750 3128 4425 
Q 3525 4100 3525 3541 
Q 3525 3141 3298 2862 
Q 3072 2584 2669 2484 
Q 3125 2378 3379 2068 
Q 3634 1759 3634 1313 
Q 3634 634 3220 271 
Q 2806 -91 2034 -91 
Q 1263 -91 848 271 
Q 434 634 434 1313 
Q 434 1759 690 2068 
Q 947 2378 1403 2484 
z
M 1172 3481 
Q 1172 3119 1398 2916 
Q 1625 2713 2034 2713 
Q 2441 2713 2670 2916 
Q 2900 3119 2900 3481 
Q 2900 3844 2670 4047 
Q 2441 4250 2034 4250 
Q 1625 4250 1398 4047 
Q 1172 3844 1172 3481 
z
" transform="scale(0.015625)"/>
       </defs>
       <use xlink:href="#DejaVuSans-38"/>
       <use xlink:href="#DejaVuSans-30" x="63.623047"/>
      </g>
     </g>
    </g>
    <g id="xtick_6">
     <g id="line2d_11">
      <path d="M 679.242622 390.04 
L 679.242622 26.88 
" clip-path="url(#p4350376f6b)" style="fill: none; stroke: #b0b0b0; stroke-width: 0.8; stroke-linecap: square"/>
     </g>
     <g id="line2d_12">
      <g>
       <use xlink:href="#m1519030f15" x="679.242622" y="390.04" style="stroke: #000000; stroke-width: 0.8"/>
      </g>
     </g>
     <g id="text_6">
      <!-- 100 -->
      <g transform="translate(669.698872 404.638438) scale(0.1 -0.1)">
       <defs>
        <path id="DejaVuSans-31" d="M 794 531 
L 1825 531 
L 1825 4091 
L 703 3866 
L 703 4441 
L 1819 4666 
L 2450 4666 
L 2450 531 
L 3481 531 
L 3481 0 
L 794 0 
L 794 531 
z
" transform="scale(0.015625)"/>
       </defs>
       <use xlink:href="#DejaVuSans-31"/>
       <use xlink:href="#DejaVuSans-30" x="63.623047"/>
       <use xlink:href="#DejaVuSans-30" x="127.246094"/>
      </g>
     </g>
    </g>
    <g id="text_7">
     <!-- Generations -->
     <g transform="translate(349.171186 418.316562) scale(0.1 -0.1)">
      <defs>
       <path id="DejaVuSans-47" d="M 3809 666 
L 3809 1919 
L 2778 1919 
L 2778 2438 
L 4434 2438 
L 4434 434 
Q 4069 175 3628 42 
Q 3188 -91 2688 -91 
Q 1594 -91 976 548 
Q 359 1188 359 2328 
Q 359 3472 976 4111 
Q 1594 4750 2688 4750 
Q 3144 4750 3555 4637 
Q 3966 4525 4313 4306 
L 4313 3634 
Q 3963 3931 3569 4081 
Q 3175 4231 2741 4231 
Q 1884 4231 1454 3753 
Q 1025 3275 1025 2328 
Q 1025 1384 1454 906 
Q 1884 428 2741 428 
Q 3075 428 3337 486 
Q 3600 544 3809 666 
z
" transform="scale(0.015625)"/>
       <path id="DejaVuSans-65" d="M 3597 1894 
L 3597 1613 
L 953 1613 
Q 991 1019 1311 708 
Q 1631 397 2203 397 
Q 2534 397 2845 478 
Q 3156 559 3463 722 
L 3463 178 
Q 3153 47 2828 -22 
Q 2503 -91 2169 -91 
Q 1331 -91 842 396 
Q 353 884 353 1716 
Q 353 2575 817 3079 
Q 1281 3584 2069 3584 
Q 2775 3584 3186 3129 
Q 3597 2675 3597 1894 
z
M 3022 2063 
Q 3016 2534 2758 2815 
Q 2500 3097 2075 3097 
Q 1594 3097 1305 2825 
Q 1016 2553 972 2059 
L 3022 2063 
z
" transform="scale(0.015625)"/>
       <path id="DejaVuSans-6e" d="M 3513 2113 
L 3513 0 
L 2938 0 
L 2938 2094 
Q 2938 2591 2744 2837 
Q 2550 3084 2163 3084 
Q 1697 3084 1428 2787 
Q 1159 2491 1159 1978 
L 1159 0 
L 581 0 
L 581 3500 
L 1159 3500 
L 1159 2956 
Q 1366 3272 1645 3428 
Q 1925 3584 2291 3584 
Q 2894 3584 3203 3211 
Q 3513 2838 3513 2113 
z
" transform="scale(0.015625)"/>
       <path id="DejaVuSans-72" d="M 2631 2963 
Q 2534 3019 2420 3045 
Q 2306 3072 2169 3072 
Q 1681 3072 1420 2755 
Q 1159 2438 1159 1844 
L 1159 0 
L 581 0 
L 581 3500 
L 1159 3500 
L 1159 2956 
Q 1341 3275 1631 3429 
Q 1922 3584 2338 3584 
Q 2397 3584 2469 3576 
Q 2541 3569 2628 3553 
L 2631 2963 
z
" transform="scale(0.015625)"/>
       <path id="DejaVuSans-61" d="M 2194 1759 
Q 1497 1759 1228 1600 
Q 959 1441 959 1056 
Q 959 750 1161 570 
Q 1363 391 1709 391 
Q 2188 391 2477 730 
Q 2766 1069 2766 1631 
L 2766 1759 
L 2194 1759 
z
M 3341 1997 
L 3341 0 
L 2766 0 
L 2766 531 
Q 2569 213 2275 61 
Q 1981 -91 1556 -91 
Q 1019 -91 701 211 
Q 384 513 384 1019 
Q 384 1609 779 1909 
Q 1175 2209 1959 2209 
L 2766 2209 
L 2766 2266 
Q 2766 2663 2505 2880 
Q 2244 3097 1772 3097 
Q 1472 3097 1187 3025 
Q 903 2953 641 2809 
L 641 3341 
Q 956 3463 1253 3523 
Q 1550 3584 1831 3584 
Q 2591 3584 2966 3190 
Q 3341 2797 3341 1997 
z
" transform="scale(0.015625)"/>
       <path id="DejaVuSans-74" d="M 1172 4494 
L 1172 3500 
L 2356 3500 
L 2356 3053 
L 1172 3053 
L 1172 1153 
Q 1172 725 1289 603 
Q 1406 481 1766 481 
L 2356 481 
L 2356 0 
L 1766 0 
Q 1100 0 847 248 
Q 594 497 594 1153 
L 594 3053 
L 172 3053 
L 172 3500 
L 594 3500 
L 594 4494 
L 1172 4494 
z
" transform="scale(0.015625)"/>
       <path id="DejaVuSans-69" d="M 603 3500 
L 1178 3500 
L 1178 0 
L 603 0 
L 603 3500 
z
M 603 4863 
L 1178 4863 
L 1178 4134 
L 603 4134 
L 603 4863 
z
" transform="scale(0.015625)"/>
       <path id="DejaVuSans-6f" d="M 1959 3097 
Q 1497 3097 1228 2736 
Q 959 2375 959 1747 
Q 959 1119 1226 758 
Q 1494 397 1959 397 
Q 2419 397 2687 759 
Q 2956 1122 2956 1747 
Q 2956 2369 2687 2733 
Q 2419 3097 1959 3097 
z
M 1959 3584 
Q 2709 3584 3137 3096 
Q 3566 2609 3566 1747 
Q 3566 888 3137 398 
Q 2709 -91 1959 -91 
Q 1206 -91 779 398 
Q 353 888 353 1747 
Q 353 2609 779 3096 
Q 1206 3584 1959 3584 
z
" transform="scale(0.015625)"/>
       <path id="DejaVuSans-73" d="M 2834 3397 
L 2834 2853 
Q 2591 2978 2328 3040 
Q 2066 3103 1784 3103 
Q 1356 3103 1142 2972 
Q 928 2841 928 2578 
Q 928 2378 1081 2264 
Q 1234 2150 1697 2047 
L 1894 2003 
Q 2506 1872 2764 1633 
Q 3022 1394 3022 966 
Q 3022 478 2636 193 
Q 2250 -91 1575 -91 
Q 1294 -91 989 -36 
Q 684 19 347 128 
L 347 722 
Q 666 556 975 473 
Q 1284 391 1588 391 
Q 1994 391 2212 530 
Q 2431 669 2431 922 
Q 2431 1156 2273 1281 
Q 2116 1406 1581 1522 
L 1381 1569 
Q 847 1681 609 1914 
Q 372 2147 372 2553 
Q 372 3047 722 3315 
Q 1072 3584 1716 3584 
Q 2034 3584 2315 3537 
Q 2597 3491 2834 3397 
z
" transform="scale(0.015625)"/>
      </defs>
      <use xlink:href="#DejaVuSans-47"/>
      <use xlink:href="#DejaVuSans-65" x="77.490234"/>
      <use xlink:href="#DejaVuSans-6e" x="139.013672"/>
      <use xlink:href="#DejaVuSans-65" x="202.392578"/>
      <use xlink:href="#DejaVuSans-72" x="263.916016"/>
      <use xlink:href="#DejaVuSans-61" x="305.029297"/>
      <use xlink:href="#DejaVuSans-74" x="366.308594"/>
      <use xlink:href="#DejaVuSans-69" x="405.517578"/>
      <use xlink:href="#DejaVuSans-6f" x="433.300781"/>
      <use xlink:href="#DejaVuSans-6e" x="494.482422"/>
      <use xlink:href="#DejaVuSans-73" x="557.861328"/>
     </g>
    </g>
   </g>
   <g id="matplotlib.axis_2">
    <g id="ytick_1">
     <g id="line2d_13">
      <path d="M 50.137685 318.501457 
L 709.2 318.501457 
" clip-path="url(#p4350376f6b)" style="fill: none; stroke: #b0b0b0; stroke-width: 0.8; stroke-linecap: square"/>
     </g>
     <g id="line2d_14">
      <defs>
       <path id="mdc524f6a90" d="M 0 0 
L -3.5 0 
" style="stroke: #000000; stroke-width: 0.8"/>
      </defs>
      <g>
       <use xlink:href="#mdc524f6a90" x="50.137685" y="318.501457" style="stroke: #000000; stroke-width: 0.8"/>
      </g>
     </g>
     <g id="text_8">
      <!-- $\mathdefault{10^{3}}$ -->
      <g transform="translate(25.537685 322.300676) scale(0.1 -0.1)">
       <defs>
        <path id="DejaVuSans-33" d="M 2597 2516 
Q 3050 2419 3304 2112 
Q 3559 1806 3559 1356 
Q 3559 666 3084 287 
Q 2609 -91 1734 -91 
Q 1441 -91 1130 -33 
Q 819 25 488 141 
L 488 750 
Q 750 597 1062 519 
Q 1375 441 1716 441 
Q 2309 441 2620 675 
Q 2931 909 2931 1356 
Q 2931 1769 2642 2001 
Q 2353 2234 1838 2234 
L 1294 2234 
L 1294 2753 
L 1863 2753 
Q 2328 2753 2575 2939 
Q 2822 3125 2822 3475 
Q 2822 3834 2567 4026 
Q 2313 4219 1838 4219 
Q 1578 4219 1281 4162 
Q 984 4106 628 3988 
L 628 4550 
Q 988 4650 1302 4700 
Q 1616 4750 1894 4750 
Q 2613 4750 3031 4423 
Q 3450 4097 3450 3541 
Q 3450 3153 3228 2886 
Q 3006 2619 2597 2516 
z
" transform="scale(0.015625)"/>
       </defs>
       <use xlink:href="#DejaVuSans-31" transform="translate(0 0.765625)"/>
       <use xlink:href="#DejaVuSans-30" transform="translate(63.623047 0.765625)"/>
       <use xlink:href="#DejaVuSans-33" transform="translate(128.203125 39.046875) scale(0.7)"/>
      </g>
     </g>
    </g>
    <g id="ytick_2">
     <g id="line2d_15">
      <path d="M 50.137685 154.761155 
L 709.2 154.761155 
" clip-path="url(#p4350376f6b)" style="fill: none; stroke: #b0b0b0; stroke-width: 0.8; stroke-linecap: square"/>
     </g>
     <g id="line2d_16">
      <g>
       <use xlink:href="#mdc524f6a90" x="50.137685" y="154.761155" style="stroke: #000000; stroke-width: 0.8"/>
      </g>
     </g>
     <g id="text_9">
      <!-- $\mathdefault{10^{4}}$ -->
      <g transform="translate(25.537685 158.560374) scale(0.1 -0.1)">
       <use xlink:href="#DejaVuSans-31" transform="translate(0 0.684375)"/>
       <use xlink:href="#DejaVuSans-30" transform="translate(63.623047 0.684375)"/>
       <use xlink:href="#DejaVuSans-34" transform="translate(128.203125 38.965625) scale(0.7)"/>
      </g>
     </g>
    </g>
    <g id="ytick_3">
     <g id="line2d_17">
      <defs>
       <path id="m048b51849e" d="M 0 0 
L -2 0 
" style="stroke: #000000; stroke-width: 0.6"/>
      </defs>
      <g>
       <use xlink:href="#m048b51849e" x="50.137685" y="383.660274" style="stroke: #000000; stroke-width: 0.6"/>
      </g>
     </g>
    </g>
    <g id="ytick_4">
     <g id="line2d_18">
      <g>
       <use xlink:href="#m048b51849e" x="50.137685" y="367.7922" style="stroke: #000000; stroke-width: 0.6"/>
      </g>
     </g>
    </g>
    <g id="ytick_5">
     <g id="line2d_19">
      <g>
       <use xlink:href="#m048b51849e" x="50.137685" y="354.827038" style="stroke: #000000; stroke-width: 0.6"/>
      </g>
     </g>
    </g>
    <g id="ytick_6">
     <g id="line2d_20">
      <g>
       <use xlink:href="#m048b51849e" x="50.137685" y="343.865151" style="stroke: #000000; stroke-width: 0.6"/>
      </g>
     </g>
    </g>
    <g id="ytick_7">
     <g id="line2d_21">
      <g>
       <use xlink:href="#m048b51849e" x="50.137685" y="334.369532" style="stroke: #000000; stroke-width: 0.6"/>
      </g>
     </g>
    </g>
    <g id="ytick_8">
     <g id="line2d_22">
      <g>
       <use xlink:href="#m048b51849e" x="50.137685" y="325.993802" style="stroke: #000000; stroke-width: 0.6"/>
      </g>
     </g>
    </g>
    <g id="ytick_9">
     <g id="line2d_23">
      <g>
       <use xlink:href="#m048b51849e" x="50.137685" y="269.210715" style="stroke: #000000; stroke-width: 0.6"/>
      </g>
     </g>
    </g>
    <g id="ytick_10">
     <g id="line2d_24">
      <g>
       <use xlink:href="#m048b51849e" x="50.137685" y="240.377479" style="stroke: #000000; stroke-width: 0.6"/>
      </g>
     </g>
    </g>
    <g id="ytick_11">
     <g id="line2d_25">
      <g>
       <use xlink:href="#m048b51849e" x="50.137685" y="219.919972" style="stroke: #000000; stroke-width: 0.6"/>
      </g>
     </g>
    </g>
    <g id="ytick_12">
     <g id="line2d_26">
      <g>
       <use xlink:href="#m048b51849e" x="50.137685" y="204.051897" style="stroke: #000000; stroke-width: 0.6"/>
      </g>
     </g>
    </g>
    <g id="ytick_13">
     <g id="line2d_27">
      <g>
       <use xlink:href="#m048b51849e" x="50.137685" y="191.086736" style="stroke: #000000; stroke-width: 0.6"/>
      </g>
     </g>
    </g>
    <g id="ytick_14">
     <g id="line2d_28">
      <g>
       <use xlink:href="#m048b51849e" x="50.137685" y="180.124849" style="stroke: #000000; stroke-width: 0.6"/>
      </g>
     </g>
    </g>
    <g id="ytick_15">
     <g id="line2d_29">
      <g>
       <use xlink:href="#m048b51849e" x="50.137685" y="170.62923" style="stroke: #000000; stroke-width: 0.6"/>
      </g>
     </g>
    </g>
    <g id="ytick_16">
     <g id="line2d_30">
      <g>
       <use xlink:href="#m048b51849e" x="50.137685" y="162.2535" style="stroke: #000000; stroke-width: 0.6"/>
      </g>
     </g>
    </g>
    <g id="ytick_17">
     <g id="line2d_31">
      <g>
       <use xlink:href="#m048b51849e" x="50.137685" y="105.470413" style="stroke: #000000; stroke-width: 0.6"/>
      </g>
     </g>
    </g>
    <g id="ytick_18">
     <g id="line2d_32">
      <g>
       <use xlink:href="#m048b51849e" x="50.137685" y="76.637177" style="stroke: #000000; stroke-width: 0.6"/>
      </g>
     </g>
    </g>
    <g id="ytick_19">
     <g id="line2d_33">
      <g>
       <use xlink:href="#m048b51849e" x="50.137685" y="56.17967" style="stroke: #000000; stroke-width: 0.6"/>
      </g>
     </g>
    </g>
    <g id="ytick_20">
     <g id="line2d_34">
      <g>
       <use xlink:href="#m048b51849e" x="50.137685" y="40.311595" style="stroke: #000000; stroke-width: 0.6"/>
      </g>
     </g>
    </g>
    <g id="ytick_21">
     <g id="line2d_35">
      <g>
       <use xlink:href="#m048b51849e" x="50.137685" y="27.346434" style="stroke: #000000; stroke-width: 0.6"/>
      </g>
     </g>
    </g>
    <g id="text_10">
     <!-- Fitness (log scale) -->
     <g transform="translate(19.457997 253.363125) rotate(-90) scale(0.1 -0.1)">
      <defs>
       <path id="DejaVuSans-46" d="M 628 4666 
L 3309 4666 
L 3309 4134 
L 1259 4134 
L 1259 2759 
L 3109 2759 
L 3109 2228 
L 1259 2228 
L 1259 0 
L 628 0 
L 628 4666 
z
" transform="scale(0.015625)"/>
       <path id="DejaVuSans-20" transform="scale(0.015625)"/>
       <path id="DejaVuSans-28" d="M 1984 4856 
Q 1566 4138 1362 3434 
Q 1159 2731 1159 2009 
Q 1159 1288 1364 580 
Q 1569 -128 1984 -844 
L 1484 -844 
Q 1016 -109 783 600 
Q 550 1309 550 2009 
Q 550 2706 781 3412 
Q 1013 4119 1484 4856 
L 1984 4856 
z
" transform="scale(0.015625)"/>
       <path id="DejaVuSans-6c" d="M 603 4863 
L 1178 4863 
L 1178 0 
L 603 0 
L 603 4863 
z
" transform="scale(0.015625)"/>
       <path id="DejaVuSans-67" d="M 2906 1791 
Q 2906 2416 2648 2759 
Q 2391 3103 1925 3103 
Q 1463 3103 1205 2759 
Q 947 2416 947 1791 
Q 947 1169 1205 825 
Q 1463 481 1925 481 
Q 2391 481 2648 825 
Q 2906 1169 2906 1791 
z
M 3481 434 
Q 3481 -459 3084 -895 
Q 2688 -1331 1869 -1331 
Q 1566 -1331 1297 -1286 
Q 1028 -1241 775 -1147 
L 775 -588 
Q 1028 -725 1275 -790 
Q 1522 -856 1778 -856 
Q 2344 -856 2625 -561 
Q 2906 -266 2906 331 
L 2906 616 
Q 2728 306 2450 153 
Q 2172 0 1784 0 
Q 1141 0 747 490 
Q 353 981 353 1791 
Q 353 2603 747 3093 
Q 1141 3584 1784 3584 
Q 2172 3584 2450 3431 
Q 2728 3278 2906 2969 
L 2906 3500 
L 3481 3500 
L 3481 434 
z
" transform="scale(0.015625)"/>
       <path id="DejaVuSans-63" d="M 3122 3366 
L 3122 2828 
Q 2878 2963 2633 3030 
Q 2388 3097 2138 3097 
Q 1578 3097 1268 2742 
Q 959 2388 959 1747 
Q 959 1106 1268 751 
Q 1578 397 2138 397 
Q 2388 397 2633 464 
Q 2878 531 3122 666 
L 3122 134 
Q 2881 22 2623 -34 
Q 2366 -91 2075 -91 
Q 1284 -91 818 406 
Q 353 903 353 1747 
Q 353 2603 823 3093 
Q 1294 3584 2113 3584 
Q 2378 3584 2631 3529 
Q 2884 3475 3122 3366 
z
" transform="scale(0.015625)"/>
       <path id="DejaVuSans-29" d="M 513 4856 
L 1013 4856 
Q 1481 4119 1714 3412 
Q 1947 2706 1947 2009 
Q 1947 1309 1714 600 
Q 1481 -109 1013 -844 
L 513 -844 
Q 928 -128 1133 580 
Q 1338 1288 1338 2009 
Q 1338 2731 1133 3434 
Q 928 4138 513 4856 
z
" transform="scale(0.015625)"/>
      </defs>
      <use xlink:href="#DejaVuSans-46"/>
      <use xlink:href="#DejaVuSans-69" x="50.269531"/>
      <use xlink:href="#DejaVuSans-74" x="78.052734"/>
      <use xlink:href="#DejaVuSans-6e" x="117.261719"/>
      <use xlink:href="#DejaVuSans-65" x="180.640625"/>
      <use xlink:href="#DejaVuSans-73" x="242.164062"/>
      <use xlink:href="#DejaVuSans-73" x="294.263672"/>
      <use xlink:href="#DejaVuSans-20" x="346.363281"/>
      <use xlink:href="#DejaVuSans-28" x="378.150391"/>
      <use xlink:href="#DejaVuSans-6c" x="417.164062"/>
      <use xlink:href="#DejaVuSans-6f" x="444.947266"/>
      <use xlink:href="#DejaVuSans-67" x="506.128906"/>
      <use xlink:href="#DejaVuSans-20" x="569.605469"/>
      <use xlink:href="#DejaVuSans-73" x="601.392578"/>
      <use xlink:href="#DejaVuSans-63" x="653.492188"/>
      <use xlink:href="#DejaVuSans-61" x="708.472656"/>
      <use xlink:href="#DejaVuSans-6c" x="769.751953"/>
      <use xlink:href="#DejaVuSans-65" x="797.535156"/>
      <use xlink:href="#DejaVuSans-29" x="859.058594"/>
     </g>
    </g>
   </g>
   <g id="line2d_36">
    <path d="M 80.095063 59.013975 
L 86.147058 77.501402 
L 92.199054 98.874609 
L 98.251049 122.948512 
L 104.303045 149.986475 
L 110.35504 174.146646 
L 116.407036 210.296682 
L 122.459032 241.34979 
L 128.511027 276.318388 
L 134.563023 302.431901 
L 140.615018 329.465794 
L 146.667014 345.972178 
L 152.719009 357.823018 
L 158.771005 367.109029 
L 164.823 371.30065 
L 170.874996 372.86875 
L 176.926992 373.451572 
L 182.978987 373.532727 
L 189.030983 373.532727 
L 195.082978 373.532727 
L 201.134974 373.532727 
L 207.186969 373.532727 
L 213.238965 373.532727 
L 219.29096 373.532727 
L 225.342956 373.532727 
L 231.394951 373.532727 
L 237.446947 373.532727 
L 243.498943 373.532727 
L 249.550938 373.532727 
L 255.602934 373.532727 
L 261.654929 373.532727 
L 267.706925 373.532727 
L 273.75892 373.532727 
L 279.810916 373.532727 
L 285.862911 373.532727 
L 291.914907 373.532727 
L 297.966902 373.532727 
L 304.018898 373.532727 
L 310.070894 373.532727 
L 316.122889 373.532727 
L 322.174885 373.532727 
L 328.22688 373.532727 
L 334.278876 373.532727 
L 340.330871 373.532727 
L 346.382867 373.532727 
L 352.434862 373.532727 
L 358.486858 373.532727 
L 364.538854 373.532727 
L 370.590849 373.532727 
L 376.642845 373.532727 
L 382.69484 373.532727 
L 388.746836 373.532727 
L 394.798831 373.532727 
L 400.850827 373.532727 
L 406.902822 373.532727 
L 412.954818 373.532727 
L 419.006813 373.532727 
L 425.058809 373.532727 
L 431.110805 373.532727 
L 437.1628 373.532727 
L 443.214796 373.532727 
L 449.266791 373.532727 
L 455.318787 373.532727 
L 461.370782 373.532727 
L 467.422778 373.532727 
L 473.474773 373.532727 
L 479.526769 373.532727 
L 485.578764 373.532727 
L 491.63076 373.532727 
L 497.682756 373.532727 
L 503.734751 373.532727 
L 509.786747 373.532727 
L 515.838742 373.532727 
L 521.890738 373.532727 
L 527.942733 373.532727 
L 533.994729 373.532727 
L 540.046724 373.532727 
L 546.09872 373.532727 
L 552.150716 373.532727 
L 558.202711 373.532727 
L 564.254707 373.532727 
L 570.306702 373.532727 
L 576.358698 373.532727 
L 582.410693 373.532727 
L 588.462689 373.532727 
L 594.514684 373.532727 
L 600.56668 373.532727 
L 606.618675 373.532727 
L 612.670671 373.532727 
L 618.722667 373.532727 
L 624.774662 373.532727 
L 630.826658 373.532727 
L 636.878653 373.532727 
L 642.930649 373.532727 
L 648.982644 373.532727 
L 655.03464 373.532727 
L 661.086635 373.532727 
L 667.138631 373.532727 
L 673.190626 373.532727 
L 679.242622 373.532727 
" clip-path="url(#p4350376f6b)" style="fill: none; stroke: #1f77b4; stroke-width: 1.5; stroke-linecap: square"/>
   </g>
   <g id="line2d_37">
    <path d="M 80.095063 44.327807 
L 86.147058 53.762104 
L 92.199054 64.709144 
L 98.251049 75.43169 
L 104.303045 86.503114 
L 110.35504 96.583762 
L 116.407036 105.779315 
L 122.459032 115.499986 
L 128.511027 124.925799 
L 134.563023 133.206549 
L 140.615018 142.08218 
L 146.667014 150.546444 
L 152.719009 158.312526 
L 158.771005 165.901377 
L 164.823 174.011412 
L 170.874996 181.877567 
L 176.926992 189.367008 
L 182.978987 196.697101 
L 189.030983 204.589632 
L 195.082978 211.62388 
L 201.134974 219.170744 
L 207.186969 227.233513 
L 213.238965 234.857783 
L 219.29096 244.408142 
L 225.342956 252.097771 
L 231.394951 260.347936 
L 237.446947 268.380845 
L 243.498943 276.104823 
L 249.550938 284.150646 
L 255.602934 291.116961 
L 261.654929 297.568739 
L 267.706925 303.513766 
L 273.75892 309.45654 
L 279.810916 314.513006 
L 285.862911 319.254711 
L 291.914907 324.264602 
L 297.966902 328.090598 
L 304.018898 331.428228 
L 310.070894 334.697995 
L 316.122889 337.902703 
L 322.174885 339.82706 
L 328.22688 341.76318 
L 334.278876 343.838066 
L 340.330871 345.821651 
L 346.382867 347.406908 
L 352.434862 348.841032 
L 358.486858 349.858985 
L 364.538854 351.073243 
L 370.590849 352.06991 
L 376.642845 353.018325 
L 382.69484 353.983464 
L 388.746836 354.484947 
L 394.798831 355.147366 
L 400.850827 355.923855 
L 406.902822 356.507994 
L 412.954818 356.92831 
L 419.006813 357.259493 
L 425.058809 357.906716 
L 431.110805 358.1166 
L 437.1628 358.742064 
L 443.214796 359.081823 
L 449.266791 359.689641 
L 455.318787 360.033118 
L 461.370782 360.306539 
L 467.422778 360.775327 
L 473.474773 361.033083 
L 479.526769 361.354974 
L 485.578764 361.626579 
L 491.63076 361.774532 
L 497.682756 361.83598 
L 503.734751 362.056057 
L 509.786747 362.193514 
L 515.838742 362.333871 
L 521.890738 362.438002 
L 527.942733 362.803886 
L 533.994729 362.861807 
L 540.046724 363.120593 
L 546.09872 363.253898 
L 552.150716 363.871237 
L 558.202711 363.997418 
L 564.254707 364.191392 
L 570.306702 364.588637 
L 576.358698 364.876089 
L 582.410693 365.362812 
L 588.462689 365.896728 
L 594.514684 366.505882 
L 600.56668 366.618175 
L 606.618675 366.760076 
L 612.670671 366.865284 
L 618.722667 367.028782 
L 624.774662 367.296624 
L 630.826658 367.324406 
L 636.878653 367.472916 
L 642.930649 367.713073 
L 648.982644 367.809743 
L 655.03464 367.988263 
L 661.086635 368.239711 
L 667.138631 368.294595 
L 673.190626 368.535153 
L 679.242622 368.535153 
" clip-path="url(#p4350376f6b)" style="fill: none; stroke: #aec7e8; stroke-width: 1.5; stroke-linecap: square"/>
   </g>
   <g id="line2d_38">
    <path d="M 80.095063 110.91906 
L 86.147058 128.696408 
L 92.199054 139.213347 
L 98.251049 154.123286 
L 104.303045 176.879572 
L 110.35504 199.022891 
L 116.407036 222.038031 
L 122.459032 247.352421 
L 128.511027 266.524195 
L 134.563023 284.380741 
L 140.615018 297.794432 
L 146.667014 304.921672 
L 152.719009 310.061282 
L 158.771005 312.99836 
L 164.823 315.362731 
L 170.874996 316.279917 
L 176.926992 316.636459 
L 182.978987 317.470969 
L 189.030983 317.682483 
L 195.082978 319.040864 
L 201.134974 319.325896 
L 207.186969 319.635916 
L 213.238965 319.635916 
L 219.29096 319.635916 
L 225.342956 320.386986 
L 231.394951 320.87425 
L 237.446947 321.013592 
L 243.498943 321.013592 
L 249.550938 321.013592 
L 255.602934 321.563315 
L 261.654929 321.563315 
L 267.706925 321.563315 
L 273.75892 321.563315 
L 279.810916 321.563315 
L 285.862911 321.563315 
L 291.914907 321.563315 
L 297.966902 321.563315 
L 304.018898 321.563315 
L 310.070894 321.65345 
L 316.122889 321.65345 
L 322.174885 321.758835 
L 328.22688 321.758835 
L 334.278876 321.758835 
L 340.330871 321.758835 
L 346.382867 321.758835 
L 352.434862 321.758835 
L 358.486858 321.758835 
L 364.538854 322.043784 
L 370.590849 322.043784 
L 376.642845 322.348642 
L 382.69484 322.451555 
L 388.746836 322.451555 
L 394.798831 324.956591 
L 400.850827 325.59957 
L 406.902822 325.622885 
L 412.954818 326.363223 
L 419.006813 326.378845 
L 425.058809 326.378845 
L 431.110805 326.378845 
L 437.1628 326.378845 
L 443.214796 326.378845 
L 449.266791 326.378845 
L 455.318787 326.378845 
L 461.370782 327.37081 
L 467.422778 328.000327 
L 473.474773 328.000327 
L 479.526769 328.000327 
L 485.578764 328.000327 
L 491.63076 328.369727 
L 497.682756 328.403231 
L 503.734751 328.932665 
L 509.786747 328.932665 
L 515.838742 329.088746 
L 521.890738 329.088746 
L 527.942733 329.088746 
L 533.994729 329.088746 
L 540.046724 329.088746 
L 546.09872 329.088746 
L 552.150716 329.80316 
L 558.202711 329.900759 
L 564.254707 329.900759 
L 570.306702 329.900759 
L 576.358698 329.900759 
L 582.410693 329.900759 
L 588.462689 329.900759 
L 594.514684 329.900759 
L 600.56668 329.902428 
L 606.618675 330.109754 
L 612.670671 330.109754 
L 618.722667 330.109754 
L 624.774662 330.109754 
L 630.826658 330.109754 
L 636.878653 330.109754 
L 642.930649 330.109754 
L 648.982644 330.109754 
L 655.03464 330.109754 
L 661.086635 330.109754 
L 667.138631 330.109754 
L 673.190626 330.109754 
L 679.242622 330.109754 
" clip-path="url(#p4350376f6b)" style="fill: none; stroke: #ff7f0e; stroke-width: 1.5; stroke-linecap: square"/>
   </g>
   <g id="line2d_39">
    <path d="M 80.095063 43.907109 
L 86.147058 53.803586 
L 92.199054 65.750931 
L 98.251049 76.260157 
L 104.303045 86.797122 
L 110.35504 97.853766 
L 116.407036 108.362302 
L 122.459032 118.666321 
L 128.511027 128.308751 
L 134.563023 138.104359 
L 140.615018 147.569635 
L 146.667014 157.665995 
L 152.719009 166.5616 
L 158.771005 175.838253 
L 164.823 184.97707 
L 170.874996 194.333569 
L 176.926992 202.009003 
L 182.978987 210.693017 
L 189.030983 217.201733 
L 195.082978 224.082502 
L 201.134974 229.47657 
L 207.186969 233.497759 
L 213.238965 236.439918 
L 219.29096 238.581477 
L 225.342956 240.002448 
L 231.394951 240.907332 
L 237.446947 241.374545 
L 243.498943 241.56615 
L 249.550938 241.699728 
L 255.602934 242.086675 
L 261.654929 242.771842 
L 267.706925 243.131248 
L 273.75892 243.297926 
L 279.810916 243.366618 
L 285.862911 243.651815 
L 291.914907 243.805125 
L 297.966902 243.831414 
L 304.018898 243.918892 
L 310.070894 243.927529 
L 316.122889 243.927529 
L 322.174885 243.927529 
L 328.22688 243.927529 
L 334.278876 243.927529 
L 340.330871 243.927529 
L 346.382867 244.264042 
L 352.434862 244.851456 
L 358.486858 245.220371 
L 364.538854 245.592826 
L 370.590849 245.766063 
L 376.642845 246.670571 
L 382.69484 247.534373 
L 388.746836 247.984309 
L 394.798831 248.800691 
L 400.850827 249.263124 
L 406.902822 249.784839 
L 412.954818 250.118596 
L 419.006813 250.364399 
L 425.058809 250.491992 
L 431.110805 250.835409 
L 437.1628 250.903723 
L 443.214796 250.925623 
L 449.266791 251.047894 
L 455.318787 251.835701 
L 461.370782 252.501502 
L 467.422778 252.775823 
L 473.474773 253.02732 
L 479.526769 253.164799 
L 485.578764 253.188637 
L 491.63076 253.188637 
L 497.682756 253.300175 
L 503.734751 253.357433 
L 509.786747 253.567042 
L 515.838742 253.592633 
L 521.890738 253.619946 
L 527.942733 253.619946 
L 533.994729 253.619946 
L 540.046724 253.746751 
L 546.09872 254.412292 
L 552.150716 254.712172 
L 558.202711 254.974893 
L 564.254707 255.023903 
L 570.306702 255.023903 
L 576.358698 255.023903 
L 582.410693 255.023903 
L 588.462689 255.023903 
L 594.514684 255.094615 
L 600.56668 255.2643 
L 606.618675 255.579934 
L 612.670671 255.875946 
L 618.722667 256.156424 
L 624.774662 256.340135 
L 630.826658 256.364864 
L 636.878653 256.390393 
L 642.930649 256.592276 
L 648.982644 256.629802 
L 655.03464 256.629802 
L 661.086635 256.629802 
L 667.138631 256.629802 
L 673.190626 256.629802 
L 679.242622 256.629802 
" clip-path="url(#p4350376f6b)" style="fill: none; stroke: #ffbb78; stroke-width: 1.5; stroke-linecap: square"/>
   </g>
   <g id="line2d_40">
    <path d="M 80.095063 43.387273 
L 86.147058 53.638157 
L 92.199054 63.828943 
L 98.251049 75.236643 
L 104.303045 86.255366 
L 110.35504 96.89587 
L 116.407036 106.324402 
L 122.459032 115.687608 
L 128.511027 124.598781 
L 134.563023 133.780349 
L 140.615018 142.307163 
L 146.667014 149.935803 
L 152.719009 158.551039 
L 158.771005 166.872577 
L 164.823 173.534181 
L 170.874996 181.353646 
L 176.926992 188.692635 
L 182.978987 195.462376 
L 189.030983 202.170645 
L 195.082978 209.548417 
L 201.134974 217.041013 
L 207.186969 224.286432 
L 213.238965 230.785717 
L 219.29096 238.796363 
L 225.342956 246.260766 
L 231.394951 253.627752 
L 237.446947 260.224683 
L 243.498943 267.231165 
L 249.550938 272.90743 
L 255.602934 278.464695 
L 261.654929 283.628051 
L 267.706925 288.809033 
L 273.75892 293.620658 
L 279.810916 297.466917 
L 285.862911 301.385252 
L 291.914907 304.018381 
L 297.966902 306.448797 
L 304.018898 308.919638 
L 310.070894 311.122127 
L 316.122889 313.174526 
L 322.174885 315.179709 
L 328.22688 317.163944 
L 334.278876 318.418305 
L 340.330871 319.493236 
L 346.382867 320.664036 
L 352.434862 321.499991 
L 358.486858 322.620144 
L 364.538854 323.770986 
L 370.590849 325.131491 
L 376.642845 326.479277 
L 382.69484 327.259459 
L 388.746836 327.974324 
L 394.798831 328.945018 
L 400.850827 329.331792 
L 406.902822 329.905489 
L 412.954818 330.461693 
L 419.006813 330.771146 
L 425.058809 330.897168 
L 431.110805 331.162344 
L 437.1628 331.408331 
L 443.214796 331.831073 
L 449.266791 332.190795 
L 455.318787 333.41975 
L 461.370782 333.891142 
L 467.422778 334.705437 
L 473.474773 335.180963 
L 479.526769 335.434059 
L 485.578764 335.577669 
L 491.63076 336.097326 
L 497.682756 336.622642 
L 503.734751 336.749984 
L 509.786747 336.951871 
L 515.838742 337.025651 
L 521.890738 337.149095 
L 527.942733 337.248684 
L 533.994729 337.383026 
L 540.046724 337.583621 
L 546.09872 337.962515 
L 552.150716 338.094467 
L 558.202711 338.146941 
L 564.254707 338.276106 
L 570.306702 338.439696 
L 576.358698 338.502788 
L 582.410693 338.598632 
L 588.462689 338.80269 
L 594.514684 339.101962 
L 600.56668 339.165645 
L 606.618675 339.385964 
L 612.670671 340.024413 
L 618.722667 340.178574 
L 624.774662 340.481446 
L 630.826658 340.965488 
L 636.878653 341.000932 
L 642.930649 341.101834 
L 648.982644 341.116819 
L 655.03464 341.252802 
L 661.086635 341.367792 
L 667.138631 341.44041 
L 673.190626 341.566851 
L 679.242622 341.63639 
" clip-path="url(#p4350376f6b)" style="fill: none; stroke: #2ca02c; stroke-width: 1.5; stroke-linecap: square"/>
   </g>
   <g id="line2d_41">
    <path d="M 80.095063 44.98945 
L 86.147058 54.687017 
L 92.199054 65.871074 
L 98.251049 77.097626 
L 104.303045 88.13697 
L 110.35504 98.7521 
L 116.407036 108.535759 
L 122.459032 118.079204 
L 128.511027 127.38974 
L 134.563023 136.787924 
L 140.615018 146.384225 
L 146.667014 154.898842 
L 152.719009 163.849505 
L 158.771005 171.755651 
L 164.823 178.959485 
L 170.874996 186.388313 
L 176.926992 193.164045 
L 182.978987 200.907138 
L 189.030983 208.489534 
L 195.082978 216.784932 
L 201.134974 224.226218 
L 207.186969 231.795071 
L 213.238965 239.313745 
L 219.29096 247.627143 
L 225.342956 254.541098 
L 231.394951 261.355632 
L 237.446947 268.207332 
L 243.498943 275.462901 
L 249.550938 281.35812 
L 255.602934 286.721478 
L 261.654929 291.916051 
L 267.706925 296.978894 
L 273.75892 301.302197 
L 279.810916 305.768577 
L 285.862911 309.308706 
L 291.914907 312.25937 
L 297.966902 315.059236 
L 304.018898 317.523788 
L 310.070894 319.723158 
L 316.122889 321.922056 
L 322.174885 323.997772 
L 328.22688 325.486772 
L 334.278876 326.800339 
L 340.330871 327.869055 
L 346.382867 328.921686 
L 352.434862 329.899089 
L 358.486858 331.192656 
L 364.538854 331.948964 
L 370.590849 332.634997 
L 376.642845 333.297645 
L 382.69484 333.617078 
L 388.746836 334.448688 
L 394.798831 334.764108 
L 400.850827 335.029776 
L 406.902822 335.357404 
L 412.954818 335.552961 
L 419.006813 335.83672 
L 425.058809 336.20366 
L 431.110805 336.967543 
L 437.1628 337.231408 
L 443.214796 337.434978 
L 449.266791 337.578661 
L 455.318787 337.695929 
L 461.370782 337.798463 
L 467.422778 338.172568 
L 473.474773 338.56405 
L 479.526769 339.513897 
L 485.578764 339.662805 
L 491.63076 340.647282 
L 497.682756 340.913492 
L 503.734751 341.097274 
L 509.786747 341.800998 
L 515.838742 342.152183 
L 521.890738 342.773045 
L 527.942733 343.030278 
L 533.994729 343.312633 
L 540.046724 343.846529 
L 546.09872 344.130111 
L 552.150716 344.652054 
L 558.202711 344.852294 
L 564.254707 344.936123 
L 570.306702 345.098221 
L 576.358698 345.322877 
L 582.410693 345.322877 
L 588.462689 345.322877 
L 594.514684 345.611379 
L 600.56668 345.691591 
L 606.618675 345.76459 
L 612.670671 345.810166 
L 618.722667 345.936259 
L 624.774662 346.142951 
L 630.826658 346.565882 
L 636.878653 347.069586 
L 642.930649 347.175227 
L 648.982644 347.392673 
L 655.03464 347.479552 
L 661.086635 347.479552 
L 667.138631 347.546565 
L 673.190626 347.548705 
L 679.242622 347.612213 
" clip-path="url(#p4350376f6b)" style="fill: none; stroke: #98df8a; stroke-width: 1.5; stroke-linecap: square"/>
   </g>
   <g id="line2d_42">
    <path d="M 80.095063 43.608614 
L 86.147058 54.107565 
L 92.199054 64.451453 
L 98.251049 74.949864 
L 104.303045 86.331481 
L 110.35504 97.172706 
L 116.407036 107.476628 
L 122.459032 116.842979 
L 128.511027 126.395979 
L 134.563023 135.810623 
L 140.615018 144.098871 
L 146.667014 152.21508 
L 152.719009 160.346234 
L 158.771005 167.876463 
L 164.823 175.532369 
L 170.874996 182.688009 
L 176.926992 190.540413 
L 182.978987 198.082425 
L 189.030983 205.47408 
L 195.082978 213.36646 
L 201.134974 220.324084 
L 207.186969 227.946802 
L 213.238965 235.463011 
L 219.29096 243.269117 
L 225.342956 250.974763 
L 231.394951 258.126012 
L 237.446947 265.618019 
L 243.498943 272.723773 
L 249.550938 279.897105 
L 255.602934 285.716907 
L 261.654929 291.996831 
L 267.706925 297.728383 
L 273.75892 303.105801 
L 279.810916 306.664012 
L 285.862911 310.758105 
L 291.914907 315.12815 
L 297.966902 318.870534 
L 304.018898 321.350317 
L 310.070894 324.191894 
L 316.122889 326.531537 
L 322.174885 328.603493 
L 328.22688 331.006172 
L 334.278876 332.593371 
L 340.330871 333.935302 
L 346.382867 335.132129 
L 352.434862 335.861528 
L 358.486858 336.857606 
L 364.538854 337.642855 
L 370.590849 338.384183 
L 376.642845 338.888835 
L 382.69484 339.498928 
L 388.746836 339.956751 
L 394.798831 340.402704 
L 400.850827 340.774264 
L 406.902822 341.530468 
L 412.954818 343.182047 
L 419.006813 343.561713 
L 425.058809 344.178732 
L 431.110805 344.757247 
L 437.1628 345.269668 
L 443.214796 345.954739 
L 449.266791 346.245121 
L 455.318787 346.408128 
L 461.370782 346.649644 
L 467.422778 346.867606 
L 473.474773 346.940762 
L 479.526769 347.04444 
L 485.578764 347.17842 
L 491.63076 347.352118 
L 497.682756 347.46459 
L 503.734751 347.695431 
L 509.786747 347.813817 
L 515.838742 348.072377 
L 521.890738 348.164049 
L 527.942733 348.496133 
L 533.994729 348.654608 
L 540.046724 348.711136 
L 546.09872 349.021029 
L 552.150716 349.205498 
L 558.202711 349.494096 
L 564.254707 349.702217 
L 570.306702 349.845355 
L 576.358698 349.907631 
L 582.410693 350.074829 
L 588.462689 350.191695 
L 594.514684 350.44829 
L 600.56668 350.584007 
L 606.618675 350.624586 
L 612.670671 350.756909 
L 618.722667 350.867055 
L 624.774662 351.146357 
L 630.826658 351.316121 
L 636.878653 351.465562 
L 642.930649 351.465562 
L 648.982644 351.514189 
L 655.03464 351.675008 
L 661.086635 351.699956 
L 667.138631 351.827479 
L 673.190626 351.90251 
L 679.242622 352.039514 
" clip-path="url(#p4350376f6b)" style="fill: none; stroke: #d62728; stroke-width: 1.5; stroke-linecap: square"/>
   </g>
   <g id="line2d_43">
    <path d="M 80.095063 43.589637 
L 86.147058 53.855702 
L 92.199054 65.341504 
L 98.251049 76.226094 
L 104.303045 86.732628 
L 110.35504 97.33383 
L 116.407036 107.345208 
L 122.459032 115.882711 
L 128.511027 124.23975 
L 134.563023 132.64012 
L 140.615018 139.080721 
L 146.667014 145.259364 
L 152.719009 151.377269 
L 158.771005 156.727931 
L 164.823 161.503321 
L 170.874996 166.214346 
L 176.926992 170.435508 
L 182.978987 174.521719 
L 189.030983 178.530487 
L 195.082978 182.375661 
L 201.134974 186.411652 
L 207.186969 190.127696 
L 213.238965 193.8006 
L 219.29096 198.048912 
L 225.342956 201.890852 
L 231.394951 205.561336 
L 237.446947 209.185599 
L 243.498943 212.65002 
L 249.550938 216.8138 
L 255.602934 221.322702 
L 261.654929 225.598149 
L 267.706925 230.330734 
L 273.75892 234.022941 
L 279.810916 237.757906 
L 285.862911 241.724364 
L 291.914907 246.563955 
L 297.966902 250.130467 
L 304.018898 254.151542 
L 310.070894 258.296284 
L 316.122889 262.224453 
L 322.174885 266.240931 
L 328.22688 270.074133 
L 334.278876 274.030605 
L 340.330871 277.811914 
L 346.382867 281.358964 
L 352.434862 284.772043 
L 358.486858 288.15166 
L 364.538854 291.442843 
L 370.590849 295.090139 
L 376.642845 299.149032 
L 382.69484 302.221184 
L 388.746836 305.233926 
L 394.798831 307.722256 
L 400.850827 310.450314 
L 406.902822 312.580343 
L 412.954818 314.592385 
L 419.006813 316.804292 
L 425.058809 318.603219 
L 431.110805 320.403296 
L 437.1628 322.162725 
L 443.214796 324.048239 
L 449.266791 325.425606 
L 455.318787 326.860033 
L 461.370782 328.227172 
L 467.422778 329.587582 
L 473.474773 330.730033 
L 479.526769 331.599579 
L 485.578764 332.779434 
L 491.63076 333.974186 
L 497.682756 334.881895 
L 503.734751 336.171135 
L 509.786747 337.092118 
L 515.838742 337.969372 
L 521.890738 338.701217 
L 527.942733 339.82834 
L 533.994729 340.77783 
L 540.046724 341.581606 
L 546.09872 342.359419 
L 552.150716 342.9109 
L 558.202711 343.37314 
L 564.254707 343.838743 
L 570.306702 344.299237 
L 576.358698 344.697607 
L 582.410693 345.325296 
L 588.462689 346.08074 
L 594.514684 346.513844 
L 600.56668 347.128414 
L 606.618675 347.568679 
L 612.670671 348.045796 
L 618.722667 348.544217 
L 624.774662 348.863553 
L 630.826658 349.111745 
L 636.878653 349.432547 
L 642.930649 349.783502 
L 648.982644 350.237977 
L 655.03464 350.855845 
L 661.086635 351.223677 
L 667.138631 351.633069 
L 673.190626 351.995841 
L 679.242622 352.42652 
" clip-path="url(#p4350376f6b)" style="fill: none; stroke: #ff9896; stroke-width: 1.5; stroke-linecap: square"/>
   </g>
   <g id="line2d_44"/>
   <g id="line2d_45"/>
   <g id="line2d_46"/>
   <g id="line2d_47"/>
   <g id="line2d_48"/>
   <g id="line2d_49"/>
   <g id="line2d_50"/>
   <g id="line2d_51"/>
   <g id="patch_3">
    <path d="M 50.137685 390.04 
L 50.137685 26.88 
" style="fill: none; stroke: #000000; stroke-width: 0.8; stroke-linejoin: miter; stroke-linecap: square"/>
   </g>
   <g id="patch_4">
    <path d="M 709.2 390.04 
L 709.2 26.88 
" style="fill: none; stroke: #000000; stroke-width: 0.8; stroke-linejoin: miter; stroke-linecap: square"/>
   </g>
   <g id="patch_5">
    <path d="M 50.137685 390.04 
L 709.2 390.04 
" style="fill: none; stroke: #000000; stroke-width: 0.8; stroke-linejoin: miter; stroke-linecap: square"/>
   </g>
   <g id="patch_6">
    <path d="M 50.137685 26.88 
L 709.2 26.88 
" style="fill: none; stroke: #000000; stroke-width: 0.8; stroke-linejoin: miter; stroke-linecap: square"/>
   </g>
   <g id="text_11">
    <!-- Mutation Operator Comparison: Fitness over Generations -->
    <g transform="translate(208.071655 20.88) scale(0.12 -0.12)">
     <defs>
      <path id="DejaVuSans-4d" d="M 628 4666 
L 1569 4666 
L 2759 1491 
L 3956 4666 
L 4897 4666 
L 4897 0 
L 4281 0 
L 4281 4097 
L 3078 897 
L 2444 897 
L 1241 4097 
L 1241 0 
L 628 0 
L 628 4666 
z
" transform="scale(0.015625)"/>
      <path id="DejaVuSans-75" d="M 544 1381 
L 544 3500 
L 1119 3500 
L 1119 1403 
Q 1119 906 1312 657 
Q 1506 409 1894 409 
Q 2359 409 2629 706 
Q 2900 1003 2900 1516 
L 2900 3500 
L 3475 3500 
L 3475 0 
L 2900 0 
L 2900 538 
Q 2691 219 2414 64 
Q 2138 -91 1772 -91 
Q 1169 -91 856 284 
Q 544 659 544 1381 
z
M 1991 3584 
L 1991 3584 
z
" transform="scale(0.015625)"/>
      <path id="DejaVuSans-4f" d="M 2522 4238 
Q 1834 4238 1429 3725 
Q 1025 3213 1025 2328 
Q 1025 1447 1429 934 
Q 1834 422 2522 422 
Q 3209 422 3611 934 
Q 4013 1447 4013 2328 
Q 4013 3213 3611 3725 
Q 3209 4238 2522 4238 
z
M 2522 4750 
Q 3503 4750 4090 4092 
Q 4678 3434 4678 2328 
Q 4678 1225 4090 567 
Q 3503 -91 2522 -91 
Q 1538 -91 948 565 
Q 359 1222 359 2328 
Q 359 3434 948 4092 
Q 1538 4750 2522 4750 
z
" transform="scale(0.015625)"/>
      <path id="DejaVuSans-70" d="M 1159 525 
L 1159 -1331 
L 581 -1331 
L 581 3500 
L 1159 3500 
L 1159 2969 
Q 1341 3281 1617 3432 
Q 1894 3584 2278 3584 
Q 2916 3584 3314 3078 
Q 3713 2572 3713 1747 
Q 3713 922 3314 415 
Q 2916 -91 2278 -91 
Q 1894 -91 1617 61 
Q 1341 213 1159 525 
z
M 3116 1747 
Q 3116 2381 2855 2742 
Q 2594 3103 2138 3103 
Q 1681 3103 1420 2742 
Q 1159 2381 1159 1747 
Q 1159 1113 1420 752 
Q 1681 391 2138 391 
Q 2594 391 2855 752 
Q 3116 1113 3116 1747 
z
" transform="scale(0.015625)"/>
      <path id="DejaVuSans-43" d="M 4122 4306 
L 4122 3641 
Q 3803 3938 3442 4084 
Q 3081 4231 2675 4231 
Q 1875 4231 1450 3742 
Q 1025 3253 1025 2328 
Q 1025 1406 1450 917 
Q 1875 428 2675 428 
Q 3081 428 3442 575 
Q 3803 722 4122 1019 
L 4122 359 
Q 3791 134 3420 21 
Q 3050 -91 2638 -91 
Q 1578 -91 968 557 
Q 359 1206 359 2328 
Q 359 3453 968 4101 
Q 1578 4750 2638 4750 
Q 3056 4750 3426 4639 
Q 3797 4528 4122 4306 
z
" transform="scale(0.015625)"/>
      <path id="DejaVuSans-6d" d="M 3328 2828 
Q 3544 3216 3844 3400 
Q 4144 3584 4550 3584 
Q 5097 3584 5394 3201 
Q 5691 2819 5691 2113 
L 5691 0 
L 5113 0 
L 5113 2094 
Q 5113 2597 4934 2840 
Q 4756 3084 4391 3084 
Q 3944 3084 3684 2787 
Q 3425 2491 3425 1978 
L 3425 0 
L 2847 0 
L 2847 2094 
Q 2847 2600 2669 2842 
Q 2491 3084 2119 3084 
Q 1678 3084 1418 2786 
Q 1159 2488 1159 1978 
L 1159 0 
L 581 0 
L 581 3500 
L 1159 3500 
L 1159 2956 
Q 1356 3278 1631 3431 
Q 1906 3584 2284 3584 
Q 2666 3584 2933 3390 
Q 3200 3197 3328 2828 
z
" transform="scale(0.015625)"/>
      <path id="DejaVuSans-3a" d="M 750 794 
L 1409 794 
L 1409 0 
L 750 0 
L 750 794 
z
M 750 3309 
L 1409 3309 
L 1409 2516 
L 750 2516 
L 750 3309 
z
" transform="scale(0.015625)"/>
      <path id="DejaVuSans-76" d="M 191 3500 
L 800 3500 
L 1894 563 
L 2988 3500 
L 3597 3500 
L 2284 0 
L 1503 0 
L 191 3500 
z
" transform="scale(0.015625)"/>
     </defs>
     <use xlink:href="#DejaVuSans-4d"/>
     <use xlink:href="#DejaVuSans-75" x="86.279297"/>
     <use xlink:href="#DejaVuSans-74" x="149.658203"/>
     <use xlink:href="#DejaVuSans-61" x="188.867188"/>
     <use xlink:href="#DejaVuSans-74" x="250.146484"/>
     <use xlink:href="#DejaVuSans-69" x="289.355469"/>
     <use xlink:href="#DejaVuSans-6f" x="317.138672"/>
     <use xlink:href="#DejaVuSans-6e" x="378.320312"/>
     <use xlink:href="#DejaVuSans-20" x="441.699219"/>
     <use xlink:href="#DejaVuSans-4f" x="473.486328"/>
     <use xlink:href="#DejaVuSans-70" x="552.197266"/>
     <use xlink:href="#DejaVuSans-65" x="615.673828"/>
     <use xlink:href="#DejaVuSans-72" x="677.197266"/>
     <use xlink:href="#DejaVuSans-61" x="718.310547"/>
     <use xlink:href="#DejaVuSans-74" x="779.589844"/>
     <use xlink:href="#DejaVuSans-6f" x="818.798828"/>
     <use xlink:href="#DejaVuSans-72" x="879.980469"/>
     <use xlink:href="#DejaVuSans-20" x="921.09375"/>
     <use xlink:href="#DejaVuSans-43" x="952.880859"/>
     <use xlink:href="#DejaVuSans-6f" x="1022.705078"/>
     <use xlink:href="#DejaVuSans-6d" x="1083.886719"/>
     <use xlink:href="#DejaVuSans-70" x="1181.298828"/>
     <use xlink:href="#DejaVuSans-61" x="1244.775391"/>
     <use xlink:href="#DejaVuSans-72" x="1306.054688"/>
     <use xlink:href="#DejaVuSans-69" x="1347.167969"/>
     <use xlink:href="#DejaVuSans-73" x="1374.951172"/>
     <use xlink:href="#DejaVuSans-6f" x="1427.050781"/>
     <use xlink:href="#DejaVuSans-6e" x="1488.232422"/>
     <use xlink:href="#DejaVuSans-3a" x="1551.611328"/>
     <use xlink:href="#DejaVuSans-20" x="1585.302734"/>
     <use xlink:href="#DejaVuSans-46" x="1617.089844"/>
     <use xlink:href="#DejaVuSans-69" x="1667.359375"/>
     <use xlink:href="#DejaVuSans-74" x="1695.142578"/>
     <use xlink:href="#DejaVuSans-6e" x="1734.351562"/>
     <use xlink:href="#DejaVuSans-65" x="1797.730469"/>
     <use xlink:href="#DejaVuSans-73" x="1859.253906"/>
     <use xlink:href="#DejaVuSans-73" x="1911.353516"/>
     <use xlink:href="#DejaVuSans-20" x="1963.453125"/>
     <use xlink:href="#DejaVuSans-6f" x="1995.240234"/>
     <use xlink:href="#DejaVuSans-76" x="2056.421875"/>
     <use xlink:href="#DejaVuSans-65" x="2115.601562"/>
     <use xlink:href="#DejaVuSans-72" x="2177.125"/>
     <use xlink:href="#DejaVuSans-20" x="2218.238281"/>
     <use xlink:href="#DejaVuSans-47" x="2250.025391"/>
     <use xlink:href="#DejaVuSans-65" x="2327.515625"/>
     <use xlink:href="#DejaVuSans-6e" x="2389.039062"/>
     <use xlink:href="#DejaVuSans-65" x="2452.417969"/>
     <use xlink:href="#DejaVuSans-72" x="2513.941406"/>
     <use xlink:href="#DejaVuSans-61" x="2555.054688"/>
     <use xlink:href="#DejaVuSans-74" x="2616.333984"/>
     <use xlink:href="#DejaVuSans-69" x="2655.542969"/>
     <use xlink:href="#DejaVuSans-6f" x="2683.326172"/>
     <use xlink:href="#DejaVuSans-6e" x="2744.507812"/>
     <use xlink:href="#DejaVuSans-73" x="2807.886719"/>
    </g>
   </g>
   <g id="legend_1">
    <g id="patch_7">
     <path d="M 516.285938 169.208125 
L 702.2 169.208125 
Q 704.2 169.208125 704.2 167.208125 
L 704.2 33.88 
Q 704.2 31.88 702.2 31.88 
L 516.285938 31.88 
Q 514.285938 31.88 514.285938 33.88 
L 514.285938 167.208125 
Q 514.285938 169.208125 516.285938 169.208125 
z
" style="fill: #ffffff; opacity: 0.8; stroke: #cccccc; stroke-linejoin: miter"/>
    </g>
    <g id="text_12">
     <!-- Mutation Operator -->
     <g transform="translate(563.188281 43.478437) scale(0.1 -0.1)">
      <use xlink:href="#DejaVuSans-4d"/>
      <use xlink:href="#DejaVuSans-75" x="86.279297"/>
      <use xlink:href="#DejaVuSans-74" x="149.658203"/>
      <use xlink:href="#DejaVuSans-61" x="188.867188"/>
      <use xlink:href="#DejaVuSans-74" x="250.146484"/>
      <use xlink:href="#DejaVuSans-69" x="289.355469"/>
      <use xlink:href="#DejaVuSans-6f" x="317.138672"/>
      <use xlink:href="#DejaVuSans-6e" x="378.320312"/>
      <use xlink:href="#DejaVuSans-20" x="441.699219"/>
      <use xlink:href="#DejaVuSans-4f" x="473.486328"/>
      <use xlink:href="#DejaVuSans-70" x="552.197266"/>
      <use xlink:href="#DejaVuSans-65" x="615.673828"/>
      <use xlink:href="#DejaVuSans-72" x="677.197266"/>
      <use xlink:href="#DejaVuSans-61" x="718.310547"/>
      <use xlink:href="#DejaVuSans-74" x="779.589844"/>
      <use xlink:href="#DejaVuSans-6f" x="818.798828"/>
      <use xlink:href="#DejaVuSans-72" x="879.980469"/>
     </g>
    </g>
    <g id="line2d_52">
     <path d="M 518.285938 54.656563 
L 528.285938 54.656563 
L 538.285938 54.656563 
" style="fill: none; stroke: #1f77b4; stroke-width: 1.5; stroke-linecap: square"/>
    </g>
    <g id="text_13">
     <!-- add_or_remove_mutation -->
     <g transform="translate(546.285938 58.156563) scale(0.1 -0.1)">
      <defs>
       <path id="DejaVuSans-64" d="M 2906 2969 
L 2906 4863 
L 3481 4863 
L 3481 0 
L 2906 0 
L 2906 525 
Q 2725 213 2448 61 
Q 2172 -91 1784 -91 
Q 1150 -91 751 415 
Q 353 922 353 1747 
Q 353 2572 751 3078 
Q 1150 3584 1784 3584 
Q 2172 3584 2448 3432 
Q 2725 3281 2906 2969 
z
M 947 1747 
Q 947 1113 1208 752 
Q 1469 391 1925 391 
Q 2381 391 2643 752 
Q 2906 1113 2906 1747 
Q 2906 2381 2643 2742 
Q 2381 3103 1925 3103 
Q 1469 3103 1208 2742 
Q 947 2381 947 1747 
z
" transform="scale(0.015625)"/>
       <path id="DejaVuSans-5f" d="M 3263 -1063 
L 3263 -1509 
L -63 -1509 
L -63 -1063 
L 3263 -1063 
z
" transform="scale(0.015625)"/>
      </defs>
      <use xlink:href="#DejaVuSans-61"/>
      <use xlink:href="#DejaVuSans-64" x="61.279297"/>
      <use xlink:href="#DejaVuSans-64" x="124.755859"/>
      <use xlink:href="#DejaVuSans-5f" x="188.232422"/>
      <use xlink:href="#DejaVuSans-6f" x="238.232422"/>
      <use xlink:href="#DejaVuSans-72" x="299.414062"/>
      <use xlink:href="#DejaVuSans-5f" x="340.527344"/>
      <use xlink:href="#DejaVuSans-72" x="390.527344"/>
      <use xlink:href="#DejaVuSans-65" x="429.390625"/>
      <use xlink:href="#DejaVuSans-6d" x="490.914062"/>
      <use xlink:href="#DejaVuSans-6f" x="588.326172"/>
      <use xlink:href="#DejaVuSans-76" x="649.507812"/>
      <use xlink:href="#DejaVuSans-65" x="708.6875"/>
      <use xlink:href="#DejaVuSans-5f" x="770.210938"/>
      <use xlink:href="#DejaVuSans-6d" x="820.210938"/>
      <use xlink:href="#DejaVuSans-75" x="917.623047"/>
      <use xlink:href="#DejaVuSans-74" x="981.001953"/>
      <use xlink:href="#DejaVuSans-61" x="1020.210938"/>
      <use xlink:href="#DejaVuSans-74" x="1081.490234"/>
      <use xlink:href="#DejaVuSans-69" x="1120.699219"/>
      <use xlink:href="#DejaVuSans-6f" x="1148.482422"/>
      <use xlink:href="#DejaVuSans-6e" x="1209.664062"/>
     </g>
    </g>
    <g id="line2d_53">
     <path d="M 518.285938 69.612813 
L 528.285938 69.612813 
L 538.285938 69.612813 
" style="fill: none; stroke: #aec7e8; stroke-width: 1.5; stroke-linecap: square"/>
    </g>
    <g id="text_14">
     <!-- fitness_dependent_mutation -->
     <g transform="translate(546.285938 73.112813) scale(0.1 -0.1)">
      <defs>
       <path id="DejaVuSans-66" d="M 2375 4863 
L 2375 4384 
L 1825 4384 
Q 1516 4384 1395 4259 
Q 1275 4134 1275 3809 
L 1275 3500 
L 2222 3500 
L 2222 3053 
L 1275 3053 
L 1275 0 
L 697 0 
L 697 3053 
L 147 3053 
L 147 3500 
L 697 3500 
L 697 3744 
Q 697 4328 969 4595 
Q 1241 4863 1831 4863 
L 2375 4863 
z
" transform="scale(0.015625)"/>
      </defs>
      <use xlink:href="#DejaVuSans-66"/>
      <use xlink:href="#DejaVuSans-69" x="35.205078"/>
      <use xlink:href="#DejaVuSans-74" x="62.988281"/>
      <use xlink:href="#DejaVuSans-6e" x="102.197266"/>
      <use xlink:href="#DejaVuSans-65" x="165.576172"/>
      <use xlink:href="#DejaVuSans-73" x="227.099609"/>
      <use xlink:href="#DejaVuSans-73" x="279.199219"/>
      <use xlink:href="#DejaVuSans-5f" x="331.298828"/>
      <use xlink:href="#DejaVuSans-64" x="381.298828"/>
      <use xlink:href="#DejaVuSans-65" x="444.775391"/>
      <use xlink:href="#DejaVuSans-70" x="506.298828"/>
      <use xlink:href="#DejaVuSans-65" x="569.775391"/>
      <use xlink:href="#DejaVuSans-6e" x="631.298828"/>
      <use xlink:href="#DejaVuSans-64" x="694.677734"/>
      <use xlink:href="#DejaVuSans-65" x="758.154297"/>
      <use xlink:href="#DejaVuSans-6e" x="819.677734"/>
      <use xlink:href="#DejaVuSans-74" x="883.056641"/>
      <use xlink:href="#DejaVuSans-5f" x="922.265625"/>
      <use xlink:href="#DejaVuSans-6d" x="972.265625"/>
      <use xlink:href="#DejaVuSans-75" x="1069.677734"/>
      <use xlink:href="#DejaVuSans-74" x="1133.056641"/>
      <use xlink:href="#DejaVuSans-61" x="1172.265625"/>
      <use xlink:href="#DejaVuSans-74" x="1233.544922"/>
      <use xlink:href="#DejaVuSans-69" x="1272.753906"/>
      <use xlink:href="#DejaVuSans-6f" x="1300.537109"/>
      <use xlink:href="#DejaVuSans-6e" x="1361.71875"/>
     </g>
    </g>
    <g id="line2d_54">
     <path d="M 518.285938 84.569062 
L 528.285938 84.569062 
L 538.285938 84.569062 
" style="fill: none; stroke: #ff7f0e; stroke-width: 1.5; stroke-linecap: square"/>
    </g>
    <g id="text_15">
     <!-- flip_food -->
     <g transform="translate(546.285938 88.069062) scale(0.1 -0.1)">
      <use xlink:href="#DejaVuSans-66"/>
      <use xlink:href="#DejaVuSans-6c" x="35.205078"/>
      <use xlink:href="#DejaVuSans-69" x="62.988281"/>
      <use xlink:href="#DejaVuSans-70" x="90.771484"/>
      <use xlink:href="#DejaVuSans-5f" x="154.248047"/>
      <use xlink:href="#DejaVuSans-66" x="204.248047"/>
      <use xlink:href="#DejaVuSans-6f" x="239.453125"/>
      <use xlink:href="#DejaVuSans-6f" x="300.634766"/>
      <use xlink:href="#DejaVuSans-64" x="361.816406"/>
     </g>
    </g>
    <g id="line2d_55">
     <path d="M 518.285938 99.525313 
L 528.285938 99.525313 
L 538.285938 99.525313 
" style="fill: none; stroke: #ffbb78; stroke-width: 1.5; stroke-linecap: square"/>
    </g>
    <g id="text_16">
     <!-- gaussian_adaptation_mutation -->
     <g transform="translate(546.285938 103.025313) scale(0.1 -0.1)">
      <use xlink:href="#DejaVuSans-67"/>
      <use xlink:href="#DejaVuSans-61" x="63.476562"/>
      <use xlink:href="#DejaVuSans-75" x="124.755859"/>
      <use xlink:href="#DejaVuSans-73" x="188.134766"/>
      <use xlink:href="#DejaVuSans-73" x="240.234375"/>
      <use xlink:href="#DejaVuSans-69" x="292.333984"/>
      <use xlink:href="#DejaVuSans-61" x="320.117188"/>
      <use xlink:href="#DejaVuSans-6e" x="381.396484"/>
      <use xlink:href="#DejaVuSans-5f" x="444.775391"/>
      <use xlink:href="#DejaVuSans-61" x="494.775391"/>
      <use xlink:href="#DejaVuSans-64" x="556.054688"/>
      <use xlink:href="#DejaVuSans-61" x="619.53125"/>
      <use xlink:href="#DejaVuSans-70" x="680.810547"/>
      <use xlink:href="#DejaVuSans-74" x="744.287109"/>
      <use xlink:href="#DejaVuSans-61" x="783.496094"/>
      <use xlink:href="#DejaVuSans-74" x="844.775391"/>
      <use xlink:href="#DejaVuSans-69" x="883.984375"/>
      <use xlink:href="#DejaVuSans-6f" x="911.767578"/>
      <use xlink:href="#DejaVuSans-6e" x="972.949219"/>
      <use xlink:href="#DejaVuSans-5f" x="1036.328125"/>
      <use xlink:href="#DejaVuSans-6d" x="1086.328125"/>
      <use xlink:href="#DejaVuSans-75" x="1183.740234"/>
      <use xlink:href="#DejaVuSans-74" x="1247.119141"/>
      <use xlink:href="#DejaVuSans-61" x="1286.328125"/>
      <use xlink:href="#DejaVuSans-74" x="1347.607422"/>
      <use xlink:href="#DejaVuSans-69" x="1386.816406"/>
      <use xlink:href="#DejaVuSans-6f" x="1414.599609"/>
      <use xlink:href="#DejaVuSans-6e" x="1475.78125"/>
     </g>
    </g>
    <g id="line2d_56">
     <path d="M 518.285938 114.481562 
L 528.285938 114.481562 
L 538.285938 114.481562 
" style="fill: none; stroke: #2ca02c; stroke-width: 1.5; stroke-linecap: square"/>
    </g>
    <g id="text_17">
     <!-- inversion_mutation -->
     <g transform="translate(546.285938 117.981562) scale(0.1 -0.1)">
      <use xlink:href="#DejaVuSans-69"/>
      <use xlink:href="#DejaVuSans-6e" x="27.783203"/>
      <use xlink:href="#DejaVuSans-76" x="91.162109"/>
      <use xlink:href="#DejaVuSans-65" x="150.341797"/>
      <use xlink:href="#DejaVuSans-72" x="211.865234"/>
      <use xlink:href="#DejaVuSans-73" x="252.978516"/>
      <use xlink:href="#DejaVuSans-69" x="305.078125"/>
      <use xlink:href="#DejaVuSans-6f" x="332.861328"/>
      <use xlink:href="#DejaVuSans-6e" x="394.042969"/>
      <use xlink:href="#DejaVuSans-5f" x="457.421875"/>
      <use xlink:href="#DejaVuSans-6d" x="507.421875"/>
      <use xlink:href="#DejaVuSans-75" x="604.833984"/>
      <use xlink:href="#DejaVuSans-74" x="668.212891"/>
      <use xlink:href="#DejaVuSans-61" x="707.421875"/>
      <use xlink:href="#DejaVuSans-74" x="768.701172"/>
      <use xlink:href="#DejaVuSans-69" x="807.910156"/>
      <use xlink:href="#DejaVuSans-6f" x="835.693359"/>
      <use xlink:href="#DejaVuSans-6e" x="896.875"/>
     </g>
    </g>
    <g id="line2d_57">
     <path d="M 518.285938 129.437813 
L 528.285938 129.437813 
L 538.285938 129.437813 
" style="fill: none; stroke: #98df8a; stroke-width: 1.5; stroke-linecap: square"/>
    </g>
    <g id="text_18">
     <!-- shift_mutation -->
     <g transform="translate(546.285938 132.937813) scale(0.1 -0.1)">
      <defs>
       <path id="DejaVuSans-68" d="M 3513 2113 
L 3513 0 
L 2938 0 
L 2938 2094 
Q 2938 2591 2744 2837 
Q 2550 3084 2163 3084 
Q 1697 3084 1428 2787 
Q 1159 2491 1159 1978 
L 1159 0 
L 581 0 
L 581 4863 
L 1159 4863 
L 1159 2956 
Q 1366 3272 1645 3428 
Q 1925 3584 2291 3584 
Q 2894 3584 3203 3211 
Q 3513 2838 3513 2113 
z
" transform="scale(0.015625)"/>
      </defs>
      <use xlink:href="#DejaVuSans-73"/>
      <use xlink:href="#DejaVuSans-68" x="52.099609"/>
      <use xlink:href="#DejaVuSans-69" x="115.478516"/>
      <use xlink:href="#DejaVuSans-66" x="143.261719"/>
      <use xlink:href="#DejaVuSans-74" x="176.716797"/>
      <use xlink:href="#DejaVuSans-5f" x="215.925781"/>
      <use xlink:href="#DejaVuSans-6d" x="265.925781"/>
      <use xlink:href="#DejaVuSans-75" x="363.337891"/>
      <use xlink:href="#DejaVuSans-74" x="426.716797"/>
      <use xlink:href="#DejaVuSans-61" x="465.925781"/>
      <use xlink:href="#DejaVuSans-74" x="527.205078"/>
      <use xlink:href="#DejaVuSans-69" x="566.414062"/>
      <use xlink:href="#DejaVuSans-6f" x="594.197266"/>
      <use xlink:href="#DejaVuSans-6e" x="655.378906"/>
     </g>
    </g>
    <g id="line2d_58">
     <path d="M 518.285938 144.394063 
L 528.285938 144.394063 
L 538.285938 144.394063 
" style="fill: none; stroke: #d62728; stroke-width: 1.5; stroke-linecap: square"/>
    </g>
    <g id="text_19">
     <!-- shuffle_mutation -->
     <g transform="translate(546.285938 147.894063) scale(0.1 -0.1)">
      <use xlink:href="#DejaVuSans-73"/>
      <use xlink:href="#DejaVuSans-68" x="52.099609"/>
      <use xlink:href="#DejaVuSans-75" x="115.478516"/>
      <use xlink:href="#DejaVuSans-66" x="178.857422"/>
      <use xlink:href="#DejaVuSans-66" x="214.0625"/>
      <use xlink:href="#DejaVuSans-6c" x="249.267578"/>
      <use xlink:href="#DejaVuSans-65" x="277.050781"/>
      <use xlink:href="#DejaVuSans-5f" x="338.574219"/>
      <use xlink:href="#DejaVuSans-6d" x="388.574219"/>
      <use xlink:href="#DejaVuSans-75" x="485.986328"/>
      <use xlink:href="#DejaVuSans-74" x="549.365234"/>
      <use xlink:href="#DejaVuSans-61" x="588.574219"/>
      <use xlink:href="#DejaVuSans-74" x="649.853516"/>
      <use xlink:href="#DejaVuSans-69" x="689.0625"/>
      <use xlink:href="#DejaVuSans-6f" x="716.845703"/>
      <use xlink:href="#DejaVuSans-6e" x="778.027344"/>
     </g>
    </g>
    <g id="line2d_59">
     <path d="M 518.285938 159.350312 
L 528.285938 159.350312 
L 538.285938 159.350312 
" style="fill: none; stroke: #ff9896; stroke-width: 1.5; stroke-linecap: square"/>
    </g>
    <g id="text_20">
     <!-- swap_mutation -->
     <g transform="translate(546.285938 162.850312) scale(0.1 -0.1)">
      <defs>
       <path id="DejaVuSans-77" d="M 269 3500 
L 844 3500 
L 1563 769 
L 2278 3500 
L 2956 3500 
L 3675 769 
L 4391 3500 
L 4966 3500 
L 4050 0 
L 3372 0 
L 2619 2869 
L 1863 0 
L 1184 0 
L 269 3500 
z
" transform="scale(0.015625)"/>
      </defs>
      <use xlink:href="#DejaVuSans-73"/>
      <use xlink:href="#DejaVuSans-77" x="52.099609"/>
      <use xlink:href="#DejaVuSans-61" x="133.886719"/>
      <use xlink:href="#DejaVuSans-70" x="195.166016"/>
      <use xlink:href="#DejaVuSans-5f" x="258.642578"/>
      <use xlink:href="#DejaVuSans-6d" x="308.642578"/>
      <use xlink:href="#DejaVuSans-75" x="406.054688"/>
      <use xlink:href="#DejaVuSans-74" x="469.433594"/>
      <use xlink:href="#DejaVuSans-61" x="508.642578"/>
      <use xlink:href="#DejaVuSans-74" x="569.921875"/>
      <use xlink:href="#DejaVuSans-69" x="609.130859"/>
      <use xlink:href="#DejaVuSans-6f" x="636.914062"/>
      <use xlink:href="#DejaVuSans-6e" x="698.095703"/>
     </g>
    </g>
   </g>
  </g>
 </g>
 <defs>
  <clipPath id="p4350376f6b">
   <rect x="50.137685" y="26.88" width="659.062315" height="363.16"/>
  </clipPath>
 </defs>
</svg>
