<?xml version="1.0" encoding="utf-8" standalone="no"?>
<!DOCTYPE svg PUBLIC "-//W3C//DTD SVG 1.1//EN"
  "http://www.w3.org/Graphics/SVG/1.1/DTD/svg11.dtd">
<svg xmlns:xlink="http://www.w3.org/1999/xlink" width="720pt" height="432pt" viewBox="0 0 720 432" xmlns="http://www.w3.org/2000/svg" version="1.1">
 <metadata>
  <rdf:RDF xmlns:dc="http://purl.org/dc/elements/1.1/" xmlns:cc="http://creativecommons.org/ns#" xmlns:rdf="http://www.w3.org/1999/02/22-rdf-syntax-ns#">
   <cc:Work>
    <dc:type rdf:resource="http://purl.org/dc/dcmitype/StillImage"/>
    <dc:date>2024-06-02T10:42:57.442575</dc:date>
    <dc:format>image/svg+xml</dc:format>
    <dc:creator>
     <cc:Agent>
      <dc:title>Matplotlib v3.8.4, https://matplotlib.org/</dc:title>
     </cc:Agent>
    </dc:creator>
   </cc:Work>
  </rdf:RDF>
 </metadata>
 <defs>
  <style type="text/css">*{stroke-linejoin: round; stroke-linecap: butt}</style>
 </defs>
 <g id="figure_1">
  <g id="patch_1">
   <path d="M 0 432 
L 720 432 
L 720 0 
L 0 0 
z
" style="fill: #ffffff"/>
  </g>
  <g id="axes_1">
   <g id="patch_2">
    <path d="M 63.47 390.04 
L 709.2 390.04 
L 709.2 26.88 
L 63.47 26.88 
z
" style="fill: #ffffff"/>
   </g>
   <g id="PolyCollection_1"/>
   <g id="PolyCollection_2"/>
   <g id="PolyCollection_3"/>
   <g id="PolyCollection_4"/>
   <g id="PolyCollection_5"/>
   <g id="PolyCollection_6"/>
   <g id="PolyCollection_7"/>
   <g id="PolyCollection_8"/>
   <g id="PolyCollection_9"/>
   <g id="PolyCollection_10"/>
   <g id="matplotlib.axis_1">
    <g id="xtick_1">
     <g id="line2d_1">
      <path d="M 86.891795 390.04 
L 86.891795 26.88 
" clip-path="url(#pdcf263e001)" style="fill: none; stroke: #b0b0b0; stroke-width: 0.8; stroke-linecap: square"/>
     </g>
     <g id="line2d_2">
      <defs>
       <path id="m36d3f3394e" d="M 0 0 
L 0 3.5 
" style="stroke: #000000; stroke-width: 0.8"/>
      </defs>
      <g>
       <use xlink:href="#m36d3f3394e" x="86.891795" y="390.04" style="stroke: #000000; stroke-width: 0.8"/>
      </g>
     </g>
     <g id="text_1">
      <!-- 0 -->
      <g transform="translate(83.710545 404.638438) scale(0.1 -0.1)">
       <defs>
        <path id="DejaVuSans-30" d="M 2034 4250 
Q 1547 4250 1301 3770 
Q 1056 3291 1056 2328 
Q 1056 1369 1301 889 
Q 1547 409 2034 409 
Q 2525 409 2770 889 
Q 3016 1369 3016 2328 
Q 3016 3291 2770 3770 
Q 2525 4250 2034 4250 
z
M 2034 4750 
Q 2819 4750 3233 4129 
Q 3647 3509 3647 2328 
Q 3647 1150 3233 529 
Q 2819 -91 2034 -91 
Q 1250 -91 836 529 
Q 422 1150 422 2328 
Q 422 3509 836 4129 
Q 1250 4750 2034 4750 
z
" transform="scale(0.015625)"/>
       </defs>
       <use xlink:href="#DejaVuSans-30"/>
      </g>
     </g>
    </g>
    <g id="xtick_2">
     <g id="line2d_3">
      <path d="M 205.483163 390.04 
L 205.483163 26.88 
" clip-path="url(#pdcf263e001)" style="fill: none; stroke: #b0b0b0; stroke-width: 0.8; stroke-linecap: square"/>
     </g>
     <g id="line2d_4">
      <g>
       <use xlink:href="#m36d3f3394e" x="205.483163" y="390.04" style="stroke: #000000; stroke-width: 0.8"/>
      </g>
     </g>
     <g id="text_2">
      <!-- 20 -->
      <g transform="translate(199.120663 404.638438) scale(0.1 -0.1)">
       <defs>
        <path id="DejaVuSans-32" d="M 1228 531 
L 3431 531 
L 3431 0 
L 469 0 
L 469 531 
Q 828 903 1448 1529 
Q 2069 2156 2228 2338 
Q 2531 2678 2651 2914 
Q 2772 3150 2772 3378 
Q 2772 3750 2511 3984 
Q 2250 4219 1831 4219 
Q 1534 4219 1204 4116 
Q 875 4013 500 3803 
L 500 4441 
Q 881 4594 1212 4672 
Q 1544 4750 1819 4750 
Q 2544 4750 2975 4387 
Q 3406 4025 3406 3419 
Q 3406 3131 3298 2873 
Q 3191 2616 2906 2266 
Q 2828 2175 2409 1742 
Q 1991 1309 1228 531 
z
" transform="scale(0.015625)"/>
       </defs>
       <use xlink:href="#DejaVuSans-32"/>
       <use xlink:href="#DejaVuSans-30" x="63.623047"/>
      </g>
     </g>
    </g>
    <g id="xtick_3">
     <g id="line2d_5">
      <path d="M 324.074532 390.04 
L 324.074532 26.88 
" clip-path="url(#pdcf263e001)" style="fill: none; stroke: #b0b0b0; stroke-width: 0.8; stroke-linecap: square"/>
     </g>
     <g id="line2d_6">
      <g>
       <use xlink:href="#m36d3f3394e" x="324.074532" y="390.04" style="stroke: #000000; stroke-width: 0.8"/>
      </g>
     </g>
     <g id="text_3">
      <!-- 40 -->
      <g transform="translate(317.712032 404.638438) scale(0.1 -0.1)">
       <defs>
        <path id="DejaVuSans-34" d="M 2419 4116 
L 825 1625 
L 2419 1625 
L 2419 4116 
z
M 2253 4666 
L 3047 4666 
L 3047 1625 
L 3713 1625 
L 3713 1100 
L 3047 1100 
L 3047 0 
L 2419 0 
L 2419 1100 
L 313 1100 
L 313 1709 
L 2253 4666 
z
" transform="scale(0.015625)"/>
       </defs>
       <use xlink:href="#DejaVuSans-34"/>
       <use xlink:href="#DejaVuSans-30" x="63.623047"/>
      </g>
     </g>
    </g>
    <g id="xtick_4">
     <g id="line2d_7">
      <path d="M 442.6659 390.04 
L 442.6659 26.88 
" clip-path="url(#pdcf263e001)" style="fill: none; stroke: #b0b0b0; stroke-width: 0.8; stroke-linecap: square"/>
     </g>
     <g id="line2d_8">
      <g>
       <use xlink:href="#m36d3f3394e" x="442.6659" y="390.04" style="stroke: #000000; stroke-width: 0.8"/>
      </g>
     </g>
     <g id="text_4">
      <!-- 60 -->
      <g transform="translate(436.3034 404.638438) scale(0.1 -0.1)">
       <defs>
        <path id="DejaVuSans-36" d="M 2113 2584 
Q 1688 2584 1439 2293 
Q 1191 2003 1191 1497 
Q 1191 994 1439 701 
Q 1688 409 2113 409 
Q 2538 409 2786 701 
Q 3034 994 3034 1497 
Q 3034 2003 2786 2293 
Q 2538 2584 2113 2584 
z
M 3366 4563 
L 3366 3988 
Q 3128 4100 2886 4159 
Q 2644 4219 2406 4219 
Q 1781 4219 1451 3797 
Q 1122 3375 1075 2522 
Q 1259 2794 1537 2939 
Q 1816 3084 2150 3084 
Q 2853 3084 3261 2657 
Q 3669 2231 3669 1497 
Q 3669 778 3244 343 
Q 2819 -91 2113 -91 
Q 1303 -91 875 529 
Q 447 1150 447 2328 
Q 447 3434 972 4092 
Q 1497 4750 2381 4750 
Q 2619 4750 2861 4703 
Q 3103 4656 3366 4563 
z
" transform="scale(0.015625)"/>
       </defs>
       <use xlink:href="#DejaVuSans-36"/>
       <use xlink:href="#DejaVuSans-30" x="63.623047"/>
      </g>
     </g>
    </g>
    <g id="xtick_5">
     <g id="line2d_9">
      <path d="M 561.257268 390.04 
L 561.257268 26.88 
" clip-path="url(#pdcf263e001)" style="fill: none; stroke: #b0b0b0; stroke-width: 0.8; stroke-linecap: square"/>
     </g>
     <g id="line2d_10">
      <g>
       <use xlink:href="#m36d3f3394e" x="561.257268" y="390.04" style="stroke: #000000; stroke-width: 0.8"/>
      </g>
     </g>
     <g id="text_5">
      <!-- 80 -->
      <g transform="translate(554.894768 404.638438) scale(0.1 -0.1)">
       <defs>
        <path id="DejaVuSans-38" d="M 2034 2216 
Q 1584 2216 1326 1975 
Q 1069 1734 1069 1313 
Q 1069 891 1326 650 
Q 1584 409 2034 409 
Q 2484 409 2743 651 
Q 3003 894 3003 1313 
Q 3003 1734 2745 1975 
Q 2488 2216 2034 2216 
z
M 1403 2484 
Q 997 2584 770 2862 
Q 544 3141 544 3541 
Q 544 4100 942 4425 
Q 1341 4750 2034 4750 
Q 2731 4750 3128 4425 
Q 3525 4100 3525 3541 
Q 3525 3141 3298 2862 
Q 3072 2584 2669 2484 
Q 3125 2378 3379 2068 
Q 3634 1759 3634 1313 
Q 3634 634 3220 271 
Q 2806 -91 2034 -91 
Q 1263 -91 848 271 
Q 434 634 434 1313 
Q 434 1759 690 2068 
Q 947 2378 1403 2484 
z
M 1172 3481 
Q 1172 3119 1398 2916 
Q 1625 2713 2034 2713 
Q 2441 2713 2670 2916 
Q 2900 3119 2900 3481 
Q 2900 3844 2670 4047 
Q 2441 4250 2034 4250 
Q 1625 4250 1398 4047 
Q 1172 3844 1172 3481 
z
" transform="scale(0.015625)"/>
       </defs>
       <use xlink:href="#DejaVuSans-38"/>
       <use xlink:href="#DejaVuSans-30" x="63.623047"/>
      </g>
     </g>
    </g>
    <g id="xtick_6">
     <g id="line2d_11">
      <path d="M 679.848636 390.04 
L 679.848636 26.88 
" clip-path="url(#pdcf263e001)" style="fill: none; stroke: #b0b0b0; stroke-width: 0.8; stroke-linecap: square"/>
     </g>
     <g id="line2d_12">
      <g>
       <use xlink:href="#m36d3f3394e" x="679.848636" y="390.04" style="stroke: #000000; stroke-width: 0.8"/>
      </g>
     </g>
     <g id="text_6">
      <!-- 100 -->
      <g transform="translate(670.304886 404.638438) scale(0.1 -0.1)">
       <defs>
        <path id="DejaVuSans-31" d="M 794 531 
L 1825 531 
L 1825 4091 
L 703 3866 
L 703 4441 
L 1819 4666 
L 2450 4666 
L 2450 531 
L 3481 531 
L 3481 0 
L 794 0 
L 794 531 
z
" transform="scale(0.015625)"/>
       </defs>
       <use xlink:href="#DejaVuSans-31"/>
       <use xlink:href="#DejaVuSans-30" x="63.623047"/>
       <use xlink:href="#DejaVuSans-30" x="127.246094"/>
      </g>
     </g>
    </g>
    <g id="text_7">
     <!-- Generations -->
     <g transform="translate(355.837344 418.316562) scale(0.1 -0.1)">
      <defs>
       <path id="DejaVuSans-47" d="M 3809 666 
L 3809 1919 
L 2778 1919 
L 2778 2438 
L 4434 2438 
L 4434 434 
Q 4069 175 3628 42 
Q 3188 -91 2688 -91 
Q 1594 -91 976 548 
Q 359 1188 359 2328 
Q 359 3472 976 4111 
Q 1594 4750 2688 4750 
Q 3144 4750 3555 4637 
Q 3966 4525 4313 4306 
L 4313 3634 
Q 3963 3931 3569 4081 
Q 3175 4231 2741 4231 
Q 1884 4231 1454 3753 
Q 1025 3275 1025 2328 
Q 1025 1384 1454 906 
Q 1884 428 2741 428 
Q 3075 428 3337 486 
Q 3600 544 3809 666 
z
" transform="scale(0.015625)"/>
       <path id="DejaVuSans-65" d="M 3597 1894 
L 3597 1613 
L 953 1613 
Q 991 1019 1311 708 
Q 1631 397 2203 397 
Q 2534 397 2845 478 
Q 3156 559 3463 722 
L 3463 178 
Q 3153 47 2828 -22 
Q 2503 -91 2169 -91 
Q 1331 -91 842 396 
Q 353 884 353 1716 
Q 353 2575 817 3079 
Q 1281 3584 2069 3584 
Q 2775 3584 3186 3129 
Q 3597 2675 3597 1894 
z
M 3022 2063 
Q 3016 2534 2758 2815 
Q 2500 3097 2075 3097 
Q 1594 3097 1305 2825 
Q 1016 2553 972 2059 
L 3022 2063 
z
" transform="scale(0.015625)"/>
       <path id="DejaVuSans-6e" d="M 3513 2113 
L 3513 0 
L 2938 0 
L 2938 2094 
Q 2938 2591 2744 2837 
Q 2550 3084 2163 3084 
Q 1697 3084 1428 2787 
Q 1159 2491 1159 1978 
L 1159 0 
L 581 0 
L 581 3500 
L 1159 3500 
L 1159 2956 
Q 1366 3272 1645 3428 
Q 1925 3584 2291 3584 
Q 2894 3584 3203 3211 
Q 3513 2838 3513 2113 
z
" transform="scale(0.015625)"/>
       <path id="DejaVuSans-72" d="M 2631 2963 
Q 2534 3019 2420 3045 
Q 2306 3072 2169 3072 
Q 1681 3072 1420 2755 
Q 1159 2438 1159 1844 
L 1159 0 
L 581 0 
L 581 3500 
L 1159 3500 
L 1159 2956 
Q 1341 3275 1631 3429 
Q 1922 3584 2338 3584 
Q 2397 3584 2469 3576 
Q 2541 3569 2628 3553 
L 2631 2963 
z
" transform="scale(0.015625)"/>
       <path id="DejaVuSans-61" d="M 2194 1759 
Q 1497 1759 1228 1600 
Q 959 1441 959 1056 
Q 959 750 1161 570 
Q 1363 391 1709 391 
Q 2188 391 2477 730 
Q 2766 1069 2766 1631 
L 2766 1759 
L 2194 1759 
z
M 3341 1997 
L 3341 0 
L 2766 0 
L 2766 531 
Q 2569 213 2275 61 
Q 1981 -91 1556 -91 
Q 1019 -91 701 211 
Q 384 513 384 1019 
Q 384 1609 779 1909 
Q 1175 2209 1959 2209 
L 2766 2209 
L 2766 2266 
Q 2766 2663 2505 2880 
Q 2244 3097 1772 3097 
Q 1472 3097 1187 3025 
Q 903 2953 641 2809 
L 641 3341 
Q 956 3463 1253 3523 
Q 1550 3584 1831 3584 
Q 2591 3584 2966 3190 
Q 3341 2797 3341 1997 
z
" transform="scale(0.015625)"/>
       <path id="DejaVuSans-74" d="M 1172 4494 
L 1172 3500 
L 2356 3500 
L 2356 3053 
L 1172 3053 
L 1172 1153 
Q 1172 725 1289 603 
Q 1406 481 1766 481 
L 2356 481 
L 2356 0 
L 1766 0 
Q 1100 0 847 248 
Q 594 497 594 1153 
L 594 3053 
L 172 3053 
L 172 3500 
L 594 3500 
L 594 4494 
L 1172 4494 
z
" transform="scale(0.015625)"/>
       <path id="DejaVuSans-69" d="M 603 3500 
L 1178 3500 
L 1178 0 
L 603 0 
L 603 3500 
z
M 603 4863 
L 1178 4863 
L 1178 4134 
L 603 4134 
L 603 4863 
z
" transform="scale(0.015625)"/>
       <path id="DejaVuSans-6f" d="M 1959 3097 
Q 1497 3097 1228 2736 
Q 959 2375 959 1747 
Q 959 1119 1226 758 
Q 1494 397 1959 397 
Q 2419 397 2687 759 
Q 2956 1122 2956 1747 
Q 2956 2369 2687 2733 
Q 2419 3097 1959 3097 
z
M 1959 3584 
Q 2709 3584 3137 3096 
Q 3566 2609 3566 1747 
Q 3566 888 3137 398 
Q 2709 -91 1959 -91 
Q 1206 -91 779 398 
Q 353 888 353 1747 
Q 353 2609 779 3096 
Q 1206 3584 1959 3584 
z
" transform="scale(0.015625)"/>
       <path id="DejaVuSans-73" d="M 2834 3397 
L 2834 2853 
Q 2591 2978 2328 3040 
Q 2066 3103 1784 3103 
Q 1356 3103 1142 2972 
Q 928 2841 928 2578 
Q 928 2378 1081 2264 
Q 1234 2150 1697 2047 
L 1894 2003 
Q 2506 1872 2764 1633 
Q 3022 1394 3022 966 
Q 3022 478 2636 193 
Q 2250 -91 1575 -91 
Q 1294 -91 989 -36 
Q 684 19 347 128 
L 347 722 
Q 666 556 975 473 
Q 1284 391 1588 391 
Q 1994 391 2212 530 
Q 2431 669 2431 922 
Q 2431 1156 2273 1281 
Q 2116 1406 1581 1522 
L 1381 1569 
Q 847 1681 609 1914 
Q 372 2147 372 2553 
Q 372 3047 722 3315 
Q 1072 3584 1716 3584 
Q 2034 3584 2315 3537 
Q 2597 3491 2834 3397 
z
" transform="scale(0.015625)"/>
      </defs>
      <use xlink:href="#DejaVuSans-47"/>
      <use xlink:href="#DejaVuSans-65" x="77.490234"/>
      <use xlink:href="#DejaVuSans-6e" x="139.013672"/>
      <use xlink:href="#DejaVuSans-65" x="202.392578"/>
      <use xlink:href="#DejaVuSans-72" x="263.916016"/>
      <use xlink:href="#DejaVuSans-61" x="305.029297"/>
      <use xlink:href="#DejaVuSans-74" x="366.308594"/>
      <use xlink:href="#DejaVuSans-69" x="405.517578"/>
      <use xlink:href="#DejaVuSans-6f" x="433.300781"/>
      <use xlink:href="#DejaVuSans-6e" x="494.482422"/>
      <use xlink:href="#DejaVuSans-73" x="557.861328"/>
     </g>
    </g>
   </g>
   <g id="matplotlib.axis_2">
    <g id="ytick_1">
     <g id="line2d_13">
      <path d="M 63.47 375.455521 
L 709.2 375.455521 
" clip-path="url(#pdcf263e001)" style="fill: none; stroke: #b0b0b0; stroke-width: 0.8; stroke-linecap: square"/>
     </g>
     <g id="line2d_14">
      <defs>
       <path id="me122addf76" d="M 0 0 
L -3.5 0 
" style="stroke: #000000; stroke-width: 0.8"/>
      </defs>
      <g>
       <use xlink:href="#me122addf76" x="63.47" y="375.455521" style="stroke: #000000; stroke-width: 0.8"/>
      </g>
     </g>
     <g id="text_8">
      <!-- 0 -->
      <g transform="translate(50.1075 379.25474) scale(0.1 -0.1)">
       <use xlink:href="#DejaVuSans-30"/>
      </g>
     </g>
    </g>
    <g id="ytick_2">
     <g id="line2d_15">
      <path d="M 63.47 315.417613 
L 709.2 315.417613 
" clip-path="url(#pdcf263e001)" style="fill: none; stroke: #b0b0b0; stroke-width: 0.8; stroke-linecap: square"/>
     </g>
     <g id="line2d_16">
      <g>
       <use xlink:href="#me122addf76" x="63.47" y="315.417613" style="stroke: #000000; stroke-width: 0.8"/>
      </g>
     </g>
     <g id="text_9">
      <!-- 10000 -->
      <g transform="translate(24.6575 319.216832) scale(0.1 -0.1)">
       <use xlink:href="#DejaVuSans-31"/>
       <use xlink:href="#DejaVuSans-30" x="63.623047"/>
       <use xlink:href="#DejaVuSans-30" x="127.246094"/>
       <use xlink:href="#DejaVuSans-30" x="190.869141"/>
       <use xlink:href="#DejaVuSans-30" x="254.492188"/>
      </g>
     </g>
    </g>
    <g id="ytick_3">
     <g id="line2d_17">
      <path d="M 63.47 255.379705 
L 709.2 255.379705 
" clip-path="url(#pdcf263e001)" style="fill: none; stroke: #b0b0b0; stroke-width: 0.8; stroke-linecap: square"/>
     </g>
     <g id="line2d_18">
      <g>
       <use xlink:href="#me122addf76" x="63.47" y="255.379705" style="stroke: #000000; stroke-width: 0.8"/>
      </g>
     </g>
     <g id="text_10">
      <!-- 20000 -->
      <g transform="translate(24.6575 259.178924) scale(0.1 -0.1)">
       <use xlink:href="#DejaVuSans-32"/>
       <use xlink:href="#DejaVuSans-30" x="63.623047"/>
       <use xlink:href="#DejaVuSans-30" x="127.246094"/>
       <use xlink:href="#DejaVuSans-30" x="190.869141"/>
       <use xlink:href="#DejaVuSans-30" x="254.492188"/>
      </g>
     </g>
    </g>
    <g id="ytick_4">
     <g id="line2d_19">
      <path d="M 63.47 195.341797 
L 709.2 195.341797 
" clip-path="url(#pdcf263e001)" style="fill: none; stroke: #b0b0b0; stroke-width: 0.8; stroke-linecap: square"/>
     </g>
     <g id="line2d_20">
      <g>
       <use xlink:href="#me122addf76" x="63.47" y="195.341797" style="stroke: #000000; stroke-width: 0.8"/>
      </g>
     </g>
     <g id="text_11">
      <!-- 30000 -->
      <g transform="translate(24.6575 199.141016) scale(0.1 -0.1)">
       <defs>
        <path id="DejaVuSans-33" d="M 2597 2516 
Q 3050 2419 3304 2112 
Q 3559 1806 3559 1356 
Q 3559 666 3084 287 
Q 2609 -91 1734 -91 
Q 1441 -91 1130 -33 
Q 819 25 488 141 
L 488 750 
Q 750 597 1062 519 
Q 1375 441 1716 441 
Q 2309 441 2620 675 
Q 2931 909 2931 1356 
Q 2931 1769 2642 2001 
Q 2353 2234 1838 2234 
L 1294 2234 
L 1294 2753 
L 1863 2753 
Q 2328 2753 2575 2939 
Q 2822 3125 2822 3475 
Q 2822 3834 2567 4026 
Q 2313 4219 1838 4219 
Q 1578 4219 1281 4162 
Q 984 4106 628 3988 
L 628 4550 
Q 988 4650 1302 4700 
Q 1616 4750 1894 4750 
Q 2613 4750 3031 4423 
Q 3450 4097 3450 3541 
Q 3450 3153 3228 2886 
Q 3006 2619 2597 2516 
z
" transform="scale(0.015625)"/>
       </defs>
       <use xlink:href="#DejaVuSans-33"/>
       <use xlink:href="#DejaVuSans-30" x="63.623047"/>
       <use xlink:href="#DejaVuSans-30" x="127.246094"/>
       <use xlink:href="#DejaVuSans-30" x="190.869141"/>
       <use xlink:href="#DejaVuSans-30" x="254.492188"/>
      </g>
     </g>
    </g>
    <g id="ytick_5">
     <g id="line2d_21">
      <path d="M 63.47 135.303889 
L 709.2 135.303889 
" clip-path="url(#pdcf263e001)" style="fill: none; stroke: #b0b0b0; stroke-width: 0.8; stroke-linecap: square"/>
     </g>
     <g id="line2d_22">
      <g>
       <use xlink:href="#me122addf76" x="63.47" y="135.303889" style="stroke: #000000; stroke-width: 0.8"/>
      </g>
     </g>
     <g id="text_12">
      <!-- 40000 -->
      <g transform="translate(24.6575 139.103108) scale(0.1 -0.1)">
       <use xlink:href="#DejaVuSans-34"/>
       <use xlink:href="#DejaVuSans-30" x="63.623047"/>
       <use xlink:href="#DejaVuSans-30" x="127.246094"/>
       <use xlink:href="#DejaVuSans-30" x="190.869141"/>
       <use xlink:href="#DejaVuSans-30" x="254.492188"/>
      </g>
     </g>
    </g>
    <g id="ytick_6">
     <g id="line2d_23">
      <path d="M 63.47 75.265981 
L 709.2 75.265981 
" clip-path="url(#pdcf263e001)" style="fill: none; stroke: #b0b0b0; stroke-width: 0.8; stroke-linecap: square"/>
     </g>
     <g id="line2d_24">
      <g>
       <use xlink:href="#me122addf76" x="63.47" y="75.265981" style="stroke: #000000; stroke-width: 0.8"/>
      </g>
     </g>
     <g id="text_13">
      <!-- 50000 -->
      <g transform="translate(24.6575 79.0652) scale(0.1 -0.1)">
       <defs>
        <path id="DejaVuSans-35" d="M 691 4666 
L 3169 4666 
L 3169 4134 
L 1269 4134 
L 1269 2991 
Q 1406 3038 1543 3061 
Q 1681 3084 1819 3084 
Q 2600 3084 3056 2656 
Q 3513 2228 3513 1497 
Q 3513 744 3044 326 
Q 2575 -91 1722 -91 
Q 1428 -91 1123 -41 
Q 819 9 494 109 
L 494 744 
Q 775 591 1075 516 
Q 1375 441 1709 441 
Q 2250 441 2565 725 
Q 2881 1009 2881 1497 
Q 2881 1984 2565 2268 
Q 2250 2553 1709 2553 
Q 1456 2553 1204 2497 
Q 953 2441 691 2322 
L 691 4666 
z
" transform="scale(0.015625)"/>
       </defs>
       <use xlink:href="#DejaVuSans-35"/>
       <use xlink:href="#DejaVuSans-30" x="63.623047"/>
       <use xlink:href="#DejaVuSans-30" x="127.246094"/>
       <use xlink:href="#DejaVuSans-30" x="190.869141"/>
       <use xlink:href="#DejaVuSans-30" x="254.492188"/>
      </g>
     </g>
    </g>
    <g id="text_14">
     <!-- Fitness -->
     <g transform="translate(18.577813 225.777187) rotate(-90) scale(0.1 -0.1)">
      <defs>
       <path id="DejaVuSans-46" d="M 628 4666 
L 3309 4666 
L 3309 4134 
L 1259 4134 
L 1259 2759 
L 3109 2759 
L 3109 2228 
L 1259 2228 
L 1259 0 
L 628 0 
L 628 4666 
z
" transform="scale(0.015625)"/>
      </defs>
      <use xlink:href="#DejaVuSans-46"/>
      <use xlink:href="#DejaVuSans-69" x="50.269531"/>
      <use xlink:href="#DejaVuSans-74" x="78.052734"/>
      <use xlink:href="#DejaVuSans-6e" x="117.261719"/>
      <use xlink:href="#DejaVuSans-65" x="180.640625"/>
      <use xlink:href="#DejaVuSans-73" x="242.164062"/>
      <use xlink:href="#DejaVuSans-73" x="294.263672"/>
     </g>
    </g>
   </g>
   <g id="line2d_25">
    <path d="M 92.821364 43.387273 
L 98.750932 67.699143 
L 104.6805 87.747302 
L 110.610069 109.514406 
L 116.539637 124.960058 
L 122.469206 137.634301 
L 128.398774 148.098708 
L 134.328343 157.484554 
L 140.257911 164.4316 
L 146.187479 170.795699 
L 152.117048 175.900642 
L 158.046616 179.894664 
L 163.976185 182.657448 
L 169.905753 185.316547 
L 175.835321 187.261835 
L 181.76489 189.210306 
L 187.694458 191.43365 
L 193.624027 193.602219 
L 199.553595 195.136508 
L 205.483163 196.367705 
L 211.412732 197.653757 
L 217.3423 199.217104 
L 223.271869 200.776769 
L 229.201437 202.189581 
L 235.131006 203.424941 
L 241.060574 205.042582 
L 246.990142 206.679496 
L 252.919711 208.319511 
L 258.849279 209.709509 
L 264.778848 210.849629 
L 270.708416 211.567202 
L 276.637984 213.547812 
L 282.567553 215.07998 
L 288.497121 216.606704 
L 294.42669 217.905844 
L 300.356258 219.168862 
L 306.285826 220.135032 
L 312.215395 222.116963 
L 318.144963 223.091118 
L 324.074532 225.019015 
L 330.0041 226.762696 
L 335.933669 228.503295 
L 341.863237 230.12574 
L 347.792805 231.494564 
L 353.722374 232.80303 
L 359.651942 234.06985 
L 365.581511 236.509751 
L 371.511079 237.802667 
L 377.440647 239.547629 
L 383.370216 240.770361 
L 389.299784 242.181392 
L 395.229353 243.71454 
L 401.158921 245.328899 
L 407.088489 246.730064 
L 413.018058 248.464699 
L 418.947626 250.062948 
L 424.877195 251.643026 
L 430.806763 252.906964 
L 436.736331 254.137861 
L 442.6659 255.414827 
L 448.595468 256.853496 
L 454.525037 258.200927 
L 460.454605 259.336824 
L 466.384174 260.380643 
L 472.313742 261.370088 
L 478.24331 262.318867 
L 484.172879 263.207147 
L 490.102447 264.27204 
L 496.032016 265.923783 
L 501.961584 267.018074 
L 507.891152 268.207825 
L 513.820721 269.570605 
L 519.750289 270.819454 
L 525.679858 272.169506 
L 531.609426 272.975695 
L 537.538994 274.160764 
L 543.468563 274.672347 
L 549.398131 275.846228 
L 555.3277 277.048587 
L 561.257268 278.072894 
L 567.186837 279.113551 
L 573.116405 279.968911 
L 579.045973 280.991897 
L 584.975542 281.701065 
L 590.90511 282.696233 
L 596.834679 284.013525 
L 602.764247 284.880352 
L 608.693815 285.760248 
L 614.623384 286.579105 
L 620.552952 287.211884 
L 626.482521 288.043709 
L 632.412089 288.786118 
L 638.341657 289.875466 
L 644.271226 290.902454 
L 650.200794 292.025463 
L 656.130363 292.706213 
L 662.059931 293.325604 
L 667.9895 294.327697 
L 673.919068 295.217919 
L 679.848636 296.025589 
" clip-path="url(#pdcf263e001)" style="fill: none; stroke: #1f77b4; stroke-width: 1.5; stroke-linecap: square"/>
   </g>
   <g id="line2d_26">
    <path d="M 92.821364 66.073377 
L 98.750932 88.233349 
L 104.6805 112.378434 
L 110.610069 138.42562 
L 116.539637 159.237121 
L 122.469206 178.412788 
L 128.398774 197.095004 
L 134.328343 211.128305 
L 140.257911 226.242668 
L 146.187479 237.517927 
L 152.117048 246.143133 
L 158.046616 256.437573 
L 163.976185 265.03258 
L 169.905753 272.76184 
L 175.835321 279.992086 
L 181.76489 285.691984 
L 187.694458 290.925949 
L 193.624027 295.750115 
L 199.553595 299.489696 
L 205.483163 303.285393 
L 211.412732 307.171447 
L 217.3423 310.030612 
L 223.271869 312.779067 
L 229.201437 315.134555 
L 235.131006 317.729893 
L 241.060574 319.734439 
L 246.990142 321.911273 
L 252.919711 323.875173 
L 258.849279 325.417287 
L 264.778848 327.517993 
L 270.708416 329.622482 
L 276.637984 331.148766 
L 282.567553 333.026011 
L 288.497121 334.522376 
L 294.42669 336.084242 
L 300.356258 337.80705 
L 306.285826 339.180617 
L 312.215395 340.571115 
L 318.144963 341.938339 
L 324.074532 343.190189 
L 330.0041 344.677268 
L 335.933669 345.935823 
L 341.863237 347.274548 
L 347.792805 348.304478 
L 353.722374 349.55933 
L 359.651942 350.692126 
L 365.581511 351.809271 
L 371.511079 352.717004 
L 377.440647 353.616412 
L 383.370216 354.598492 
L 389.299784 355.361534 
L 395.229353 356.212131 
L 401.158921 356.966587 
L 407.088489 357.652821 
L 413.018058 358.47486 
L 418.947626 359.216668 
L 424.877195 359.933541 
L 430.806763 360.488651 
L 436.736331 361.001535 
L 442.6659 361.524665 
L 448.595468 362.1176 
L 454.525037 362.62436 
L 460.454605 363.110747 
L 466.384174 363.555388 
L 472.313742 364.149483 
L 478.24331 364.534806 
L 484.172879 364.972382 
L 490.102447 365.44382 
L 496.032016 365.718433 
L 501.961584 366.102836 
L 507.891152 366.485838 
L 513.820721 366.762372 
L 519.750289 367.0598 
L 525.679858 367.31346 
L 531.609426 367.542945 
L 537.538994 367.808553 
L 543.468563 367.9461 
L 549.398131 368.160815 
L 555.3277 368.424622 
L 561.257268 368.62681 
L 567.186837 368.780066 
L 573.116405 368.91295 
L 579.045973 369.052418 
L 584.975542 369.202673 
L 590.90511 369.316445 
L 596.834679 369.436161 
L 602.764247 369.516011 
L 608.693815 369.634766 
L 614.623384 369.730987 
L 620.552952 369.810857 
L 626.482521 369.896071 
L 632.412089 369.993793 
L 638.341657 370.066799 
L 644.271226 370.129398 
L 650.200794 370.223758 
L 656.130363 370.300506 
L 662.059931 370.397147 
L 667.9895 370.466691 
L 673.919068 370.556528 
L 679.848636 370.640381 
" clip-path="url(#pdcf263e001)" style="fill: none; stroke: #aec7e8; stroke-width: 1.5; stroke-linecap: square"/>
   </g>
   <g id="line2d_27">
    <path d="M 92.821364 70.442776 
L 98.750932 94.577234 
L 104.6805 120.923649 
L 110.610069 144.892143 
L 116.539637 167.461974 
L 122.469206 187.361899 
L 128.398774 205.222996 
L 134.328343 222.504808 
L 140.257911 237.948459 
L 146.187479 251.225662 
L 152.117048 261.883572 
L 158.046616 272.417043 
L 163.976185 282.180868 
L 169.905753 290.727284 
L 175.835321 296.927679 
L 181.76489 303.636495 
L 187.694458 309.150756 
L 193.624027 314.757016 
L 199.553595 319.369669 
L 205.483163 322.71438 
L 211.412732 326.804643 
L 217.3423 330.059398 
L 223.271869 333.199861 
L 229.201437 335.807507 
L 235.131006 338.505531 
L 241.060574 340.514059 
L 246.990142 342.679366 
L 252.919711 344.388826 
L 258.849279 346.269453 
L 264.778848 347.921516 
L 270.708416 349.513702 
L 276.637984 351.054094 
L 282.567553 352.511214 
L 288.497121 353.911118 
L 294.42669 355.093885 
L 300.356258 356.120673 
L 306.285826 357.08138 
L 312.215395 358.212094 
L 318.144963 359.174321 
L 324.074532 360.086797 
L 330.0041 360.738449 
L 335.933669 361.537894 
L 341.863237 362.226088 
L 347.792805 362.965035 
L 353.722374 363.63848 
L 359.651942 364.170856 
L 365.581511 364.807698 
L 371.511079 365.270711 
L 377.440647 365.742328 
L 383.370216 366.180185 
L 389.299784 366.503749 
L 395.229353 366.83706 
L 401.158921 367.228847 
L 407.088489 367.568622 
L 413.018058 367.830727 
L 418.947626 368.117928 
L 424.877195 368.446856 
L 430.806763 368.698215 
L 436.736331 368.945931 
L 442.6659 369.163208 
L 448.595468 369.405661 
L 454.525037 369.571486 
L 460.454605 369.777136 
L 466.384174 370.007201 
L 472.313742 370.17975 
L 478.24331 370.345235 
L 484.172879 370.509198 
L 490.102447 370.633337 
L 496.032016 370.788535 
L 501.961584 370.922259 
L 507.891152 371.054863 
L 513.820721 371.173037 
L 519.750289 371.302519 
L 525.679858 371.404243 
L 531.609426 371.483173 
L 537.538994 371.564545 
L 543.468563 371.647437 
L 549.398131 371.720543 
L 555.3277 371.780121 
L 561.257268 371.862393 
L 567.186837 371.914506 
L 573.116405 371.977926 
L 579.045973 372.01731 
L 584.975542 372.078629 
L 590.90511 372.118694 
L 596.834679 372.1587 
L 602.764247 372.199826 
L 608.693815 372.241952 
L 614.623384 372.270991 
L 620.552952 372.30211 
L 626.482521 372.3174 
L 632.412089 372.340174 
L 638.341657 372.363509 
L 644.271226 372.383241 
L 650.200794 372.404195 
L 656.130363 372.417103 
L 662.059931 372.432352 
L 667.9895 372.450904 
L 673.919068 372.466634 
L 679.848636 372.479983 
" clip-path="url(#pdcf263e001)" style="fill: none; stroke: #ff7f0e; stroke-width: 1.5; stroke-linecap: square"/>
   </g>
   <g id="line2d_28">
    <path d="M 92.821364 74.878056 
L 98.750932 102.750095 
L 104.6805 129.530704 
L 110.610069 152.74256 
L 116.539637 172.087674 
L 122.469206 192.325993 
L 128.398774 209.475861 
L 134.328343 226.171003 
L 140.257911 242.077986 
L 146.187479 254.032535 
L 152.117048 266.288933 
L 158.046616 277.106804 
L 163.976185 288.087417 
L 169.905753 295.722178 
L 175.835321 303.729393 
L 181.76489 310.373889 
L 187.694458 316.548087 
L 193.624027 321.682769 
L 199.553595 326.739902 
L 205.483163 331.062331 
L 211.412732 334.328494 
L 217.3423 337.763262 
L 223.271869 340.5159 
L 229.201437 343.335581 
L 235.131006 345.850349 
L 241.060574 348.010452 
L 246.990142 349.990443 
L 252.919711 351.691637 
L 258.849279 353.338216 
L 264.778848 354.660051 
L 270.708416 356.014526 
L 276.637984 357.464762 
L 282.567553 358.588211 
L 288.497121 359.80596 
L 294.42669 360.897549 
L 300.356258 361.612101 
L 306.285826 362.614634 
L 312.215395 363.354401 
L 318.144963 364.039253 
L 324.074532 364.742417 
L 330.0041 365.316299 
L 335.933669 365.949079 
L 341.863237 366.456019 
L 347.792805 366.949451 
L 353.722374 367.418267 
L 359.651942 367.873634 
L 365.581511 368.282332 
L 371.511079 368.594109 
L 377.440647 368.941268 
L 383.370216 369.239857 
L 389.299784 369.472223 
L 395.229353 369.714216 
L 401.158921 369.943601 
L 407.088489 370.208128 
L 413.018058 370.440435 
L 418.947626 370.645865 
L 424.877195 370.817333 
L 430.806763 371.006012 
L 436.736331 371.131991 
L 442.6659 371.270299 
L 448.595468 371.416851 
L 454.525037 371.559221 
L 460.454605 371.664928 
L 466.384174 371.775518 
L 472.313742 371.891251 
L 478.24331 371.990694 
L 484.172879 372.081811 
L 490.102447 372.164784 
L 496.032016 372.244014 
L 501.961584 372.327806 
L 507.891152 372.367271 
L 513.820721 372.420905 
L 519.750289 372.47516 
L 525.679858 372.519748 
L 531.609426 372.560714 
L 537.538994 372.594495 
L 543.468563 372.623853 
L 549.398131 372.648929 
L 555.3277 372.678048 
L 561.257268 372.700342 
L 567.186837 372.71315 
L 573.116405 372.730601 
L 579.045973 372.743429 
L 584.975542 372.756717 
L 590.90511 372.775769 
L 596.834679 372.784835 
L 602.764247 372.795942 
L 608.693815 372.806329 
L 614.623384 372.811592 
L 620.552952 372.820337 
L 626.482521 372.827102 
L 632.412089 372.833366 
L 638.341657 372.842572 
L 644.271226 372.8566 
L 650.200794 372.857901 
L 656.130363 372.862744 
L 662.059931 372.867427 
L 667.9895 372.868648 
L 673.919068 372.869148 
L 679.848636 372.873071 
" clip-path="url(#pdcf263e001)" style="fill: none; stroke: #ffbb78; stroke-width: 1.5; stroke-linecap: square"/>
   </g>
   <g id="line2d_29">
    <path d="M 92.821364 82.244627 
L 98.750932 104.31012 
L 104.6805 126.047665 
L 110.610069 152.298279 
L 116.539637 173.478272 
L 122.469206 194.074737 
L 128.398774 212.423543 
L 134.328343 230.28416 
L 140.257911 244.736325 
L 146.187479 257.572009 
L 152.117048 270.123394 
L 158.046616 280.243484 
L 163.976185 289.291257 
L 169.905753 297.846859 
L 175.835321 306.040513 
L 181.76489 313.598525 
L 187.694458 319.21331 
L 193.624027 325.424972 
L 199.553595 330.197886 
L 205.483163 334.057222 
L 211.412732 338.178645 
L 217.3423 341.422233 
L 223.271869 344.385584 
L 229.201437 347.249392 
L 235.131006 349.54208 
L 241.060574 351.752035 
L 246.990142 353.715675 
L 252.919711 355.358772 
L 258.849279 356.934387 
L 264.778848 358.425228 
L 270.708416 359.539832 
L 276.637984 360.759502 
L 282.567553 361.895459 
L 288.497121 362.859708 
L 294.42669 363.74917 
L 300.356258 364.456637 
L 306.285826 365.055755 
L 312.215395 365.788638 
L 318.144963 366.292656 
L 324.074532 366.700934 
L 330.0041 367.155261 
L 335.933669 367.616192 
L 341.863237 368.07252 
L 347.792805 368.415136 
L 353.722374 368.743203 
L 359.651942 369.099168 
L 365.581511 369.409704 
L 371.511079 369.713156 
L 377.440647 370.045445 
L 383.370216 370.249674 
L 389.299784 370.478939 
L 395.229353 370.674002 
L 401.158921 370.881894 
L 407.088489 371.086042 
L 413.018058 371.239179 
L 418.947626 371.394998 
L 424.877195 371.532985 
L 430.806763 371.664147 
L 436.736331 371.81046 
L 442.6659 371.957893 
L 448.595468 372.03222 
L 454.525037 372.144811 
L 460.454605 372.213334 
L 466.384174 372.311176 
L 472.313742 372.375196 
L 478.24331 372.459189 
L 484.172879 372.512863 
L 490.102447 372.561494 
L 496.032016 372.631758 
L 501.961584 372.674065 
L 507.891152 372.696539 
L 513.820721 372.724277 
L 519.750289 372.746711 
L 525.679858 372.775909 
L 531.609426 372.79208 
L 537.538994 372.811832 
L 543.468563 372.833126 
L 549.398131 372.849796 
L 555.3277 372.862304 
L 561.257268 372.869969 
L 567.186837 372.879815 
L 573.116405 372.88842 
L 579.045973 372.895205 
L 584.975542 372.899487 
L 590.90511 372.908473 
L 596.834679 372.910154 
L 602.764247 372.916638 
L 608.693815 372.922322 
L 614.623384 372.926264 
L 620.552952 372.929406 
L 626.482521 372.93497 
L 632.412089 372.939833 
L 638.341657 372.943976 
L 644.271226 372.945216 
L 650.200794 372.948899 
L 656.130363 372.95142 
L 662.059931 372.95142 
L 667.9895 372.953562 
L 673.919068 372.955283 
L 679.848636 372.962427 
" clip-path="url(#pdcf263e001)" style="fill: none; stroke: #2ca02c; stroke-width: 1.5; stroke-linecap: square"/>
   </g>
   <g id="line2d_30">
    <path d="M 92.821364 82.907426 
L 98.750932 108.198235 
L 104.6805 129.233096 
L 110.610069 152.057147 
L 116.539637 174.443922 
L 122.469206 194.923113 
L 128.398774 213.776757 
L 134.328343 229.507589 
L 140.257911 243.854888 
L 146.187479 257.811581 
L 152.117048 268.869243 
L 158.046616 280.808021 
L 163.976185 289.881109 
L 169.905753 297.605607 
L 175.835321 306.330115 
L 181.76489 313.809218 
L 187.694458 319.838965 
L 193.624027 325.142654 
L 199.553595 329.853608 
L 205.483163 334.957711 
L 211.412732 338.629209 
L 217.3423 342.381478 
L 223.271869 345.616161 
L 229.201437 348.369659 
L 235.131006 350.879564 
L 241.060574 353.056178 
L 246.990142 355.202393 
L 252.919711 356.95564 
L 258.849279 358.535798 
L 264.778848 359.864057 
L 270.708416 361.007879 
L 276.637984 362.185843 
L 282.567553 363.256859 
L 288.497121 364.031608 
L 294.42669 364.827451 
L 300.356258 365.60308 
L 306.285826 366.197456 
L 312.215395 366.707758 
L 318.144963 367.28158 
L 324.074532 367.789821 
L 330.0041 368.224576 
L 335.933669 368.592068 
L 341.863237 369.045694 
L 347.792805 369.354969 
L 353.722374 369.661143 
L 359.651942 369.950165 
L 365.581511 370.250815 
L 371.511079 370.535955 
L 377.440647 370.808987 
L 383.370216 371.022582 
L 389.299784 371.20886 
L 395.229353 371.417552 
L 401.158921 371.599927 
L 407.088489 371.785704 
L 413.018058 371.939161 
L 418.947626 372.076868 
L 424.877195 372.20665 
L 430.806763 372.341315 
L 436.736331 372.465273 
L 442.6659 372.581307 
L 448.595468 372.667081 
L 454.525037 372.747031 
L 460.454605 372.82464 
L 466.384174 372.889181 
L 472.313742 372.925424 
L 478.24331 372.98234 
L 484.172879 373.01388 
L 490.102447 373.054245 
L 496.032016 373.091589 
L 501.961584 373.113443 
L 507.891152 373.1404 
L 513.820721 373.152047 
L 519.750289 373.170258 
L 525.679858 373.183026 
L 531.609426 373.197275 
L 537.538994 373.209023 
L 543.468563 373.22011 
L 549.398131 373.229956 
L 555.3277 373.234259 
L 561.257268 373.243385 
L 567.186837 373.248088 
L 573.116405 373.256633 
L 579.045973 373.258834 
L 584.975542 373.266339 
L 590.90511 373.26776 
L 596.834679 373.272583 
L 602.764247 373.274764 
L 608.693815 373.275725 
L 614.623384 373.277366 
L 620.552952 373.277746 
L 626.482521 373.279988 
L 632.412089 373.280708 
L 638.341657 373.280708 
L 644.271226 373.281269 
L 650.200794 373.28291 
L 656.130363 373.28417 
L 662.059931 373.288553 
L 667.9895 373.290254 
L 673.919068 373.290254 
L 679.848636 373.291115 
" clip-path="url(#pdcf263e001)" style="fill: none; stroke: #98df8a; stroke-width: 1.5; stroke-linecap: square"/>
   </g>
   <g id="line2d_31">
    <path d="M 92.821364 81.898469 
L 98.750932 105.862019 
L 104.6805 130.516246 
L 110.610069 156.079527 
L 116.539637 176.285465 
L 122.469206 195.58361 
L 128.398774 213.870516 
L 134.328343 231.563468 
L 140.257911 246.434457 
L 146.187479 259.072257 
L 152.117048 271.529842 
L 158.046616 283.322648 
L 163.976185 292.963936 
L 169.905753 300.656813 
L 175.835321 308.621602 
L 181.76489 315.385973 
L 187.694458 322.42838 
L 193.624027 328.196442 
L 199.553595 333.412555 
L 205.483163 337.69582 
L 211.412732 341.239938 
L 217.3423 344.803267 
L 223.271869 348.013895 
L 229.201437 350.79465 
L 235.131006 353.286664 
L 241.060574 355.358832 
L 246.990142 357.199374 
L 252.919711 358.983841 
L 258.849279 360.489412 
L 264.778848 361.806924 
L 270.708416 362.997715 
L 276.637984 364.06685 
L 282.567553 364.760589 
L 288.497121 365.575503 
L 294.42669 366.160052 
L 300.356258 366.633891 
L 306.285826 367.247859 
L 312.215395 367.703427 
L 318.144963 368.151269 
L 324.074532 368.557986 
L 330.0041 368.968545 
L 335.933669 369.34076 
L 341.863237 369.629563 
L 347.792805 369.965195 
L 353.722374 370.267706 
L 359.651942 370.538076 
L 365.581511 370.816372 
L 371.511079 371.028286 
L 377.440647 371.260433 
L 383.370216 371.439045 
L 389.299784 371.609193 
L 395.229353 371.806537 
L 401.158921 371.955631 
L 407.088489 372.11211 
L 413.018058 372.227023 
L 418.947626 372.376077 
L 424.877195 372.490669 
L 430.806763 372.564596 
L 436.736331 372.630738 
L 442.6659 372.71387 
L 448.595468 372.817316 
L 454.525037 372.879075 
L 460.454605 372.9192 
L 466.384174 372.983821 
L 472.313742 373.025507 
L 478.24331 373.052784 
L 484.172879 373.084905 
L 490.102447 373.103436 
L 496.032016 373.126271 
L 501.961584 373.149625 
L 507.891152 373.167957 
L 513.820721 373.189751 
L 519.750289 373.197496 
L 525.679858 373.208002 
L 531.609426 373.221691 
L 537.538994 373.234439 
L 543.468563 373.241784 
L 549.398131 373.245666 
L 555.3277 373.249849 
L 561.257268 373.254592 
L 567.186837 373.259855 
L 573.116405 373.262377 
L 579.045973 373.266059 
L 584.975542 373.266679 
L 590.90511 373.266759 
L 596.834679 373.2681 
L 602.764247 373.270862 
L 608.693815 373.270862 
L 614.623384 373.272063 
L 620.552952 373.274624 
L 626.482521 373.274624 
L 632.412089 373.275705 
L 638.341657 373.279047 
L 644.271226 373.280088 
L 650.200794 373.281108 
L 656.130363 373.28345 
L 662.059931 373.28345 
L 667.9895 373.28367 
L 673.919068 373.28367 
L 679.848636 373.28367 
" clip-path="url(#pdcf263e001)" style="fill: none; stroke: #d62728; stroke-width: 1.5; stroke-linecap: square"/>
   </g>
   <g id="line2d_32">
    <path d="M 92.821364 85.361195 
L 98.750932 108.241862 
L 104.6805 135.712987 
L 110.610069 153.279819 
L 116.539637 179.248536 
L 122.469206 198.489825 
L 128.398774 215.683901 
L 134.328343 232.47058 
L 140.257911 246.034565 
L 146.187479 259.302202 
L 152.117048 270.874289 
L 158.046616 283.200912 
L 163.976185 293.356604 
L 169.905753 301.737235 
L 175.835321 309.345119 
L 181.76489 315.869699 
L 187.694458 322.685162 
L 193.624027 328.159739 
L 199.553595 332.742332 
L 205.483163 337.691317 
L 211.412732 341.56116 
L 217.3423 345.285792 
L 223.271869 348.0223 
L 229.201437 350.626764 
L 235.131006 353.239834 
L 241.060574 355.391733 
L 246.990142 357.659665 
L 252.919711 359.168598 
L 258.849279 360.521012 
L 264.778848 361.902444 
L 270.708416 363.02021 
L 276.637984 364.016699 
L 282.567553 365.084113 
L 288.497121 365.749293 
L 294.42669 366.388556 
L 300.356258 366.974366 
L 306.285826 367.495255 
L 312.215395 368.014343 
L 318.144963 368.499509 
L 324.074532 368.916913 
L 330.0041 369.359152 
L 335.933669 369.701708 
L 341.863237 370.050048 
L 347.792805 370.336989 
L 353.722374 370.609041 
L 359.651942 370.880413 
L 365.581511 371.144699 
L 371.511079 371.376546 
L 377.440647 371.581655 
L 383.370216 371.808499 
L 389.299784 371.95369 
L 395.229353 372.132063 
L 401.158921 372.263646 
L 407.088489 372.389726 
L 413.018058 372.500155 
L 418.947626 372.620291 
L 424.877195 372.722416 
L 430.806763 372.809791 
L 436.736331 372.876313 
L 442.6659 372.937191 
L 448.595468 373.006735 
L 454.525037 373.069755 
L 460.454605 373.123909 
L 466.384174 373.165495 
L 472.313742 373.200838 
L 478.24331 373.230396 
L 484.172879 373.263297 
L 490.102447 373.285151 
L 496.032016 373.304683 
L 501.961584 373.323535 
L 507.891152 373.34673 
L 513.820721 373.359618 
L 519.750289 373.368844 
L 525.679858 373.375888 
L 531.609426 373.384734 
L 537.538994 373.395 
L 543.468563 373.401444 
L 549.398131 373.406347 
L 555.3277 373.412231 
L 561.257268 373.414192 
L 567.186837 373.419035 
L 573.116405 373.42676 
L 579.045973 373.429642 
L 584.975542 373.430323 
L 590.90511 373.430323 
L 596.834679 373.435646 
L 602.764247 373.435766 
L 608.693815 373.437127 
L 614.623384 373.438648 
L 620.552952 373.44215 
L 626.482521 373.442991 
L 632.412089 373.444211 
L 638.341657 373.444992 
L 644.271226 373.447513 
L 650.200794 373.447654 
L 656.130363 373.447654 
L 662.059931 373.448094 
L 667.9895 373.448094 
L 673.919068 373.448434 
L 679.848636 373.448614 
" clip-path="url(#pdcf263e001)" style="fill: none; stroke: #ff9896; stroke-width: 1.5; stroke-linecap: square"/>
   </g>
   <g id="line2d_33">
    <path d="M 92.821364 85.934977 
L 98.750932 110.275706 
L 104.6805 134.296113 
L 110.610069 155.648455 
L 116.539637 180.36314 
L 122.469206 200.8584 
L 128.398774 218.980683 
L 134.328343 235.572899 
L 140.257911 250.307202 
L 146.187479 261.379794 
L 152.117048 274.31288 
L 158.046616 284.76618 
L 163.976185 294.613397 
L 169.905753 303.886432 
L 175.835321 311.72196 
L 181.76489 317.719287 
L 187.694458 324.116986 
L 193.624027 329.757087 
L 199.553595 334.509008 
L 205.483163 339.117237 
L 211.412732 342.851575 
L 217.3423 346.53426 
L 223.271869 349.785533 
L 229.201437 352.430383 
L 235.131006 354.669757 
L 241.060574 356.929444 
L 246.990142 358.755617 
L 252.919711 360.392911 
L 258.849279 362.058022 
L 264.778848 363.394326 
L 270.708416 364.584217 
L 276.637984 365.464133 
L 282.567553 366.139439 
L 288.497121 366.903762 
L 294.42669 367.538122 
L 300.356258 368.058811 
L 306.285826 368.517321 
L 312.215395 369.042252 
L 318.144963 369.417349 
L 324.074532 369.743535 
L 330.0041 370.042163 
L 335.933669 370.33833 
L 341.863237 370.629114 
L 347.792805 370.890379 
L 353.722374 371.186606 
L 359.651942 371.450813 
L 365.581511 371.607171 
L 371.511079 371.820206 
L 377.440647 372.011987 
L 383.370216 372.180313 
L 389.299784 372.350661 
L 395.229353 372.489168 
L 401.158921 372.599438 
L 407.088489 372.71307 
L 413.018058 372.811392 
L 418.947626 372.912736 
L 424.877195 372.98346 
L 430.806763 373.059589 
L 436.736331 373.12525 
L 442.6659 373.168617 
L 448.595468 373.217668 
L 454.525037 373.257333 
L 460.454605 373.295037 
L 466.384174 373.31529 
L 472.313742 373.345169 
L 478.24331 373.366682 
L 484.172879 373.384934 
L 490.102447 373.397682 
L 496.032016 373.41049 
L 501.961584 373.415653 
L 507.891152 373.42696 
L 513.820721 373.433485 
L 519.750289 373.439588 
L 525.679858 373.446993 
L 531.609426 373.448934 
L 537.538994 373.453657 
L 543.468563 373.4584 
L 549.398131 373.462603 
L 555.3277 373.463424 
L 561.257268 373.463904 
L 567.186837 373.464184 
L 573.116405 373.464724 
L 579.045973 373.466365 
L 584.975542 373.466626 
L 590.90511 373.467446 
L 596.834679 373.468046 
L 602.764247 373.468046 
L 608.693815 373.468947 
L 614.623384 373.470148 
L 620.552952 373.472129 
L 626.482521 373.472409 
L 632.412089 373.472409 
L 638.341657 373.474911 
L 644.271226 373.475091 
L 650.200794 373.475091 
L 656.130363 373.475091 
L 662.059931 373.475491 
L 667.9895 373.475491 
L 673.919068 373.476972 
L 679.848636 373.477612 
" clip-path="url(#pdcf263e001)" style="fill: none; stroke: #9467bd; stroke-width: 1.5; stroke-linecap: square"/>
   </g>
   <g id="line2d_34">
    <path d="M 92.821364 88.986044 
L 98.750932 111.150659 
L 104.6805 135.497231 
L 110.610069 156.558149 
L 116.539637 178.446249 
L 122.469206 198.454182 
L 128.398774 216.72744 
L 134.328343 234.1177 
L 140.257911 247.150769 
L 146.187479 261.244989 
L 152.117048 272.649449 
L 158.046616 284.241008 
L 163.976185 293.566837 
L 169.905753 301.932839 
L 175.835321 310.009078 
L 181.76489 317.2332 
L 187.694458 324.691789 
L 193.624027 329.800975 
L 199.553595 334.615495 
L 205.483163 339.285383 
L 211.412732 343.088104 
L 217.3423 346.458933 
L 223.271869 349.482882 
L 229.201437 352.428142 
L 235.131006 354.720949 
L 241.060574 357.230294 
L 246.990142 359.131554 
L 252.919711 360.684095 
L 258.849279 362.142375 
L 264.778848 363.599355 
L 270.708416 364.640293 
L 276.637984 365.597137 
L 282.567553 366.347971 
L 288.497121 367.10707 
L 294.42669 367.70929 
L 300.356258 368.236583 
L 306.285826 368.684786 
L 312.215395 369.104932 
L 318.144963 369.476786 
L 324.074532 369.829689 
L 330.0041 370.203705 
L 335.933669 370.524568 
L 341.863237 370.824797 
L 347.792805 371.054022 
L 353.722374 371.326194 
L 359.651942 371.553297 
L 365.581511 371.721564 
L 371.511079 371.932257 
L 377.440647 372.106006 
L 383.370216 372.280937 
L 389.299784 372.445101 
L 395.229353 372.577504 
L 401.158921 372.683831 
L 407.088489 372.788597 
L 413.018058 372.885298 
L 418.947626 372.975175 
L 424.877195 373.055126 
L 430.806763 373.134656 
L 436.736331 373.198096 
L 442.6659 373.247287 
L 448.595468 373.294517 
L 454.525037 373.338785 
L 460.454605 373.370365 
L 466.384174 373.393519 
L 472.313742 373.422378 
L 478.24331 373.440569 
L 484.172879 373.462663 
L 490.102447 373.479874 
L 496.032016 373.491321 
L 501.961584 373.498486 
L 507.891152 373.50475 
L 513.820721 373.509212 
L 519.750289 373.512915 
L 525.679858 373.517258 
L 531.609426 373.520359 
L 537.538994 373.522881 
L 543.468563 373.524342 
L 549.398131 373.524402 
L 555.3277 373.524762 
L 561.257268 373.524982 
L 567.186837 373.525002 
L 573.116405 373.525263 
L 579.045973 373.525263 
L 584.975542 373.525263 
L 590.90511 373.525263 
L 596.834679 373.525263 
L 602.764247 373.527324 
L 608.693815 373.528345 
L 614.623384 373.528345 
L 620.552952 373.528345 
L 626.482521 373.528345 
L 632.412089 373.528625 
L 638.341657 373.528905 
L 644.271226 373.528905 
L 650.200794 373.530506 
L 656.130363 373.530506 
L 662.059931 373.531907 
L 667.9895 373.531907 
L 673.919068 373.531947 
L 679.848636 373.532727 
" clip-path="url(#pdcf263e001)" style="fill: none; stroke: #c5b0d5; stroke-width: 1.5; stroke-linecap: square"/>
   </g>
   <g id="line2d_35"/>
   <g id="line2d_36"/>
   <g id="line2d_37"/>
   <g id="line2d_38"/>
   <g id="line2d_39"/>
   <g id="line2d_40"/>
   <g id="line2d_41"/>
   <g id="line2d_42"/>
   <g id="line2d_43"/>
   <g id="line2d_44"/>
   <g id="patch_3">
    <path d="M 63.47 390.04 
L 63.47 26.88 
" style="fill: none; stroke: #000000; stroke-width: 0.8; stroke-linejoin: miter; stroke-linecap: square"/>
   </g>
   <g id="patch_4">
    <path d="M 709.2 390.04 
L 709.2 26.88 
" style="fill: none; stroke: #000000; stroke-width: 0.8; stroke-linejoin: miter; stroke-linecap: square"/>
   </g>
   <g id="patch_5">
    <path d="M 63.47 390.04 
L 709.2 390.04 
" style="fill: none; stroke: #000000; stroke-width: 0.8; stroke-linejoin: miter; stroke-linecap: square"/>
   </g>
   <g id="patch_6">
    <path d="M 63.47 26.88 
L 709.2 26.88 
" style="fill: none; stroke: #000000; stroke-width: 0.8; stroke-linejoin: miter; stroke-linecap: square"/>
   </g>
   <g id="text_15">
    <!-- Population size comparison: Fitness over Generations -->
    <g transform="translate(225.834063 20.88) scale(0.12 -0.12)">
     <defs>
      <path id="DejaVuSans-50" d="M 1259 4147 
L 1259 2394 
L 2053 2394 
Q 2494 2394 2734 2622 
Q 2975 2850 2975 3272 
Q 2975 3691 2734 3919 
Q 2494 4147 2053 4147 
L 1259 4147 
z
M 628 4666 
L 2053 4666 
Q 2838 4666 3239 4311 
Q 3641 3956 3641 3272 
Q 3641 2581 3239 2228 
Q 2838 1875 2053 1875 
L 1259 1875 
L 1259 0 
L 628 0 
L 628 4666 
z
" transform="scale(0.015625)"/>
      <path id="DejaVuSans-70" d="M 1159 525 
L 1159 -1331 
L 581 -1331 
L 581 3500 
L 1159 3500 
L 1159 2969 
Q 1341 3281 1617 3432 
Q 1894 3584 2278 3584 
Q 2916 3584 3314 3078 
Q 3713 2572 3713 1747 
Q 3713 922 3314 415 
Q 2916 -91 2278 -91 
Q 1894 -91 1617 61 
Q 1341 213 1159 525 
z
M 3116 1747 
Q 3116 2381 2855 2742 
Q 2594 3103 2138 3103 
Q 1681 3103 1420 2742 
Q 1159 2381 1159 1747 
Q 1159 1113 1420 752 
Q 1681 391 2138 391 
Q 2594 391 2855 752 
Q 3116 1113 3116 1747 
z
" transform="scale(0.015625)"/>
      <path id="DejaVuSans-75" d="M 544 1381 
L 544 3500 
L 1119 3500 
L 1119 1403 
Q 1119 906 1312 657 
Q 1506 409 1894 409 
Q 2359 409 2629 706 
Q 2900 1003 2900 1516 
L 2900 3500 
L 3475 3500 
L 3475 0 
L 2900 0 
L 2900 538 
Q 2691 219 2414 64 
Q 2138 -91 1772 -91 
Q 1169 -91 856 284 
Q 544 659 544 1381 
z
M 1991 3584 
L 1991 3584 
z
" transform="scale(0.015625)"/>
      <path id="DejaVuSans-6c" d="M 603 4863 
L 1178 4863 
L 1178 0 
L 603 0 
L 603 4863 
z
" transform="scale(0.015625)"/>
      <path id="DejaVuSans-20" transform="scale(0.015625)"/>
      <path id="DejaVuSans-7a" d="M 353 3500 
L 3084 3500 
L 3084 2975 
L 922 459 
L 3084 459 
L 3084 0 
L 275 0 
L 275 525 
L 2438 3041 
L 353 3041 
L 353 3500 
z
" transform="scale(0.015625)"/>
      <path id="DejaVuSans-63" d="M 3122 3366 
L 3122 2828 
Q 2878 2963 2633 3030 
Q 2388 3097 2138 3097 
Q 1578 3097 1268 2742 
Q 959 2388 959 1747 
Q 959 1106 1268 751 
Q 1578 397 2138 397 
Q 2388 397 2633 464 
Q 2878 531 3122 666 
L 3122 134 
Q 2881 22 2623 -34 
Q 2366 -91 2075 -91 
Q 1284 -91 818 406 
Q 353 903 353 1747 
Q 353 2603 823 3093 
Q 1294 3584 2113 3584 
Q 2378 3584 2631 3529 
Q 2884 3475 3122 3366 
z
" transform="scale(0.015625)"/>
      <path id="DejaVuSans-6d" d="M 3328 2828 
Q 3544 3216 3844 3400 
Q 4144 3584 4550 3584 
Q 5097 3584 5394 3201 
Q 5691 2819 5691 2113 
L 5691 0 
L 5113 0 
L 5113 2094 
Q 5113 2597 4934 2840 
Q 4756 3084 4391 3084 
Q 3944 3084 3684 2787 
Q 3425 2491 3425 1978 
L 3425 0 
L 2847 0 
L 2847 2094 
Q 2847 2600 2669 2842 
Q 2491 3084 2119 3084 
Q 1678 3084 1418 2786 
Q 1159 2488 1159 1978 
L 1159 0 
L 581 0 
L 581 3500 
L 1159 3500 
L 1159 2956 
Q 1356 3278 1631 3431 
Q 1906 3584 2284 3584 
Q 2666 3584 2933 3390 
Q 3200 3197 3328 2828 
z
" transform="scale(0.015625)"/>
      <path id="DejaVuSans-3a" d="M 750 794 
L 1409 794 
L 1409 0 
L 750 0 
L 750 794 
z
M 750 3309 
L 1409 3309 
L 1409 2516 
L 750 2516 
L 750 3309 
z
" transform="scale(0.015625)"/>
      <path id="DejaVuSans-76" d="M 191 3500 
L 800 3500 
L 1894 563 
L 2988 3500 
L 3597 3500 
L 2284 0 
L 1503 0 
L 191 3500 
z
" transform="scale(0.015625)"/>
     </defs>
     <use xlink:href="#DejaVuSans-50"/>
     <use xlink:href="#DejaVuSans-6f" x="56.677734"/>
     <use xlink:href="#DejaVuSans-70" x="117.859375"/>
     <use xlink:href="#DejaVuSans-75" x="181.335938"/>
     <use xlink:href="#DejaVuSans-6c" x="244.714844"/>
     <use xlink:href="#DejaVuSans-61" x="272.498047"/>
     <use xlink:href="#DejaVuSans-74" x="333.777344"/>
     <use xlink:href="#DejaVuSans-69" x="372.986328"/>
     <use xlink:href="#DejaVuSans-6f" x="400.769531"/>
     <use xlink:href="#DejaVuSans-6e" x="461.951172"/>
     <use xlink:href="#DejaVuSans-20" x="525.330078"/>
     <use xlink:href="#DejaVuSans-73" x="557.117188"/>
     <use xlink:href="#DejaVuSans-69" x="609.216797"/>
     <use xlink:href="#DejaVuSans-7a" x="637"/>
     <use xlink:href="#DejaVuSans-65" x="689.490234"/>
     <use xlink:href="#DejaVuSans-20" x="751.013672"/>
     <use xlink:href="#DejaVuSans-63" x="782.800781"/>
     <use xlink:href="#DejaVuSans-6f" x="837.78125"/>
     <use xlink:href="#DejaVuSans-6d" x="898.962891"/>
     <use xlink:href="#DejaVuSans-70" x="996.375"/>
     <use xlink:href="#DejaVuSans-61" x="1059.851562"/>
     <use xlink:href="#DejaVuSans-72" x="1121.130859"/>
     <use xlink:href="#DejaVuSans-69" x="1162.244141"/>
     <use xlink:href="#DejaVuSans-73" x="1190.027344"/>
     <use xlink:href="#DejaVuSans-6f" x="1242.126953"/>
     <use xlink:href="#DejaVuSans-6e" x="1303.308594"/>
     <use xlink:href="#DejaVuSans-3a" x="1366.6875"/>
     <use xlink:href="#DejaVuSans-20" x="1400.378906"/>
     <use xlink:href="#DejaVuSans-46" x="1432.166016"/>
     <use xlink:href="#DejaVuSans-69" x="1482.435547"/>
     <use xlink:href="#DejaVuSans-74" x="1510.21875"/>
     <use xlink:href="#DejaVuSans-6e" x="1549.427734"/>
     <use xlink:href="#DejaVuSans-65" x="1612.806641"/>
     <use xlink:href="#DejaVuSans-73" x="1674.330078"/>
     <use xlink:href="#DejaVuSans-73" x="1726.429688"/>
     <use xlink:href="#DejaVuSans-20" x="1778.529297"/>
     <use xlink:href="#DejaVuSans-6f" x="1810.316406"/>
     <use xlink:href="#DejaVuSans-76" x="1871.498047"/>
     <use xlink:href="#DejaVuSans-65" x="1930.677734"/>
     <use xlink:href="#DejaVuSans-72" x="1992.201172"/>
     <use xlink:href="#DejaVuSans-20" x="2033.314453"/>
     <use xlink:href="#DejaVuSans-47" x="2065.101562"/>
     <use xlink:href="#DejaVuSans-65" x="2142.591797"/>
     <use xlink:href="#DejaVuSans-6e" x="2204.115234"/>
     <use xlink:href="#DejaVuSans-65" x="2267.494141"/>
     <use xlink:href="#DejaVuSans-72" x="2329.017578"/>
     <use xlink:href="#DejaVuSans-61" x="2370.130859"/>
     <use xlink:href="#DejaVuSans-74" x="2431.410156"/>
     <use xlink:href="#DejaVuSans-69" x="2470.619141"/>
     <use xlink:href="#DejaVuSans-6f" x="2498.402344"/>
     <use xlink:href="#DejaVuSans-6e" x="2559.583984"/>
     <use xlink:href="#DejaVuSans-73" x="2622.962891"/>
    </g>
   </g>
   <g id="legend_1">
    <g id="patch_7">
     <path d="M 651.1125 196.339375 
L 702.2 196.339375 
Q 704.2 196.339375 704.2 194.339375 
L 704.2 33.88 
Q 704.2 31.88 702.2 31.88 
L 651.1125 31.88 
Q 649.1125 31.88 649.1125 33.88 
L 649.1125 194.339375 
Q 649.1125 196.339375 651.1125 196.339375 
z
" style="fill: #ffffff; opacity: 0.8; stroke: #cccccc; stroke-linejoin: miter"/>
    </g>
    <g id="text_16">
     <!-- Pop size -->
     <g transform="translate(656.305469 43.478437) scale(0.1 -0.1)">
      <use xlink:href="#DejaVuSans-50"/>
      <use xlink:href="#DejaVuSans-6f" x="56.677734"/>
      <use xlink:href="#DejaVuSans-70" x="117.859375"/>
      <use xlink:href="#DejaVuSans-20" x="181.335938"/>
      <use xlink:href="#DejaVuSans-73" x="213.123047"/>
      <use xlink:href="#DejaVuSans-69" x="265.222656"/>
      <use xlink:href="#DejaVuSans-7a" x="293.005859"/>
      <use xlink:href="#DejaVuSans-65" x="345.496094"/>
     </g>
    </g>
    <g id="line2d_45">
     <path d="M 653.1125 54.656562 
L 663.1125 54.656562 
L 673.1125 54.656562 
" style="fill: none; stroke: #1f77b4; stroke-width: 1.5; stroke-linecap: square"/>
    </g>
    <g id="text_17">
     <!-- 10 -->
     <g transform="translate(681.1125 58.156562) scale(0.1 -0.1)">
      <use xlink:href="#DejaVuSans-31"/>
      <use xlink:href="#DejaVuSans-30" x="63.623047"/>
     </g>
    </g>
    <g id="line2d_46">
     <path d="M 653.1125 69.334687 
L 663.1125 69.334687 
L 673.1125 69.334687 
" style="fill: none; stroke: #aec7e8; stroke-width: 1.5; stroke-linecap: square"/>
    </g>
    <g id="text_18">
     <!-- 50 -->
     <g transform="translate(681.1125 72.834687) scale(0.1 -0.1)">
      <use xlink:href="#DejaVuSans-35"/>
      <use xlink:href="#DejaVuSans-30" x="63.623047"/>
     </g>
    </g>
    <g id="line2d_47">
     <path d="M 653.1125 84.012812 
L 663.1125 84.012812 
L 673.1125 84.012812 
" style="fill: none; stroke: #ff7f0e; stroke-width: 1.5; stroke-linecap: square"/>
    </g>
    <g id="text_19">
     <!-- 100 -->
     <g transform="translate(681.1125 87.512812) scale(0.1 -0.1)">
      <use xlink:href="#DejaVuSans-31"/>
      <use xlink:href="#DejaVuSans-30" x="63.623047"/>
      <use xlink:href="#DejaVuSans-30" x="127.246094"/>
     </g>
    </g>
    <g id="line2d_48">
     <path d="M 653.1125 98.690937 
L 663.1125 98.690937 
L 673.1125 98.690937 
" style="fill: none; stroke: #ffbb78; stroke-width: 1.5; stroke-linecap: square"/>
    </g>
    <g id="text_20">
     <!-- 150 -->
     <g transform="translate(681.1125 102.190937) scale(0.1 -0.1)">
      <use xlink:href="#DejaVuSans-31"/>
      <use xlink:href="#DejaVuSans-35" x="63.623047"/>
      <use xlink:href="#DejaVuSans-30" x="127.246094"/>
     </g>
    </g>
    <g id="line2d_49">
     <path d="M 653.1125 113.369062 
L 663.1125 113.369062 
L 673.1125 113.369062 
" style="fill: none; stroke: #2ca02c; stroke-width: 1.5; stroke-linecap: square"/>
    </g>
    <g id="text_21">
     <!-- 200 -->
     <g transform="translate(681.1125 116.869062) scale(0.1 -0.1)">
      <use xlink:href="#DejaVuSans-32"/>
      <use xlink:href="#DejaVuSans-30" x="63.623047"/>
      <use xlink:href="#DejaVuSans-30" x="127.246094"/>
     </g>
    </g>
    <g id="line2d_50">
     <path d="M 653.1125 128.047187 
L 663.1125 128.047187 
L 673.1125 128.047187 
" style="fill: none; stroke: #98df8a; stroke-width: 1.5; stroke-linecap: square"/>
    </g>
    <g id="text_22">
     <!-- 250 -->
     <g transform="translate(681.1125 131.547187) scale(0.1 -0.1)">
      <use xlink:href="#DejaVuSans-32"/>
      <use xlink:href="#DejaVuSans-35" x="63.623047"/>
      <use xlink:href="#DejaVuSans-30" x="127.246094"/>
     </g>
    </g>
    <g id="line2d_51">
     <path d="M 653.1125 142.725312 
L 663.1125 142.725312 
L 673.1125 142.725312 
" style="fill: none; stroke: #d62728; stroke-width: 1.5; stroke-linecap: square"/>
    </g>
    <g id="text_23">
     <!-- 300 -->
     <g transform="translate(681.1125 146.225312) scale(0.1 -0.1)">
      <use xlink:href="#DejaVuSans-33"/>
      <use xlink:href="#DejaVuSans-30" x="63.623047"/>
      <use xlink:href="#DejaVuSans-30" x="127.246094"/>
     </g>
    </g>
    <g id="line2d_52">
     <path d="M 653.1125 157.403437 
L 663.1125 157.403437 
L 673.1125 157.403437 
" style="fill: none; stroke: #ff9896; stroke-width: 1.5; stroke-linecap: square"/>
    </g>
    <g id="text_24">
     <!-- 350 -->
     <g transform="translate(681.1125 160.903437) scale(0.1 -0.1)">
      <use xlink:href="#DejaVuSans-33"/>
      <use xlink:href="#DejaVuSans-35" x="63.623047"/>
      <use xlink:href="#DejaVuSans-30" x="127.246094"/>
     </g>
    </g>
    <g id="line2d_53">
     <path d="M 653.1125 172.081562 
L 663.1125 172.081562 
L 673.1125 172.081562 
" style="fill: none; stroke: #9467bd; stroke-width: 1.5; stroke-linecap: square"/>
    </g>
    <g id="text_25">
     <!-- 400 -->
     <g transform="translate(681.1125 175.581562) scale(0.1 -0.1)">
      <use xlink:href="#DejaVuSans-34"/>
      <use xlink:href="#DejaVuSans-30" x="63.623047"/>
      <use xlink:href="#DejaVuSans-30" x="127.246094"/>
     </g>
    </g>
    <g id="line2d_54">
     <path d="M 653.1125 186.759687 
L 663.1125 186.759687 
L 673.1125 186.759687 
" style="fill: none; stroke: #c5b0d5; stroke-width: 1.5; stroke-linecap: square"/>
    </g>
    <g id="text_26">
     <!-- 450 -->
     <g transform="translate(681.1125 190.259687) scale(0.1 -0.1)">
      <use xlink:href="#DejaVuSans-34"/>
      <use xlink:href="#DejaVuSans-35" x="63.623047"/>
      <use xlink:href="#DejaVuSans-30" x="127.246094"/>
     </g>
    </g>
   </g>
  </g>
 </g>
 <defs>
  <clipPath id="pdcf263e001">
   <rect x="63.47" y="26.88" width="645.73" height="363.16"/>
  </clipPath>
 </defs>
</svg>
