<?xml version="1.0" encoding="utf-8" standalone="no"?>
<!DOCTYPE svg PUBLIC "-//W3C//DTD SVG 1.1//EN"
  "http://www.w3.org/Graphics/SVG/1.1/DTD/svg11.dtd">
<svg xmlns:xlink="http://www.w3.org/1999/xlink" width="720pt" height="432pt" viewBox="0 0 720 432" xmlns="http://www.w3.org/2000/svg" version="1.1">
 <metadata>
  <rdf:RDF xmlns:dc="http://purl.org/dc/elements/1.1/" xmlns:cc="http://creativecommons.org/ns#" xmlns:rdf="http://www.w3.org/1999/02/22-rdf-syntax-ns#">
   <cc:Work>
    <dc:type rdf:resource="http://purl.org/dc/dcmitype/StillImage"/>
    <dc:date>2024-06-02T14:02:14.150256</dc:date>
    <dc:format>image/svg+xml</dc:format>
    <dc:creator>
     <cc:Agent>
      <dc:title>Matplotlib v3.8.4, https://matplotlib.org/</dc:title>
     </cc:Agent>
    </dc:creator>
   </cc:Work>
  </rdf:RDF>
 </metadata>
 <defs>
  <style type="text/css">*{stroke-linejoin: round; stroke-linecap: butt}</style>
 </defs>
 <g id="figure_1">
  <g id="patch_1">
   <path d="M 0 432 
L 720 432 
L 720 0 
L 0 0 
z
" style="fill: #ffffff"/>
  </g>
  <g id="axes_1">
   <g id="patch_2">
    <path d="M 50.137685 390.04 
L 709.2 390.04 
L 709.2 26.88 
L 50.137685 26.88 
z
" style="fill: #ffffff"/>
   </g>
   <g id="PolyCollection_1"/>
   <g id="PolyCollection_2"/>
   <g id="PolyCollection_3"/>
   <g id="matplotlib.axis_1">
    <g id="xtick_1">
     <g id="line2d_1">
      <path d="M 79.495315 390.04 
L 79.495315 26.88 
" clip-path="url(#p62c151e287)" style="fill: none; stroke: #b0b0b0; stroke-width: 0.8; stroke-linecap: square"/>
     </g>
     <g id="line2d_2">
      <defs>
       <path id="m4a75b9e62a" d="M 0 0 
L 0 3.5 
" style="stroke: #000000; stroke-width: 0.8"/>
      </defs>
      <g>
       <use xlink:href="#m4a75b9e62a" x="79.495315" y="390.04" style="stroke: #000000; stroke-width: 0.8"/>
      </g>
     </g>
     <g id="text_1">
      <!-- 0 -->
      <g transform="translate(76.314065 404.638438) scale(0.1 -0.1)">
       <defs>
        <path id="DejaVuSans-30" d="M 2034 4250 
Q 1547 4250 1301 3770 
Q 1056 3291 1056 2328 
Q 1056 1369 1301 889 
Q 1547 409 2034 409 
Q 2525 409 2770 889 
Q 3016 1369 3016 2328 
Q 3016 3291 2770 3770 
Q 2525 4250 2034 4250 
z
M 2034 4750 
Q 2819 4750 3233 4129 
Q 3647 3509 3647 2328 
Q 3647 1150 3233 529 
Q 2819 -91 2034 -91 
Q 1250 -91 836 529 
Q 422 1150 422 2328 
Q 422 3509 836 4129 
Q 1250 4750 2034 4750 
z
" transform="scale(0.015625)"/>
       </defs>
       <use xlink:href="#DejaVuSans-30"/>
      </g>
     </g>
    </g>
    <g id="xtick_2">
     <g id="line2d_3">
      <path d="M 199.444777 390.04 
L 199.444777 26.88 
" clip-path="url(#p62c151e287)" style="fill: none; stroke: #b0b0b0; stroke-width: 0.8; stroke-linecap: square"/>
     </g>
     <g id="line2d_4">
      <g>
       <use xlink:href="#m4a75b9e62a" x="199.444777" y="390.04" style="stroke: #000000; stroke-width: 0.8"/>
      </g>
     </g>
     <g id="text_2">
      <!-- 200 -->
      <g transform="translate(189.901027 404.638438) scale(0.1 -0.1)">
       <defs>
        <path id="DejaVuSans-32" d="M 1228 531 
L 3431 531 
L 3431 0 
L 469 0 
L 469 531 
Q 828 903 1448 1529 
Q 2069 2156 2228 2338 
Q 2531 2678 2651 2914 
Q 2772 3150 2772 3378 
Q 2772 3750 2511 3984 
Q 2250 4219 1831 4219 
Q 1534 4219 1204 4116 
Q 875 4013 500 3803 
L 500 4441 
Q 881 4594 1212 4672 
Q 1544 4750 1819 4750 
Q 2544 4750 2975 4387 
Q 3406 4025 3406 3419 
Q 3406 3131 3298 2873 
Q 3191 2616 2906 2266 
Q 2828 2175 2409 1742 
Q 1991 1309 1228 531 
z
" transform="scale(0.015625)"/>
       </defs>
       <use xlink:href="#DejaVuSans-32"/>
       <use xlink:href="#DejaVuSans-30" x="63.623047"/>
       <use xlink:href="#DejaVuSans-30" x="127.246094"/>
      </g>
     </g>
    </g>
    <g id="xtick_3">
     <g id="line2d_5">
      <path d="M 319.394238 390.04 
L 319.394238 26.88 
" clip-path="url(#p62c151e287)" style="fill: none; stroke: #b0b0b0; stroke-width: 0.8; stroke-linecap: square"/>
     </g>
     <g id="line2d_6">
      <g>
       <use xlink:href="#m4a75b9e62a" x="319.394238" y="390.04" style="stroke: #000000; stroke-width: 0.8"/>
      </g>
     </g>
     <g id="text_3">
      <!-- 400 -->
      <g transform="translate(309.850488 404.638438) scale(0.1 -0.1)">
       <defs>
        <path id="DejaVuSans-34" d="M 2419 4116 
L 825 1625 
L 2419 1625 
L 2419 4116 
z
M 2253 4666 
L 3047 4666 
L 3047 1625 
L 3713 1625 
L 3713 1100 
L 3047 1100 
L 3047 0 
L 2419 0 
L 2419 1100 
L 313 1100 
L 313 1709 
L 2253 4666 
z
" transform="scale(0.015625)"/>
       </defs>
       <use xlink:href="#DejaVuSans-34"/>
       <use xlink:href="#DejaVuSans-30" x="63.623047"/>
       <use xlink:href="#DejaVuSans-30" x="127.246094"/>
      </g>
     </g>
    </g>
    <g id="xtick_4">
     <g id="line2d_7">
      <path d="M 439.343699 390.04 
L 439.343699 26.88 
" clip-path="url(#p62c151e287)" style="fill: none; stroke: #b0b0b0; stroke-width: 0.8; stroke-linecap: square"/>
     </g>
     <g id="line2d_8">
      <g>
       <use xlink:href="#m4a75b9e62a" x="439.343699" y="390.04" style="stroke: #000000; stroke-width: 0.8"/>
      </g>
     </g>
     <g id="text_4">
      <!-- 600 -->
      <g transform="translate(429.799949 404.638438) scale(0.1 -0.1)">
       <defs>
        <path id="DejaVuSans-36" d="M 2113 2584 
Q 1688 2584 1439 2293 
Q 1191 2003 1191 1497 
Q 1191 994 1439 701 
Q 1688 409 2113 409 
Q 2538 409 2786 701 
Q 3034 994 3034 1497 
Q 3034 2003 2786 2293 
Q 2538 2584 2113 2584 
z
M 3366 4563 
L 3366 3988 
Q 3128 4100 2886 4159 
Q 2644 4219 2406 4219 
Q 1781 4219 1451 3797 
Q 1122 3375 1075 2522 
Q 1259 2794 1537 2939 
Q 1816 3084 2150 3084 
Q 2853 3084 3261 2657 
Q 3669 2231 3669 1497 
Q 3669 778 3244 343 
Q 2819 -91 2113 -91 
Q 1303 -91 875 529 
Q 447 1150 447 2328 
Q 447 3434 972 4092 
Q 1497 4750 2381 4750 
Q 2619 4750 2861 4703 
Q 3103 4656 3366 4563 
z
" transform="scale(0.015625)"/>
       </defs>
       <use xlink:href="#DejaVuSans-36"/>
       <use xlink:href="#DejaVuSans-30" x="63.623047"/>
       <use xlink:href="#DejaVuSans-30" x="127.246094"/>
      </g>
     </g>
    </g>
    <g id="xtick_5">
     <g id="line2d_9">
      <path d="M 559.293161 390.04 
L 559.293161 26.88 
" clip-path="url(#p62c151e287)" style="fill: none; stroke: #b0b0b0; stroke-width: 0.8; stroke-linecap: square"/>
     </g>
     <g id="line2d_10">
      <g>
       <use xlink:href="#m4a75b9e62a" x="559.293161" y="390.04" style="stroke: #000000; stroke-width: 0.8"/>
      </g>
     </g>
     <g id="text_5">
      <!-- 800 -->
      <g transform="translate(549.749411 404.638438) scale(0.1 -0.1)">
       <defs>
        <path id="DejaVuSans-38" d="M 2034 2216 
Q 1584 2216 1326 1975 
Q 1069 1734 1069 1313 
Q 1069 891 1326 650 
Q 1584 409 2034 409 
Q 2484 409 2743 651 
Q 3003 894 3003 1313 
Q 3003 1734 2745 1975 
Q 2488 2216 2034 2216 
z
M 1403 2484 
Q 997 2584 770 2862 
Q 544 3141 544 3541 
Q 544 4100 942 4425 
Q 1341 4750 2034 4750 
Q 2731 4750 3128 4425 
Q 3525 4100 3525 3541 
Q 3525 3141 3298 2862 
Q 3072 2584 2669 2484 
Q 3125 2378 3379 2068 
Q 3634 1759 3634 1313 
Q 3634 634 3220 271 
Q 2806 -91 2034 -91 
Q 1263 -91 848 271 
Q 434 634 434 1313 
Q 434 1759 690 2068 
Q 947 2378 1403 2484 
z
M 1172 3481 
Q 1172 3119 1398 2916 
Q 1625 2713 2034 2713 
Q 2441 2713 2670 2916 
Q 2900 3119 2900 3481 
Q 2900 3844 2670 4047 
Q 2441 4250 2034 4250 
Q 1625 4250 1398 4047 
Q 1172 3844 1172 3481 
z
" transform="scale(0.015625)"/>
       </defs>
       <use xlink:href="#DejaVuSans-38"/>
       <use xlink:href="#DejaVuSans-30" x="63.623047"/>
       <use xlink:href="#DejaVuSans-30" x="127.246094"/>
      </g>
     </g>
    </g>
    <g id="xtick_6">
     <g id="line2d_11">
      <path d="M 679.242622 390.04 
L 679.242622 26.88 
" clip-path="url(#p62c151e287)" style="fill: none; stroke: #b0b0b0; stroke-width: 0.8; stroke-linecap: square"/>
     </g>
     <g id="line2d_12">
      <g>
       <use xlink:href="#m4a75b9e62a" x="679.242622" y="390.04" style="stroke: #000000; stroke-width: 0.8"/>
      </g>
     </g>
     <g id="text_6">
      <!-- 1000 -->
      <g transform="translate(666.517622 404.638438) scale(0.1 -0.1)">
       <defs>
        <path id="DejaVuSans-31" d="M 794 531 
L 1825 531 
L 1825 4091 
L 703 3866 
L 703 4441 
L 1819 4666 
L 2450 4666 
L 2450 531 
L 3481 531 
L 3481 0 
L 794 0 
L 794 531 
z
" transform="scale(0.015625)"/>
       </defs>
       <use xlink:href="#DejaVuSans-31"/>
       <use xlink:href="#DejaVuSans-30" x="63.623047"/>
       <use xlink:href="#DejaVuSans-30" x="127.246094"/>
       <use xlink:href="#DejaVuSans-30" x="190.869141"/>
      </g>
     </g>
    </g>
    <g id="text_7">
     <!-- Generations -->
     <g transform="translate(349.171186 418.316562) scale(0.1 -0.1)">
      <defs>
       <path id="DejaVuSans-47" d="M 3809 666 
L 3809 1919 
L 2778 1919 
L 2778 2438 
L 4434 2438 
L 4434 434 
Q 4069 175 3628 42 
Q 3188 -91 2688 -91 
Q 1594 -91 976 548 
Q 359 1188 359 2328 
Q 359 3472 976 4111 
Q 1594 4750 2688 4750 
Q 3144 4750 3555 4637 
Q 3966 4525 4313 4306 
L 4313 3634 
Q 3963 3931 3569 4081 
Q 3175 4231 2741 4231 
Q 1884 4231 1454 3753 
Q 1025 3275 1025 2328 
Q 1025 1384 1454 906 
Q 1884 428 2741 428 
Q 3075 428 3337 486 
Q 3600 544 3809 666 
z
" transform="scale(0.015625)"/>
       <path id="DejaVuSans-65" d="M 3597 1894 
L 3597 1613 
L 953 1613 
Q 991 1019 1311 708 
Q 1631 397 2203 397 
Q 2534 397 2845 478 
Q 3156 559 3463 722 
L 3463 178 
Q 3153 47 2828 -22 
Q 2503 -91 2169 -91 
Q 1331 -91 842 396 
Q 353 884 353 1716 
Q 353 2575 817 3079 
Q 1281 3584 2069 3584 
Q 2775 3584 3186 3129 
Q 3597 2675 3597 1894 
z
M 3022 2063 
Q 3016 2534 2758 2815 
Q 2500 3097 2075 3097 
Q 1594 3097 1305 2825 
Q 1016 2553 972 2059 
L 3022 2063 
z
" transform="scale(0.015625)"/>
       <path id="DejaVuSans-6e" d="M 3513 2113 
L 3513 0 
L 2938 0 
L 2938 2094 
Q 2938 2591 2744 2837 
Q 2550 3084 2163 3084 
Q 1697 3084 1428 2787 
Q 1159 2491 1159 1978 
L 1159 0 
L 581 0 
L 581 3500 
L 1159 3500 
L 1159 2956 
Q 1366 3272 1645 3428 
Q 1925 3584 2291 3584 
Q 2894 3584 3203 3211 
Q 3513 2838 3513 2113 
z
" transform="scale(0.015625)"/>
       <path id="DejaVuSans-72" d="M 2631 2963 
Q 2534 3019 2420 3045 
Q 2306 3072 2169 3072 
Q 1681 3072 1420 2755 
Q 1159 2438 1159 1844 
L 1159 0 
L 581 0 
L 581 3500 
L 1159 3500 
L 1159 2956 
Q 1341 3275 1631 3429 
Q 1922 3584 2338 3584 
Q 2397 3584 2469 3576 
Q 2541 3569 2628 3553 
L 2631 2963 
z
" transform="scale(0.015625)"/>
       <path id="DejaVuSans-61" d="M 2194 1759 
Q 1497 1759 1228 1600 
Q 959 1441 959 1056 
Q 959 750 1161 570 
Q 1363 391 1709 391 
Q 2188 391 2477 730 
Q 2766 1069 2766 1631 
L 2766 1759 
L 2194 1759 
z
M 3341 1997 
L 3341 0 
L 2766 0 
L 2766 531 
Q 2569 213 2275 61 
Q 1981 -91 1556 -91 
Q 1019 -91 701 211 
Q 384 513 384 1019 
Q 384 1609 779 1909 
Q 1175 2209 1959 2209 
L 2766 2209 
L 2766 2266 
Q 2766 2663 2505 2880 
Q 2244 3097 1772 3097 
Q 1472 3097 1187 3025 
Q 903 2953 641 2809 
L 641 3341 
Q 956 3463 1253 3523 
Q 1550 3584 1831 3584 
Q 2591 3584 2966 3190 
Q 3341 2797 3341 1997 
z
" transform="scale(0.015625)"/>
       <path id="DejaVuSans-74" d="M 1172 4494 
L 1172 3500 
L 2356 3500 
L 2356 3053 
L 1172 3053 
L 1172 1153 
Q 1172 725 1289 603 
Q 1406 481 1766 481 
L 2356 481 
L 2356 0 
L 1766 0 
Q 1100 0 847 248 
Q 594 497 594 1153 
L 594 3053 
L 172 3053 
L 172 3500 
L 594 3500 
L 594 4494 
L 1172 4494 
z
" transform="scale(0.015625)"/>
       <path id="DejaVuSans-69" d="M 603 3500 
L 1178 3500 
L 1178 0 
L 603 0 
L 603 3500 
z
M 603 4863 
L 1178 4863 
L 1178 4134 
L 603 4134 
L 603 4863 
z
" transform="scale(0.015625)"/>
       <path id="DejaVuSans-6f" d="M 1959 3097 
Q 1497 3097 1228 2736 
Q 959 2375 959 1747 
Q 959 1119 1226 758 
Q 1494 397 1959 397 
Q 2419 397 2687 759 
Q 2956 1122 2956 1747 
Q 2956 2369 2687 2733 
Q 2419 3097 1959 3097 
z
M 1959 3584 
Q 2709 3584 3137 3096 
Q 3566 2609 3566 1747 
Q 3566 888 3137 398 
Q 2709 -91 1959 -91 
Q 1206 -91 779 398 
Q 353 888 353 1747 
Q 353 2609 779 3096 
Q 1206 3584 1959 3584 
z
" transform="scale(0.015625)"/>
       <path id="DejaVuSans-73" d="M 2834 3397 
L 2834 2853 
Q 2591 2978 2328 3040 
Q 2066 3103 1784 3103 
Q 1356 3103 1142 2972 
Q 928 2841 928 2578 
Q 928 2378 1081 2264 
Q 1234 2150 1697 2047 
L 1894 2003 
Q 2506 1872 2764 1633 
Q 3022 1394 3022 966 
Q 3022 478 2636 193 
Q 2250 -91 1575 -91 
Q 1294 -91 989 -36 
Q 684 19 347 128 
L 347 722 
Q 666 556 975 473 
Q 1284 391 1588 391 
Q 1994 391 2212 530 
Q 2431 669 2431 922 
Q 2431 1156 2273 1281 
Q 2116 1406 1581 1522 
L 1381 1569 
Q 847 1681 609 1914 
Q 372 2147 372 2553 
Q 372 3047 722 3315 
Q 1072 3584 1716 3584 
Q 2034 3584 2315 3537 
Q 2597 3491 2834 3397 
z
" transform="scale(0.015625)"/>
      </defs>
      <use xlink:href="#DejaVuSans-47"/>
      <use xlink:href="#DejaVuSans-65" x="77.490234"/>
      <use xlink:href="#DejaVuSans-6e" x="139.013672"/>
      <use xlink:href="#DejaVuSans-65" x="202.392578"/>
      <use xlink:href="#DejaVuSans-72" x="263.916016"/>
      <use xlink:href="#DejaVuSans-61" x="305.029297"/>
      <use xlink:href="#DejaVuSans-74" x="366.308594"/>
      <use xlink:href="#DejaVuSans-69" x="405.517578"/>
      <use xlink:href="#DejaVuSans-6f" x="433.300781"/>
      <use xlink:href="#DejaVuSans-6e" x="494.482422"/>
      <use xlink:href="#DejaVuSans-73" x="557.861328"/>
     </g>
    </g>
   </g>
   <g id="matplotlib.axis_2">
    <g id="ytick_1">
     <g id="line2d_13">
      <path d="M 50.137685 312.393915 
L 709.2 312.393915 
" clip-path="url(#p62c151e287)" style="fill: none; stroke: #b0b0b0; stroke-width: 0.8; stroke-linecap: square"/>
     </g>
     <g id="line2d_14">
      <defs>
       <path id="m8a72a609b2" d="M 0 0 
L -3.5 0 
" style="stroke: #000000; stroke-width: 0.8"/>
      </defs>
      <g>
       <use xlink:href="#m8a72a609b2" x="50.137685" y="312.393915" style="stroke: #000000; stroke-width: 0.8"/>
      </g>
     </g>
     <g id="text_8">
      <!-- $\mathdefault{10^{3}}$ -->
      <g transform="translate(25.537685 316.193134) scale(0.1 -0.1)">
       <defs>
        <path id="DejaVuSans-33" d="M 2597 2516 
Q 3050 2419 3304 2112 
Q 3559 1806 3559 1356 
Q 3559 666 3084 287 
Q 2609 -91 1734 -91 
Q 1441 -91 1130 -33 
Q 819 25 488 141 
L 488 750 
Q 750 597 1062 519 
Q 1375 441 1716 441 
Q 2309 441 2620 675 
Q 2931 909 2931 1356 
Q 2931 1769 2642 2001 
Q 2353 2234 1838 2234 
L 1294 2234 
L 1294 2753 
L 1863 2753 
Q 2328 2753 2575 2939 
Q 2822 3125 2822 3475 
Q 2822 3834 2567 4026 
Q 2313 4219 1838 4219 
Q 1578 4219 1281 4162 
Q 984 4106 628 3988 
L 628 4550 
Q 988 4650 1302 4700 
Q 1616 4750 1894 4750 
Q 2613 4750 3031 4423 
Q 3450 4097 3450 3541 
Q 3450 3153 3228 2886 
Q 3006 2619 2597 2516 
z
" transform="scale(0.015625)"/>
       </defs>
       <use xlink:href="#DejaVuSans-31" transform="translate(0 0.765625)"/>
       <use xlink:href="#DejaVuSans-30" transform="translate(63.623047 0.765625)"/>
       <use xlink:href="#DejaVuSans-33" transform="translate(128.203125 39.046875) scale(0.7)"/>
      </g>
     </g>
    </g>
    <g id="ytick_2">
     <g id="line2d_15">
      <path d="M 50.137685 154.202332 
L 709.2 154.202332 
" clip-path="url(#p62c151e287)" style="fill: none; stroke: #b0b0b0; stroke-width: 0.8; stroke-linecap: square"/>
     </g>
     <g id="line2d_16">
      <g>
       <use xlink:href="#m8a72a609b2" x="50.137685" y="154.202332" style="stroke: #000000; stroke-width: 0.8"/>
      </g>
     </g>
     <g id="text_9">
      <!-- $\mathdefault{10^{4}}$ -->
      <g transform="translate(25.537685 158.001551) scale(0.1 -0.1)">
       <use xlink:href="#DejaVuSans-31" transform="translate(0 0.684375)"/>
       <use xlink:href="#DejaVuSans-30" transform="translate(63.623047 0.684375)"/>
       <use xlink:href="#DejaVuSans-34" transform="translate(128.203125 38.965625) scale(0.7)"/>
      </g>
     </g>
    </g>
    <g id="ytick_3">
     <g id="line2d_17">
      <defs>
       <path id="mfeb7dfd51d" d="M 0 0 
L -2 0 
" style="stroke: #000000; stroke-width: 0.6"/>
      </defs>
      <g>
       <use xlink:href="#mfeb7dfd51d" x="50.137685" y="375.344675" style="stroke: #000000; stroke-width: 0.6"/>
      </g>
     </g>
    </g>
    <g id="ytick_4">
     <g id="line2d_18">
      <g>
       <use xlink:href="#mfeb7dfd51d" x="50.137685" y="360.014327" style="stroke: #000000; stroke-width: 0.6"/>
      </g>
     </g>
    </g>
    <g id="ytick_5">
     <g id="line2d_19">
      <g>
       <use xlink:href="#mfeb7dfd51d" x="50.137685" y="347.48852" style="stroke: #000000; stroke-width: 0.6"/>
      </g>
     </g>
    </g>
    <g id="ytick_6">
     <g id="line2d_20">
      <g>
       <use xlink:href="#mfeb7dfd51d" x="50.137685" y="336.898102" style="stroke: #000000; stroke-width: 0.6"/>
      </g>
     </g>
    </g>
    <g id="ytick_7">
     <g id="line2d_21">
      <g>
       <use xlink:href="#mfeb7dfd51d" x="50.137685" y="327.724264" style="stroke: #000000; stroke-width: 0.6"/>
      </g>
     </g>
    </g>
    <g id="ytick_8">
     <g id="line2d_22">
      <g>
       <use xlink:href="#mfeb7dfd51d" x="50.137685" y="319.632365" style="stroke: #000000; stroke-width: 0.6"/>
      </g>
     </g>
    </g>
    <g id="ytick_9">
     <g id="line2d_23">
      <g>
       <use xlink:href="#mfeb7dfd51d" x="50.137685" y="264.773504" style="stroke: #000000; stroke-width: 0.6"/>
      </g>
     </g>
    </g>
    <g id="ytick_10">
     <g id="line2d_24">
      <g>
       <use xlink:href="#mfeb7dfd51d" x="50.137685" y="236.917349" style="stroke: #000000; stroke-width: 0.6"/>
      </g>
     </g>
    </g>
    <g id="ytick_11">
     <g id="line2d_25">
      <g>
       <use xlink:href="#mfeb7dfd51d" x="50.137685" y="217.153092" style="stroke: #000000; stroke-width: 0.6"/>
      </g>
     </g>
    </g>
    <g id="ytick_12">
     <g id="line2d_26">
      <g>
       <use xlink:href="#mfeb7dfd51d" x="50.137685" y="201.822744" style="stroke: #000000; stroke-width: 0.6"/>
      </g>
     </g>
    </g>
    <g id="ytick_13">
     <g id="line2d_27">
      <g>
       <use xlink:href="#mfeb7dfd51d" x="50.137685" y="189.296937" style="stroke: #000000; stroke-width: 0.6"/>
      </g>
     </g>
    </g>
    <g id="ytick_14">
     <g id="line2d_28">
      <g>
       <use xlink:href="#mfeb7dfd51d" x="50.137685" y="178.706519" style="stroke: #000000; stroke-width: 0.6"/>
      </g>
     </g>
    </g>
    <g id="ytick_15">
     <g id="line2d_29">
      <g>
       <use xlink:href="#mfeb7dfd51d" x="50.137685" y="169.532681" style="stroke: #000000; stroke-width: 0.6"/>
      </g>
     </g>
    </g>
    <g id="ytick_16">
     <g id="line2d_30">
      <g>
       <use xlink:href="#mfeb7dfd51d" x="50.137685" y="161.440782" style="stroke: #000000; stroke-width: 0.6"/>
      </g>
     </g>
    </g>
    <g id="ytick_17">
     <g id="line2d_31">
      <g>
       <use xlink:href="#mfeb7dfd51d" x="50.137685" y="106.581921" style="stroke: #000000; stroke-width: 0.6"/>
      </g>
     </g>
    </g>
    <g id="ytick_18">
     <g id="line2d_32">
      <g>
       <use xlink:href="#mfeb7dfd51d" x="50.137685" y="78.725766" style="stroke: #000000; stroke-width: 0.6"/>
      </g>
     </g>
    </g>
    <g id="ytick_19">
     <g id="line2d_33">
      <g>
       <use xlink:href="#mfeb7dfd51d" x="50.137685" y="58.961509" style="stroke: #000000; stroke-width: 0.6"/>
      </g>
     </g>
    </g>
    <g id="ytick_20">
     <g id="line2d_34">
      <g>
       <use xlink:href="#mfeb7dfd51d" x="50.137685" y="43.631161" style="stroke: #000000; stroke-width: 0.6"/>
      </g>
     </g>
    </g>
    <g id="ytick_21">
     <g id="line2d_35">
      <g>
       <use xlink:href="#mfeb7dfd51d" x="50.137685" y="31.105354" style="stroke: #000000; stroke-width: 0.6"/>
      </g>
     </g>
    </g>
    <g id="text_10">
     <!-- Fitness (log scale) -->
     <g transform="translate(19.457997 253.363125) rotate(-90) scale(0.1 -0.1)">
      <defs>
       <path id="DejaVuSans-46" d="M 628 4666 
L 3309 4666 
L 3309 4134 
L 1259 4134 
L 1259 2759 
L 3109 2759 
L 3109 2228 
L 1259 2228 
L 1259 0 
L 628 0 
L 628 4666 
z
" transform="scale(0.015625)"/>
       <path id="DejaVuSans-20" transform="scale(0.015625)"/>
       <path id="DejaVuSans-28" d="M 1984 4856 
Q 1566 4138 1362 3434 
Q 1159 2731 1159 2009 
Q 1159 1288 1364 580 
Q 1569 -128 1984 -844 
L 1484 -844 
Q 1016 -109 783 600 
Q 550 1309 550 2009 
Q 550 2706 781 3412 
Q 1013 4119 1484 4856 
L 1984 4856 
z
" transform="scale(0.015625)"/>
       <path id="DejaVuSans-6c" d="M 603 4863 
L 1178 4863 
L 1178 0 
L 603 0 
L 603 4863 
z
" transform="scale(0.015625)"/>
       <path id="DejaVuSans-67" d="M 2906 1791 
Q 2906 2416 2648 2759 
Q 2391 3103 1925 3103 
Q 1463 3103 1205 2759 
Q 947 2416 947 1791 
Q 947 1169 1205 825 
Q 1463 481 1925 481 
Q 2391 481 2648 825 
Q 2906 1169 2906 1791 
z
M 3481 434 
Q 3481 -459 3084 -895 
Q 2688 -1331 1869 -1331 
Q 1566 -1331 1297 -1286 
Q 1028 -1241 775 -1147 
L 775 -588 
Q 1028 -725 1275 -790 
Q 1522 -856 1778 -856 
Q 2344 -856 2625 -561 
Q 2906 -266 2906 331 
L 2906 616 
Q 2728 306 2450 153 
Q 2172 0 1784 0 
Q 1141 0 747 490 
Q 353 981 353 1791 
Q 353 2603 747 3093 
Q 1141 3584 1784 3584 
Q 2172 3584 2450 3431 
Q 2728 3278 2906 2969 
L 2906 3500 
L 3481 3500 
L 3481 434 
z
" transform="scale(0.015625)"/>
       <path id="DejaVuSans-63" d="M 3122 3366 
L 3122 2828 
Q 2878 2963 2633 3030 
Q 2388 3097 2138 3097 
Q 1578 3097 1268 2742 
Q 959 2388 959 1747 
Q 959 1106 1268 751 
Q 1578 397 2138 397 
Q 2388 397 2633 464 
Q 2878 531 3122 666 
L 3122 134 
Q 2881 22 2623 -34 
Q 2366 -91 2075 -91 
Q 1284 -91 818 406 
Q 353 903 353 1747 
Q 353 2603 823 3093 
Q 1294 3584 2113 3584 
Q 2378 3584 2631 3529 
Q 2884 3475 3122 3366 
z
" transform="scale(0.015625)"/>
       <path id="DejaVuSans-29" d="M 513 4856 
L 1013 4856 
Q 1481 4119 1714 3412 
Q 1947 2706 1947 2009 
Q 1947 1309 1714 600 
Q 1481 -109 1013 -844 
L 513 -844 
Q 928 -128 1133 580 
Q 1338 1288 1338 2009 
Q 1338 2731 1133 3434 
Q 928 4138 513 4856 
z
" transform="scale(0.015625)"/>
      </defs>
      <use xlink:href="#DejaVuSans-46"/>
      <use xlink:href="#DejaVuSans-69" x="50.269531"/>
      <use xlink:href="#DejaVuSans-74" x="78.052734"/>
      <use xlink:href="#DejaVuSans-6e" x="117.261719"/>
      <use xlink:href="#DejaVuSans-65" x="180.640625"/>
      <use xlink:href="#DejaVuSans-73" x="242.164062"/>
      <use xlink:href="#DejaVuSans-73" x="294.263672"/>
      <use xlink:href="#DejaVuSans-20" x="346.363281"/>
      <use xlink:href="#DejaVuSans-28" x="378.150391"/>
      <use xlink:href="#DejaVuSans-6c" x="417.164062"/>
      <use xlink:href="#DejaVuSans-6f" x="444.947266"/>
      <use xlink:href="#DejaVuSans-67" x="506.128906"/>
      <use xlink:href="#DejaVuSans-20" x="569.605469"/>
      <use xlink:href="#DejaVuSans-73" x="601.392578"/>
      <use xlink:href="#DejaVuSans-63" x="653.492188"/>
      <use xlink:href="#DejaVuSans-61" x="708.472656"/>
      <use xlink:href="#DejaVuSans-6c" x="769.751953"/>
      <use xlink:href="#DejaVuSans-65" x="797.535156"/>
      <use xlink:href="#DejaVuSans-29" x="859.058594"/>
     </g>
    </g>
   </g>
   <g id="line2d_36">
    <path d="M 80.095063 43.387273 
L 81.894305 63.674822 
L 83.093799 78.08865 
L 87.29203 129.244134 
L 92.090009 176.819366 
L 95.088745 199.972153 
L 99.286977 228.198503 
L 99.886724 233.214047 
L 101.685966 245.510966 
L 102.285713 250.464937 
L 103.485208 257.769245 
L 105.28445 269.490741 
L 108.283186 285.354961 
L 110.082428 293.967514 
L 111.281923 299.543688 
L 115.480154 319.70645 
L 117.279396 325.593822 
L 118.47889 329.173301 
L 121.477627 338.039141 
L 122.677122 341.22984 
L 123.276869 342.193742 
L 124.476363 344.872204 
L 125.076111 345.754496 
L 125.675858 347.073368 
L 126.275605 348.093076 
L 126.875353 348.703387 
L 127.4751 349.944871 
L 128.074847 350.582712 
L 129.274342 352.362303 
L 132.273078 355.43801 
L 132.872826 355.722262 
L 133.472573 356.268292 
L 135.871562 357.589848 
L 137.670804 358.108652 
L 138.270551 358.304498 
L 139.470046 358.862969 
L 141.869035 359.294 
L 143.668277 359.578312 
L 150.265498 360.381256 
L 150.865245 360.814072 
L 153.264234 361.041966 
L 156.862718 361.497695 
L 158.062213 361.677646 
L 159.261707 361.771557 
L 160.461202 361.988042 
L 162.860191 362.057838 
L 165.858928 362.210412 
L 166.458675 362.210412 
L 167.058422 362.366643 
L 170.656906 362.459603 
L 172.456148 362.640666 
L 174.855137 362.785957 
L 176.654379 362.875666 
L 178.453621 362.99036 
L 183.251599 363.15365 
L 184.451094 363.411104 
L 188.049578 363.617861 
L 191.048314 363.884331 
L 195.246546 363.962389 
L 197.045788 364.056077 
L 199.444777 364.146975 
L 201.843766 364.257479 
L 203.043261 364.342302 
L 204.842503 364.496618 
L 209.640481 364.738065 
L 210.240228 364.93459 
L 220.435932 365.188941 
L 226.433406 365.479935 
L 227.6329 365.492334 
L 228.832395 365.597573 
L 255.821024 366.00865 
L 267.216222 366.114682 
L 268.415717 366.20935 
L 277.411927 366.312681 
L 283.4094 366.478536 
L 285.208642 366.53391 
L 289.406873 366.618064 
L 293.605104 366.734133 
L 310.398028 366.830164 
L 313.996512 366.851916 
L 333.788173 366.950646 
L 339.785646 367.013501 
L 354.179582 367.09926 
L 355.379076 367.174451 
L 359.577308 367.282809 
L 361.976297 367.310816 
L 364.975033 367.410208 
L 367.374023 367.446432 
L 378.169474 367.549598 
L 399.16063 367.870297 
L 475.328538 367.974102 
L 477.727527 368.00548 
L 495.719946 368.102275 
L 502.916914 368.27148 
L 533.504027 368.362962 
L 534.703521 368.436443 
L 543.699731 368.538514 
L 544.899225 368.627757 
L 588.081031 368.731153 
L 592.279263 368.752996 
L 625.865112 368.85033 
L 627.664354 368.898267 
L 679.242622 368.958236 
L 679.242622 368.958236 
" clip-path="url(#p62c151e287)" style="fill: none; stroke: #1f77b4; stroke-width: 1.5; stroke-linecap: square"/>
   </g>
   <g id="line2d_37">
    <path d="M 80.095063 44.761954 
L 82.494052 80.116188 
L 83.693547 98.488129 
L 86.692283 139.513345 
L 88.491525 160.34074 
L 90.890514 182.857896 
L 92.090009 192.576315 
L 93.889251 205.228232 
L 95.688493 218.132688 
L 98.087482 234.120356 
L 102.285713 263.615616 
L 106.483944 288.74211 
L 108.882933 300.385121 
L 110.082428 305.786633 
L 110.682175 308.758565 
L 112.481417 315.491301 
L 115.480154 326.232573 
L 120.87788 339.378304 
L 122.677122 342.616607 
L 124.476363 344.834371 
L 125.076111 345.350031 
L 125.675858 346.088019 
L 128.074847 348.045346 
L 130.473836 349.560663 
L 131.073584 350.08346 
L 132.273078 350.573929 
L 136.47131 351.845526 
L 137.071057 352.266901 
L 138.270551 352.517769 
L 139.470046 352.711877 
L 141.269288 353.33158 
L 141.869035 353.45636 
L 142.468783 353.768053 
L 149.066003 355.10502 
L 149.66575 355.317708 
L 151.464992 355.573978 
L 152.06474 355.776068 
L 152.664487 355.850173 
L 154.463729 356.308639 
L 159.261707 357.175937 
L 160.461202 357.210225 
L 161.060949 357.442335 
L 162.260444 357.674347 
L 163.459938 357.982252 
L 164.659433 358.151432 
L 165.858928 358.310306 
L 176.054632 359.261375 
L 180.252863 359.47826 
L 185.650589 360.426857 
L 193.447304 361.06196 
L 194.646798 361.497227 
L 195.846293 361.690786 
L 197.045788 361.84772 
L 199.444777 362.190553 
L 200.044524 362.435876 
L 202.443513 362.553164 
L 203.643008 362.872324 
L 209.040734 363.006623 
L 209.640481 363.126807 
L 210.240228 363.126807 
L 210.839976 363.347611 
L 212.639217 363.489107 
L 213.838712 363.700931 
L 219.836185 364.351571 
L 235.429615 365.066577 
L 239.627846 365.172646 
L 243.22633 365.414998 
L 243.826077 365.565289 
L 252.22254 365.666163 
L 254.021782 365.901283 
L 256.420771 365.955195 
L 257.620265 366.026144 
L 266.616475 366.088659 
L 267.81597 366.176778 
L 279.810916 366.466964 
L 282.209905 366.726052 
L 285.208642 366.844328 
L 287.607631 366.918226 
L 294.204851 367.028717 
L 294.804598 367.03937 
L 295.404346 367.330173 
L 299.602577 367.641658 
L 305.60005 367.746656 
L 321.793227 367.984388 
L 324.192217 368.018858 
L 332.588679 368.087335 
L 333.788173 368.162584 
L 355.379076 368.256503 
L 358.377813 368.294727 
L 390.764168 368.389344 
L 398.560883 368.684372 
L 400.360124 368.973888 
L 411.755323 369.058996 
L 412.954818 369.118582 
L 424.949764 369.321248 
L 426.749006 369.501372 
L 451.938393 369.61136 
L 453.737635 369.660358 
L 469.930812 369.770072 
L 472.329801 369.812845 
L 473.529296 369.912223 
L 516.111355 370.010155 
L 519.709838 370.031348 
L 531.704785 370.072693 
L 532.904279 370.142719 
L 537.10251 370.229288 
L 538.901752 370.344174 
L 550.296951 370.441658 
L 556.894171 370.50299 
L 577.28558 370.601769 
L 577.885327 370.798682 
L 619.867639 370.899497 
L 622.866375 370.922039 
L 679.242622 370.990787 
L 679.242622 370.990787 
" clip-path="url(#p62c151e287)" style="fill: none; stroke: #aec7e8; stroke-width: 1.5; stroke-linecap: square"/>
   </g>
   <g id="line2d_38">
    <path d="M 80.095063 47.060371 
L 81.894305 77.684695 
L 83.693547 108.244982 
L 86.092536 141.986841 
L 87.891778 160.524761 
L 89.091272 170.048472 
L 90.290767 178.421703 
L 93.289503 197.357755 
L 105.884197 278.49196 
L 111.281923 307.208202 
L 114.880407 321.341998 
L 116.079901 324.852976 
L 118.47889 330.846509 
L 120.278132 334.414024 
L 121.477627 336.363009 
L 122.077374 337.927468 
L 123.276869 339.994632 
L 126.875353 343.777625 
L 128.674595 345.056526 
L 131.073584 346.482194 
L 132.273078 346.837044 
L 133.472573 347.760046 
L 134.07232 347.968049 
L 134.672068 348.337632 
L 135.871562 348.685908 
L 137.071057 348.917777 
L 138.270551 349.349358 
L 138.870299 349.867383 
L 140.069793 350.510883 
L 143.06853 351.341083 
L 143.668277 351.443697 
L 144.268025 352.051199 
L 146.067266 353.009447 
L 146.667014 353.203292 
L 147.266761 353.276333 
L 147.866508 353.712454 
L 149.066003 354.072343 
L 149.66575 354.483976 
L 151.464992 354.972955 
L 152.664487 355.435439 
L 162.260444 357.929802 
L 162.860191 358.560517 
L 164.659433 358.7127 
L 166.458675 358.990551 
L 168.257917 359.161783 
L 170.057159 359.679878 
L 170.656906 359.99143 
L 171.256653 360.034941 
L 172.456148 360.279109 
L 174.25539 360.450822 
L 176.054632 361.136874 
L 177.853874 361.445766 
L 180.85261 361.796935 
L 182.052105 362.028591 
L 183.251599 362.133374 
L 184.451094 362.427337 
L 185.050841 362.681602 
L 188.049578 362.873279 
L 189.84882 363.112432 
L 191.648062 363.208806 
L 192.247809 363.411585 
L 194.646798 363.53489 
L 195.846293 363.669043 
L 200.044524 363.891115 
L 200.644271 364.015285 
L 203.043261 364.117797 
L 203.643008 364.296953 
L 205.44225 364.477554 
L 206.041997 364.733159 
L 206.641744 364.733159 
L 207.841239 364.931146 
L 212.639217 365.157836 
L 215.637954 365.410539 
L 219.836185 365.496799 
L 221.635427 365.734823 
L 224.034416 365.811026 
L 224.634164 365.887812 
L 225.233911 366.134206 
L 230.031889 366.277551 
L 230.631637 366.277551 
L 231.831131 366.460927 
L 234.230121 366.745751 
L 237.828604 366.750802 
L 239.627846 367.063218 
L 241.427088 367.135321 
L 243.22633 367.332211 
L 246.824814 367.430103 
L 247.424561 367.543465 
L 249.823551 367.648824 
L 252.22254 368.043049 
L 253.422034 368.281294 
L 255.221276 368.358825 
L 255.821024 368.495491 
L 258.81976 368.618412 
L 262.418244 368.758197 
L 263.017991 368.758197 
L 263.617739 368.895661 
L 269.015464 368.97441 
L 270.214959 369.090351 
L 272.014201 369.134271 
L 278.611421 369.206488 
L 281.01041 369.300273 
L 283.4094 369.370564 
L 284.009147 369.515045 
L 285.808389 369.607673 
L 286.408136 369.969907 
L 287.007884 370.008036 
L 288.207378 370.247359 
L 289.406873 370.384642 
L 290.606367 370.619404 
L 291.206115 370.829232 
L 292.405609 370.91023 
L 294.204851 371.01981 
L 305.60005 371.842926 
L 319.394238 371.928397 
L 321.19348 372.006885 
L 330.789437 372.100205 
L 331.988932 372.16249 
L 356.578571 372.271897 
L 358.377813 372.315709 
L 387.165684 372.392995 
L 388.964926 372.431945 
L 394.962399 372.509911 
L 396.161893 372.579167 
L 426.149259 372.684834 
L 430.34749 372.731115 
L 438.743952 372.827081 
L 439.943447 373.101931 
L 444.141678 373.201192 
L 447.140414 373.228388 
L 545.498973 373.33506 
L 555.694677 373.341732 
L 569.488865 373.435214 
L 572.487601 373.46139 
L 679.242622 373.532727 
L 679.242622 373.532727 
" clip-path="url(#p62c151e287)" style="fill: none; stroke: #ff7f0e; stroke-width: 1.5; stroke-linecap: square"/>
   </g>
   <g id="line2d_39"/>
   <g id="line2d_40"/>
   <g id="line2d_41"/>
   <g id="patch_3">
    <path d="M 50.137685 390.04 
L 50.137685 26.88 
" style="fill: none; stroke: #000000; stroke-width: 0.8; stroke-linejoin: miter; stroke-linecap: square"/>
   </g>
   <g id="patch_4">
    <path d="M 709.2 390.04 
L 709.2 26.88 
" style="fill: none; stroke: #000000; stroke-width: 0.8; stroke-linejoin: miter; stroke-linecap: square"/>
   </g>
   <g id="patch_5">
    <path d="M 50.137685 390.04 
L 709.2 390.04 
" style="fill: none; stroke: #000000; stroke-width: 0.8; stroke-linejoin: miter; stroke-linecap: square"/>
   </g>
   <g id="patch_6">
    <path d="M 50.137685 26.88 
L 709.2 26.88 
" style="fill: none; stroke: #000000; stroke-width: 0.8; stroke-linejoin: miter; stroke-linecap: square"/>
   </g>
   <g id="text_11">
    <!-- Selection Method Comparison: Fitness over Generations -->
    <g transform="translate(211.275092 20.88) scale(0.12 -0.12)">
     <defs>
      <path id="DejaVuSans-53" d="M 3425 4513 
L 3425 3897 
Q 3066 4069 2747 4153 
Q 2428 4238 2131 4238 
Q 1616 4238 1336 4038 
Q 1056 3838 1056 3469 
Q 1056 3159 1242 3001 
Q 1428 2844 1947 2747 
L 2328 2669 
Q 3034 2534 3370 2195 
Q 3706 1856 3706 1288 
Q 3706 609 3251 259 
Q 2797 -91 1919 -91 
Q 1588 -91 1214 -16 
Q 841 59 441 206 
L 441 856 
Q 825 641 1194 531 
Q 1563 422 1919 422 
Q 2459 422 2753 634 
Q 3047 847 3047 1241 
Q 3047 1584 2836 1778 
Q 2625 1972 2144 2069 
L 1759 2144 
Q 1053 2284 737 2584 
Q 422 2884 422 3419 
Q 422 4038 858 4394 
Q 1294 4750 2059 4750 
Q 2388 4750 2728 4690 
Q 3069 4631 3425 4513 
z
" transform="scale(0.015625)"/>
      <path id="DejaVuSans-4d" d="M 628 4666 
L 1569 4666 
L 2759 1491 
L 3956 4666 
L 4897 4666 
L 4897 0 
L 4281 0 
L 4281 4097 
L 3078 897 
L 2444 897 
L 1241 4097 
L 1241 0 
L 628 0 
L 628 4666 
z
" transform="scale(0.015625)"/>
      <path id="DejaVuSans-68" d="M 3513 2113 
L 3513 0 
L 2938 0 
L 2938 2094 
Q 2938 2591 2744 2837 
Q 2550 3084 2163 3084 
Q 1697 3084 1428 2787 
Q 1159 2491 1159 1978 
L 1159 0 
L 581 0 
L 581 4863 
L 1159 4863 
L 1159 2956 
Q 1366 3272 1645 3428 
Q 1925 3584 2291 3584 
Q 2894 3584 3203 3211 
Q 3513 2838 3513 2113 
z
" transform="scale(0.015625)"/>
      <path id="DejaVuSans-64" d="M 2906 2969 
L 2906 4863 
L 3481 4863 
L 3481 0 
L 2906 0 
L 2906 525 
Q 2725 213 2448 61 
Q 2172 -91 1784 -91 
Q 1150 -91 751 415 
Q 353 922 353 1747 
Q 353 2572 751 3078 
Q 1150 3584 1784 3584 
Q 2172 3584 2448 3432 
Q 2725 3281 2906 2969 
z
M 947 1747 
Q 947 1113 1208 752 
Q 1469 391 1925 391 
Q 2381 391 2643 752 
Q 2906 1113 2906 1747 
Q 2906 2381 2643 2742 
Q 2381 3103 1925 3103 
Q 1469 3103 1208 2742 
Q 947 2381 947 1747 
z
" transform="scale(0.015625)"/>
      <path id="DejaVuSans-43" d="M 4122 4306 
L 4122 3641 
Q 3803 3938 3442 4084 
Q 3081 4231 2675 4231 
Q 1875 4231 1450 3742 
Q 1025 3253 1025 2328 
Q 1025 1406 1450 917 
Q 1875 428 2675 428 
Q 3081 428 3442 575 
Q 3803 722 4122 1019 
L 4122 359 
Q 3791 134 3420 21 
Q 3050 -91 2638 -91 
Q 1578 -91 968 557 
Q 359 1206 359 2328 
Q 359 3453 968 4101 
Q 1578 4750 2638 4750 
Q 3056 4750 3426 4639 
Q 3797 4528 4122 4306 
z
" transform="scale(0.015625)"/>
      <path id="DejaVuSans-6d" d="M 3328 2828 
Q 3544 3216 3844 3400 
Q 4144 3584 4550 3584 
Q 5097 3584 5394 3201 
Q 5691 2819 5691 2113 
L 5691 0 
L 5113 0 
L 5113 2094 
Q 5113 2597 4934 2840 
Q 4756 3084 4391 3084 
Q 3944 3084 3684 2787 
Q 3425 2491 3425 1978 
L 3425 0 
L 2847 0 
L 2847 2094 
Q 2847 2600 2669 2842 
Q 2491 3084 2119 3084 
Q 1678 3084 1418 2786 
Q 1159 2488 1159 1978 
L 1159 0 
L 581 0 
L 581 3500 
L 1159 3500 
L 1159 2956 
Q 1356 3278 1631 3431 
Q 1906 3584 2284 3584 
Q 2666 3584 2933 3390 
Q 3200 3197 3328 2828 
z
" transform="scale(0.015625)"/>
      <path id="DejaVuSans-70" d="M 1159 525 
L 1159 -1331 
L 581 -1331 
L 581 3500 
L 1159 3500 
L 1159 2969 
Q 1341 3281 1617 3432 
Q 1894 3584 2278 3584 
Q 2916 3584 3314 3078 
Q 3713 2572 3713 1747 
Q 3713 922 3314 415 
Q 2916 -91 2278 -91 
Q 1894 -91 1617 61 
Q 1341 213 1159 525 
z
M 3116 1747 
Q 3116 2381 2855 2742 
Q 2594 3103 2138 3103 
Q 1681 3103 1420 2742 
Q 1159 2381 1159 1747 
Q 1159 1113 1420 752 
Q 1681 391 2138 391 
Q 2594 391 2855 752 
Q 3116 1113 3116 1747 
z
" transform="scale(0.015625)"/>
      <path id="DejaVuSans-3a" d="M 750 794 
L 1409 794 
L 1409 0 
L 750 0 
L 750 794 
z
M 750 3309 
L 1409 3309 
L 1409 2516 
L 750 2516 
L 750 3309 
z
" transform="scale(0.015625)"/>
      <path id="DejaVuSans-76" d="M 191 3500 
L 800 3500 
L 1894 563 
L 2988 3500 
L 3597 3500 
L 2284 0 
L 1503 0 
L 191 3500 
z
" transform="scale(0.015625)"/>
     </defs>
     <use xlink:href="#DejaVuSans-53"/>
     <use xlink:href="#DejaVuSans-65" x="63.476562"/>
     <use xlink:href="#DejaVuSans-6c" x="125"/>
     <use xlink:href="#DejaVuSans-65" x="152.783203"/>
     <use xlink:href="#DejaVuSans-63" x="214.306641"/>
     <use xlink:href="#DejaVuSans-74" x="269.287109"/>
     <use xlink:href="#DejaVuSans-69" x="308.496094"/>
     <use xlink:href="#DejaVuSans-6f" x="336.279297"/>
     <use xlink:href="#DejaVuSans-6e" x="397.460938"/>
     <use xlink:href="#DejaVuSans-20" x="460.839844"/>
     <use xlink:href="#DejaVuSans-4d" x="492.626953"/>
     <use xlink:href="#DejaVuSans-65" x="578.90625"/>
     <use xlink:href="#DejaVuSans-74" x="640.429688"/>
     <use xlink:href="#DejaVuSans-68" x="679.638672"/>
     <use xlink:href="#DejaVuSans-6f" x="743.017578"/>
     <use xlink:href="#DejaVuSans-64" x="804.199219"/>
     <use xlink:href="#DejaVuSans-20" x="867.675781"/>
     <use xlink:href="#DejaVuSans-43" x="899.462891"/>
     <use xlink:href="#DejaVuSans-6f" x="969.287109"/>
     <use xlink:href="#DejaVuSans-6d" x="1030.46875"/>
     <use xlink:href="#DejaVuSans-70" x="1127.880859"/>
     <use xlink:href="#DejaVuSans-61" x="1191.357422"/>
     <use xlink:href="#DejaVuSans-72" x="1252.636719"/>
     <use xlink:href="#DejaVuSans-69" x="1293.75"/>
     <use xlink:href="#DejaVuSans-73" x="1321.533203"/>
     <use xlink:href="#DejaVuSans-6f" x="1373.632812"/>
     <use xlink:href="#DejaVuSans-6e" x="1434.814453"/>
     <use xlink:href="#DejaVuSans-3a" x="1498.193359"/>
     <use xlink:href="#DejaVuSans-20" x="1531.884766"/>
     <use xlink:href="#DejaVuSans-46" x="1563.671875"/>
     <use xlink:href="#DejaVuSans-69" x="1613.941406"/>
     <use xlink:href="#DejaVuSans-74" x="1641.724609"/>
     <use xlink:href="#DejaVuSans-6e" x="1680.933594"/>
     <use xlink:href="#DejaVuSans-65" x="1744.3125"/>
     <use xlink:href="#DejaVuSans-73" x="1805.835938"/>
     <use xlink:href="#DejaVuSans-73" x="1857.935547"/>
     <use xlink:href="#DejaVuSans-20" x="1910.035156"/>
     <use xlink:href="#DejaVuSans-6f" x="1941.822266"/>
     <use xlink:href="#DejaVuSans-76" x="2003.003906"/>
     <use xlink:href="#DejaVuSans-65" x="2062.183594"/>
     <use xlink:href="#DejaVuSans-72" x="2123.707031"/>
     <use xlink:href="#DejaVuSans-20" x="2164.820312"/>
     <use xlink:href="#DejaVuSans-47" x="2196.607422"/>
     <use xlink:href="#DejaVuSans-65" x="2274.097656"/>
     <use xlink:href="#DejaVuSans-6e" x="2335.621094"/>
     <use xlink:href="#DejaVuSans-65" x="2399"/>
     <use xlink:href="#DejaVuSans-72" x="2460.523438"/>
     <use xlink:href="#DejaVuSans-61" x="2501.636719"/>
     <use xlink:href="#DejaVuSans-74" x="2562.916016"/>
     <use xlink:href="#DejaVuSans-69" x="2602.125"/>
     <use xlink:href="#DejaVuSans-6f" x="2629.908203"/>
     <use xlink:href="#DejaVuSans-6e" x="2691.089844"/>
     <use xlink:href="#DejaVuSans-73" x="2754.46875"/>
    </g>
   </g>
   <g id="legend_1">
    <g id="patch_7">
     <path d="M 592.129688 94.14875 
L 702.2 94.14875 
Q 704.2 94.14875 704.2 92.14875 
L 704.2 33.88 
Q 704.2 31.88 702.2 31.88 
L 592.129688 31.88 
Q 590.129688 31.88 590.129688 33.88 
L 590.129688 92.14875 
Q 590.129688 94.14875 592.129688 94.14875 
z
" style="fill: #ffffff; opacity: 0.8; stroke: #cccccc; stroke-linejoin: miter"/>
    </g>
    <g id="text_12">
     <!-- Selection Method -->
     <g transform="translate(603.779688 43.478437) scale(0.1 -0.1)">
      <use xlink:href="#DejaVuSans-53"/>
      <use xlink:href="#DejaVuSans-65" x="63.476562"/>
      <use xlink:href="#DejaVuSans-6c" x="125"/>
      <use xlink:href="#DejaVuSans-65" x="152.783203"/>
      <use xlink:href="#DejaVuSans-63" x="214.306641"/>
      <use xlink:href="#DejaVuSans-74" x="269.287109"/>
      <use xlink:href="#DejaVuSans-69" x="308.496094"/>
      <use xlink:href="#DejaVuSans-6f" x="336.279297"/>
      <use xlink:href="#DejaVuSans-6e" x="397.460938"/>
      <use xlink:href="#DejaVuSans-20" x="460.839844"/>
      <use xlink:href="#DejaVuSans-4d" x="492.626953"/>
      <use xlink:href="#DejaVuSans-65" x="578.90625"/>
      <use xlink:href="#DejaVuSans-74" x="640.429688"/>
      <use xlink:href="#DejaVuSans-68" x="679.638672"/>
      <use xlink:href="#DejaVuSans-6f" x="743.017578"/>
      <use xlink:href="#DejaVuSans-64" x="804.199219"/>
     </g>
    </g>
    <g id="line2d_42">
     <path d="M 594.129688 54.656563 
L 604.129688 54.656563 
L 614.129688 54.656563 
" style="fill: none; stroke: #1f77b4; stroke-width: 1.5; stroke-linecap: square"/>
    </g>
    <g id="text_13">
     <!-- fps -->
     <g transform="translate(622.129688 58.156563) scale(0.1 -0.1)">
      <defs>
       <path id="DejaVuSans-66" d="M 2375 4863 
L 2375 4384 
L 1825 4384 
Q 1516 4384 1395 4259 
Q 1275 4134 1275 3809 
L 1275 3500 
L 2222 3500 
L 2222 3053 
L 1275 3053 
L 1275 0 
L 697 0 
L 697 3053 
L 147 3053 
L 147 3500 
L 697 3500 
L 697 3744 
Q 697 4328 969 4595 
Q 1241 4863 1831 4863 
L 2375 4863 
z
" transform="scale(0.015625)"/>
      </defs>
      <use xlink:href="#DejaVuSans-66"/>
      <use xlink:href="#DejaVuSans-70" x="35.205078"/>
      <use xlink:href="#DejaVuSans-73" x="98.681641"/>
     </g>
    </g>
    <g id="line2d_43">
     <path d="M 594.129688 69.334688 
L 604.129688 69.334688 
L 614.129688 69.334688 
" style="fill: none; stroke: #aec7e8; stroke-width: 1.5; stroke-linecap: square"/>
    </g>
    <g id="text_14">
     <!-- rank_sel -->
     <g transform="translate(622.129688 72.834688) scale(0.1 -0.1)">
      <defs>
       <path id="DejaVuSans-6b" d="M 581 4863 
L 1159 4863 
L 1159 1991 
L 2875 3500 
L 3609 3500 
L 1753 1863 
L 3688 0 
L 2938 0 
L 1159 1709 
L 1159 0 
L 581 0 
L 581 4863 
z
" transform="scale(0.015625)"/>
       <path id="DejaVuSans-5f" d="M 3263 -1063 
L 3263 -1509 
L -63 -1509 
L -63 -1063 
L 3263 -1063 
z
" transform="scale(0.015625)"/>
      </defs>
      <use xlink:href="#DejaVuSans-72"/>
      <use xlink:href="#DejaVuSans-61" x="41.113281"/>
      <use xlink:href="#DejaVuSans-6e" x="102.392578"/>
      <use xlink:href="#DejaVuSans-6b" x="165.771484"/>
      <use xlink:href="#DejaVuSans-5f" x="223.681641"/>
      <use xlink:href="#DejaVuSans-73" x="273.681641"/>
      <use xlink:href="#DejaVuSans-65" x="325.78125"/>
      <use xlink:href="#DejaVuSans-6c" x="387.304688"/>
     </g>
    </g>
    <g id="line2d_44">
     <path d="M 594.129688 84.290937 
L 604.129688 84.290937 
L 614.129688 84.290937 
" style="fill: none; stroke: #ff7f0e; stroke-width: 1.5; stroke-linecap: square"/>
    </g>
    <g id="text_15">
     <!-- tournament_sel -->
     <g transform="translate(622.129688 87.790937) scale(0.1 -0.1)">
      <defs>
       <path id="DejaVuSans-75" d="M 544 1381 
L 544 3500 
L 1119 3500 
L 1119 1403 
Q 1119 906 1312 657 
Q 1506 409 1894 409 
Q 2359 409 2629 706 
Q 2900 1003 2900 1516 
L 2900 3500 
L 3475 3500 
L 3475 0 
L 2900 0 
L 2900 538 
Q 2691 219 2414 64 
Q 2138 -91 1772 -91 
Q 1169 -91 856 284 
Q 544 659 544 1381 
z
M 1991 3584 
L 1991 3584 
z
" transform="scale(0.015625)"/>
      </defs>
      <use xlink:href="#DejaVuSans-74"/>
      <use xlink:href="#DejaVuSans-6f" x="39.208984"/>
      <use xlink:href="#DejaVuSans-75" x="100.390625"/>
      <use xlink:href="#DejaVuSans-72" x="163.769531"/>
      <use xlink:href="#DejaVuSans-6e" x="203.132812"/>
      <use xlink:href="#DejaVuSans-61" x="266.511719"/>
      <use xlink:href="#DejaVuSans-6d" x="327.791016"/>
      <use xlink:href="#DejaVuSans-65" x="425.203125"/>
      <use xlink:href="#DejaVuSans-6e" x="486.726562"/>
      <use xlink:href="#DejaVuSans-74" x="550.105469"/>
      <use xlink:href="#DejaVuSans-5f" x="589.314453"/>
      <use xlink:href="#DejaVuSans-73" x="639.314453"/>
      <use xlink:href="#DejaVuSans-65" x="691.414062"/>
      <use xlink:href="#DejaVuSans-6c" x="752.9375"/>
     </g>
    </g>
   </g>
  </g>
 </g>
 <defs>
  <clipPath id="p62c151e287">
   <rect x="50.137685" y="26.88" width="659.062315" height="363.16"/>
  </clipPath>
 </defs>
</svg>
