<?xml version="1.0" encoding="utf-8" standalone="no"?>
<!DOCTYPE svg PUBLIC "-//W3C//DTD SVG 1.1//EN"
  "http://www.w3.org/Graphics/SVG/1.1/DTD/svg11.dtd">
<svg xmlns:xlink="http://www.w3.org/1999/xlink" width="720pt" height="432pt" viewBox="0 0 720 432" xmlns="http://www.w3.org/2000/svg" version="1.1">
 <metadata>
  <rdf:RDF xmlns:dc="http://purl.org/dc/elements/1.1/" xmlns:cc="http://creativecommons.org/ns#" xmlns:rdf="http://www.w3.org/1999/02/22-rdf-syntax-ns#">
   <cc:Work>
    <dc:type rdf:resource="http://purl.org/dc/dcmitype/StillImage"/>
    <dc:date>2024-06-02T10:53:15.731093</dc:date>
    <dc:format>image/svg+xml</dc:format>
    <dc:creator>
     <cc:Agent>
      <dc:title>Matplotlib v3.8.4, https://matplotlib.org/</dc:title>
     </cc:Agent>
    </dc:creator>
   </cc:Work>
  </rdf:RDF>
 </metadata>
 <defs>
  <style type="text/css">*{stroke-linejoin: round; stroke-linecap: butt}</style>
 </defs>
 <g id="figure_1">
  <g id="patch_1">
   <path d="M 0 432 
L 720 432 
L 720 0 
L 0 0 
z
" style="fill: #ffffff"/>
  </g>
  <g id="axes_1">
   <g id="patch_2">
    <path d="M 50.137685 390.04 
L 709.2 390.04 
L 709.2 26.88 
L 50.137685 26.88 
z
" style="fill: #ffffff"/>
   </g>
   <g id="PolyCollection_1"/>
   <g id="PolyCollection_2"/>
   <g id="PolyCollection_3"/>
   <g id="PolyCollection_4"/>
   <g id="PolyCollection_5"/>
   <g id="PolyCollection_6"/>
   <g id="PolyCollection_7"/>
   <g id="PolyCollection_8"/>
   <g id="PolyCollection_9"/>
   <g id="PolyCollection_10"/>
   <g id="matplotlib.axis_1">
    <g id="xtick_1">
     <g id="line2d_1">
      <path d="M 74.043067 390.04 
L 74.043067 26.88 
" clip-path="url(#p0cb0bde138)" style="fill: none; stroke: #b0b0b0; stroke-width: 0.8; stroke-linecap: square"/>
     </g>
     <g id="line2d_2">
      <defs>
       <path id="m5bfb1ee366" d="M 0 0 
L 0 3.5 
" style="stroke: #000000; stroke-width: 0.8"/>
      </defs>
      <g>
       <use xlink:href="#m5bfb1ee366" x="74.043067" y="390.04" style="stroke: #000000; stroke-width: 0.8"/>
      </g>
     </g>
     <g id="text_1">
      <!-- 0 -->
      <g transform="translate(70.861817 404.638438) scale(0.1 -0.1)">
       <defs>
        <path id="DejaVuSans-30" d="M 2034 4250 
Q 1547 4250 1301 3770 
Q 1056 3291 1056 2328 
Q 1056 1369 1301 889 
Q 1547 409 2034 409 
Q 2525 409 2770 889 
Q 3016 1369 3016 2328 
Q 3016 3291 2770 3770 
Q 2525 4250 2034 4250 
z
M 2034 4750 
Q 2819 4750 3233 4129 
Q 3647 3509 3647 2328 
Q 3647 1150 3233 529 
Q 2819 -91 2034 -91 
Q 1250 -91 836 529 
Q 422 1150 422 2328 
Q 422 3509 836 4129 
Q 1250 4750 2034 4750 
z
" transform="scale(0.015625)"/>
       </defs>
       <use xlink:href="#DejaVuSans-30"/>
      </g>
     </g>
    </g>
    <g id="xtick_2">
     <g id="line2d_3">
      <path d="M 195.082978 390.04 
L 195.082978 26.88 
" clip-path="url(#p0cb0bde138)" style="fill: none; stroke: #b0b0b0; stroke-width: 0.8; stroke-linecap: square"/>
     </g>
     <g id="line2d_4">
      <g>
       <use xlink:href="#m5bfb1ee366" x="195.082978" y="390.04" style="stroke: #000000; stroke-width: 0.8"/>
      </g>
     </g>
     <g id="text_2">
      <!-- 20 -->
      <g transform="translate(188.720478 404.638438) scale(0.1 -0.1)">
       <defs>
        <path id="DejaVuSans-32" d="M 1228 531 
L 3431 531 
L 3431 0 
L 469 0 
L 469 531 
Q 828 903 1448 1529 
Q 2069 2156 2228 2338 
Q 2531 2678 2651 2914 
Q 2772 3150 2772 3378 
Q 2772 3750 2511 3984 
Q 2250 4219 1831 4219 
Q 1534 4219 1204 4116 
Q 875 4013 500 3803 
L 500 4441 
Q 881 4594 1212 4672 
Q 1544 4750 1819 4750 
Q 2544 4750 2975 4387 
Q 3406 4025 3406 3419 
Q 3406 3131 3298 2873 
Q 3191 2616 2906 2266 
Q 2828 2175 2409 1742 
Q 1991 1309 1228 531 
z
" transform="scale(0.015625)"/>
       </defs>
       <use xlink:href="#DejaVuSans-32"/>
       <use xlink:href="#DejaVuSans-30" x="63.623047"/>
      </g>
     </g>
    </g>
    <g id="xtick_3">
     <g id="line2d_5">
      <path d="M 316.122889 390.04 
L 316.122889 26.88 
" clip-path="url(#p0cb0bde138)" style="fill: none; stroke: #b0b0b0; stroke-width: 0.8; stroke-linecap: square"/>
     </g>
     <g id="line2d_6">
      <g>
       <use xlink:href="#m5bfb1ee366" x="316.122889" y="390.04" style="stroke: #000000; stroke-width: 0.8"/>
      </g>
     </g>
     <g id="text_3">
      <!-- 40 -->
      <g transform="translate(309.760389 404.638438) scale(0.1 -0.1)">
       <defs>
        <path id="DejaVuSans-34" d="M 2419 4116 
L 825 1625 
L 2419 1625 
L 2419 4116 
z
M 2253 4666 
L 3047 4666 
L 3047 1625 
L 3713 1625 
L 3713 1100 
L 3047 1100 
L 3047 0 
L 2419 0 
L 2419 1100 
L 313 1100 
L 313 1709 
L 2253 4666 
z
" transform="scale(0.015625)"/>
       </defs>
       <use xlink:href="#DejaVuSans-34"/>
       <use xlink:href="#DejaVuSans-30" x="63.623047"/>
      </g>
     </g>
    </g>
    <g id="xtick_4">
     <g id="line2d_7">
      <path d="M 437.1628 390.04 
L 437.1628 26.88 
" clip-path="url(#p0cb0bde138)" style="fill: none; stroke: #b0b0b0; stroke-width: 0.8; stroke-linecap: square"/>
     </g>
     <g id="line2d_8">
      <g>
       <use xlink:href="#m5bfb1ee366" x="437.1628" y="390.04" style="stroke: #000000; stroke-width: 0.8"/>
      </g>
     </g>
     <g id="text_4">
      <!-- 60 -->
      <g transform="translate(430.8003 404.638438) scale(0.1 -0.1)">
       <defs>
        <path id="DejaVuSans-36" d="M 2113 2584 
Q 1688 2584 1439 2293 
Q 1191 2003 1191 1497 
Q 1191 994 1439 701 
Q 1688 409 2113 409 
Q 2538 409 2786 701 
Q 3034 994 3034 1497 
Q 3034 2003 2786 2293 
Q 2538 2584 2113 2584 
z
M 3366 4563 
L 3366 3988 
Q 3128 4100 2886 4159 
Q 2644 4219 2406 4219 
Q 1781 4219 1451 3797 
Q 1122 3375 1075 2522 
Q 1259 2794 1537 2939 
Q 1816 3084 2150 3084 
Q 2853 3084 3261 2657 
Q 3669 2231 3669 1497 
Q 3669 778 3244 343 
Q 2819 -91 2113 -91 
Q 1303 -91 875 529 
Q 447 1150 447 2328 
Q 447 3434 972 4092 
Q 1497 4750 2381 4750 
Q 2619 4750 2861 4703 
Q 3103 4656 3366 4563 
z
" transform="scale(0.015625)"/>
       </defs>
       <use xlink:href="#DejaVuSans-36"/>
       <use xlink:href="#DejaVuSans-30" x="63.623047"/>
      </g>
     </g>
    </g>
    <g id="xtick_5">
     <g id="line2d_9">
      <path d="M 558.202711 390.04 
L 558.202711 26.88 
" clip-path="url(#p0cb0bde138)" style="fill: none; stroke: #b0b0b0; stroke-width: 0.8; stroke-linecap: square"/>
     </g>
     <g id="line2d_10">
      <g>
       <use xlink:href="#m5bfb1ee366" x="558.202711" y="390.04" style="stroke: #000000; stroke-width: 0.8"/>
      </g>
     </g>
     <g id="text_5">
      <!-- 80 -->
      <g transform="translate(551.840211 404.638438) scale(0.1 -0.1)">
       <defs>
        <path id="DejaVuSans-38" d="M 2034 2216 
Q 1584 2216 1326 1975 
Q 1069 1734 1069 1313 
Q 1069 891 1326 650 
Q 1584 409 2034 409 
Q 2484 409 2743 651 
Q 3003 894 3003 1313 
Q 3003 1734 2745 1975 
Q 2488 2216 2034 2216 
z
M 1403 2484 
Q 997 2584 770 2862 
Q 544 3141 544 3541 
Q 544 4100 942 4425 
Q 1341 4750 2034 4750 
Q 2731 4750 3128 4425 
Q 3525 4100 3525 3541 
Q 3525 3141 3298 2862 
Q 3072 2584 2669 2484 
Q 3125 2378 3379 2068 
Q 3634 1759 3634 1313 
Q 3634 634 3220 271 
Q 2806 -91 2034 -91 
Q 1263 -91 848 271 
Q 434 634 434 1313 
Q 434 1759 690 2068 
Q 947 2378 1403 2484 
z
M 1172 3481 
Q 1172 3119 1398 2916 
Q 1625 2713 2034 2713 
Q 2441 2713 2670 2916 
Q 2900 3119 2900 3481 
Q 2900 3844 2670 4047 
Q 2441 4250 2034 4250 
Q 1625 4250 1398 4047 
Q 1172 3844 1172 3481 
z
" transform="scale(0.015625)"/>
       </defs>
       <use xlink:href="#DejaVuSans-38"/>
       <use xlink:href="#DejaVuSans-30" x="63.623047"/>
      </g>
     </g>
    </g>
    <g id="xtick_6">
     <g id="line2d_11">
      <path d="M 679.242622 390.04 
L 679.242622 26.88 
" clip-path="url(#p0cb0bde138)" style="fill: none; stroke: #b0b0b0; stroke-width: 0.8; stroke-linecap: square"/>
     </g>
     <g id="line2d_12">
      <g>
       <use xlink:href="#m5bfb1ee366" x="679.242622" y="390.04" style="stroke: #000000; stroke-width: 0.8"/>
      </g>
     </g>
     <g id="text_6">
      <!-- 100 -->
      <g transform="translate(669.698872 404.638438) scale(0.1 -0.1)">
       <defs>
        <path id="DejaVuSans-31" d="M 794 531 
L 1825 531 
L 1825 4091 
L 703 3866 
L 703 4441 
L 1819 4666 
L 2450 4666 
L 2450 531 
L 3481 531 
L 3481 0 
L 794 0 
L 794 531 
z
" transform="scale(0.015625)"/>
       </defs>
       <use xlink:href="#DejaVuSans-31"/>
       <use xlink:href="#DejaVuSans-30" x="63.623047"/>
       <use xlink:href="#DejaVuSans-30" x="127.246094"/>
      </g>
     </g>
    </g>
    <g id="text_7">
     <!-- Generations -->
     <g transform="translate(349.171186 418.316562) scale(0.1 -0.1)">
      <defs>
       <path id="DejaVuSans-47" d="M 3809 666 
L 3809 1919 
L 2778 1919 
L 2778 2438 
L 4434 2438 
L 4434 434 
Q 4069 175 3628 42 
Q 3188 -91 2688 -91 
Q 1594 -91 976 548 
Q 359 1188 359 2328 
Q 359 3472 976 4111 
Q 1594 4750 2688 4750 
Q 3144 4750 3555 4637 
Q 3966 4525 4313 4306 
L 4313 3634 
Q 3963 3931 3569 4081 
Q 3175 4231 2741 4231 
Q 1884 4231 1454 3753 
Q 1025 3275 1025 2328 
Q 1025 1384 1454 906 
Q 1884 428 2741 428 
Q 3075 428 3337 486 
Q 3600 544 3809 666 
z
" transform="scale(0.015625)"/>
       <path id="DejaVuSans-65" d="M 3597 1894 
L 3597 1613 
L 953 1613 
Q 991 1019 1311 708 
Q 1631 397 2203 397 
Q 2534 397 2845 478 
Q 3156 559 3463 722 
L 3463 178 
Q 3153 47 2828 -22 
Q 2503 -91 2169 -91 
Q 1331 -91 842 396 
Q 353 884 353 1716 
Q 353 2575 817 3079 
Q 1281 3584 2069 3584 
Q 2775 3584 3186 3129 
Q 3597 2675 3597 1894 
z
M 3022 2063 
Q 3016 2534 2758 2815 
Q 2500 3097 2075 3097 
Q 1594 3097 1305 2825 
Q 1016 2553 972 2059 
L 3022 2063 
z
" transform="scale(0.015625)"/>
       <path id="DejaVuSans-6e" d="M 3513 2113 
L 3513 0 
L 2938 0 
L 2938 2094 
Q 2938 2591 2744 2837 
Q 2550 3084 2163 3084 
Q 1697 3084 1428 2787 
Q 1159 2491 1159 1978 
L 1159 0 
L 581 0 
L 581 3500 
L 1159 3500 
L 1159 2956 
Q 1366 3272 1645 3428 
Q 1925 3584 2291 3584 
Q 2894 3584 3203 3211 
Q 3513 2838 3513 2113 
z
" transform="scale(0.015625)"/>
       <path id="DejaVuSans-72" d="M 2631 2963 
Q 2534 3019 2420 3045 
Q 2306 3072 2169 3072 
Q 1681 3072 1420 2755 
Q 1159 2438 1159 1844 
L 1159 0 
L 581 0 
L 581 3500 
L 1159 3500 
L 1159 2956 
Q 1341 3275 1631 3429 
Q 1922 3584 2338 3584 
Q 2397 3584 2469 3576 
Q 2541 3569 2628 3553 
L 2631 2963 
z
" transform="scale(0.015625)"/>
       <path id="DejaVuSans-61" d="M 2194 1759 
Q 1497 1759 1228 1600 
Q 959 1441 959 1056 
Q 959 750 1161 570 
Q 1363 391 1709 391 
Q 2188 391 2477 730 
Q 2766 1069 2766 1631 
L 2766 1759 
L 2194 1759 
z
M 3341 1997 
L 3341 0 
L 2766 0 
L 2766 531 
Q 2569 213 2275 61 
Q 1981 -91 1556 -91 
Q 1019 -91 701 211 
Q 384 513 384 1019 
Q 384 1609 779 1909 
Q 1175 2209 1959 2209 
L 2766 2209 
L 2766 2266 
Q 2766 2663 2505 2880 
Q 2244 3097 1772 3097 
Q 1472 3097 1187 3025 
Q 903 2953 641 2809 
L 641 3341 
Q 956 3463 1253 3523 
Q 1550 3584 1831 3584 
Q 2591 3584 2966 3190 
Q 3341 2797 3341 1997 
z
" transform="scale(0.015625)"/>
       <path id="DejaVuSans-74" d="M 1172 4494 
L 1172 3500 
L 2356 3500 
L 2356 3053 
L 1172 3053 
L 1172 1153 
Q 1172 725 1289 603 
Q 1406 481 1766 481 
L 2356 481 
L 2356 0 
L 1766 0 
Q 1100 0 847 248 
Q 594 497 594 1153 
L 594 3053 
L 172 3053 
L 172 3500 
L 594 3500 
L 594 4494 
L 1172 4494 
z
" transform="scale(0.015625)"/>
       <path id="DejaVuSans-69" d="M 603 3500 
L 1178 3500 
L 1178 0 
L 603 0 
L 603 3500 
z
M 603 4863 
L 1178 4863 
L 1178 4134 
L 603 4134 
L 603 4863 
z
" transform="scale(0.015625)"/>
       <path id="DejaVuSans-6f" d="M 1959 3097 
Q 1497 3097 1228 2736 
Q 959 2375 959 1747 
Q 959 1119 1226 758 
Q 1494 397 1959 397 
Q 2419 397 2687 759 
Q 2956 1122 2956 1747 
Q 2956 2369 2687 2733 
Q 2419 3097 1959 3097 
z
M 1959 3584 
Q 2709 3584 3137 3096 
Q 3566 2609 3566 1747 
Q 3566 888 3137 398 
Q 2709 -91 1959 -91 
Q 1206 -91 779 398 
Q 353 888 353 1747 
Q 353 2609 779 3096 
Q 1206 3584 1959 3584 
z
" transform="scale(0.015625)"/>
       <path id="DejaVuSans-73" d="M 2834 3397 
L 2834 2853 
Q 2591 2978 2328 3040 
Q 2066 3103 1784 3103 
Q 1356 3103 1142 2972 
Q 928 2841 928 2578 
Q 928 2378 1081 2264 
Q 1234 2150 1697 2047 
L 1894 2003 
Q 2506 1872 2764 1633 
Q 3022 1394 3022 966 
Q 3022 478 2636 193 
Q 2250 -91 1575 -91 
Q 1294 -91 989 -36 
Q 684 19 347 128 
L 347 722 
Q 666 556 975 473 
Q 1284 391 1588 391 
Q 1994 391 2212 530 
Q 2431 669 2431 922 
Q 2431 1156 2273 1281 
Q 2116 1406 1581 1522 
L 1381 1569 
Q 847 1681 609 1914 
Q 372 2147 372 2553 
Q 372 3047 722 3315 
Q 1072 3584 1716 3584 
Q 2034 3584 2315 3537 
Q 2597 3491 2834 3397 
z
" transform="scale(0.015625)"/>
      </defs>
      <use xlink:href="#DejaVuSans-47"/>
      <use xlink:href="#DejaVuSans-65" x="77.490234"/>
      <use xlink:href="#DejaVuSans-6e" x="139.013672"/>
      <use xlink:href="#DejaVuSans-65" x="202.392578"/>
      <use xlink:href="#DejaVuSans-72" x="263.916016"/>
      <use xlink:href="#DejaVuSans-61" x="305.029297"/>
      <use xlink:href="#DejaVuSans-74" x="366.308594"/>
      <use xlink:href="#DejaVuSans-69" x="405.517578"/>
      <use xlink:href="#DejaVuSans-6f" x="433.300781"/>
      <use xlink:href="#DejaVuSans-6e" x="494.482422"/>
      <use xlink:href="#DejaVuSans-73" x="557.861328"/>
     </g>
    </g>
   </g>
   <g id="matplotlib.axis_2">
    <g id="ytick_1">
     <g id="line2d_13">
      <path d="M 50.137685 329.434806 
L 709.2 329.434806 
" clip-path="url(#p0cb0bde138)" style="fill: none; stroke: #b0b0b0; stroke-width: 0.8; stroke-linecap: square"/>
     </g>
     <g id="line2d_14">
      <defs>
       <path id="mcdf74ce191" d="M 0 0 
L -3.5 0 
" style="stroke: #000000; stroke-width: 0.8"/>
      </defs>
      <g>
       <use xlink:href="#mcdf74ce191" x="50.137685" y="329.434806" style="stroke: #000000; stroke-width: 0.8"/>
      </g>
     </g>
     <g id="text_8">
      <!-- $\mathdefault{10^{3}}$ -->
      <g transform="translate(25.537685 333.234025) scale(0.1 -0.1)">
       <defs>
        <path id="DejaVuSans-33" d="M 2597 2516 
Q 3050 2419 3304 2112 
Q 3559 1806 3559 1356 
Q 3559 666 3084 287 
Q 2609 -91 1734 -91 
Q 1441 -91 1130 -33 
Q 819 25 488 141 
L 488 750 
Q 750 597 1062 519 
Q 1375 441 1716 441 
Q 2309 441 2620 675 
Q 2931 909 2931 1356 
Q 2931 1769 2642 2001 
Q 2353 2234 1838 2234 
L 1294 2234 
L 1294 2753 
L 1863 2753 
Q 2328 2753 2575 2939 
Q 2822 3125 2822 3475 
Q 2822 3834 2567 4026 
Q 2313 4219 1838 4219 
Q 1578 4219 1281 4162 
Q 984 4106 628 3988 
L 628 4550 
Q 988 4650 1302 4700 
Q 1616 4750 1894 4750 
Q 2613 4750 3031 4423 
Q 3450 4097 3450 3541 
Q 3450 3153 3228 2886 
Q 3006 2619 2597 2516 
z
" transform="scale(0.015625)"/>
       </defs>
       <use xlink:href="#DejaVuSans-31" transform="translate(0 0.765625)"/>
       <use xlink:href="#DejaVuSans-30" transform="translate(63.623047 0.765625)"/>
       <use xlink:href="#DejaVuSans-33" transform="translate(128.203125 39.046875) scale(0.7)"/>
      </g>
     </g>
    </g>
    <g id="ytick_2">
     <g id="line2d_15">
      <path d="M 50.137685 160.332036 
L 709.2 160.332036 
" clip-path="url(#p0cb0bde138)" style="fill: none; stroke: #b0b0b0; stroke-width: 0.8; stroke-linecap: square"/>
     </g>
     <g id="line2d_16">
      <g>
       <use xlink:href="#mcdf74ce191" x="50.137685" y="160.332036" style="stroke: #000000; stroke-width: 0.8"/>
      </g>
     </g>
     <g id="text_9">
      <!-- $\mathdefault{10^{4}}$ -->
      <g transform="translate(25.537685 164.131255) scale(0.1 -0.1)">
       <use xlink:href="#DejaVuSans-31" transform="translate(0 0.684375)"/>
       <use xlink:href="#DejaVuSans-30" transform="translate(63.623047 0.684375)"/>
       <use xlink:href="#DejaVuSans-34" transform="translate(128.203125 38.965625) scale(0.7)"/>
      </g>
     </g>
    </g>
    <g id="ytick_3">
     <g id="line2d_17">
      <defs>
       <path id="m493b827a63" d="M 0 0 
L -2 0 
" style="stroke: #000000; stroke-width: 0.6"/>
      </defs>
      <g>
       <use xlink:href="#m493b827a63" x="50.137685" y="380.339813" style="stroke: #000000; stroke-width: 0.6"/>
      </g>
     </g>
    </g>
    <g id="ytick_4">
     <g id="line2d_18">
      <g>
       <use xlink:href="#m493b827a63" x="50.137685" y="366.950044" style="stroke: #000000; stroke-width: 0.6"/>
      </g>
     </g>
    </g>
    <g id="ytick_5">
     <g id="line2d_19">
      <g>
       <use xlink:href="#m493b827a63" x="50.137685" y="355.629157" style="stroke: #000000; stroke-width: 0.6"/>
      </g>
     </g>
    </g>
    <g id="ytick_6">
     <g id="line2d_20">
      <g>
       <use xlink:href="#m493b827a63" x="50.137685" y="345.822558" style="stroke: #000000; stroke-width: 0.6"/>
      </g>
     </g>
    </g>
    <g id="ytick_7">
     <g id="line2d_21">
      <g>
       <use xlink:href="#m493b827a63" x="50.137685" y="337.172525" style="stroke: #000000; stroke-width: 0.6"/>
      </g>
     </g>
    </g>
    <g id="ytick_8">
     <g id="line2d_22">
      <g>
       <use xlink:href="#m493b827a63" x="50.137685" y="278.5298" style="stroke: #000000; stroke-width: 0.6"/>
      </g>
     </g>
    </g>
    <g id="ytick_9">
     <g id="line2d_23">
      <g>
       <use xlink:href="#m493b827a63" x="50.137685" y="248.752281" style="stroke: #000000; stroke-width: 0.6"/>
      </g>
     </g>
    </g>
    <g id="ytick_10">
     <g id="line2d_24">
      <g>
       <use xlink:href="#m493b827a63" x="50.137685" y="227.624794" style="stroke: #000000; stroke-width: 0.6"/>
      </g>
     </g>
    </g>
    <g id="ytick_11">
     <g id="line2d_25">
      <g>
       <use xlink:href="#m493b827a63" x="50.137685" y="211.237043" style="stroke: #000000; stroke-width: 0.6"/>
      </g>
     </g>
    </g>
    <g id="ytick_12">
     <g id="line2d_26">
      <g>
       <use xlink:href="#m493b827a63" x="50.137685" y="197.847275" style="stroke: #000000; stroke-width: 0.6"/>
      </g>
     </g>
    </g>
    <g id="ytick_13">
     <g id="line2d_27">
      <g>
       <use xlink:href="#m493b827a63" x="50.137685" y="186.526387" style="stroke: #000000; stroke-width: 0.6"/>
      </g>
     </g>
    </g>
    <g id="ytick_14">
     <g id="line2d_28">
      <g>
       <use xlink:href="#m493b827a63" x="50.137685" y="176.719788" style="stroke: #000000; stroke-width: 0.6"/>
      </g>
     </g>
    </g>
    <g id="ytick_15">
     <g id="line2d_29">
      <g>
       <use xlink:href="#m493b827a63" x="50.137685" y="168.069755" style="stroke: #000000; stroke-width: 0.6"/>
      </g>
     </g>
    </g>
    <g id="ytick_16">
     <g id="line2d_30">
      <g>
       <use xlink:href="#m493b827a63" x="50.137685" y="109.42703" style="stroke: #000000; stroke-width: 0.6"/>
      </g>
     </g>
    </g>
    <g id="ytick_17">
     <g id="line2d_31">
      <g>
       <use xlink:href="#m493b827a63" x="50.137685" y="79.649511" style="stroke: #000000; stroke-width: 0.6"/>
      </g>
     </g>
    </g>
    <g id="ytick_18">
     <g id="line2d_32">
      <g>
       <use xlink:href="#m493b827a63" x="50.137685" y="58.522024" style="stroke: #000000; stroke-width: 0.6"/>
      </g>
     </g>
    </g>
    <g id="ytick_19">
     <g id="line2d_33">
      <g>
       <use xlink:href="#m493b827a63" x="50.137685" y="42.134273" style="stroke: #000000; stroke-width: 0.6"/>
      </g>
     </g>
    </g>
    <g id="ytick_20">
     <g id="line2d_34">
      <g>
       <use xlink:href="#m493b827a63" x="50.137685" y="28.744505" style="stroke: #000000; stroke-width: 0.6"/>
      </g>
     </g>
    </g>
    <g id="text_10">
     <!-- Fitness (log scale) -->
     <g transform="translate(19.457997 253.363125) rotate(-90) scale(0.1 -0.1)">
      <defs>
       <path id="DejaVuSans-46" d="M 628 4666 
L 3309 4666 
L 3309 4134 
L 1259 4134 
L 1259 2759 
L 3109 2759 
L 3109 2228 
L 1259 2228 
L 1259 0 
L 628 0 
L 628 4666 
z
" transform="scale(0.015625)"/>
       <path id="DejaVuSans-20" transform="scale(0.015625)"/>
       <path id="DejaVuSans-28" d="M 1984 4856 
Q 1566 4138 1362 3434 
Q 1159 2731 1159 2009 
Q 1159 1288 1364 580 
Q 1569 -128 1984 -844 
L 1484 -844 
Q 1016 -109 783 600 
Q 550 1309 550 2009 
Q 550 2706 781 3412 
Q 1013 4119 1484 4856 
L 1984 4856 
z
" transform="scale(0.015625)"/>
       <path id="DejaVuSans-6c" d="M 603 4863 
L 1178 4863 
L 1178 0 
L 603 0 
L 603 4863 
z
" transform="scale(0.015625)"/>
       <path id="DejaVuSans-67" d="M 2906 1791 
Q 2906 2416 2648 2759 
Q 2391 3103 1925 3103 
Q 1463 3103 1205 2759 
Q 947 2416 947 1791 
Q 947 1169 1205 825 
Q 1463 481 1925 481 
Q 2391 481 2648 825 
Q 2906 1169 2906 1791 
z
M 3481 434 
Q 3481 -459 3084 -895 
Q 2688 -1331 1869 -1331 
Q 1566 -1331 1297 -1286 
Q 1028 -1241 775 -1147 
L 775 -588 
Q 1028 -725 1275 -790 
Q 1522 -856 1778 -856 
Q 2344 -856 2625 -561 
Q 2906 -266 2906 331 
L 2906 616 
Q 2728 306 2450 153 
Q 2172 0 1784 0 
Q 1141 0 747 490 
Q 353 981 353 1791 
Q 353 2603 747 3093 
Q 1141 3584 1784 3584 
Q 2172 3584 2450 3431 
Q 2728 3278 2906 2969 
L 2906 3500 
L 3481 3500 
L 3481 434 
z
" transform="scale(0.015625)"/>
       <path id="DejaVuSans-63" d="M 3122 3366 
L 3122 2828 
Q 2878 2963 2633 3030 
Q 2388 3097 2138 3097 
Q 1578 3097 1268 2742 
Q 959 2388 959 1747 
Q 959 1106 1268 751 
Q 1578 397 2138 397 
Q 2388 397 2633 464 
Q 2878 531 3122 666 
L 3122 134 
Q 2881 22 2623 -34 
Q 2366 -91 2075 -91 
Q 1284 -91 818 406 
Q 353 903 353 1747 
Q 353 2603 823 3093 
Q 1294 3584 2113 3584 
Q 2378 3584 2631 3529 
Q 2884 3475 3122 3366 
z
" transform="scale(0.015625)"/>
       <path id="DejaVuSans-29" d="M 513 4856 
L 1013 4856 
Q 1481 4119 1714 3412 
Q 1947 2706 1947 2009 
Q 1947 1309 1714 600 
Q 1481 -109 1013 -844 
L 513 -844 
Q 928 -128 1133 580 
Q 1338 1288 1338 2009 
Q 1338 2731 1133 3434 
Q 928 4138 513 4856 
z
" transform="scale(0.015625)"/>
      </defs>
      <use xlink:href="#DejaVuSans-46"/>
      <use xlink:href="#DejaVuSans-69" x="50.269531"/>
      <use xlink:href="#DejaVuSans-74" x="78.052734"/>
      <use xlink:href="#DejaVuSans-6e" x="117.261719"/>
      <use xlink:href="#DejaVuSans-65" x="180.640625"/>
      <use xlink:href="#DejaVuSans-73" x="242.164062"/>
      <use xlink:href="#DejaVuSans-73" x="294.263672"/>
      <use xlink:href="#DejaVuSans-20" x="346.363281"/>
      <use xlink:href="#DejaVuSans-28" x="378.150391"/>
      <use xlink:href="#DejaVuSans-6c" x="417.164062"/>
      <use xlink:href="#DejaVuSans-6f" x="444.947266"/>
      <use xlink:href="#DejaVuSans-67" x="506.128906"/>
      <use xlink:href="#DejaVuSans-20" x="569.605469"/>
      <use xlink:href="#DejaVuSans-73" x="601.392578"/>
      <use xlink:href="#DejaVuSans-63" x="653.492188"/>
      <use xlink:href="#DejaVuSans-61" x="708.472656"/>
      <use xlink:href="#DejaVuSans-6c" x="769.751953"/>
      <use xlink:href="#DejaVuSans-65" x="797.535156"/>
      <use xlink:href="#DejaVuSans-29" x="859.058594"/>
     </g>
    </g>
   </g>
   <g id="line2d_35">
    <path d="M 80.095063 43.387273 
L 86.147058 51.31665 
L 92.199054 61.465139 
L 98.251049 71.777468 
L 104.303045 81.119302 
L 110.35504 92.128502 
L 116.407036 102.092123 
L 122.459032 110.524967 
L 128.511027 119.867849 
L 134.563023 128.692901 
L 140.615018 137.661568 
L 146.667014 145.86623 
L 152.719009 153.270955 
L 158.771005 160.634892 
L 164.823 167.225277 
L 170.874996 174.032674 
L 176.926992 179.725518 
L 182.978987 186.128128 
L 189.030983 191.024832 
L 195.082978 196.737169 
L 201.134974 201.422378 
L 207.186969 206.023816 
L 213.238965 210.460733 
L 219.29096 215.270612 
L 225.342956 220.23531 
L 231.394951 225.470147 
L 237.446947 229.463496 
L 243.498943 234.098915 
L 249.550938 238.793573 
L 255.602934 243.468278 
L 261.654929 247.773185 
L 267.706925 252.515931 
L 273.75892 256.875893 
L 279.810916 261.368549 
L 285.862911 265.182579 
L 291.914907 269.294581 
L 297.966902 273.810494 
L 304.018898 277.777597 
L 310.070894 281.843516 
L 316.122889 285.886889 
L 322.174885 289.724947 
L 328.22688 293.065317 
L 334.278876 297.157801 
L 340.330871 300.239112 
L 346.382867 303.606439 
L 352.434862 306.960727 
L 358.486858 310.529494 
L 364.538854 314.037015 
L 370.590849 316.675859 
L 376.642845 319.734773 
L 382.69484 322.53362 
L 388.746836 325.489294 
L 394.798831 328.170099 
L 400.850827 330.988728 
L 406.902822 334.034192 
L 412.954818 336.573848 
L 419.006813 338.224233 
L 425.058809 340.449556 
L 431.110805 342.674615 
L 437.1628 344.632722 
L 443.214796 346.609821 
L 449.266791 348.484392 
L 455.318787 350.349787 
L 461.370782 352.103964 
L 467.422778 353.600408 
L 473.474773 355.178013 
L 479.526769 356.265592 
L 485.578764 357.693241 
L 491.63076 358.777746 
L 497.682756 359.665749 
L 503.734751 361.103319 
L 509.786747 361.823854 
L 515.838742 362.608039 
L 521.890738 363.21859 
L 527.942733 364.266077 
L 533.994729 364.923563 
L 540.046724 365.792331 
L 546.09872 366.208382 
L 552.150716 366.541548 
L 558.202711 366.919859 
L 564.254707 367.46347 
L 570.306702 367.810235 
L 576.358698 368.062067 
L 582.410693 368.389206 
L 588.462689 368.720316 
L 594.514684 369.17941 
L 600.56668 369.3803 
L 606.618675 369.778648 
L 612.670671 369.973533 
L 618.722667 370.363579 
L 624.774662 370.457242 
L 630.826658 371.178892 
L 636.878653 371.450373 
L 642.930649 372.036583 
L 648.982644 372.318282 
L 655.03464 372.593135 
L 661.086635 372.789901 
L 667.138631 373.133961 
L 673.190626 373.470723 
L 679.242622 373.532727 
" clip-path="url(#p0cb0bde138)" style="fill: none; stroke: #1f77b4; stroke-width: 1.5; stroke-linecap: square"/>
   </g>
   <g id="line2d_36">
    <path d="M 80.095063 45.443829 
L 86.147058 56.123048 
L 92.199054 66.691684 
L 98.251049 78.272022 
L 104.303045 89.583694 
L 110.35504 100.952266 
L 116.407036 110.640941 
L 122.459032 121.490455 
L 128.511027 130.061141 
L 134.563023 137.691239 
L 140.615018 145.733025 
L 146.667014 152.342973 
L 152.719009 158.524883 
L 158.771005 164.499513 
L 164.823 169.363046 
L 170.874996 174.048399 
L 176.926992 178.863942 
L 182.978987 183.467326 
L 189.030983 188.102958 
L 195.082978 192.10601 
L 201.134974 196.169301 
L 207.186969 199.832397 
L 213.238965 203.700915 
L 219.29096 207.960397 
L 225.342956 212.280021 
L 231.394951 216.752684 
L 237.446947 220.89378 
L 243.498943 225.351026 
L 249.550938 229.555674 
L 255.602934 233.577477 
L 261.654929 237.820889 
L 267.706925 242.167398 
L 273.75892 246.556598 
L 279.810916 251.325557 
L 285.862911 255.668004 
L 291.914907 259.830672 
L 297.966902 264.206968 
L 304.018898 267.807154 
L 310.070894 272.100217 
L 316.122889 275.955111 
L 322.174885 279.856291 
L 328.22688 283.575553 
L 334.278876 286.988175 
L 340.330871 290.72636 
L 346.382867 293.813877 
L 352.434862 297.426449 
L 358.486858 301.171796 
L 364.538854 304.593648 
L 370.590849 307.627299 
L 376.642845 309.839367 
L 382.69484 313.428366 
L 388.746836 315.866754 
L 394.798831 318.361726 
L 400.850827 320.540379 
L 406.902822 323.207916 
L 412.954818 325.532458 
L 419.006813 327.581258 
L 425.058809 329.696721 
L 431.110805 331.786662 
L 437.1628 333.714324 
L 443.214796 335.636657 
L 449.266791 337.240557 
L 455.318787 339.270787 
L 461.370782 340.530374 
L 467.422778 342.150848 
L 473.474773 343.623827 
L 479.526769 345.400268 
L 485.578764 346.661802 
L 491.63076 347.793409 
L 497.682756 348.770515 
L 503.734751 349.919815 
L 509.786747 350.987846 
L 515.838742 352.084966 
L 521.890738 353.131767 
L 527.942733 353.679374 
L 533.994729 354.515406 
L 540.046724 355.1252 
L 546.09872 355.684083 
L 552.150716 356.46588 
L 558.202711 356.978085 
L 564.254707 357.596191 
L 570.306702 358.193464 
L 576.358698 358.7657 
L 582.410693 359.2171 
L 588.462689 359.890734 
L 594.514684 360.446523 
L 600.56668 360.879852 
L 606.618675 361.467057 
L 612.670671 362.289913 
L 618.722667 362.743536 
L 624.774662 363.16122 
L 630.826658 363.575836 
L 636.878653 363.965771 
L 642.930649 364.195699 
L 648.982644 364.569196 
L 655.03464 364.859294 
L 661.086635 365.026432 
L 667.138631 365.283637 
L 673.190626 365.71847 
L 679.242622 365.881545 
" clip-path="url(#p0cb0bde138)" style="fill: none; stroke: #aec7e8; stroke-width: 1.5; stroke-linecap: square"/>
   </g>
   <g id="line2d_37">
    <path d="M 80.095063 47.131868 
L 86.147058 58.890073 
L 92.199054 69.860895 
L 98.251049 80.944551 
L 104.303045 91.76691 
L 110.35504 102.496256 
L 116.407036 112.368859 
L 122.459032 121.311671 
L 128.511027 129.563795 
L 134.563023 136.095163 
L 140.615018 142.112548 
L 146.667014 147.384402 
L 152.719009 153.020161 
L 158.771005 157.860641 
L 164.823 162.232148 
L 170.874996 166.310103 
L 176.926992 170.24836 
L 182.978987 174.57156 
L 189.030983 178.449539 
L 195.082978 182.094336 
L 201.134974 185.611205 
L 207.186969 189.068172 
L 213.238965 192.986654 
L 219.29096 196.332266 
L 225.342956 199.622436 
L 231.394951 203.562966 
L 237.446947 207.104964 
L 243.498943 210.898968 
L 249.550938 214.917099 
L 255.602934 218.562803 
L 261.654929 222.43889 
L 267.706925 226.168201 
L 273.75892 229.691765 
L 279.810916 233.7867 
L 285.862911 237.374551 
L 291.914907 241.164534 
L 297.966902 244.906207 
L 304.018898 248.217384 
L 310.070894 252.012789 
L 316.122889 256.093315 
L 322.174885 260.172203 
L 328.22688 264.706689 
L 334.278876 268.781625 
L 340.330871 272.172022 
L 346.382867 275.747401 
L 352.434862 279.588697 
L 358.486858 283.4587 
L 364.538854 287.070764 
L 370.590849 291.470753 
L 376.642845 295.360137 
L 382.69484 299.377441 
L 388.746836 302.938869 
L 394.798831 305.69683 
L 400.850827 308.459131 
L 406.902822 311.306069 
L 412.954818 314.284165 
L 419.006813 317.242441 
L 425.058809 320.310198 
L 431.110805 322.923518 
L 437.1628 325.176302 
L 443.214796 326.870518 
L 449.266791 329.153335 
L 455.318787 330.95723 
L 461.370782 332.899135 
L 467.422778 334.484099 
L 473.474773 336.686168 
L 479.526769 338.79179 
L 485.578764 340.26265 
L 491.63076 341.812811 
L 497.682756 343.283391 
L 503.734751 344.86734 
L 509.786747 346.448544 
L 515.838742 347.474747 
L 521.890738 348.249018 
L 527.942733 349.207248 
L 533.994729 350.151849 
L 540.046724 351.654353 
L 546.09872 352.24209 
L 552.150716 352.867233 
L 558.202711 353.754675 
L 564.254707 354.572607 
L 570.306702 355.276094 
L 576.358698 356.006067 
L 582.410693 356.919336 
L 588.462689 357.451213 
L 594.514684 357.906845 
L 600.56668 358.583075 
L 606.618675 359.536177 
L 612.670671 360.297305 
L 618.722667 361.024614 
L 624.774662 362.039912 
L 630.826658 362.579202 
L 636.878653 363.145334 
L 642.930649 363.690492 
L 648.982644 364.066521 
L 655.03464 364.333372 
L 661.086635 364.6091 
L 667.138631 364.92912 
L 673.190626 365.309168 
L 679.242622 365.513734 
" clip-path="url(#p0cb0bde138)" style="fill: none; stroke: #ff7f0e; stroke-width: 1.5; stroke-linecap: square"/>
   </g>
   <g id="line2d_38">
    <path d="M 80.095063 48.140239 
L 86.147058 59.229204 
L 92.199054 72.293269 
L 98.251049 83.602804 
L 104.303045 95.138327 
L 110.35504 105.189621 
L 116.407036 114.216447 
L 122.459032 123.031632 
L 128.511027 130.578658 
L 134.563023 136.888642 
L 140.615018 142.39576 
L 146.667014 147.42583 
L 152.719009 151.596297 
L 158.771005 155.980448 
L 164.823 159.957127 
L 170.874996 164.169006 
L 176.926992 168.755617 
L 182.978987 172.097853 
L 189.030983 175.464345 
L 195.082978 178.691613 
L 201.134974 182.013027 
L 207.186969 185.351211 
L 213.238965 189.073965 
L 219.29096 192.590158 
L 225.342956 196.21757 
L 231.394951 199.781693 
L 237.446947 203.523417 
L 243.498943 206.88587 
L 249.550938 210.318345 
L 255.602934 213.425792 
L 261.654929 217.097347 
L 267.706925 220.53699 
L 273.75892 224.437344 
L 279.810916 228.857871 
L 285.862911 232.982125 
L 291.914907 236.799455 
L 297.966902 240.658579 
L 304.018898 244.841653 
L 310.070894 249.400099 
L 316.122889 253.958113 
L 322.174885 258.971864 
L 328.22688 263.869751 
L 334.278876 268.291922 
L 340.330871 272.794045 
L 346.382867 277.325996 
L 352.434862 281.420379 
L 358.486858 285.79643 
L 364.538854 289.692737 
L 370.590849 294.01098 
L 376.642845 297.452577 
L 382.69484 300.675009 
L 388.746836 304.041366 
L 394.798831 307.257139 
L 400.850827 310.199443 
L 406.902822 313.735124 
L 412.954818 316.256484 
L 419.006813 319.066188 
L 425.058809 322.839554 
L 431.110805 326.157927 
L 437.1628 328.608857 
L 443.214796 330.828879 
L 449.266791 332.510351 
L 455.318787 334.718377 
L 461.370782 337.446669 
L 467.422778 339.381425 
L 473.474773 341.176117 
L 479.526769 342.841615 
L 485.578764 344.761398 
L 491.63076 346.475707 
L 497.682756 347.636414 
L 503.734751 349.002455 
L 509.786747 350.056808 
L 515.838742 351.016085 
L 521.890738 351.785329 
L 527.942733 352.826827 
L 533.994729 354.088837 
L 540.046724 355.077979 
L 546.09872 356.308642 
L 552.150716 357.423614 
L 558.202711 358.641349 
L 564.254707 359.445502 
L 570.306702 360.023533 
L 576.358698 360.706513 
L 582.410693 361.377371 
L 588.462689 361.888947 
L 594.514684 362.721193 
L 600.56668 363.278722 
L 606.618675 363.809236 
L 612.670671 364.172124 
L 618.722667 364.598036 
L 624.774662 364.935074 
L 630.826658 365.239378 
L 636.878653 365.650295 
L 642.930649 366.319944 
L 648.982644 366.493687 
L 655.03464 366.834671 
L 661.086635 367.114654 
L 667.138631 367.184203 
L 673.190626 367.64818 
L 679.242622 367.929634 
" clip-path="url(#p0cb0bde138)" style="fill: none; stroke: #ffbb78; stroke-width: 1.5; stroke-linecap: square"/>
   </g>
   <g id="line2d_39">
    <path d="M 80.095063 47.069864 
L 86.147058 59.934287 
L 92.199054 72.804845 
L 98.251049 83.953908 
L 104.303045 95.084289 
L 110.35504 104.401001 
L 116.407036 113.393802 
L 122.459032 121.12122 
L 128.511027 127.098303 
L 134.563023 132.092888 
L 140.615018 137.072306 
L 146.667014 141.292372 
L 152.719009 145.892409 
L 158.771005 149.891096 
L 164.823 153.633227 
L 170.874996 157.131519 
L 176.926992 160.714406 
L 182.978987 164.662483 
L 189.030983 168.715131 
L 195.082978 172.09429 
L 201.134974 175.452945 
L 207.186969 178.452359 
L 213.238965 181.984651 
L 219.29096 185.450501 
L 225.342956 188.748471 
L 231.394951 192.331617 
L 237.446947 195.928869 
L 243.498943 199.565194 
L 249.550938 203.056918 
L 255.602934 207.032892 
L 261.654929 210.416032 
L 267.706925 214.129837 
L 273.75892 217.892484 
L 279.810916 221.59552 
L 285.862911 225.285312 
L 291.914907 229.057423 
L 297.966902 233.341059 
L 304.018898 238.02699 
L 310.070894 242.207993 
L 316.122889 247.041933 
L 322.174885 251.365119 
L 328.22688 255.393626 
L 334.278876 259.383601 
L 340.330871 262.843166 
L 346.382867 267.253935 
L 352.434862 271.084331 
L 358.486858 274.673777 
L 364.538854 278.953794 
L 370.590849 282.777148 
L 376.642845 287.240079 
L 382.69484 291.174707 
L 388.746836 294.327813 
L 394.798831 297.432624 
L 400.850827 300.728147 
L 406.902822 303.445764 
L 412.954818 306.081272 
L 419.006813 308.440735 
L 425.058809 311.13586 
L 431.110805 313.402385 
L 437.1628 315.850272 
L 443.214796 317.961112 
L 449.266791 320.259409 
L 455.318787 322.195231 
L 461.370782 324.058221 
L 467.422778 325.477463 
L 473.474773 326.994023 
L 479.526769 328.216795 
L 485.578764 329.514655 
L 491.63076 330.763292 
L 497.682756 332.727141 
L 503.734751 334.191777 
L 509.786747 335.42918 
L 515.838742 336.49565 
L 521.890738 338.064096 
L 527.942733 339.371055 
L 533.994729 340.313732 
L 540.046724 340.968449 
L 546.09872 341.445468 
L 552.150716 342.201804 
L 558.202711 343.544577 
L 564.254707 344.405455 
L 570.306702 345.120287 
L 576.358698 346.386537 
L 582.410693 346.996223 
L 588.462689 347.844976 
L 594.514684 348.527556 
L 600.56668 349.307612 
L 606.618675 349.989089 
L 612.670671 350.872703 
L 618.722667 351.442301 
L 624.774662 351.810889 
L 630.826658 352.368768 
L 636.878653 352.932266 
L 642.930649 353.257281 
L 648.982644 353.643624 
L 655.03464 354.197819 
L 661.086635 354.910867 
L 667.138631 355.315085 
L 673.190626 356.020832 
L 679.242622 356.540908 
" clip-path="url(#p0cb0bde138)" style="fill: none; stroke: #2ca02c; stroke-width: 1.5; stroke-linecap: square"/>
   </g>
   <g id="line2d_40">
    <path d="M 80.095063 48.79195 
L 86.147058 61.660693 
L 92.199054 74.184307 
L 98.251049 86.073077 
L 104.303045 96.775208 
L 110.35504 106.295096 
L 116.407036 114.407325 
L 122.459032 121.540903 
L 128.511027 126.627087 
L 134.563023 131.51823 
L 140.615018 135.583324 
L 146.667014 139.569665 
L 152.719009 143.243415 
L 158.771005 146.619393 
L 164.823 150.634149 
L 170.874996 154.452855 
L 176.926992 157.92581 
L 182.978987 161.037751 
L 189.030983 164.299454 
L 195.082978 167.493906 
L 201.134974 171.30769 
L 207.186969 174.510545 
L 213.238965 177.740106 
L 219.29096 180.98818 
L 225.342956 184.119271 
L 231.394951 187.226735 
L 237.446947 190.606996 
L 243.498943 193.956689 
L 249.550938 197.70844 
L 255.602934 200.846193 
L 261.654929 204.474508 
L 267.706925 207.916864 
L 273.75892 211.442817 
L 279.810916 214.78734 
L 285.862911 218.227471 
L 291.914907 221.627718 
L 297.966902 224.962937 
L 304.018898 228.499455 
L 310.070894 232.220922 
L 316.122889 235.556229 
L 322.174885 238.601371 
L 328.22688 241.905861 
L 334.278876 245.31684 
L 340.330871 248.972687 
L 346.382867 252.786557 
L 352.434862 256.675284 
L 358.486858 260.004805 
L 364.538854 263.434349 
L 370.590849 267.12723 
L 376.642845 270.661511 
L 382.69484 273.547768 
L 388.746836 278.058482 
L 394.798831 282.061267 
L 400.850827 285.992497 
L 406.902822 288.523385 
L 412.954818 291.796145 
L 419.006813 295.164451 
L 425.058809 298.233861 
L 431.110805 301.326065 
L 437.1628 305.325319 
L 443.214796 308.204392 
L 449.266791 310.735488 
L 455.318787 313.001047 
L 461.370782 315.516947 
L 467.422778 317.762666 
L 473.474773 320.06479 
L 479.526769 322.487283 
L 485.578764 324.57537 
L 491.63076 326.276721 
L 497.682756 328.200183 
L 503.734751 329.528625 
L 509.786747 331.206081 
L 515.838742 332.628381 
L 521.890738 333.98417 
L 527.942733 335.263884 
L 533.994729 336.514248 
L 540.046724 337.603002 
L 546.09872 338.663992 
L 552.150716 339.671554 
L 558.202711 340.837381 
L 564.254707 342.045843 
L 570.306702 343.135739 
L 576.358698 344.648983 
L 582.410693 345.55133 
L 588.462689 346.531919 
L 594.514684 347.437514 
L 600.56668 348.206333 
L 606.618675 348.666746 
L 612.670671 349.157917 
L 618.722667 349.812472 
L 624.774662 350.379409 
L 630.826658 351.133426 
L 636.878653 351.668268 
L 642.930649 352.252444 
L 648.982644 352.676846 
L 655.03464 353.271842 
L 661.086635 353.817428 
L 667.138631 354.487166 
L 673.190626 354.986055 
L 679.242622 355.693883 
" clip-path="url(#p0cb0bde138)" style="fill: none; stroke: #98df8a; stroke-width: 1.5; stroke-linecap: square"/>
   </g>
   <g id="line2d_41">
    <path d="M 80.095063 49.524966 
L 86.147058 61.7427 
L 92.199054 74.918375 
L 98.251049 86.311832 
L 104.303045 96.679648 
L 110.35504 105.724169 
L 116.407036 113.680512 
L 122.459032 119.588398 
L 128.511027 124.930337 
L 134.563023 129.14782 
L 140.615018 133.386071 
L 146.667014 137.22874 
L 152.719009 141.026267 
L 158.771005 144.372701 
L 164.823 148.2117 
L 170.874996 152.386636 
L 176.926992 155.771991 
L 182.978987 159.138371 
L 189.030983 162.455518 
L 195.082978 165.892501 
L 201.134974 169.322861 
L 207.186969 172.772101 
L 213.238965 176.662772 
L 219.29096 180.293424 
L 225.342956 183.903967 
L 231.394951 187.396226 
L 237.446947 190.786 
L 243.498943 194.155152 
L 249.550938 197.864617 
L 255.602934 201.970011 
L 261.654929 205.801871 
L 267.706925 209.602135 
L 273.75892 213.296574 
L 279.810916 217.080062 
L 285.862911 220.519987 
L 291.914907 223.638983 
L 297.966902 227.011685 
L 304.018898 231.130644 
L 310.070894 234.876899 
L 316.122889 238.18631 
L 322.174885 241.642437 
L 328.22688 245.242122 
L 334.278876 249.121224 
L 340.330871 252.887231 
L 346.382867 256.59661 
L 352.434862 260.972063 
L 358.486858 265.069991 
L 364.538854 268.681903 
L 370.590849 272.144862 
L 376.642845 276.0992 
L 382.69484 280.171913 
L 388.746836 283.819421 
L 394.798831 286.922829 
L 400.850827 289.763448 
L 406.902822 292.808414 
L 412.954818 295.378149 
L 419.006813 298.295352 
L 425.058809 301.302194 
L 431.110805 303.715188 
L 437.1628 306.196784 
L 443.214796 309.337909 
L 449.266791 312.482272 
L 455.318787 314.964276 
L 461.370782 316.724641 
L 467.422778 318.877034 
L 473.474773 320.661062 
L 479.526769 322.610765 
L 485.578764 324.678779 
L 491.63076 326.375041 
L 497.682756 328.161197 
L 503.734751 329.844767 
L 509.786747 331.15068 
L 515.838742 332.176197 
L 521.890738 333.643776 
L 527.942733 335.034996 
L 533.994729 335.709412 
L 540.046724 336.395193 
L 546.09872 337.406819 
L 552.150716 338.560526 
L 558.202711 339.67465 
L 564.254707 340.797934 
L 570.306702 341.765019 
L 576.358698 342.441336 
L 582.410693 343.386333 
L 588.462689 344.39315 
L 594.514684 345.156363 
L 600.56668 345.955483 
L 606.618675 346.902382 
L 612.670671 347.495092 
L 618.722667 348.112512 
L 624.774662 348.866456 
L 630.826658 349.834768 
L 636.878653 350.26099 
L 642.930649 350.626949 
L 648.982644 351.625205 
L 655.03464 352.517115 
L 661.086635 353.215644 
L 667.138631 353.743766 
L 673.190626 354.158046 
L 679.242622 354.937884 
" clip-path="url(#p0cb0bde138)" style="fill: none; stroke: #d62728; stroke-width: 1.5; stroke-linecap: square"/>
   </g>
   <g id="line2d_42">
    <path d="M 80.095063 48.463378 
L 86.147058 61.857633 
L 92.199054 74.413249 
L 98.251049 85.524867 
L 104.303045 95.44895 
L 110.35504 104.016097 
L 116.407036 111.057628 
L 122.459032 116.727721 
L 128.511027 121.796966 
L 134.563023 126.304776 
L 140.615018 130.290996 
L 146.667014 133.949128 
L 152.719009 137.192932 
L 158.771005 140.538108 
L 164.823 143.83538 
L 170.874996 147.303646 
L 176.926992 150.319054 
L 182.978987 153.431675 
L 189.030983 156.871207 
L 195.082978 160.329491 
L 201.134974 164.034824 
L 207.186969 167.789368 
L 213.238965 171.106197 
L 219.29096 174.525571 
L 225.342956 178.056157 
L 231.394951 181.55143 
L 237.446947 185.222915 
L 243.498943 188.776664 
L 249.550938 192.332639 
L 255.602934 195.667394 
L 261.654929 198.65481 
L 267.706925 202.381664 
L 273.75892 205.882439 
L 279.810916 209.139709 
L 285.862911 212.419849 
L 291.914907 215.969571 
L 297.966902 219.812828 
L 304.018898 223.139155 
L 310.070894 226.415631 
L 316.122889 230.156398 
L 322.174885 233.902 
L 328.22688 237.511662 
L 334.278876 241.037332 
L 340.330871 244.819761 
L 346.382867 248.697058 
L 352.434862 251.912965 
L 358.486858 255.726036 
L 364.538854 259.231352 
L 370.590849 263.00934 
L 376.642845 266.762704 
L 382.69484 269.782238 
L 388.746836 272.715183 
L 394.798831 275.889312 
L 400.850827 278.783608 
L 406.902822 282.289714 
L 412.954818 285.145559 
L 419.006813 288.115013 
L 425.058809 291.919715 
L 431.110805 296.167279 
L 437.1628 299.634768 
L 443.214796 303.059111 
L 449.266791 306.061681 
L 455.318787 308.718634 
L 461.370782 311.160096 
L 467.422778 313.450024 
L 473.474773 315.331857 
L 479.526769 317.506047 
L 485.578764 319.730054 
L 491.63076 321.859718 
L 497.682756 324.08826 
L 503.734751 325.957094 
L 509.786747 327.505153 
L 515.838742 329.083867 
L 521.890738 331.513927 
L 527.942733 333.381117 
L 533.994729 335.028127 
L 540.046724 336.583022 
L 546.09872 338.30982 
L 552.150716 339.485212 
L 558.202711 340.864834 
L 564.254707 341.829907 
L 570.306702 343.861197 
L 576.358698 345.154241 
L 582.410693 346.424784 
L 588.462689 347.492275 
L 594.514684 348.536129 
L 600.56668 349.901051 
L 606.618675 350.79113 
L 612.670671 351.302372 
L 618.722667 351.660316 
L 624.774662 352.292535 
L 630.826658 353.146303 
L 636.878653 353.651454 
L 642.930649 354.126174 
L 648.982644 354.858246 
L 655.03464 356.080275 
L 661.086635 357.176756 
L 667.138631 357.903237 
L 673.190626 358.504114 
L 679.242622 359.263017 
" clip-path="url(#p0cb0bde138)" style="fill: none; stroke: #ff9896; stroke-width: 1.5; stroke-linecap: square"/>
   </g>
   <g id="line2d_43">
    <path d="M 80.095063 49.836536 
L 86.147058 62.903403 
L 92.199054 74.586783 
L 98.251049 86.203942 
L 104.303045 95.058508 
L 110.35504 102.872405 
L 116.407036 108.954253 
L 122.459032 114.854914 
L 128.511027 119.147915 
L 134.563023 122.641295 
L 140.615018 125.98987 
L 146.667014 129.454981 
L 152.719009 132.466093 
L 158.771005 135.93271 
L 164.823 139.424061 
L 170.874996 142.49122 
L 176.926992 145.5479 
L 182.978987 148.92016 
L 189.030983 152.171471 
L 195.082978 155.25059 
L 201.134974 158.240175 
L 207.186969 161.456454 
L 213.238965 165.171274 
L 219.29096 168.73168 
L 225.342956 172.073031 
L 231.394951 175.375358 
L 237.446947 179.27382 
L 243.498943 182.325658 
L 249.550938 186.063322 
L 255.602934 189.567588 
L 261.654929 193.159885 
L 267.706925 196.296984 
L 273.75892 199.827367 
L 279.810916 203.699546 
L 285.862911 207.136859 
L 291.914907 211.103112 
L 297.966902 214.779838 
L 304.018898 218.350944 
L 310.070894 222.374705 
L 316.122889 226.32268 
L 322.174885 229.476989 
L 328.22688 233.338148 
L 334.278876 237.135988 
L 340.330871 240.964199 
L 346.382867 244.72546 
L 352.434862 248.673252 
L 358.486858 252.189497 
L 364.538854 256.564202 
L 370.590849 260.735271 
L 376.642845 264.51155 
L 382.69484 269.39795 
L 388.746836 273.634972 
L 394.798831 277.078728 
L 400.850827 280.34924 
L 406.902822 283.746058 
L 412.954818 287.130874 
L 419.006813 290.160893 
L 425.058809 293.085162 
L 431.110805 296.657423 
L 437.1628 300.123888 
L 443.214796 303.298301 
L 449.266791 306.67574 
L 455.318787 308.872594 
L 461.370782 311.659204 
L 467.422778 314.451657 
L 473.474773 316.939913 
L 479.526769 319.35009 
L 485.578764 321.970427 
L 491.63076 324.069825 
L 497.682756 326.984789 
L 503.734751 330.079003 
L 509.786747 332.866038 
L 515.838742 335.009901 
L 521.890738 336.392232 
L 527.942733 337.891945 
L 533.994729 339.652983 
L 540.046724 341.315562 
L 546.09872 343.378341 
L 552.150716 344.464909 
L 558.202711 345.785235 
L 564.254707 347.129422 
L 570.306702 348.516445 
L 576.358698 349.789859 
L 582.410693 351.205172 
L 588.462689 352.358733 
L 594.514684 352.9471 
L 600.56668 353.712074 
L 606.618675 355.306032 
L 612.670671 356.32947 
L 618.722667 357.256447 
L 624.774662 357.98011 
L 630.826658 358.803303 
L 636.878653 359.376281 
L 642.930649 359.81628 
L 648.982644 360.291342 
L 655.03464 360.713634 
L 661.086635 361.105956 
L 667.138631 361.668776 
L 673.190626 362.191952 
L 679.242622 362.571898 
" clip-path="url(#p0cb0bde138)" style="fill: none; stroke: #9467bd; stroke-width: 1.5; stroke-linecap: square"/>
   </g>
   <g id="line2d_44">
    <path d="M 80.095063 50.166844 
L 86.147058 62.503312 
L 92.199054 74.341767 
L 98.251049 84.858436 
L 104.303045 94.258018 
L 110.35504 101.471481 
L 116.407036 107.972057 
L 122.459032 113.289346 
L 128.511027 117.800741 
L 134.563023 121.633823 
L 140.615018 125.521241 
L 146.667014 128.899422 
L 152.719009 132.18871 
L 158.771005 135.322005 
L 164.823 138.686643 
L 170.874996 142.059445 
L 176.926992 145.330903 
L 182.978987 148.65029 
L 189.030983 152.127892 
L 195.082978 155.580139 
L 201.134974 158.907322 
L 207.186969 162.551183 
L 213.238965 165.860214 
L 219.29096 169.074819 
L 225.342956 172.492824 
L 231.394951 175.82712 
L 237.446947 179.257093 
L 243.498943 182.689231 
L 249.550938 186.076668 
L 255.602934 189.781972 
L 261.654929 193.066662 
L 267.706925 196.26671 
L 273.75892 199.753633 
L 279.810916 203.037824 
L 285.862911 205.958037 
L 291.914907 210.040511 
L 297.966902 214.293547 
L 304.018898 217.33024 
L 310.070894 221.22471 
L 316.122889 224.752001 
L 322.174885 228.891113 
L 328.22688 232.56397 
L 334.278876 236.079117 
L 340.330871 239.921426 
L 346.382867 244.130451 
L 352.434862 247.242548 
L 358.486858 250.965077 
L 364.538854 254.741696 
L 370.590849 258.574455 
L 376.642845 262.262197 
L 382.69484 265.833843 
L 388.746836 269.898048 
L 394.798831 273.041815 
L 400.850827 276.683533 
L 406.902822 280.831751 
L 412.954818 284.274649 
L 419.006813 288.086707 
L 425.058809 291.854969 
L 431.110805 294.792046 
L 437.1628 297.6289 
L 443.214796 300.674678 
L 449.266791 303.369506 
L 455.318787 306.169672 
L 461.370782 309.070276 
L 467.422778 312.03278 
L 473.474773 314.724849 
L 479.526769 316.715376 
L 485.578764 318.712901 
L 491.63076 320.832226 
L 497.682756 322.322 
L 503.734751 324.599432 
L 509.786747 326.60858 
L 515.838742 329.091176 
L 521.890738 330.951482 
L 527.942733 332.510351 
L 533.994729 334.589589 
L 540.046724 336.142907 
L 546.09872 337.458683 
L 552.150716 338.198301 
L 558.202711 339.579027 
L 564.254707 340.92063 
L 570.306702 342.435199 
L 576.358698 343.57039 
L 582.410693 344.652898 
L 588.462689 345.696899 
L 594.514684 346.868231 
L 600.56668 348.043092 
L 606.618675 348.519937 
L 612.670671 349.165283 
L 618.722667 349.927257 
L 624.774662 350.721423 
L 630.826658 351.896594 
L 636.878653 352.738349 
L 642.930649 353.645667 
L 648.982644 354.493708 
L 655.03464 355.18566 
L 661.086635 355.822104 
L 667.138631 356.442892 
L 673.190626 356.987347 
L 679.242622 357.703673 
" clip-path="url(#p0cb0bde138)" style="fill: none; stroke: #c5b0d5; stroke-width: 1.5; stroke-linecap: square"/>
   </g>
   <g id="line2d_45"/>
   <g id="line2d_46"/>
   <g id="line2d_47"/>
   <g id="line2d_48"/>
   <g id="line2d_49"/>
   <g id="line2d_50"/>
   <g id="line2d_51"/>
   <g id="line2d_52"/>
   <g id="line2d_53"/>
   <g id="line2d_54"/>
   <g id="patch_3">
    <path d="M 50.137685 390.04 
L 50.137685 26.88 
" style="fill: none; stroke: #000000; stroke-width: 0.8; stroke-linejoin: miter; stroke-linecap: square"/>
   </g>
   <g id="patch_4">
    <path d="M 709.2 390.04 
L 709.2 26.88 
" style="fill: none; stroke: #000000; stroke-width: 0.8; stroke-linejoin: miter; stroke-linecap: square"/>
   </g>
   <g id="patch_5">
    <path d="M 50.137685 390.04 
L 709.2 390.04 
" style="fill: none; stroke: #000000; stroke-width: 0.8; stroke-linejoin: miter; stroke-linecap: square"/>
   </g>
   <g id="patch_6">
    <path d="M 50.137685 26.88 
L 709.2 26.88 
" style="fill: none; stroke: #000000; stroke-width: 0.8; stroke-linejoin: miter; stroke-linecap: square"/>
   </g>
   <g id="text_11">
    <!-- Tournament Size: Fitness over Generations -->
    <g transform="translate(251.294155 20.88) scale(0.12 -0.12)">
     <defs>
      <path id="DejaVuSans-54" d="M -19 4666 
L 3928 4666 
L 3928 4134 
L 2272 4134 
L 2272 0 
L 1638 0 
L 1638 4134 
L -19 4134 
L -19 4666 
z
" transform="scale(0.015625)"/>
      <path id="DejaVuSans-75" d="M 544 1381 
L 544 3500 
L 1119 3500 
L 1119 1403 
Q 1119 906 1312 657 
Q 1506 409 1894 409 
Q 2359 409 2629 706 
Q 2900 1003 2900 1516 
L 2900 3500 
L 3475 3500 
L 3475 0 
L 2900 0 
L 2900 538 
Q 2691 219 2414 64 
Q 2138 -91 1772 -91 
Q 1169 -91 856 284 
Q 544 659 544 1381 
z
M 1991 3584 
L 1991 3584 
z
" transform="scale(0.015625)"/>
      <path id="DejaVuSans-6d" d="M 3328 2828 
Q 3544 3216 3844 3400 
Q 4144 3584 4550 3584 
Q 5097 3584 5394 3201 
Q 5691 2819 5691 2113 
L 5691 0 
L 5113 0 
L 5113 2094 
Q 5113 2597 4934 2840 
Q 4756 3084 4391 3084 
Q 3944 3084 3684 2787 
Q 3425 2491 3425 1978 
L 3425 0 
L 2847 0 
L 2847 2094 
Q 2847 2600 2669 2842 
Q 2491 3084 2119 3084 
Q 1678 3084 1418 2786 
Q 1159 2488 1159 1978 
L 1159 0 
L 581 0 
L 581 3500 
L 1159 3500 
L 1159 2956 
Q 1356 3278 1631 3431 
Q 1906 3584 2284 3584 
Q 2666 3584 2933 3390 
Q 3200 3197 3328 2828 
z
" transform="scale(0.015625)"/>
      <path id="DejaVuSans-53" d="M 3425 4513 
L 3425 3897 
Q 3066 4069 2747 4153 
Q 2428 4238 2131 4238 
Q 1616 4238 1336 4038 
Q 1056 3838 1056 3469 
Q 1056 3159 1242 3001 
Q 1428 2844 1947 2747 
L 2328 2669 
Q 3034 2534 3370 2195 
Q 3706 1856 3706 1288 
Q 3706 609 3251 259 
Q 2797 -91 1919 -91 
Q 1588 -91 1214 -16 
Q 841 59 441 206 
L 441 856 
Q 825 641 1194 531 
Q 1563 422 1919 422 
Q 2459 422 2753 634 
Q 3047 847 3047 1241 
Q 3047 1584 2836 1778 
Q 2625 1972 2144 2069 
L 1759 2144 
Q 1053 2284 737 2584 
Q 422 2884 422 3419 
Q 422 4038 858 4394 
Q 1294 4750 2059 4750 
Q 2388 4750 2728 4690 
Q 3069 4631 3425 4513 
z
" transform="scale(0.015625)"/>
      <path id="DejaVuSans-7a" d="M 353 3500 
L 3084 3500 
L 3084 2975 
L 922 459 
L 3084 459 
L 3084 0 
L 275 0 
L 275 525 
L 2438 3041 
L 353 3041 
L 353 3500 
z
" transform="scale(0.015625)"/>
      <path id="DejaVuSans-3a" d="M 750 794 
L 1409 794 
L 1409 0 
L 750 0 
L 750 794 
z
M 750 3309 
L 1409 3309 
L 1409 2516 
L 750 2516 
L 750 3309 
z
" transform="scale(0.015625)"/>
      <path id="DejaVuSans-76" d="M 191 3500 
L 800 3500 
L 1894 563 
L 2988 3500 
L 3597 3500 
L 2284 0 
L 1503 0 
L 191 3500 
z
" transform="scale(0.015625)"/>
     </defs>
     <use xlink:href="#DejaVuSans-54"/>
     <use xlink:href="#DejaVuSans-6f" x="44.083984"/>
     <use xlink:href="#DejaVuSans-75" x="105.265625"/>
     <use xlink:href="#DejaVuSans-72" x="168.644531"/>
     <use xlink:href="#DejaVuSans-6e" x="208.007812"/>
     <use xlink:href="#DejaVuSans-61" x="271.386719"/>
     <use xlink:href="#DejaVuSans-6d" x="332.666016"/>
     <use xlink:href="#DejaVuSans-65" x="430.078125"/>
     <use xlink:href="#DejaVuSans-6e" x="491.601562"/>
     <use xlink:href="#DejaVuSans-74" x="554.980469"/>
     <use xlink:href="#DejaVuSans-20" x="594.189453"/>
     <use xlink:href="#DejaVuSans-53" x="625.976562"/>
     <use xlink:href="#DejaVuSans-69" x="689.453125"/>
     <use xlink:href="#DejaVuSans-7a" x="717.236328"/>
     <use xlink:href="#DejaVuSans-65" x="769.726562"/>
     <use xlink:href="#DejaVuSans-3a" x="831.25"/>
     <use xlink:href="#DejaVuSans-20" x="864.941406"/>
     <use xlink:href="#DejaVuSans-46" x="896.728516"/>
     <use xlink:href="#DejaVuSans-69" x="946.998047"/>
     <use xlink:href="#DejaVuSans-74" x="974.78125"/>
     <use xlink:href="#DejaVuSans-6e" x="1013.990234"/>
     <use xlink:href="#DejaVuSans-65" x="1077.369141"/>
     <use xlink:href="#DejaVuSans-73" x="1138.892578"/>
     <use xlink:href="#DejaVuSans-73" x="1190.992188"/>
     <use xlink:href="#DejaVuSans-20" x="1243.091797"/>
     <use xlink:href="#DejaVuSans-6f" x="1274.878906"/>
     <use xlink:href="#DejaVuSans-76" x="1336.060547"/>
     <use xlink:href="#DejaVuSans-65" x="1395.240234"/>
     <use xlink:href="#DejaVuSans-72" x="1456.763672"/>
     <use xlink:href="#DejaVuSans-20" x="1497.876953"/>
     <use xlink:href="#DejaVuSans-47" x="1529.664062"/>
     <use xlink:href="#DejaVuSans-65" x="1607.154297"/>
     <use xlink:href="#DejaVuSans-6e" x="1668.677734"/>
     <use xlink:href="#DejaVuSans-65" x="1732.056641"/>
     <use xlink:href="#DejaVuSans-72" x="1793.580078"/>
     <use xlink:href="#DejaVuSans-61" x="1834.693359"/>
     <use xlink:href="#DejaVuSans-74" x="1895.972656"/>
     <use xlink:href="#DejaVuSans-69" x="1935.181641"/>
     <use xlink:href="#DejaVuSans-6f" x="1962.964844"/>
     <use xlink:href="#DejaVuSans-6e" x="2024.146484"/>
     <use xlink:href="#DejaVuSans-73" x="2087.525391"/>
    </g>
   </g>
   <g id="legend_1">
    <g id="patch_7">
     <path d="M 615.076563 196.339375 
L 702.2 196.339375 
Q 704.2 196.339375 704.2 194.339375 
L 704.2 33.88 
Q 704.2 31.88 702.2 31.88 
L 615.076563 31.88 
Q 613.076563 31.88 613.076563 33.88 
L 613.076563 194.339375 
Q 613.076563 196.339375 615.076563 196.339375 
z
" style="fill: #ffffff; opacity: 0.8; stroke: #cccccc; stroke-linejoin: miter"/>
    </g>
    <g id="text_12">
     <!-- Tournament Size -->
     <g transform="translate(617.076563 43.478437) scale(0.1 -0.1)">
      <use xlink:href="#DejaVuSans-54"/>
      <use xlink:href="#DejaVuSans-6f" x="44.083984"/>
      <use xlink:href="#DejaVuSans-75" x="105.265625"/>
      <use xlink:href="#DejaVuSans-72" x="168.644531"/>
      <use xlink:href="#DejaVuSans-6e" x="208.007812"/>
      <use xlink:href="#DejaVuSans-61" x="271.386719"/>
      <use xlink:href="#DejaVuSans-6d" x="332.666016"/>
      <use xlink:href="#DejaVuSans-65" x="430.078125"/>
      <use xlink:href="#DejaVuSans-6e" x="491.601562"/>
      <use xlink:href="#DejaVuSans-74" x="554.980469"/>
      <use xlink:href="#DejaVuSans-20" x="594.189453"/>
      <use xlink:href="#DejaVuSans-53" x="625.976562"/>
      <use xlink:href="#DejaVuSans-69" x="689.453125"/>
      <use xlink:href="#DejaVuSans-7a" x="717.236328"/>
      <use xlink:href="#DejaVuSans-65" x="769.726562"/>
     </g>
    </g>
    <g id="line2d_55">
     <path d="M 638.275781 54.656562 
L 648.275781 54.656562 
L 658.275781 54.656562 
" style="fill: none; stroke: #1f77b4; stroke-width: 1.5; stroke-linecap: square"/>
    </g>
    <g id="text_13">
     <!-- 2 -->
     <g transform="translate(666.275781 58.156562) scale(0.1 -0.1)">
      <use xlink:href="#DejaVuSans-32"/>
     </g>
    </g>
    <g id="line2d_56">
     <path d="M 638.275781 69.334687 
L 648.275781 69.334687 
L 658.275781 69.334687 
" style="fill: none; stroke: #aec7e8; stroke-width: 1.5; stroke-linecap: square"/>
    </g>
    <g id="text_14">
     <!-- 4 -->
     <g transform="translate(666.275781 72.834687) scale(0.1 -0.1)">
      <use xlink:href="#DejaVuSans-34"/>
     </g>
    </g>
    <g id="line2d_57">
     <path d="M 638.275781 84.012812 
L 648.275781 84.012812 
L 658.275781 84.012812 
" style="fill: none; stroke: #ff7f0e; stroke-width: 1.5; stroke-linecap: square"/>
    </g>
    <g id="text_15">
     <!-- 6 -->
     <g transform="translate(666.275781 87.512812) scale(0.1 -0.1)">
      <use xlink:href="#DejaVuSans-36"/>
     </g>
    </g>
    <g id="line2d_58">
     <path d="M 638.275781 98.690937 
L 648.275781 98.690937 
L 658.275781 98.690937 
" style="fill: none; stroke: #ffbb78; stroke-width: 1.5; stroke-linecap: square"/>
    </g>
    <g id="text_16">
     <!-- 8 -->
     <g transform="translate(666.275781 102.190937) scale(0.1 -0.1)">
      <use xlink:href="#DejaVuSans-38"/>
     </g>
    </g>
    <g id="line2d_59">
     <path d="M 638.275781 113.369062 
L 648.275781 113.369062 
L 658.275781 113.369062 
" style="fill: none; stroke: #2ca02c; stroke-width: 1.5; stroke-linecap: square"/>
    </g>
    <g id="text_17">
     <!-- 10 -->
     <g transform="translate(666.275781 116.869062) scale(0.1 -0.1)">
      <use xlink:href="#DejaVuSans-31"/>
      <use xlink:href="#DejaVuSans-30" x="63.623047"/>
     </g>
    </g>
    <g id="line2d_60">
     <path d="M 638.275781 128.047187 
L 648.275781 128.047187 
L 658.275781 128.047187 
" style="fill: none; stroke: #98df8a; stroke-width: 1.5; stroke-linecap: square"/>
    </g>
    <g id="text_18">
     <!-- 12 -->
     <g transform="translate(666.275781 131.547187) scale(0.1 -0.1)">
      <use xlink:href="#DejaVuSans-31"/>
      <use xlink:href="#DejaVuSans-32" x="63.623047"/>
     </g>
    </g>
    <g id="line2d_61">
     <path d="M 638.275781 142.725312 
L 648.275781 142.725312 
L 658.275781 142.725312 
" style="fill: none; stroke: #d62728; stroke-width: 1.5; stroke-linecap: square"/>
    </g>
    <g id="text_19">
     <!-- 14 -->
     <g transform="translate(666.275781 146.225312) scale(0.1 -0.1)">
      <use xlink:href="#DejaVuSans-31"/>
      <use xlink:href="#DejaVuSans-34" x="63.623047"/>
     </g>
    </g>
    <g id="line2d_62">
     <path d="M 638.275781 157.403437 
L 648.275781 157.403437 
L 658.275781 157.403437 
" style="fill: none; stroke: #ff9896; stroke-width: 1.5; stroke-linecap: square"/>
    </g>
    <g id="text_20">
     <!-- 16 -->
     <g transform="translate(666.275781 160.903437) scale(0.1 -0.1)">
      <use xlink:href="#DejaVuSans-31"/>
      <use xlink:href="#DejaVuSans-36" x="63.623047"/>
     </g>
    </g>
    <g id="line2d_63">
     <path d="M 638.275781 172.081562 
L 648.275781 172.081562 
L 658.275781 172.081562 
" style="fill: none; stroke: #9467bd; stroke-width: 1.5; stroke-linecap: square"/>
    </g>
    <g id="text_21">
     <!-- 18 -->
     <g transform="translate(666.275781 175.581562) scale(0.1 -0.1)">
      <use xlink:href="#DejaVuSans-31"/>
      <use xlink:href="#DejaVuSans-38" x="63.623047"/>
     </g>
    </g>
    <g id="line2d_64">
     <path d="M 638.275781 186.759687 
L 648.275781 186.759687 
L 658.275781 186.759687 
" style="fill: none; stroke: #c5b0d5; stroke-width: 1.5; stroke-linecap: square"/>
    </g>
    <g id="text_22">
     <!-- 20 -->
     <g transform="translate(666.275781 190.259687) scale(0.1 -0.1)">
      <use xlink:href="#DejaVuSans-32"/>
      <use xlink:href="#DejaVuSans-30" x="63.623047"/>
     </g>
    </g>
   </g>
  </g>
 </g>
 <defs>
  <clipPath id="p0cb0bde138">
   <rect x="50.137685" y="26.88" width="659.062315" height="363.16"/>
  </clipPath>
 </defs>
</svg>
