<?xml version="1.0" encoding="utf-8" standalone="no"?>
<!DOCTYPE svg PUBLIC "-//W3C//DTD SVG 1.1//EN"
  "http://www.w3.org/Graphics/SVG/1.1/DTD/svg11.dtd">
<svg xmlns:xlink="http://www.w3.org/1999/xlink" width="720pt" height="432pt" viewBox="0 0 720 432" xmlns="http://www.w3.org/2000/svg" version="1.1">
 <metadata>
  <rdf:RDF xmlns:dc="http://purl.org/dc/elements/1.1/" xmlns:cc="http://creativecommons.org/ns#" xmlns:rdf="http://www.w3.org/1999/02/22-rdf-syntax-ns#">
   <cc:Work>
    <dc:type rdf:resource="http://purl.org/dc/dcmitype/StillImage"/>
    <dc:date>2024-06-02T13:08:56.529332</dc:date>
    <dc:format>image/svg+xml</dc:format>
    <dc:creator>
     <cc:Agent>
      <dc:title>Matplotlib v3.8.4, https://matplotlib.org/</dc:title>
     </cc:Agent>
    </dc:creator>
   </cc:Work>
  </rdf:RDF>
 </metadata>
 <defs>
  <style type="text/css">*{stroke-linejoin: round; stroke-linecap: butt}</style>
 </defs>
 <g id="figure_1">
  <g id="patch_1">
   <path d="M 0 432 
L 720 432 
L 720 0 
L 0 0 
z
" style="fill: #ffffff"/>
  </g>
  <g id="axes_1">
   <g id="patch_2">
    <path d="M 50.137685 390.04 
L 709.2 390.04 
L 709.2 26.88 
L 50.137685 26.88 
z
" style="fill: #ffffff"/>
   </g>
   <g id="PolyCollection_1"/>
   <g id="PolyCollection_2"/>
   <g id="PolyCollection_3"/>
   <g id="PolyCollection_4"/>
   <g id="PolyCollection_5"/>
   <g id="PolyCollection_6"/>
   <g id="PolyCollection_7"/>
   <g id="PolyCollection_8"/>
   <g id="PolyCollection_9"/>
   <g id="PolyCollection_10"/>
   <g id="PolyCollection_11"/>
   <g id="PolyCollection_12"/>
   <g id="matplotlib.axis_1">
    <g id="xtick_1">
     <g id="line2d_1">
      <path d="M 74.043067 390.04 
L 74.043067 26.88 
" clip-path="url(#p4604aa6358)" style="fill: none; stroke: #b0b0b0; stroke-width: 0.8; stroke-linecap: square"/>
     </g>
     <g id="line2d_2">
      <defs>
       <path id="m762dfd1330" d="M 0 0 
L 0 3.5 
" style="stroke: #000000; stroke-width: 0.8"/>
      </defs>
      <g>
       <use xlink:href="#m762dfd1330" x="74.043067" y="390.04" style="stroke: #000000; stroke-width: 0.8"/>
      </g>
     </g>
     <g id="text_1">
      <!-- 0 -->
      <g transform="translate(70.861817 404.638438) scale(0.1 -0.1)">
       <defs>
        <path id="DejaVuSans-30" d="M 2034 4250 
Q 1547 4250 1301 3770 
Q 1056 3291 1056 2328 
Q 1056 1369 1301 889 
Q 1547 409 2034 409 
Q 2525 409 2770 889 
Q 3016 1369 3016 2328 
Q 3016 3291 2770 3770 
Q 2525 4250 2034 4250 
z
M 2034 4750 
Q 2819 4750 3233 4129 
Q 3647 3509 3647 2328 
Q 3647 1150 3233 529 
Q 2819 -91 2034 -91 
Q 1250 -91 836 529 
Q 422 1150 422 2328 
Q 422 3509 836 4129 
Q 1250 4750 2034 4750 
z
" transform="scale(0.015625)"/>
       </defs>
       <use xlink:href="#DejaVuSans-30"/>
      </g>
     </g>
    </g>
    <g id="xtick_2">
     <g id="line2d_3">
      <path d="M 195.082978 390.04 
L 195.082978 26.88 
" clip-path="url(#p4604aa6358)" style="fill: none; stroke: #b0b0b0; stroke-width: 0.8; stroke-linecap: square"/>
     </g>
     <g id="line2d_4">
      <g>
       <use xlink:href="#m762dfd1330" x="195.082978" y="390.04" style="stroke: #000000; stroke-width: 0.8"/>
      </g>
     </g>
     <g id="text_2">
      <!-- 20 -->
      <g transform="translate(188.720478 404.638438) scale(0.1 -0.1)">
       <defs>
        <path id="DejaVuSans-32" d="M 1228 531 
L 3431 531 
L 3431 0 
L 469 0 
L 469 531 
Q 828 903 1448 1529 
Q 2069 2156 2228 2338 
Q 2531 2678 2651 2914 
Q 2772 3150 2772 3378 
Q 2772 3750 2511 3984 
Q 2250 4219 1831 4219 
Q 1534 4219 1204 4116 
Q 875 4013 500 3803 
L 500 4441 
Q 881 4594 1212 4672 
Q 1544 4750 1819 4750 
Q 2544 4750 2975 4387 
Q 3406 4025 3406 3419 
Q 3406 3131 3298 2873 
Q 3191 2616 2906 2266 
Q 2828 2175 2409 1742 
Q 1991 1309 1228 531 
z
" transform="scale(0.015625)"/>
       </defs>
       <use xlink:href="#DejaVuSans-32"/>
       <use xlink:href="#DejaVuSans-30" x="63.623047"/>
      </g>
     </g>
    </g>
    <g id="xtick_3">
     <g id="line2d_5">
      <path d="M 316.122889 390.04 
L 316.122889 26.88 
" clip-path="url(#p4604aa6358)" style="fill: none; stroke: #b0b0b0; stroke-width: 0.8; stroke-linecap: square"/>
     </g>
     <g id="line2d_6">
      <g>
       <use xlink:href="#m762dfd1330" x="316.122889" y="390.04" style="stroke: #000000; stroke-width: 0.8"/>
      </g>
     </g>
     <g id="text_3">
      <!-- 40 -->
      <g transform="translate(309.760389 404.638438) scale(0.1 -0.1)">
       <defs>
        <path id="DejaVuSans-34" d="M 2419 4116 
L 825 1625 
L 2419 1625 
L 2419 4116 
z
M 2253 4666 
L 3047 4666 
L 3047 1625 
L 3713 1625 
L 3713 1100 
L 3047 1100 
L 3047 0 
L 2419 0 
L 2419 1100 
L 313 1100 
L 313 1709 
L 2253 4666 
z
" transform="scale(0.015625)"/>
       </defs>
       <use xlink:href="#DejaVuSans-34"/>
       <use xlink:href="#DejaVuSans-30" x="63.623047"/>
      </g>
     </g>
    </g>
    <g id="xtick_4">
     <g id="line2d_7">
      <path d="M 437.1628 390.04 
L 437.1628 26.88 
" clip-path="url(#p4604aa6358)" style="fill: none; stroke: #b0b0b0; stroke-width: 0.8; stroke-linecap: square"/>
     </g>
     <g id="line2d_8">
      <g>
       <use xlink:href="#m762dfd1330" x="437.1628" y="390.04" style="stroke: #000000; stroke-width: 0.8"/>
      </g>
     </g>
     <g id="text_4">
      <!-- 60 -->
      <g transform="translate(430.8003 404.638438) scale(0.1 -0.1)">
       <defs>
        <path id="DejaVuSans-36" d="M 2113 2584 
Q 1688 2584 1439 2293 
Q 1191 2003 1191 1497 
Q 1191 994 1439 701 
Q 1688 409 2113 409 
Q 2538 409 2786 701 
Q 3034 994 3034 1497 
Q 3034 2003 2786 2293 
Q 2538 2584 2113 2584 
z
M 3366 4563 
L 3366 3988 
Q 3128 4100 2886 4159 
Q 2644 4219 2406 4219 
Q 1781 4219 1451 3797 
Q 1122 3375 1075 2522 
Q 1259 2794 1537 2939 
Q 1816 3084 2150 3084 
Q 2853 3084 3261 2657 
Q 3669 2231 3669 1497 
Q 3669 778 3244 343 
Q 2819 -91 2113 -91 
Q 1303 -91 875 529 
Q 447 1150 447 2328 
Q 447 3434 972 4092 
Q 1497 4750 2381 4750 
Q 2619 4750 2861 4703 
Q 3103 4656 3366 4563 
z
" transform="scale(0.015625)"/>
       </defs>
       <use xlink:href="#DejaVuSans-36"/>
       <use xlink:href="#DejaVuSans-30" x="63.623047"/>
      </g>
     </g>
    </g>
    <g id="xtick_5">
     <g id="line2d_9">
      <path d="M 558.202711 390.04 
L 558.202711 26.88 
" clip-path="url(#p4604aa6358)" style="fill: none; stroke: #b0b0b0; stroke-width: 0.8; stroke-linecap: square"/>
     </g>
     <g id="line2d_10">
      <g>
       <use xlink:href="#m762dfd1330" x="558.202711" y="390.04" style="stroke: #000000; stroke-width: 0.8"/>
      </g>
     </g>
     <g id="text_5">
      <!-- 80 -->
      <g transform="translate(551.840211 404.638438) scale(0.1 -0.1)">
       <defs>
        <path id="DejaVuSans-38" d="M 2034 2216 
Q 1584 2216 1326 1975 
Q 1069 1734 1069 1313 
Q 1069 891 1326 650 
Q 1584 409 2034 409 
Q 2484 409 2743 651 
Q 3003 894 3003 1313 
Q 3003 1734 2745 1975 
Q 2488 2216 2034 2216 
z
M 1403 2484 
Q 997 2584 770 2862 
Q 544 3141 544 3541 
Q 544 4100 942 4425 
Q 1341 4750 2034 4750 
Q 2731 4750 3128 4425 
Q 3525 4100 3525 3541 
Q 3525 3141 3298 2862 
Q 3072 2584 2669 2484 
Q 3125 2378 3379 2068 
Q 3634 1759 3634 1313 
Q 3634 634 3220 271 
Q 2806 -91 2034 -91 
Q 1263 -91 848 271 
Q 434 634 434 1313 
Q 434 1759 690 2068 
Q 947 2378 1403 2484 
z
M 1172 3481 
Q 1172 3119 1398 2916 
Q 1625 2713 2034 2713 
Q 2441 2713 2670 2916 
Q 2900 3119 2900 3481 
Q 2900 3844 2670 4047 
Q 2441 4250 2034 4250 
Q 1625 4250 1398 4047 
Q 1172 3844 1172 3481 
z
" transform="scale(0.015625)"/>
       </defs>
       <use xlink:href="#DejaVuSans-38"/>
       <use xlink:href="#DejaVuSans-30" x="63.623047"/>
      </g>
     </g>
    </g>
    <g id="xtick_6">
     <g id="line2d_11">
      <path d="M 679.242622 390.04 
L 679.242622 26.88 
" clip-path="url(#p4604aa6358)" style="fill: none; stroke: #b0b0b0; stroke-width: 0.8; stroke-linecap: square"/>
     </g>
     <g id="line2d_12">
      <g>
       <use xlink:href="#m762dfd1330" x="679.242622" y="390.04" style="stroke: #000000; stroke-width: 0.8"/>
      </g>
     </g>
     <g id="text_6">
      <!-- 100 -->
      <g transform="translate(669.698872 404.638438) scale(0.1 -0.1)">
       <defs>
        <path id="DejaVuSans-31" d="M 794 531 
L 1825 531 
L 1825 4091 
L 703 3866 
L 703 4441 
L 1819 4666 
L 2450 4666 
L 2450 531 
L 3481 531 
L 3481 0 
L 794 0 
L 794 531 
z
" transform="scale(0.015625)"/>
       </defs>
       <use xlink:href="#DejaVuSans-31"/>
       <use xlink:href="#DejaVuSans-30" x="63.623047"/>
       <use xlink:href="#DejaVuSans-30" x="127.246094"/>
      </g>
     </g>
    </g>
    <g id="text_7">
     <!-- Generations -->
     <g transform="translate(349.171186 418.316562) scale(0.1 -0.1)">
      <defs>
       <path id="DejaVuSans-47" d="M 3809 666 
L 3809 1919 
L 2778 1919 
L 2778 2438 
L 4434 2438 
L 4434 434 
Q 4069 175 3628 42 
Q 3188 -91 2688 -91 
Q 1594 -91 976 548 
Q 359 1188 359 2328 
Q 359 3472 976 4111 
Q 1594 4750 2688 4750 
Q 3144 4750 3555 4637 
Q 3966 4525 4313 4306 
L 4313 3634 
Q 3963 3931 3569 4081 
Q 3175 4231 2741 4231 
Q 1884 4231 1454 3753 
Q 1025 3275 1025 2328 
Q 1025 1384 1454 906 
Q 1884 428 2741 428 
Q 3075 428 3337 486 
Q 3600 544 3809 666 
z
" transform="scale(0.015625)"/>
       <path id="DejaVuSans-65" d="M 3597 1894 
L 3597 1613 
L 953 1613 
Q 991 1019 1311 708 
Q 1631 397 2203 397 
Q 2534 397 2845 478 
Q 3156 559 3463 722 
L 3463 178 
Q 3153 47 2828 -22 
Q 2503 -91 2169 -91 
Q 1331 -91 842 396 
Q 353 884 353 1716 
Q 353 2575 817 3079 
Q 1281 3584 2069 3584 
Q 2775 3584 3186 3129 
Q 3597 2675 3597 1894 
z
M 3022 2063 
Q 3016 2534 2758 2815 
Q 2500 3097 2075 3097 
Q 1594 3097 1305 2825 
Q 1016 2553 972 2059 
L 3022 2063 
z
" transform="scale(0.015625)"/>
       <path id="DejaVuSans-6e" d="M 3513 2113 
L 3513 0 
L 2938 0 
L 2938 2094 
Q 2938 2591 2744 2837 
Q 2550 3084 2163 3084 
Q 1697 3084 1428 2787 
Q 1159 2491 1159 1978 
L 1159 0 
L 581 0 
L 581 3500 
L 1159 3500 
L 1159 2956 
Q 1366 3272 1645 3428 
Q 1925 3584 2291 3584 
Q 2894 3584 3203 3211 
Q 3513 2838 3513 2113 
z
" transform="scale(0.015625)"/>
       <path id="DejaVuSans-72" d="M 2631 2963 
Q 2534 3019 2420 3045 
Q 2306 3072 2169 3072 
Q 1681 3072 1420 2755 
Q 1159 2438 1159 1844 
L 1159 0 
L 581 0 
L 581 3500 
L 1159 3500 
L 1159 2956 
Q 1341 3275 1631 3429 
Q 1922 3584 2338 3584 
Q 2397 3584 2469 3576 
Q 2541 3569 2628 3553 
L 2631 2963 
z
" transform="scale(0.015625)"/>
       <path id="DejaVuSans-61" d="M 2194 1759 
Q 1497 1759 1228 1600 
Q 959 1441 959 1056 
Q 959 750 1161 570 
Q 1363 391 1709 391 
Q 2188 391 2477 730 
Q 2766 1069 2766 1631 
L 2766 1759 
L 2194 1759 
z
M 3341 1997 
L 3341 0 
L 2766 0 
L 2766 531 
Q 2569 213 2275 61 
Q 1981 -91 1556 -91 
Q 1019 -91 701 211 
Q 384 513 384 1019 
Q 384 1609 779 1909 
Q 1175 2209 1959 2209 
L 2766 2209 
L 2766 2266 
Q 2766 2663 2505 2880 
Q 2244 3097 1772 3097 
Q 1472 3097 1187 3025 
Q 903 2953 641 2809 
L 641 3341 
Q 956 3463 1253 3523 
Q 1550 3584 1831 3584 
Q 2591 3584 2966 3190 
Q 3341 2797 3341 1997 
z
" transform="scale(0.015625)"/>
       <path id="DejaVuSans-74" d="M 1172 4494 
L 1172 3500 
L 2356 3500 
L 2356 3053 
L 1172 3053 
L 1172 1153 
Q 1172 725 1289 603 
Q 1406 481 1766 481 
L 2356 481 
L 2356 0 
L 1766 0 
Q 1100 0 847 248 
Q 594 497 594 1153 
L 594 3053 
L 172 3053 
L 172 3500 
L 594 3500 
L 594 4494 
L 1172 4494 
z
" transform="scale(0.015625)"/>
       <path id="DejaVuSans-69" d="M 603 3500 
L 1178 3500 
L 1178 0 
L 603 0 
L 603 3500 
z
M 603 4863 
L 1178 4863 
L 1178 4134 
L 603 4134 
L 603 4863 
z
" transform="scale(0.015625)"/>
       <path id="DejaVuSans-6f" d="M 1959 3097 
Q 1497 3097 1228 2736 
Q 959 2375 959 1747 
Q 959 1119 1226 758 
Q 1494 397 1959 397 
Q 2419 397 2687 759 
Q 2956 1122 2956 1747 
Q 2956 2369 2687 2733 
Q 2419 3097 1959 3097 
z
M 1959 3584 
Q 2709 3584 3137 3096 
Q 3566 2609 3566 1747 
Q 3566 888 3137 398 
Q 2709 -91 1959 -91 
Q 1206 -91 779 398 
Q 353 888 353 1747 
Q 353 2609 779 3096 
Q 1206 3584 1959 3584 
z
" transform="scale(0.015625)"/>
       <path id="DejaVuSans-73" d="M 2834 3397 
L 2834 2853 
Q 2591 2978 2328 3040 
Q 2066 3103 1784 3103 
Q 1356 3103 1142 2972 
Q 928 2841 928 2578 
Q 928 2378 1081 2264 
Q 1234 2150 1697 2047 
L 1894 2003 
Q 2506 1872 2764 1633 
Q 3022 1394 3022 966 
Q 3022 478 2636 193 
Q 2250 -91 1575 -91 
Q 1294 -91 989 -36 
Q 684 19 347 128 
L 347 722 
Q 666 556 975 473 
Q 1284 391 1588 391 
Q 1994 391 2212 530 
Q 2431 669 2431 922 
Q 2431 1156 2273 1281 
Q 2116 1406 1581 1522 
L 1381 1569 
Q 847 1681 609 1914 
Q 372 2147 372 2553 
Q 372 3047 722 3315 
Q 1072 3584 1716 3584 
Q 2034 3584 2315 3537 
Q 2597 3491 2834 3397 
z
" transform="scale(0.015625)"/>
      </defs>
      <use xlink:href="#DejaVuSans-47"/>
      <use xlink:href="#DejaVuSans-65" x="77.490234"/>
      <use xlink:href="#DejaVuSans-6e" x="139.013672"/>
      <use xlink:href="#DejaVuSans-65" x="202.392578"/>
      <use xlink:href="#DejaVuSans-72" x="263.916016"/>
      <use xlink:href="#DejaVuSans-61" x="305.029297"/>
      <use xlink:href="#DejaVuSans-74" x="366.308594"/>
      <use xlink:href="#DejaVuSans-69" x="405.517578"/>
      <use xlink:href="#DejaVuSans-6f" x="433.300781"/>
      <use xlink:href="#DejaVuSans-6e" x="494.482422"/>
      <use xlink:href="#DejaVuSans-73" x="557.861328"/>
     </g>
    </g>
   </g>
   <g id="matplotlib.axis_2">
    <g id="ytick_1">
     <g id="line2d_13">
      <path d="M 50.137685 321.786988 
L 709.2 321.786988 
" clip-path="url(#p4604aa6358)" style="fill: none; stroke: #b0b0b0; stroke-width: 0.8; stroke-linecap: square"/>
     </g>
     <g id="line2d_14">
      <defs>
       <path id="m481a0cae80" d="M 0 0 
L -3.5 0 
" style="stroke: #000000; stroke-width: 0.8"/>
      </defs>
      <g>
       <use xlink:href="#m481a0cae80" x="50.137685" y="321.786988" style="stroke: #000000; stroke-width: 0.8"/>
      </g>
     </g>
     <g id="text_8">
      <!-- $\mathdefault{10^{3}}$ -->
      <g transform="translate(25.537685 325.586206) scale(0.1 -0.1)">
       <defs>
        <path id="DejaVuSans-33" d="M 2597 2516 
Q 3050 2419 3304 2112 
Q 3559 1806 3559 1356 
Q 3559 666 3084 287 
Q 2609 -91 1734 -91 
Q 1441 -91 1130 -33 
Q 819 25 488 141 
L 488 750 
Q 750 597 1062 519 
Q 1375 441 1716 441 
Q 2309 441 2620 675 
Q 2931 909 2931 1356 
Q 2931 1769 2642 2001 
Q 2353 2234 1838 2234 
L 1294 2234 
L 1294 2753 
L 1863 2753 
Q 2328 2753 2575 2939 
Q 2822 3125 2822 3475 
Q 2822 3834 2567 4026 
Q 2313 4219 1838 4219 
Q 1578 4219 1281 4162 
Q 984 4106 628 3988 
L 628 4550 
Q 988 4650 1302 4700 
Q 1616 4750 1894 4750 
Q 2613 4750 3031 4423 
Q 3450 4097 3450 3541 
Q 3450 3153 3228 2886 
Q 3006 2619 2597 2516 
z
" transform="scale(0.015625)"/>
       </defs>
       <use xlink:href="#DejaVuSans-31" transform="translate(0 0.765625)"/>
       <use xlink:href="#DejaVuSans-30" transform="translate(63.623047 0.765625)"/>
       <use xlink:href="#DejaVuSans-33" transform="translate(128.203125 39.046875) scale(0.7)"/>
      </g>
     </g>
    </g>
    <g id="ytick_2">
     <g id="line2d_15">
      <path d="M 50.137685 159.101203 
L 709.2 159.101203 
" clip-path="url(#p4604aa6358)" style="fill: none; stroke: #b0b0b0; stroke-width: 0.8; stroke-linecap: square"/>
     </g>
     <g id="line2d_16">
      <g>
       <use xlink:href="#m481a0cae80" x="50.137685" y="159.101203" style="stroke: #000000; stroke-width: 0.8"/>
      </g>
     </g>
     <g id="text_9">
      <!-- $\mathdefault{10^{4}}$ -->
      <g transform="translate(25.537685 162.900422) scale(0.1 -0.1)">
       <use xlink:href="#DejaVuSans-31" transform="translate(0 0.684375)"/>
       <use xlink:href="#DejaVuSans-30" transform="translate(63.623047 0.684375)"/>
       <use xlink:href="#DejaVuSans-34" transform="translate(128.203125 38.965625) scale(0.7)"/>
      </g>
     </g>
    </g>
    <g id="ytick_3">
     <g id="line2d_17">
      <defs>
       <path id="m4809b5c633" d="M 0 0 
L -2 0 
" style="stroke: #000000; stroke-width: 0.6"/>
      </defs>
      <g>
       <use xlink:href="#m4809b5c633" x="50.137685" y="386.52617" style="stroke: #000000; stroke-width: 0.6"/>
      </g>
     </g>
    </g>
    <g id="ytick_4">
     <g id="line2d_18">
      <g>
       <use xlink:href="#m4809b5c633" x="50.137685" y="370.760289" style="stroke: #000000; stroke-width: 0.6"/>
      </g>
     </g>
    </g>
    <g id="ytick_5">
     <g id="line2d_19">
      <g>
       <use xlink:href="#m4809b5c633" x="50.137685" y="357.878625" style="stroke: #000000; stroke-width: 0.6"/>
      </g>
     </g>
    </g>
    <g id="ytick_6">
     <g id="line2d_20">
      <g>
       <use xlink:href="#m4809b5c633" x="50.137685" y="346.987334" style="stroke: #000000; stroke-width: 0.6"/>
      </g>
     </g>
    </g>
    <g id="ytick_7">
     <g id="line2d_21">
      <g>
       <use xlink:href="#m4809b5c633" x="50.137685" y="337.552869" style="stroke: #000000; stroke-width: 0.6"/>
      </g>
     </g>
    </g>
    <g id="ytick_8">
     <g id="line2d_22">
      <g>
       <use xlink:href="#m4809b5c633" x="50.137685" y="329.231081" style="stroke: #000000; stroke-width: 0.6"/>
      </g>
     </g>
    </g>
    <g id="ytick_9">
     <g id="line2d_23">
      <g>
       <use xlink:href="#m4809b5c633" x="50.137685" y="272.813687" style="stroke: #000000; stroke-width: 0.6"/>
      </g>
     </g>
    </g>
    <g id="ytick_10">
     <g id="line2d_24">
      <g>
       <use xlink:href="#m4809b5c633" x="50.137685" y="244.166142" style="stroke: #000000; stroke-width: 0.6"/>
      </g>
     </g>
    </g>
    <g id="ytick_11">
     <g id="line2d_25">
      <g>
       <use xlink:href="#m4809b5c633" x="50.137685" y="223.840386" style="stroke: #000000; stroke-width: 0.6"/>
      </g>
     </g>
    </g>
    <g id="ytick_12">
     <g id="line2d_26">
      <g>
       <use xlink:href="#m4809b5c633" x="50.137685" y="208.074504" style="stroke: #000000; stroke-width: 0.6"/>
      </g>
     </g>
    </g>
    <g id="ytick_13">
     <g id="line2d_27">
      <g>
       <use xlink:href="#m4809b5c633" x="50.137685" y="195.192841" style="stroke: #000000; stroke-width: 0.6"/>
      </g>
     </g>
    </g>
    <g id="ytick_14">
     <g id="line2d_28">
      <g>
       <use xlink:href="#m4809b5c633" x="50.137685" y="184.30155" style="stroke: #000000; stroke-width: 0.6"/>
      </g>
     </g>
    </g>
    <g id="ytick_15">
     <g id="line2d_29">
      <g>
       <use xlink:href="#m4809b5c633" x="50.137685" y="174.867085" style="stroke: #000000; stroke-width: 0.6"/>
      </g>
     </g>
    </g>
    <g id="ytick_16">
     <g id="line2d_30">
      <g>
       <use xlink:href="#m4809b5c633" x="50.137685" y="166.545296" style="stroke: #000000; stroke-width: 0.6"/>
      </g>
     </g>
    </g>
    <g id="ytick_17">
     <g id="line2d_31">
      <g>
       <use xlink:href="#m4809b5c633" x="50.137685" y="110.127902" style="stroke: #000000; stroke-width: 0.6"/>
      </g>
     </g>
    </g>
    <g id="ytick_18">
     <g id="line2d_32">
      <g>
       <use xlink:href="#m4809b5c633" x="50.137685" y="81.480357" style="stroke: #000000; stroke-width: 0.6"/>
      </g>
     </g>
    </g>
    <g id="ytick_19">
     <g id="line2d_33">
      <g>
       <use xlink:href="#m4809b5c633" x="50.137685" y="61.154601" style="stroke: #000000; stroke-width: 0.6"/>
      </g>
     </g>
    </g>
    <g id="ytick_20">
     <g id="line2d_34">
      <g>
       <use xlink:href="#m4809b5c633" x="50.137685" y="45.38872" style="stroke: #000000; stroke-width: 0.6"/>
      </g>
     </g>
    </g>
    <g id="ytick_21">
     <g id="line2d_35">
      <g>
       <use xlink:href="#m4809b5c633" x="50.137685" y="32.507056" style="stroke: #000000; stroke-width: 0.6"/>
      </g>
     </g>
    </g>
    <g id="text_10">
     <!-- Fitness (log scale) -->
     <g transform="translate(19.457997 253.363125) rotate(-90) scale(0.1 -0.1)">
      <defs>
       <path id="DejaVuSans-46" d="M 628 4666 
L 3309 4666 
L 3309 4134 
L 1259 4134 
L 1259 2759 
L 3109 2759 
L 3109 2228 
L 1259 2228 
L 1259 0 
L 628 0 
L 628 4666 
z
" transform="scale(0.015625)"/>
       <path id="DejaVuSans-20" transform="scale(0.015625)"/>
       <path id="DejaVuSans-28" d="M 1984 4856 
Q 1566 4138 1362 3434 
Q 1159 2731 1159 2009 
Q 1159 1288 1364 580 
Q 1569 -128 1984 -844 
L 1484 -844 
Q 1016 -109 783 600 
Q 550 1309 550 2009 
Q 550 2706 781 3412 
Q 1013 4119 1484 4856 
L 1984 4856 
z
" transform="scale(0.015625)"/>
       <path id="DejaVuSans-6c" d="M 603 4863 
L 1178 4863 
L 1178 0 
L 603 0 
L 603 4863 
z
" transform="scale(0.015625)"/>
       <path id="DejaVuSans-67" d="M 2906 1791 
Q 2906 2416 2648 2759 
Q 2391 3103 1925 3103 
Q 1463 3103 1205 2759 
Q 947 2416 947 1791 
Q 947 1169 1205 825 
Q 1463 481 1925 481 
Q 2391 481 2648 825 
Q 2906 1169 2906 1791 
z
M 3481 434 
Q 3481 -459 3084 -895 
Q 2688 -1331 1869 -1331 
Q 1566 -1331 1297 -1286 
Q 1028 -1241 775 -1147 
L 775 -588 
Q 1028 -725 1275 -790 
Q 1522 -856 1778 -856 
Q 2344 -856 2625 -561 
Q 2906 -266 2906 331 
L 2906 616 
Q 2728 306 2450 153 
Q 2172 0 1784 0 
Q 1141 0 747 490 
Q 353 981 353 1791 
Q 353 2603 747 3093 
Q 1141 3584 1784 3584 
Q 2172 3584 2450 3431 
Q 2728 3278 2906 2969 
L 2906 3500 
L 3481 3500 
L 3481 434 
z
" transform="scale(0.015625)"/>
       <path id="DejaVuSans-63" d="M 3122 3366 
L 3122 2828 
Q 2878 2963 2633 3030 
Q 2388 3097 2138 3097 
Q 1578 3097 1268 2742 
Q 959 2388 959 1747 
Q 959 1106 1268 751 
Q 1578 397 2138 397 
Q 2388 397 2633 464 
Q 2878 531 3122 666 
L 3122 134 
Q 2881 22 2623 -34 
Q 2366 -91 2075 -91 
Q 1284 -91 818 406 
Q 353 903 353 1747 
Q 353 2603 823 3093 
Q 1294 3584 2113 3584 
Q 2378 3584 2631 3529 
Q 2884 3475 3122 3366 
z
" transform="scale(0.015625)"/>
       <path id="DejaVuSans-29" d="M 513 4856 
L 1013 4856 
Q 1481 4119 1714 3412 
Q 1947 2706 1947 2009 
Q 1947 1309 1714 600 
Q 1481 -109 1013 -844 
L 513 -844 
Q 928 -128 1133 580 
Q 1338 1288 1338 2009 
Q 1338 2731 1133 3434 
Q 928 4138 513 4856 
z
" transform="scale(0.015625)"/>
      </defs>
      <use xlink:href="#DejaVuSans-46"/>
      <use xlink:href="#DejaVuSans-69" x="50.269531"/>
      <use xlink:href="#DejaVuSans-74" x="78.052734"/>
      <use xlink:href="#DejaVuSans-6e" x="117.261719"/>
      <use xlink:href="#DejaVuSans-65" x="180.640625"/>
      <use xlink:href="#DejaVuSans-73" x="242.164062"/>
      <use xlink:href="#DejaVuSans-73" x="294.263672"/>
      <use xlink:href="#DejaVuSans-20" x="346.363281"/>
      <use xlink:href="#DejaVuSans-28" x="378.150391"/>
      <use xlink:href="#DejaVuSans-6c" x="417.164062"/>
      <use xlink:href="#DejaVuSans-6f" x="444.947266"/>
      <use xlink:href="#DejaVuSans-67" x="506.128906"/>
      <use xlink:href="#DejaVuSans-20" x="569.605469"/>
      <use xlink:href="#DejaVuSans-73" x="601.392578"/>
      <use xlink:href="#DejaVuSans-63" x="653.492188"/>
      <use xlink:href="#DejaVuSans-61" x="708.472656"/>
      <use xlink:href="#DejaVuSans-6c" x="769.751953"/>
      <use xlink:href="#DejaVuSans-65" x="797.535156"/>
      <use xlink:href="#DejaVuSans-29" x="859.058594"/>
     </g>
    </g>
   </g>
   <g id="line2d_36">
    <path d="M 80.095063 43.387273 
L 86.147058 47.482747 
L 92.199054 51.178988 
L 98.251049 55.15178 
L 104.303045 59.455248 
L 110.35504 63.301942 
L 116.407036 69.000578 
L 122.459032 72.930036 
L 128.511027 75.438169 
L 134.563023 80.060647 
L 140.615018 85.095445 
L 146.667014 88.623924 
L 152.719009 93.497241 
L 158.771005 97.185023 
L 164.823 101.130785 
L 170.874996 104.353754 
L 176.926992 108.920077 
L 182.978987 112.458317 
L 189.030983 116.419561 
L 195.082978 119.894938 
L 201.134974 123.538061 
L 207.186969 127.049913 
L 213.238965 129.672079 
L 219.29096 133.903614 
L 225.342956 137.426385 
L 231.394951 141.518554 
L 237.446947 144.376169 
L 243.498943 148.251913 
L 249.550938 151.104372 
L 255.602934 154.428836 
L 261.654929 158.135964 
L 267.706925 161.011165 
L 273.75892 163.821206 
L 279.810916 166.428631 
L 285.862911 170.201612 
L 291.914907 172.671608 
L 297.966902 175.612333 
L 304.018898 178.278876 
L 310.070894 181.739859 
L 316.122889 184.737716 
L 322.174885 187.456494 
L 328.22688 190.146875 
L 334.278876 192.662587 
L 340.330871 196.006531 
L 346.382867 198.678119 
L 352.434862 201.367656 
L 358.486858 203.992446 
L 364.538854 206.845752 
L 370.590849 209.850351 
L 376.642845 212.059239 
L 382.69484 214.857712 
L 388.746836 217.813232 
L 394.798831 221.45157 
L 400.850827 223.877076 
L 406.902822 227.161958 
L 412.954818 230.342847 
L 419.006813 231.778882 
L 425.058809 235.752511 
L 431.110805 238.090132 
L 437.1628 241.205922 
L 443.214796 244.30295 
L 449.266791 246.999678 
L 455.318787 249.492421 
L 461.370782 253.054185 
L 467.422778 255.918972 
L 473.474773 258.696926 
L 479.526769 261.988235 
L 485.578764 265.582156 
L 491.63076 268.298205 
L 497.682756 271.549763 
L 503.734751 274.001408 
L 509.786747 276.184461 
L 515.838742 278.922435 
L 521.890738 281.356436 
L 527.942733 284.00079 
L 533.994729 286.510572 
L 540.046724 289.197092 
L 546.09872 291.771264 
L 552.150716 294.130168 
L 558.202711 296.43504 
L 564.254707 298.87654 
L 570.306702 301.354978 
L 576.358698 303.454127 
L 582.410693 305.549025 
L 588.462689 307.369142 
L 594.514684 309.146547 
L 600.56668 311.532828 
L 606.618675 312.934626 
L 612.670671 314.95072 
L 618.722667 316.875165 
L 624.774662 319.583178 
L 630.826658 321.520186 
L 636.878653 323.167774 
L 642.930649 324.884223 
L 648.982644 326.890817 
L 655.03464 328.658756 
L 661.086635 330.326813 
L 667.138631 331.944324 
L 673.190626 334.249367 
L 679.242622 335.696612 
" clip-path="url(#p4604aa6358)" style="fill: none; stroke: #1f77b4; stroke-width: 1.5; stroke-linecap: square"/>
   </g>
   <g id="line2d_37">
    <path d="M 80.095063 43.609794 
L 86.147058 48.47568 
L 92.199054 53.027609 
L 98.251049 58.380032 
L 104.303045 61.861725 
L 110.35504 67.703162 
L 116.407036 71.995225 
L 122.459032 76.034756 
L 128.511027 81.596482 
L 134.563023 86.208544 
L 140.615018 91.534474 
L 146.667014 94.619943 
L 152.719009 99.14722 
L 158.771005 104.508698 
L 164.823 108.808179 
L 170.874996 113.273728 
L 176.926992 118.275215 
L 182.978987 121.6352 
L 189.030983 125.559091 
L 195.082978 128.673433 
L 201.134974 132.473105 
L 207.186969 136.641051 
L 213.238965 141.546765 
L 219.29096 144.824647 
L 225.342956 148.388366 
L 231.394951 152.189336 
L 237.446947 155.613576 
L 243.498943 159.826498 
L 249.550938 162.790585 
L 255.602934 166.249538 
L 261.654929 169.597462 
L 267.706925 173.056236 
L 273.75892 176.15586 
L 279.810916 179.252958 
L 285.862911 182.187675 
L 291.914907 185.492522 
L 297.966902 188.766853 
L 304.018898 191.593621 
L 310.070894 195.116772 
L 316.122889 198.008034 
L 322.174885 201.390963 
L 328.22688 204.389951 
L 334.278876 207.780679 
L 340.330871 211.093633 
L 346.382867 213.941037 
L 352.434862 217.477539 
L 358.486858 220.536378 
L 364.538854 223.634965 
L 370.590849 226.765585 
L 376.642845 230.419837 
L 382.69484 233.368579 
L 388.746836 236.698454 
L 394.798831 239.827553 
L 400.850827 243.208244 
L 406.902822 246.429238 
L 412.954818 249.866721 
L 419.006813 252.48846 
L 425.058809 256.043687 
L 431.110805 259.194417 
L 437.1628 262.264479 
L 443.214796 265.159711 
L 449.266791 267.836644 
L 455.318787 270.86441 
L 461.370782 273.900171 
L 467.422778 276.351149 
L 473.474773 279.348819 
L 479.526769 282.479196 
L 485.578764 284.778727 
L 491.63076 286.838251 
L 497.682756 289.470838 
L 503.734751 292.237096 
L 509.786747 294.387466 
L 515.838742 297.09963 
L 521.890738 299.068204 
L 527.942733 302.091259 
L 533.994729 303.947673 
L 540.046724 306.386433 
L 546.09872 308.455558 
L 552.150716 310.755739 
L 558.202711 313.193158 
L 564.254707 315.808075 
L 570.306702 317.717423 
L 576.358698 320.27274 
L 582.410693 322.618031 
L 588.462689 324.952416 
L 594.514684 326.653252 
L 600.56668 328.718223 
L 606.618675 330.323092 
L 612.670671 331.825593 
L 618.722667 333.694444 
L 624.774662 335.637852 
L 630.826658 337.104175 
L 636.878653 338.8827 
L 642.930649 340.078903 
L 648.982644 341.653578 
L 655.03464 343.638255 
L 661.086635 345.309378 
L 667.138631 346.645995 
L 673.190626 348.007363 
L 679.242622 349.64307 
" clip-path="url(#p4604aa6358)" style="fill: none; stroke: #aec7e8; stroke-width: 1.5; stroke-linecap: square"/>
   </g>
   <g id="line2d_38">
    <path d="M 80.095063 44.755253 
L 86.147058 48.099207 
L 92.199054 52.961425 
L 98.251049 58.409113 
L 104.303045 62.974808 
L 110.35504 68.761332 
L 116.407036 74.403449 
L 122.459032 78.835598 
L 128.511027 83.092942 
L 134.563023 88.564712 
L 140.615018 94.282491 
L 146.667014 99.965811 
L 152.719009 103.853398 
L 158.771005 109.01518 
L 164.823 113.610702 
L 170.874996 118.302112 
L 176.926992 124.129191 
L 182.978987 128.418139 
L 189.030983 133.271605 
L 195.082978 137.514299 
L 201.134974 142.287175 
L 207.186969 146.42302 
L 213.238965 150.736178 
L 219.29096 154.8906 
L 225.342956 158.568066 
L 231.394951 162.709689 
L 237.446947 167.145146 
L 243.498943 170.309638 
L 249.550938 173.812947 
L 255.602934 177.198546 
L 261.654929 180.81383 
L 267.706925 184.146954 
L 273.75892 187.942498 
L 279.810916 190.814285 
L 285.862911 194.721392 
L 291.914907 197.431015 
L 297.966902 200.600686 
L 304.018898 203.795194 
L 310.070894 207.080324 
L 316.122889 209.742432 
L 322.174885 212.896881 
L 328.22688 216.343657 
L 334.278876 219.286638 
L 340.330871 221.90858 
L 346.382867 225.537087 
L 352.434862 228.303359 
L 358.486858 231.501154 
L 364.538854 234.71687 
L 370.590849 237.841545 
L 376.642845 241.786548 
L 382.69484 244.989878 
L 388.746836 249.130789 
L 394.798831 251.661019 
L 400.850827 255.180045 
L 406.902822 258.503465 
L 412.954818 262.438838 
L 419.006813 265.067525 
L 425.058809 268.073434 
L 431.110805 271.043337 
L 437.1628 273.928517 
L 443.214796 276.551745 
L 449.266791 279.576391 
L 455.318787 282.32881 
L 461.370782 284.783749 
L 467.422778 287.222304 
L 473.474773 289.882705 
L 479.526769 293.19756 
L 485.578764 295.523988 
L 491.63076 297.211809 
L 497.682756 300.039078 
L 503.734751 302.242369 
L 509.786747 304.479708 
L 515.838742 306.774983 
L 521.890738 309.205059 
L 527.942733 311.146456 
L 533.994729 312.550659 
L 540.046724 315.313385 
L 546.09872 316.987958 
L 552.150716 319.666092 
L 558.202711 321.354033 
L 564.254707 322.565863 
L 570.306702 325.093196 
L 576.358698 326.844758 
L 582.410693 329.283698 
L 588.462689 330.848848 
L 594.514684 332.224144 
L 600.56668 334.413347 
L 606.618675 336.617047 
L 612.670671 337.913236 
L 618.722667 339.323548 
L 624.774662 341.012565 
L 630.826658 342.812369 
L 636.878653 344.16936 
L 642.930649 346.234359 
L 648.982644 347.38749 
L 655.03464 348.959944 
L 661.086635 350.578105 
L 667.138631 352.034805 
L 673.190626 353.12472 
L 679.242622 354.203387 
" clip-path="url(#p4604aa6358)" style="fill: none; stroke: #ff7f0e; stroke-width: 1.5; stroke-linecap: square"/>
   </g>
   <g id="line2d_39">
    <path d="M 80.095063 43.568881 
L 86.147058 48.721305 
L 92.199054 53.305187 
L 98.251049 58.783451 
L 104.303045 65.103868 
L 110.35504 69.638962 
L 116.407036 75.197377 
L 122.459032 80.502721 
L 128.511027 86.250819 
L 134.563023 91.756443 
L 140.615018 96.526776 
L 146.667014 102.439488 
L 152.719009 107.031725 
L 158.771005 112.769506 
L 164.823 118.519027 
L 170.874996 122.913542 
L 176.926992 128.750194 
L 182.978987 132.745812 
L 189.030983 137.691848 
L 195.082978 142.316586 
L 201.134974 146.340441 
L 207.186969 151.54766 
L 213.238965 155.531444 
L 219.29096 159.862865 
L 225.342956 163.487352 
L 231.394951 168.212345 
L 237.446947 172.509013 
L 243.498943 175.410285 
L 249.550938 179.222392 
L 255.602934 182.585295 
L 261.654929 186.337016 
L 267.706925 190.123635 
L 273.75892 193.780979 
L 279.810916 196.858872 
L 285.862911 200.20631 
L 291.914907 204.055204 
L 297.966902 207.332874 
L 304.018898 210.267891 
L 310.070894 213.335869 
L 316.122889 217.294509 
L 322.174885 220.114824 
L 328.22688 224.005141 
L 334.278876 227.228206 
L 340.330871 230.48973 
L 346.382867 234.031449 
L 352.434862 237.712312 
L 358.486858 241.6346 
L 364.538854 245.337899 
L 370.590849 249.769093 
L 376.642845 253.698289 
L 382.69484 257.044791 
L 388.746836 260.89483 
L 394.798831 264.147323 
L 400.850827 266.664995 
L 406.902822 270.059364 
L 412.954818 273.028564 
L 419.006813 276.411094 
L 425.058809 279.286072 
L 431.110805 281.844228 
L 437.1628 284.767709 
L 443.214796 288.452212 
L 449.266791 290.651087 
L 455.318787 292.563692 
L 461.370782 295.687549 
L 467.422778 298.25821 
L 473.474773 300.568709 
L 479.526769 303.339394 
L 485.578764 306.311854 
L 491.63076 308.588487 
L 497.682756 310.67218 
L 503.734751 312.554792 
L 509.786747 315.067547 
L 515.838742 317.262669 
L 521.890738 319.452951 
L 527.942733 321.543887 
L 533.994729 324.027471 
L 540.046724 326.378522 
L 546.09872 328.414665 
L 552.150716 329.998554 
L 558.202711 332.211314 
L 564.254707 334.240378 
L 570.306702 336.425566 
L 576.358698 338.145303 
L 582.410693 340.017603 
L 588.462689 341.387025 
L 594.514684 343.120667 
L 600.56668 344.974723 
L 606.618675 346.52623 
L 612.670671 347.926853 
L 618.722667 349.16471 
L 624.774662 351.045849 
L 630.826658 352.230934 
L 636.878653 353.83582 
L 642.930649 354.778068 
L 648.982644 356.135537 
L 655.03464 357.155782 
L 661.086635 358.429906 
L 667.138631 359.316433 
L 673.190626 360.939699 
L 679.242622 361.619291 
" clip-path="url(#p4604aa6358)" style="fill: none; stroke: #ffbb78; stroke-width: 1.5; stroke-linecap: square"/>
   </g>
   <g id="line2d_40">
    <path d="M 80.095063 44.515882 
L 86.147058 49.524487 
L 92.199054 54.813851 
L 98.251049 60.552124 
L 104.303045 66.492263 
L 110.35504 72.398642 
L 116.407036 78.633303 
L 122.459032 84.633571 
L 128.511027 89.613646 
L 134.563023 95.402572 
L 140.615018 100.935759 
L 146.667014 107.040584 
L 152.719009 112.103116 
L 158.771005 116.906145 
L 164.823 122.615276 
L 170.874996 128.447465 
L 176.926992 132.568037 
L 182.978987 137.640153 
L 189.030983 142.471063 
L 195.082978 147.95839 
L 201.134974 153.250409 
L 207.186969 157.684116 
L 213.238965 162.116104 
L 219.29096 166.547782 
L 225.342956 170.663333 
L 231.394951 174.629148 
L 237.446947 178.59037 
L 243.498943 182.536647 
L 249.550938 186.489266 
L 255.602934 189.727691 
L 261.654929 193.611391 
L 267.706925 196.480507 
L 273.75892 200.237836 
L 279.810916 204.214373 
L 285.862911 206.947711 
L 291.914907 210.432259 
L 297.966902 214.03768 
L 304.018898 217.182967 
L 310.070894 221.013335 
L 316.122889 224.325138 
L 322.174885 227.916328 
L 328.22688 231.686185 
L 334.278876 235.153696 
L 340.330871 238.58951 
L 346.382867 242.591063 
L 352.434862 245.885805 
L 358.486858 249.4964 
L 364.538854 253.420144 
L 370.590849 257.725741 
L 376.642845 261.158536 
L 382.69484 265.554417 
L 388.746836 269.774765 
L 394.798831 272.83041 
L 400.850827 275.503263 
L 406.902822 278.59848 
L 412.954818 281.241579 
L 419.006813 284.530044 
L 425.058809 287.339794 
L 431.110805 290.30091 
L 437.1628 292.772996 
L 443.214796 295.932786 
L 449.266791 298.059805 
L 455.318787 300.402337 
L 461.370782 303.147379 
L 467.422778 304.951541 
L 473.474773 307.409866 
L 479.526769 309.640003 
L 485.578764 311.792201 
L 491.63076 314.14823 
L 497.682756 316.108864 
L 503.734751 318.735208 
L 509.786747 320.681475 
L 515.838742 323.014718 
L 521.890738 325.230547 
L 527.942733 326.624999 
L 533.994729 329.021786 
L 540.046724 331.084585 
L 546.09872 333.288923 
L 552.150716 335.420719 
L 558.202711 336.954852 
L 564.254707 338.772991 
L 570.306702 340.780147 
L 576.358698 342.670116 
L 582.410693 343.827822 
L 588.462689 345.901268 
L 594.514684 347.242146 
L 600.56668 349.043373 
L 606.618675 350.147908 
L 612.670671 351.332927 
L 618.722667 352.652897 
L 624.774662 354.219039 
L 630.826658 355.462456 
L 636.878653 356.537247 
L 642.930649 357.95678 
L 648.982644 358.759412 
L 655.03464 360.129482 
L 661.086635 360.951587 
L 667.138631 361.998992 
L 673.190626 363.000515 
L 679.242622 363.783485 
" clip-path="url(#p4604aa6358)" style="fill: none; stroke: #2ca02c; stroke-width: 1.5; stroke-linecap: square"/>
   </g>
   <g id="line2d_41">
    <path d="M 80.095063 45.216676 
L 86.147058 49.949599 
L 92.199054 56.092294 
L 98.251049 62.066808 
L 104.303045 67.39659 
L 110.35504 74.041563 
L 116.407036 80.880433 
L 122.459032 85.709049 
L 128.511027 91.342882 
L 134.563023 97.657469 
L 140.615018 103.50605 
L 146.667014 108.820258 
L 152.719009 113.970898 
L 158.771005 119.798921 
L 164.823 125.24947 
L 170.874996 130.222983 
L 176.926992 135.525901 
L 182.978987 140.631265 
L 189.030983 145.796554 
L 195.082978 150.536846 
L 201.134974 156.260543 
L 207.186969 161.304041 
L 213.238965 165.562388 
L 219.29096 170.405254 
L 225.342956 174.437115 
L 231.394951 178.361168 
L 237.446947 183.358357 
L 243.498943 186.711469 
L 249.550938 190.963048 
L 255.602934 194.878036 
L 261.654929 198.626057 
L 267.706925 202.708715 
L 273.75892 205.779032 
L 279.810916 208.906406 
L 285.862911 213.141079 
L 291.914907 216.198457 
L 297.966902 219.7721 
L 304.018898 223.229642 
L 310.070894 226.747546 
L 316.122889 230.562088 
L 322.174885 234.697987 
L 328.22688 238.498596 
L 334.278876 241.967355 
L 340.330871 245.883311 
L 346.382867 249.933301 
L 352.434862 253.065582 
L 358.486858 256.761908 
L 364.538854 260.131016 
L 370.590849 263.816548 
L 376.642845 267.666414 
L 382.69484 270.786787 
L 388.746836 274.115864 
L 394.798831 277.445193 
L 400.850827 280.786646 
L 406.902822 282.908916 
L 412.954818 286.361208 
L 419.006813 289.555258 
L 425.058809 292.076373 
L 431.110805 293.900303 
L 437.1628 297.342327 
L 443.214796 300.354676 
L 449.266791 303.147017 
L 455.318787 305.829565 
L 461.370782 307.711801 
L 467.422778 310.219458 
L 473.474773 312.604409 
L 479.526769 315.941722 
L 485.578764 318.22773 
L 491.63076 320.873946 
L 497.682756 322.962256 
L 503.734751 325.444764 
L 509.786747 327.756057 
L 515.838742 329.988238 
L 521.890738 331.20988 
L 527.942733 333.40209 
L 533.994729 335.064854 
L 540.046724 336.532557 
L 546.09872 338.343295 
L 552.150716 340.063954 
L 558.202711 341.722247 
L 564.254707 343.512586 
L 570.306702 345.291967 
L 576.358698 346.607836 
L 582.410693 348.137191 
L 588.462689 349.481862 
L 594.514684 351.137131 
L 600.56668 352.178049 
L 606.618675 353.550594 
L 612.670671 354.578121 
L 618.722667 355.655035 
L 624.774662 357.110727 
L 630.826658 357.929279 
L 636.878653 358.652977 
L 642.930649 359.741936 
L 648.982644 360.449117 
L 655.03464 361.260969 
L 661.086635 361.779222 
L 667.138631 362.636398 
L 673.190626 363.328773 
L 679.242622 363.937705 
" clip-path="url(#p4604aa6358)" style="fill: none; stroke: #98df8a; stroke-width: 1.5; stroke-linecap: square"/>
   </g>
   <g id="line2d_42">
    <path d="M 80.095063 44.183506 
L 86.147058 50.211253 
L 92.199054 56.840542 
L 98.251049 62.420139 
L 104.303045 69.783396 
L 110.35504 75.329204 
L 116.407036 82.0004 
L 122.459032 87.749022 
L 128.511027 95.101465 
L 134.563023 100.459169 
L 140.615018 107.183038 
L 146.667014 112.927853 
L 152.719009 120.102701 
L 158.771005 125.732099 
L 164.823 131.541976 
L 170.874996 137.414463 
L 176.926992 141.988397 
L 182.978987 147.425287 
L 189.030983 153.975677 
L 195.082978 157.969751 
L 201.134974 162.536998 
L 207.186969 167.17368 
L 213.238965 171.952831 
L 219.29096 176.809126 
L 225.342956 180.719454 
L 231.394951 185.234727 
L 237.446947 189.511023 
L 243.498943 193.858857 
L 249.550938 197.160729 
L 255.602934 201.652279 
L 261.654929 206.059872 
L 267.706925 210.338475 
L 273.75892 213.137688 
L 279.810916 216.776476 
L 285.862911 221.64508 
L 291.914907 225.536423 
L 297.966902 229.551795 
L 304.018898 232.932641 
L 310.070894 237.783569 
L 316.122889 241.133387 
L 322.174885 245.2543 
L 328.22688 248.92383 
L 334.278876 252.796121 
L 340.330871 256.580216 
L 346.382867 260.206929 
L 352.434862 263.801413 
L 358.486858 267.462524 
L 364.538854 270.972285 
L 370.590849 275.095874 
L 376.642845 278.661259 
L 382.69484 281.531403 
L 388.746836 285.338604 
L 394.798831 288.371447 
L 400.850827 292.290752 
L 406.902822 295.577112 
L 412.954818 298.576278 
L 419.006813 301.629587 
L 425.058809 304.230363 
L 431.110805 306.652452 
L 437.1628 309.573798 
L 443.214796 311.330034 
L 449.266791 314.294231 
L 455.318787 316.744786 
L 461.370782 319.116522 
L 467.422778 321.867107 
L 473.474773 323.859931 
L 479.526769 326.244693 
L 485.578764 328.618016 
L 491.63076 331.0188 
L 497.682756 332.68401 
L 503.734751 334.642937 
L 509.786747 337.021731 
L 515.838742 338.598588 
L 521.890738 340.230397 
L 527.942733 342.642902 
L 533.994729 344.598373 
L 540.046724 346.424021 
L 546.09872 348.14403 
L 552.150716 349.510099 
L 558.202711 350.773421 
L 564.254707 351.940914 
L 570.306702 353.532506 
L 576.358698 354.743515 
L 582.410693 356.049042 
L 588.462689 356.897497 
L 594.514684 357.998839 
L 600.56668 359.070499 
L 606.618675 360.237355 
L 612.670671 361.237503 
L 618.722667 362.012724 
L 624.774662 363.322837 
L 630.826658 363.995891 
L 636.878653 364.650358 
L 642.930649 365.325336 
L 648.982644 365.766786 
L 655.03464 366.271545 
L 661.086635 366.681165 
L 667.138631 366.974319 
L 673.190626 367.527845 
L 679.242622 367.920398 
" clip-path="url(#p4604aa6358)" style="fill: none; stroke: #d62728; stroke-width: 1.5; stroke-linecap: square"/>
   </g>
   <g id="line2d_43">
    <path d="M 80.095063 45.752162 
L 86.147058 50.922882 
L 92.199054 55.866472 
L 98.251049 63.112506 
L 104.303045 69.561083 
L 110.35504 76.811084 
L 116.407036 83.134558 
L 122.459032 90.322575 
L 128.511027 96.605247 
L 134.563023 104.865526 
L 140.615018 110.629256 
L 146.667014 117.73344 
L 152.719009 123.805421 
L 158.771005 129.98777 
L 164.823 136.84465 
L 170.874996 142.668625 
L 176.926992 148.672915 
L 182.978987 153.920984 
L 189.030983 159.631607 
L 195.082978 165.216423 
L 201.134974 170.450649 
L 207.186969 175.095813 
L 213.238965 179.663369 
L 219.29096 184.003986 
L 225.342956 188.263386 
L 231.394951 193.13532 
L 237.446947 197.070177 
L 243.498943 200.529829 
L 249.550938 204.975284 
L 255.602934 208.864382 
L 261.654929 212.375502 
L 267.706925 216.266656 
L 273.75892 219.819973 
L 279.810916 224.490792 
L 285.862911 227.952826 
L 291.914907 232.328405 
L 297.966902 236.994306 
L 304.018898 240.420364 
L 310.070894 244.580995 
L 316.122889 249.017522 
L 322.174885 252.645752 
L 328.22688 256.20715 
L 334.278876 260.140464 
L 340.330871 263.843094 
L 346.382867 267.30942 
L 352.434862 271.548375 
L 358.486858 274.685622 
L 364.538854 277.833518 
L 370.590849 281.343679 
L 376.642845 284.88775 
L 382.69484 288.844278 
L 388.746836 291.111399 
L 394.798831 293.972075 
L 400.850827 296.371734 
L 406.902822 298.910435 
L 412.954818 301.370147 
L 419.006813 303.654812 
L 425.058809 306.189934 
L 431.110805 309.164076 
L 437.1628 311.052722 
L 443.214796 313.589869 
L 449.266791 316.358795 
L 455.318787 318.270516 
L 461.370782 321.320101 
L 467.422778 323.539798 
L 473.474773 326.081328 
L 479.526769 328.266858 
L 485.578764 330.360574 
L 491.63076 332.947746 
L 497.682756 334.797357 
L 503.734751 336.996607 
L 509.786747 338.647007 
L 515.838742 340.462544 
L 521.890738 342.552475 
L 527.942733 343.905724 
L 533.994729 345.559188 
L 540.046724 346.858593 
L 546.09872 348.472771 
L 552.150716 349.823205 
L 558.202711 351.247825 
L 564.254707 352.905973 
L 570.306702 353.572011 
L 576.358698 354.512221 
L 582.410693 355.69917 
L 588.462689 356.551884 
L 594.514684 357.596966 
L 600.56668 358.459581 
L 606.618675 359.385368 
L 612.670671 359.908575 
L 618.722667 360.429987 
L 624.774662 361.010237 
L 630.826658 361.60729 
L 636.878653 362.363595 
L 642.930649 362.884552 
L 648.982644 363.339373 
L 655.03464 363.621938 
L 661.086635 364.078119 
L 667.138631 364.551067 
L 673.190626 364.883158 
L 679.242622 365.048488 
" clip-path="url(#p4604aa6358)" style="fill: none; stroke: #ff9896; stroke-width: 1.5; stroke-linecap: square"/>
   </g>
   <g id="line2d_44">
    <path d="M 80.095063 45.116339 
L 86.147058 50.10189 
L 92.199054 57.364301 
L 98.251049 64.606049 
L 104.303045 71.550975 
L 110.35504 78.92796 
L 116.407036 87.035344 
L 122.459032 93.991057 
L 128.511027 100.146129 
L 134.563023 108.948849 
L 140.615018 115.594672 
L 146.667014 122.867863 
L 152.719009 130.032533 
L 158.771005 136.420627 
L 164.823 142.512449 
L 170.874996 149.154395 
L 176.926992 155.022724 
L 182.978987 160.420991 
L 189.030983 166.028282 
L 195.082978 172.010935 
L 201.134974 177.47582 
L 207.186969 182.261215 
L 213.238965 186.842762 
L 219.29096 191.357816 
L 225.342956 196.342013 
L 231.394951 201.032782 
L 237.446947 204.892789 
L 243.498943 209.156827 
L 249.550938 213.608126 
L 255.602934 217.375916 
L 261.654929 222.15438 
L 267.706925 226.19181 
L 273.75892 230.604904 
L 279.810916 234.853807 
L 285.862911 239.087328 
L 291.914907 243.377823 
L 297.966902 247.466592 
L 304.018898 251.404419 
L 310.070894 255.010516 
L 316.122889 259.327974 
L 322.174885 263.853052 
L 328.22688 267.388766 
L 334.278876 270.940399 
L 340.330871 275.40315 
L 346.382867 278.696189 
L 352.434862 281.721764 
L 358.486858 285.382202 
L 364.538854 288.942894 
L 370.590849 292.271983 
L 376.642845 295.192502 
L 382.69484 298.208936 
L 388.746836 301.393436 
L 394.798831 304.678156 
L 400.850827 307.122994 
L 406.902822 309.84973 
L 412.954818 311.965988 
L 419.006813 314.987074 
L 425.058809 317.595248 
L 431.110805 320.057533 
L 437.1628 322.858645 
L 443.214796 325.038922 
L 449.266791 326.926014 
L 455.318787 328.811548 
L 461.370782 331.05531 
L 467.422778 333.349367 
L 473.474773 335.098682 
L 479.526769 337.054171 
L 485.578764 338.607253 
L 491.63076 340.459784 
L 497.682756 342.347704 
L 503.734751 343.954698 
L 509.786747 345.416566 
L 515.838742 346.541607 
L 521.890738 348.177554 
L 527.942733 349.539045 
L 533.994729 351.031597 
L 540.046724 352.241806 
L 546.09872 353.538781 
L 552.150716 354.559393 
L 558.202711 355.561908 
L 564.254707 356.612389 
L 570.306702 357.310195 
L 576.358698 358.170477 
L 582.410693 359.070898 
L 588.462689 359.890803 
L 594.514684 360.654983 
L 600.56668 361.340073 
L 606.618675 362.020632 
L 612.670671 362.50175 
L 618.722667 363.06596 
L 624.774662 363.5547 
L 630.826658 364.164732 
L 636.878653 364.582566 
L 642.930649 364.939093 
L 648.982644 365.237288 
L 655.03464 365.812445 
L 661.086635 366.11568 
L 667.138631 366.371514 
L 673.190626 366.586085 
L 679.242622 366.853435 
" clip-path="url(#p4604aa6358)" style="fill: none; stroke: #9467bd; stroke-width: 1.5; stroke-linecap: square"/>
   </g>
   <g id="line2d_45">
    <path d="M 80.095063 45.418301 
L 86.147058 50.501967 
L 92.199054 57.564771 
L 98.251049 65.313038 
L 104.303045 72.925299 
L 110.35504 80.229575 
L 116.407036 87.790838 
L 122.459032 95.429298 
L 128.511027 102.321552 
L 134.563023 110.287689 
L 140.615018 117.24104 
L 146.667014 124.751764 
L 152.719009 131.680862 
L 158.771005 138.694489 
L 164.823 145.064042 
L 170.874996 151.971176 
L 176.926992 158.298563 
L 182.978987 164.683846 
L 189.030983 170.311653 
L 195.082978 176.220738 
L 201.134974 181.771761 
L 207.186969 186.44767 
L 213.238965 191.969247 
L 219.29096 196.612704 
L 225.342956 201.282462 
L 231.394951 205.999242 
L 237.446947 210.024934 
L 243.498943 214.14703 
L 249.550938 218.449606 
L 255.602934 223.614362 
L 261.654929 227.714274 
L 267.706925 231.755762 
L 273.75892 236.422267 
L 279.810916 240.558306 
L 285.862911 244.874489 
L 291.914907 248.928617 
L 297.966902 253.100584 
L 304.018898 256.704604 
L 310.070894 261.204781 
L 316.122889 264.846263 
L 322.174885 268.613846 
L 328.22688 273.070862 
L 334.278876 276.518851 
L 340.330871 279.685715 
L 346.382867 282.747583 
L 352.434862 286.427854 
L 358.486858 289.631113 
L 364.538854 292.777995 
L 370.590849 295.397108 
L 376.642845 298.556611 
L 382.69484 300.833096 
L 388.746836 304.353178 
L 394.798831 307.29256 
L 400.850827 310.087219 
L 406.902822 313.38172 
L 412.954818 315.94931 
L 419.006813 319.205248 
L 425.058809 322.069223 
L 431.110805 324.729372 
L 437.1628 327.598113 
L 443.214796 330.967557 
L 449.266791 332.797587 
L 455.318787 334.913252 
L 461.370782 337.387028 
L 467.422778 339.796027 
L 473.474773 341.996967 
L 479.526769 344.451184 
L 485.578764 346.224373 
L 491.63076 348.654077 
L 497.682756 350.279618 
L 503.734751 351.861564 
L 509.786747 353.452088 
L 515.838742 354.853617 
L 521.890738 356.348013 
L 527.942733 357.947743 
L 533.994729 359.415448 
L 540.046724 360.532206 
L 546.09872 361.683054 
L 552.150716 362.697724 
L 558.202711 363.613849 
L 564.254707 364.438993 
L 570.306702 365.030678 
L 576.358698 365.647073 
L 582.410693 366.384795 
L 588.462689 366.958248 
L 594.514684 367.443303 
L 600.56668 367.986489 
L 606.618675 368.534796 
L 612.670671 369.010613 
L 618.722667 369.618385 
L 624.774662 370.266501 
L 630.826658 370.79798 
L 636.878653 371.254705 
L 642.930649 371.892228 
L 648.982644 372.123786 
L 655.03464 372.486306 
L 661.086635 372.673347 
L 667.138631 372.962859 
L 673.190626 373.186258 
L 679.242622 373.532727 
" clip-path="url(#p4604aa6358)" style="fill: none; stroke: #c5b0d5; stroke-width: 1.5; stroke-linecap: square"/>
   </g>
   <g id="line2d_46">
    <path d="M 80.095063 45.38141 
L 86.147058 51.317346 
L 92.199054 57.779653 
L 98.251049 65.564059 
L 104.303045 73.739479 
L 110.35504 81.041949 
L 116.407036 88.631289 
L 122.459032 96.136969 
L 128.511027 103.886247 
L 134.563023 111.464357 
L 140.615018 118.248671 
L 146.667014 126.043831 
L 152.719009 132.7151 
L 158.771005 140.341922 
L 164.823 147.294745 
L 170.874996 153.915206 
L 176.926992 160.045935 
L 182.978987 166.166642 
L 189.030983 172.161591 
L 195.082978 178.042305 
L 201.134974 183.194084 
L 207.186969 188.063787 
L 213.238965 193.509787 
L 219.29096 198.166168 
L 225.342956 203.030724 
L 231.394951 207.231755 
L 237.446947 211.561399 
L 243.498943 215.790166 
L 249.550938 219.906796 
L 255.602934 223.948332 
L 261.654929 227.849556 
L 267.706925 231.974947 
L 273.75892 235.814912 
L 279.810916 240.710646 
L 285.862911 244.554388 
L 291.914907 249.177124 
L 297.966902 253.634888 
L 304.018898 257.735444 
L 310.070894 261.738431 
L 316.122889 266.359642 
L 322.174885 269.749165 
L 328.22688 273.179676 
L 334.278876 276.900108 
L 340.330871 280.757651 
L 346.382867 284.209138 
L 352.434862 287.011515 
L 358.486858 290.60366 
L 364.538854 293.893161 
L 370.590849 296.588195 
L 376.642845 300.300791 
L 382.69484 302.671051 
L 388.746836 305.658034 
L 394.798831 308.701704 
L 400.850827 311.132682 
L 406.902822 313.84892 
L 412.954818 316.233501 
L 419.006813 318.790265 
L 425.058809 321.167256 
L 431.110805 323.780186 
L 437.1628 326.374753 
L 443.214796 328.482211 
L 449.266791 330.884467 
L 455.318787 333.566895 
L 461.370782 335.346777 
L 467.422778 337.219231 
L 473.474773 338.958937 
L 479.526769 341.103517 
L 485.578764 342.633412 
L 491.63076 344.576259 
L 497.682756 346.383646 
L 503.734751 348.011459 
L 509.786747 349.362067 
L 515.838742 350.887101 
L 521.890738 352.039503 
L 527.942733 353.615603 
L 533.994729 354.794223 
L 540.046724 355.480286 
L 546.09872 356.606606 
L 552.150716 357.502027 
L 558.202711 358.320016 
L 564.254707 359.040166 
L 570.306702 359.67386 
L 576.358698 360.333199 
L 582.410693 361.17743 
L 588.462689 361.679326 
L 594.514684 362.086009 
L 600.56668 362.46949 
L 606.618675 362.827273 
L 612.670671 363.327077 
L 618.722667 363.696059 
L 624.774662 364.001884 
L 630.826658 364.096547 
L 636.878653 364.397657 
L 642.930649 364.65727 
L 648.982644 364.971199 
L 655.03464 365.254715 
L 661.086635 365.450184 
L 667.138631 365.692216 
L 673.190626 365.96588 
L 679.242622 366.183635 
" clip-path="url(#p4604aa6358)" style="fill: none; stroke: #8c564b; stroke-width: 1.5; stroke-linecap: square"/>
   </g>
   <g id="line2d_47">
    <path d="M 80.095063 44.48123 
L 86.147058 50.730209 
L 92.199054 58.891111 
L 98.251049 66.087517 
L 104.303045 74.052884 
L 110.35504 82.59061 
L 116.407036 90.989921 
L 122.459032 98.789841 
L 128.511027 107.400097 
L 134.563023 114.058636 
L 140.615018 122.316389 
L 146.667014 130.028569 
L 152.719009 137.777081 
L 158.771005 145.447487 
L 164.823 152.154214 
L 170.874996 159.584497 
L 176.926992 166.296876 
L 182.978987 172.906812 
L 189.030983 179.132837 
L 195.082978 184.922184 
L 201.134974 190.139858 
L 207.186969 195.883428 
L 213.238965 201.050307 
L 219.29096 205.915178 
L 225.342956 209.893207 
L 231.394951 214.261332 
L 237.446947 218.759161 
L 243.498943 222.353344 
L 249.550938 227.019054 
L 255.602934 230.792472 
L 261.654929 235.340104 
L 267.706925 240.157448 
L 273.75892 244.298545 
L 279.810916 248.525917 
L 285.862911 252.877597 
L 291.914907 256.86115 
L 297.966902 261.390364 
L 304.018898 265.119781 
L 310.070894 269.175534 
L 316.122889 273.190093 
L 322.174885 276.64604 
L 328.22688 280.608252 
L 334.278876 283.728434 
L 340.330871 287.009355 
L 346.382867 290.00621 
L 352.434862 293.103811 
L 358.486858 296.165601 
L 364.538854 299.044644 
L 370.590849 301.700445 
L 376.642845 304.287148 
L 382.69484 307.155534 
L 388.746836 309.896686 
L 394.798831 312.865262 
L 400.850827 315.066048 
L 406.902822 317.200623 
L 412.954818 319.977373 
L 419.006813 322.800087 
L 425.058809 325.720361 
L 431.110805 328.054476 
L 437.1628 330.448907 
L 443.214796 332.004445 
L 449.266791 334.629378 
L 455.318787 336.316711 
L 461.370782 338.069345 
L 467.422778 340.247522 
L 473.474773 341.960924 
L 479.526769 343.731047 
L 485.578764 345.443883 
L 491.63076 347.174646 
L 497.682756 348.364278 
L 503.734751 350.095152 
L 509.786747 351.266767 
L 515.838742 352.582941 
L 521.890738 353.55281 
L 527.942733 355.070565 
L 533.994729 356.399886 
L 540.046724 357.762927 
L 546.09872 359.147586 
L 552.150716 360.333605 
L 558.202711 361.161803 
L 564.254707 362.165208 
L 570.306702 363.071874 
L 576.358698 363.815925 
L 582.410693 364.381302 
L 588.462689 364.853691 
L 594.514684 365.210286 
L 600.56668 365.393844 
L 606.618675 365.693531 
L 612.670671 365.957078 
L 618.722667 366.458328 
L 624.774662 366.529719 
L 630.826658 366.789285 
L 636.878653 366.990393 
L 642.930649 367.393435 
L 648.982644 367.646283 
L 655.03464 367.862506 
L 661.086635 367.959774 
L 667.138631 368.151534 
L 673.190626 368.282392 
L 679.242622 368.459983 
" clip-path="url(#p4604aa6358)" style="fill: none; stroke: #c49c94; stroke-width: 1.5; stroke-linecap: square"/>
   </g>
   <g id="line2d_48"/>
   <g id="line2d_49"/>
   <g id="line2d_50"/>
   <g id="line2d_51"/>
   <g id="line2d_52"/>
   <g id="line2d_53"/>
   <g id="line2d_54"/>
   <g id="line2d_55"/>
   <g id="line2d_56"/>
   <g id="line2d_57"/>
   <g id="line2d_58"/>
   <g id="line2d_59"/>
   <g id="patch_3">
    <path d="M 50.137685 390.04 
L 50.137685 26.88 
" style="fill: none; stroke: #000000; stroke-width: 0.8; stroke-linejoin: miter; stroke-linecap: square"/>
   </g>
   <g id="patch_4">
    <path d="M 709.2 390.04 
L 709.2 26.88 
" style="fill: none; stroke: #000000; stroke-width: 0.8; stroke-linejoin: miter; stroke-linecap: square"/>
   </g>
   <g id="patch_5">
    <path d="M 50.137685 390.04 
L 709.2 390.04 
" style="fill: none; stroke: #000000; stroke-width: 0.8; stroke-linejoin: miter; stroke-linecap: square"/>
   </g>
   <g id="patch_6">
    <path d="M 50.137685 26.88 
L 709.2 26.88 
" style="fill: none; stroke: #000000; stroke-width: 0.8; stroke-linejoin: miter; stroke-linecap: square"/>
   </g>
   <g id="text_11">
    <!-- Crossover Probability: Fitness over Generations -->
    <g transform="translate(238.156967 20.88) scale(0.12 -0.12)">
     <defs>
      <path id="DejaVuSans-43" d="M 4122 4306 
L 4122 3641 
Q 3803 3938 3442 4084 
Q 3081 4231 2675 4231 
Q 1875 4231 1450 3742 
Q 1025 3253 1025 2328 
Q 1025 1406 1450 917 
Q 1875 428 2675 428 
Q 3081 428 3442 575 
Q 3803 722 4122 1019 
L 4122 359 
Q 3791 134 3420 21 
Q 3050 -91 2638 -91 
Q 1578 -91 968 557 
Q 359 1206 359 2328 
Q 359 3453 968 4101 
Q 1578 4750 2638 4750 
Q 3056 4750 3426 4639 
Q 3797 4528 4122 4306 
z
" transform="scale(0.015625)"/>
      <path id="DejaVuSans-76" d="M 191 3500 
L 800 3500 
L 1894 563 
L 2988 3500 
L 3597 3500 
L 2284 0 
L 1503 0 
L 191 3500 
z
" transform="scale(0.015625)"/>
      <path id="DejaVuSans-50" d="M 1259 4147 
L 1259 2394 
L 2053 2394 
Q 2494 2394 2734 2622 
Q 2975 2850 2975 3272 
Q 2975 3691 2734 3919 
Q 2494 4147 2053 4147 
L 1259 4147 
z
M 628 4666 
L 2053 4666 
Q 2838 4666 3239 4311 
Q 3641 3956 3641 3272 
Q 3641 2581 3239 2228 
Q 2838 1875 2053 1875 
L 1259 1875 
L 1259 0 
L 628 0 
L 628 4666 
z
" transform="scale(0.015625)"/>
      <path id="DejaVuSans-62" d="M 3116 1747 
Q 3116 2381 2855 2742 
Q 2594 3103 2138 3103 
Q 1681 3103 1420 2742 
Q 1159 2381 1159 1747 
Q 1159 1113 1420 752 
Q 1681 391 2138 391 
Q 2594 391 2855 752 
Q 3116 1113 3116 1747 
z
M 1159 2969 
Q 1341 3281 1617 3432 
Q 1894 3584 2278 3584 
Q 2916 3584 3314 3078 
Q 3713 2572 3713 1747 
Q 3713 922 3314 415 
Q 2916 -91 2278 -91 
Q 1894 -91 1617 61 
Q 1341 213 1159 525 
L 1159 0 
L 581 0 
L 581 4863 
L 1159 4863 
L 1159 2969 
z
" transform="scale(0.015625)"/>
      <path id="DejaVuSans-79" d="M 2059 -325 
Q 1816 -950 1584 -1140 
Q 1353 -1331 966 -1331 
L 506 -1331 
L 506 -850 
L 844 -850 
Q 1081 -850 1212 -737 
Q 1344 -625 1503 -206 
L 1606 56 
L 191 3500 
L 800 3500 
L 1894 763 
L 2988 3500 
L 3597 3500 
L 2059 -325 
z
" transform="scale(0.015625)"/>
      <path id="DejaVuSans-3a" d="M 750 794 
L 1409 794 
L 1409 0 
L 750 0 
L 750 794 
z
M 750 3309 
L 1409 3309 
L 1409 2516 
L 750 2516 
L 750 3309 
z
" transform="scale(0.015625)"/>
     </defs>
     <use xlink:href="#DejaVuSans-43"/>
     <use xlink:href="#DejaVuSans-72" x="69.824219"/>
     <use xlink:href="#DejaVuSans-6f" x="108.6875"/>
     <use xlink:href="#DejaVuSans-73" x="169.869141"/>
     <use xlink:href="#DejaVuSans-73" x="221.96875"/>
     <use xlink:href="#DejaVuSans-6f" x="274.068359"/>
     <use xlink:href="#DejaVuSans-76" x="335.25"/>
     <use xlink:href="#DejaVuSans-65" x="394.429688"/>
     <use xlink:href="#DejaVuSans-72" x="455.953125"/>
     <use xlink:href="#DejaVuSans-20" x="497.066406"/>
     <use xlink:href="#DejaVuSans-50" x="528.853516"/>
     <use xlink:href="#DejaVuSans-72" x="587.40625"/>
     <use xlink:href="#DejaVuSans-6f" x="626.269531"/>
     <use xlink:href="#DejaVuSans-62" x="687.451172"/>
     <use xlink:href="#DejaVuSans-61" x="750.927734"/>
     <use xlink:href="#DejaVuSans-62" x="812.207031"/>
     <use xlink:href="#DejaVuSans-69" x="875.683594"/>
     <use xlink:href="#DejaVuSans-6c" x="903.466797"/>
     <use xlink:href="#DejaVuSans-69" x="931.25"/>
     <use xlink:href="#DejaVuSans-74" x="959.033203"/>
     <use xlink:href="#DejaVuSans-79" x="998.242188"/>
     <use xlink:href="#DejaVuSans-3a" x="1050.171875"/>
     <use xlink:href="#DejaVuSans-20" x="1083.863281"/>
     <use xlink:href="#DejaVuSans-46" x="1115.650391"/>
     <use xlink:href="#DejaVuSans-69" x="1165.919922"/>
     <use xlink:href="#DejaVuSans-74" x="1193.703125"/>
     <use xlink:href="#DejaVuSans-6e" x="1232.912109"/>
     <use xlink:href="#DejaVuSans-65" x="1296.291016"/>
     <use xlink:href="#DejaVuSans-73" x="1357.814453"/>
     <use xlink:href="#DejaVuSans-73" x="1409.914062"/>
     <use xlink:href="#DejaVuSans-20" x="1462.013672"/>
     <use xlink:href="#DejaVuSans-6f" x="1493.800781"/>
     <use xlink:href="#DejaVuSans-76" x="1554.982422"/>
     <use xlink:href="#DejaVuSans-65" x="1614.162109"/>
     <use xlink:href="#DejaVuSans-72" x="1675.685547"/>
     <use xlink:href="#DejaVuSans-20" x="1716.798828"/>
     <use xlink:href="#DejaVuSans-47" x="1748.585938"/>
     <use xlink:href="#DejaVuSans-65" x="1826.076172"/>
     <use xlink:href="#DejaVuSans-6e" x="1887.599609"/>
     <use xlink:href="#DejaVuSans-65" x="1950.978516"/>
     <use xlink:href="#DejaVuSans-72" x="2012.501953"/>
     <use xlink:href="#DejaVuSans-61" x="2053.615234"/>
     <use xlink:href="#DejaVuSans-74" x="2114.894531"/>
     <use xlink:href="#DejaVuSans-69" x="2154.103516"/>
     <use xlink:href="#DejaVuSans-6f" x="2181.886719"/>
     <use xlink:href="#DejaVuSans-6e" x="2243.068359"/>
     <use xlink:href="#DejaVuSans-73" x="2306.447266"/>
    </g>
   </g>
   <g id="legend_1">
    <g id="patch_7">
     <path d="M 627.585938 225.695625 
L 702.2 225.695625 
Q 704.2 225.695625 704.2 223.695625 
L 704.2 33.88 
Q 704.2 31.88 702.2 31.88 
L 627.585938 31.88 
Q 625.585938 31.88 625.585938 33.88 
L 625.585938 223.695625 
Q 625.585938 225.695625 627.585938 225.695625 
z
" style="fill: #ffffff; opacity: 0.8; stroke: #cccccc; stroke-linejoin: miter"/>
    </g>
    <g id="text_12">
     <!-- XO probability -->
     <g transform="translate(629.585938 43.478437) scale(0.1 -0.1)">
      <defs>
       <path id="DejaVuSans-58" d="M 403 4666 
L 1081 4666 
L 2241 2931 
L 3406 4666 
L 4084 4666 
L 2584 2425 
L 4184 0 
L 3506 0 
L 2194 1984 
L 872 0 
L 191 0 
L 1856 2491 
L 403 4666 
z
" transform="scale(0.015625)"/>
       <path id="DejaVuSans-4f" d="M 2522 4238 
Q 1834 4238 1429 3725 
Q 1025 3213 1025 2328 
Q 1025 1447 1429 934 
Q 1834 422 2522 422 
Q 3209 422 3611 934 
Q 4013 1447 4013 2328 
Q 4013 3213 3611 3725 
Q 3209 4238 2522 4238 
z
M 2522 4750 
Q 3503 4750 4090 4092 
Q 4678 3434 4678 2328 
Q 4678 1225 4090 567 
Q 3503 -91 2522 -91 
Q 1538 -91 948 565 
Q 359 1222 359 2328 
Q 359 3434 948 4092 
Q 1538 4750 2522 4750 
z
" transform="scale(0.015625)"/>
       <path id="DejaVuSans-70" d="M 1159 525 
L 1159 -1331 
L 581 -1331 
L 581 3500 
L 1159 3500 
L 1159 2969 
Q 1341 3281 1617 3432 
Q 1894 3584 2278 3584 
Q 2916 3584 3314 3078 
Q 3713 2572 3713 1747 
Q 3713 922 3314 415 
Q 2916 -91 2278 -91 
Q 1894 -91 1617 61 
Q 1341 213 1159 525 
z
M 3116 1747 
Q 3116 2381 2855 2742 
Q 2594 3103 2138 3103 
Q 1681 3103 1420 2742 
Q 1159 2381 1159 1747 
Q 1159 1113 1420 752 
Q 1681 391 2138 391 
Q 2594 391 2855 752 
Q 3116 1113 3116 1747 
z
" transform="scale(0.015625)"/>
      </defs>
      <use xlink:href="#DejaVuSans-58"/>
      <use xlink:href="#DejaVuSans-4f" x="62.130859"/>
      <use xlink:href="#DejaVuSans-20" x="140.841797"/>
      <use xlink:href="#DejaVuSans-70" x="172.628906"/>
      <use xlink:href="#DejaVuSans-72" x="236.105469"/>
      <use xlink:href="#DejaVuSans-6f" x="274.96875"/>
      <use xlink:href="#DejaVuSans-62" x="336.150391"/>
      <use xlink:href="#DejaVuSans-61" x="399.626953"/>
      <use xlink:href="#DejaVuSans-62" x="460.90625"/>
      <use xlink:href="#DejaVuSans-69" x="524.382812"/>
      <use xlink:href="#DejaVuSans-6c" x="552.166016"/>
      <use xlink:href="#DejaVuSans-69" x="579.949219"/>
      <use xlink:href="#DejaVuSans-74" x="607.732422"/>
      <use xlink:href="#DejaVuSans-79" x="646.941406"/>
     </g>
    </g>
    <g id="line2d_60">
     <path d="M 639.760156 54.656562 
L 649.760156 54.656562 
L 659.760156 54.656562 
" style="fill: none; stroke: #1f77b4; stroke-width: 1.5; stroke-linecap: square"/>
    </g>
    <g id="text_13">
     <!-- 0.4 -->
     <g transform="translate(667.760156 58.156562) scale(0.1 -0.1)">
      <defs>
       <path id="DejaVuSans-2e" d="M 684 794 
L 1344 794 
L 1344 0 
L 684 0 
L 684 794 
z
" transform="scale(0.015625)"/>
      </defs>
      <use xlink:href="#DejaVuSans-30"/>
      <use xlink:href="#DejaVuSans-2e" x="63.623047"/>
      <use xlink:href="#DejaVuSans-34" x="95.410156"/>
     </g>
    </g>
    <g id="line2d_61">
     <path d="M 639.760156 69.334687 
L 649.760156 69.334687 
L 659.760156 69.334687 
" style="fill: none; stroke: #aec7e8; stroke-width: 1.5; stroke-linecap: square"/>
    </g>
    <g id="text_14">
     <!-- 0.45 -->
     <g transform="translate(667.760156 72.834687) scale(0.1 -0.1)">
      <defs>
       <path id="DejaVuSans-35" d="M 691 4666 
L 3169 4666 
L 3169 4134 
L 1269 4134 
L 1269 2991 
Q 1406 3038 1543 3061 
Q 1681 3084 1819 3084 
Q 2600 3084 3056 2656 
Q 3513 2228 3513 1497 
Q 3513 744 3044 326 
Q 2575 -91 1722 -91 
Q 1428 -91 1123 -41 
Q 819 9 494 109 
L 494 744 
Q 775 591 1075 516 
Q 1375 441 1709 441 
Q 2250 441 2565 725 
Q 2881 1009 2881 1497 
Q 2881 1984 2565 2268 
Q 2250 2553 1709 2553 
Q 1456 2553 1204 2497 
Q 953 2441 691 2322 
L 691 4666 
z
" transform="scale(0.015625)"/>
      </defs>
      <use xlink:href="#DejaVuSans-30"/>
      <use xlink:href="#DejaVuSans-2e" x="63.623047"/>
      <use xlink:href="#DejaVuSans-34" x="95.410156"/>
      <use xlink:href="#DejaVuSans-35" x="159.033203"/>
     </g>
    </g>
    <g id="line2d_62">
     <path d="M 639.760156 84.012812 
L 649.760156 84.012812 
L 659.760156 84.012812 
" style="fill: none; stroke: #ff7f0e; stroke-width: 1.5; stroke-linecap: square"/>
    </g>
    <g id="text_15">
     <!-- 0.5 -->
     <g transform="translate(667.760156 87.512812) scale(0.1 -0.1)">
      <use xlink:href="#DejaVuSans-30"/>
      <use xlink:href="#DejaVuSans-2e" x="63.623047"/>
      <use xlink:href="#DejaVuSans-35" x="95.410156"/>
     </g>
    </g>
    <g id="line2d_63">
     <path d="M 639.760156 98.690937 
L 649.760156 98.690937 
L 659.760156 98.690937 
" style="fill: none; stroke: #ffbb78; stroke-width: 1.5; stroke-linecap: square"/>
    </g>
    <g id="text_16">
     <!-- 0.55 -->
     <g transform="translate(667.760156 102.190937) scale(0.1 -0.1)">
      <use xlink:href="#DejaVuSans-30"/>
      <use xlink:href="#DejaVuSans-2e" x="63.623047"/>
      <use xlink:href="#DejaVuSans-35" x="95.410156"/>
      <use xlink:href="#DejaVuSans-35" x="159.033203"/>
     </g>
    </g>
    <g id="line2d_64">
     <path d="M 639.760156 113.369062 
L 649.760156 113.369062 
L 659.760156 113.369062 
" style="fill: none; stroke: #2ca02c; stroke-width: 1.5; stroke-linecap: square"/>
    </g>
    <g id="text_17">
     <!-- 0.6 -->
     <g transform="translate(667.760156 116.869062) scale(0.1 -0.1)">
      <use xlink:href="#DejaVuSans-30"/>
      <use xlink:href="#DejaVuSans-2e" x="63.623047"/>
      <use xlink:href="#DejaVuSans-36" x="95.410156"/>
     </g>
    </g>
    <g id="line2d_65">
     <path d="M 639.760156 128.047187 
L 649.760156 128.047187 
L 659.760156 128.047187 
" style="fill: none; stroke: #98df8a; stroke-width: 1.5; stroke-linecap: square"/>
    </g>
    <g id="text_18">
     <!-- 0.65 -->
     <g transform="translate(667.760156 131.547187) scale(0.1 -0.1)">
      <use xlink:href="#DejaVuSans-30"/>
      <use xlink:href="#DejaVuSans-2e" x="63.623047"/>
      <use xlink:href="#DejaVuSans-36" x="95.410156"/>
      <use xlink:href="#DejaVuSans-35" x="159.033203"/>
     </g>
    </g>
    <g id="line2d_66">
     <path d="M 639.760156 142.725312 
L 649.760156 142.725312 
L 659.760156 142.725312 
" style="fill: none; stroke: #d62728; stroke-width: 1.5; stroke-linecap: square"/>
    </g>
    <g id="text_19">
     <!-- 0.7 -->
     <g transform="translate(667.760156 146.225312) scale(0.1 -0.1)">
      <defs>
       <path id="DejaVuSans-37" d="M 525 4666 
L 3525 4666 
L 3525 4397 
L 1831 0 
L 1172 0 
L 2766 4134 
L 525 4134 
L 525 4666 
z
" transform="scale(0.015625)"/>
      </defs>
      <use xlink:href="#DejaVuSans-30"/>
      <use xlink:href="#DejaVuSans-2e" x="63.623047"/>
      <use xlink:href="#DejaVuSans-37" x="95.410156"/>
     </g>
    </g>
    <g id="line2d_67">
     <path d="M 639.760156 157.403437 
L 649.760156 157.403437 
L 659.760156 157.403437 
" style="fill: none; stroke: #ff9896; stroke-width: 1.5; stroke-linecap: square"/>
    </g>
    <g id="text_20">
     <!-- 0.75 -->
     <g transform="translate(667.760156 160.903437) scale(0.1 -0.1)">
      <use xlink:href="#DejaVuSans-30"/>
      <use xlink:href="#DejaVuSans-2e" x="63.623047"/>
      <use xlink:href="#DejaVuSans-37" x="95.410156"/>
      <use xlink:href="#DejaVuSans-35" x="159.033203"/>
     </g>
    </g>
    <g id="line2d_68">
     <path d="M 639.760156 172.081562 
L 649.760156 172.081562 
L 659.760156 172.081562 
" style="fill: none; stroke: #9467bd; stroke-width: 1.5; stroke-linecap: square"/>
    </g>
    <g id="text_21">
     <!-- 0.8 -->
     <g transform="translate(667.760156 175.581562) scale(0.1 -0.1)">
      <use xlink:href="#DejaVuSans-30"/>
      <use xlink:href="#DejaVuSans-2e" x="63.623047"/>
      <use xlink:href="#DejaVuSans-38" x="95.410156"/>
     </g>
    </g>
    <g id="line2d_69">
     <path d="M 639.760156 186.759687 
L 649.760156 186.759687 
L 659.760156 186.759687 
" style="fill: none; stroke: #c5b0d5; stroke-width: 1.5; stroke-linecap: square"/>
    </g>
    <g id="text_22">
     <!-- 0.85 -->
     <g transform="translate(667.760156 190.259687) scale(0.1 -0.1)">
      <use xlink:href="#DejaVuSans-30"/>
      <use xlink:href="#DejaVuSans-2e" x="63.623047"/>
      <use xlink:href="#DejaVuSans-38" x="95.410156"/>
      <use xlink:href="#DejaVuSans-35" x="159.033203"/>
     </g>
    </g>
    <g id="line2d_70">
     <path d="M 639.760156 201.437812 
L 649.760156 201.437812 
L 659.760156 201.437812 
" style="fill: none; stroke: #8c564b; stroke-width: 1.5; stroke-linecap: square"/>
    </g>
    <g id="text_23">
     <!-- 0.9 -->
     <g transform="translate(667.760156 204.937812) scale(0.1 -0.1)">
      <defs>
       <path id="DejaVuSans-39" d="M 703 97 
L 703 672 
Q 941 559 1184 500 
Q 1428 441 1663 441 
Q 2288 441 2617 861 
Q 2947 1281 2994 2138 
Q 2813 1869 2534 1725 
Q 2256 1581 1919 1581 
Q 1219 1581 811 2004 
Q 403 2428 403 3163 
Q 403 3881 828 4315 
Q 1253 4750 1959 4750 
Q 2769 4750 3195 4129 
Q 3622 3509 3622 2328 
Q 3622 1225 3098 567 
Q 2575 -91 1691 -91 
Q 1453 -91 1209 -44 
Q 966 3 703 97 
z
M 1959 2075 
Q 2384 2075 2632 2365 
Q 2881 2656 2881 3163 
Q 2881 3666 2632 3958 
Q 2384 4250 1959 4250 
Q 1534 4250 1286 3958 
Q 1038 3666 1038 3163 
Q 1038 2656 1286 2365 
Q 1534 2075 1959 2075 
z
" transform="scale(0.015625)"/>
      </defs>
      <use xlink:href="#DejaVuSans-30"/>
      <use xlink:href="#DejaVuSans-2e" x="63.623047"/>
      <use xlink:href="#DejaVuSans-39" x="95.410156"/>
     </g>
    </g>
    <g id="line2d_71">
     <path d="M 639.760156 216.115937 
L 649.760156 216.115937 
L 659.760156 216.115937 
" style="fill: none; stroke: #c49c94; stroke-width: 1.5; stroke-linecap: square"/>
    </g>
    <g id="text_24">
     <!-- 0.95 -->
     <g transform="translate(667.760156 219.615937) scale(0.1 -0.1)">
      <use xlink:href="#DejaVuSans-30"/>
      <use xlink:href="#DejaVuSans-2e" x="63.623047"/>
      <use xlink:href="#DejaVuSans-39" x="95.410156"/>
      <use xlink:href="#DejaVuSans-35" x="159.033203"/>
     </g>
    </g>
   </g>
  </g>
 </g>
 <defs>
  <clipPath id="p4604aa6358">
   <rect x="50.137685" y="26.88" width="659.062315" height="363.16"/>
  </clipPath>
 </defs>
</svg>
